<?xml version="1.0" encoding="UTF-8"?>
<svg version="1.0" viewBox="0 0 741 896" xmlns="http://www.w3.org/2000/svg">
<g transform="translate(-48.5 11.5)" stroke-linecap="round" stroke-linejoin="round">
<path d="m779-0.75002v517.5c0 225-190.5 357-355.5 357-177.78 0-358.55-128.49-363.27-348.89-0.0584-2.7552-1.2296-525.62-1.2296-525.62z" fill="#fff" stroke="#000" stroke-width="20"/>
<g transform="translate(24.5 -33.5)">
<g transform="translate(-.5)">
<g stroke="#000" stroke-width="5">
<path d="m385 145v-55c0-12 20-12 20 0v0.99999h54v21h-54v33z" fill="#da121a"/>
<path d="m405 91v34" fill="#da121a"/>
<path d="m405 91h54v42h-54" fill="none"/>
</g>
<path d="m384 183c-30.395 113.1-91.393 198.27-159 267v240h132l-0.65661-135.1c-0.12104-24.903 16.657-34.903 38.657-34.903s38.778 10 38.657 34.903l-0.65661 135.1h132v-240c-67.607-68.73-128.61-153.9-159-267 15-9 14-38-11-38s-26 29-11 38z" fill="#da121a" stroke="#000" stroke-width="8"/>
<path d="m520.5 658.67v28.333m-43-28.333v28.333m-163-28.333v28.333m-43-28.333v28.333m64-170v28.333m63-56.667v28.333m-43-28.333v28.333m64-56.667v28.333m-84-28.333v28.333m42-28.333v28.333m62-55.278v27.492m0 28.333v27.787m-41-84.499v27.833m-43-28.333v28.333m186 170v28.333m-84-28.333v28.333m42-28.333v28.333m21-56.667v28.333m-43-28.333v28.333m64-56.667v28.333m-84-28.333v28.333m42-28.333v28.333m21-56.667v28.333m-43-28.333v28.333m64-56.667v28.333m-84-28.333v28.333m42-28.333v28.333m21-56.667v28.333m-43-28.333v28.333m64-56.667v28.333m-84-28.333v28.333m42-28.333v28.333m21-56.667v28.333m-43-28.333v28.333m-142 170v28.333m-84-28.333v28.333m42-28.333v28.333m21-56.667v28.333m-43-28.333v28.333m64-56.667v28.333m-84-28.333v28.333m42-28.333v28.333m21-56.667v28.333m-43-28.333v28.333m271.52-145.67h-298.57m7.0488 89v28.333m42-28.333v28.333m21-56.667v28.333m-43-28.333v28.333m64-56.667v28.333m-84-28.333v28.333m42-28.333v28.333m21-56.667v28.333m-43-28.333v28.333m161 85h128m-124 28.333h124m-124 28.333h124m-124 28.333h124m-124 28.333h124m-312-226.67h294m-316 28.333h334m-334 28.333h334m-334 28.333h334m-334 28.333h134m-134 28.333h130m-130 28.333h130m-130 28.333h130m-130 28.333h130" fill="none" stroke="#000" stroke-width="5"/>
<path d="m384 183c7.5473 3.1274 14.952 4.2045 22 0" fill="none" stroke="#000" stroke-width="8"/>
<path d="m402.22 184.19c-2.3716 1.7228-5.1023 2.749-5.4579 8.3814m-6.2758-8.1306c9.0619 3.2089 5.4753 10.702 6.1097 16.766m-2.6607 7.9056c2.5824-4.1774 7.5697-3.6371 12.32-3.562m-19-1.025c7.4756-1.085 6.7069 4.7546 7.1761 11.176m-14.966 2.8841c2.6362 0.97155 2.7519 7.539 2.6578 12.409m-0.66835 7.273c1.4012-12.425-0.10405-21.554 17.005-19.847 3.9161 1.8932 4.6211 6.5212 5.2476 9.4998m7.9827-7.3605c-10.422 1.4796-7.9524 8.5085-7.0509 14.862m-18.792 13.947c0.52239-7.4189 5.8272-6.3218 9.236-8.182 8.6306-4.7099 18.446-4.401 17.707 6.447m-25.031 13.213c0.22097-9.8485-4.0858-20.838-14.237-22.288m50.391 1.2835c-9.7295-0.22101-12.505 0.0903-10.763 20.097m21.733 4.7464c-8.2573-0.0839-15.941-0.96174-23.884 0.89856-5.4216 1.2697-4.6627 4.3032-5.8104 7.5246m-30.806 1.395c2.6081-6.0612 2.3212-10.2 13.379-9.126 5.6172 0.54571 13.102-0.35906 15.856 4.0829 1.906 3.0744 1.9945 8.711 1.7215 14.581m-37.758-20.028c8.0586 5.195 7.1281 13.251 7.2971 20.621m15.495 19.932c1.2495-7.7881 7.2064-6.0986 11.576-7.693 4.6225-1.6867 7.8776-4.6881 10.147-3.9644 5.1402 1.6395 4.2943 7.2598 4.6921 15.59m-55.147-7.2662c3.8273-3.833 10.08-9.8981 15.548-10.091 8.9858-0.31641 12.817 8.5004 12.898 16.706m-32.038-14.18c5.0423 3.4165 3.2592 9.419 2.4339 14.231m-10.291 16.46c-0.47631-3.1562-0.61701-6.3499-5.0402-8.8778m5.1786 18.014c-0.0718-8.3226-0.14638-15.109 10.775-14.968 9.23 0.1197 14.75 5.3032 15.261 8.5534m0.22263 6.2059c-0.15022-6.3304-2.6978-13.302 12.788-14.985 10.244-1.113 11.835 3.5367 13.098 6.5219m-0.38248 8.2604c-0.14963-7.9316-0.21489-15.72 13.699-15.683 7.429 0.0195 9.7622 2.8318 11.647 6.6912m11.824-8.2491c-8.5506 2.3268-14.74 6.2888-10.469 17.494m43.342 1.2084c-3.0059 2.9107-5.447 6.2055-3.4396 9.5078m6.1718 19.196c-0.91325-9.2419-2.844-22.203-12.31-21.038-7.4202 0.91256-13.867 6.8853-15.405 14.023m-34.081-4.9555c3.1798-2.8925 5.717-8.3894 17.262-8.0994 4.8526 0.12189 8.6709 2.4888 12.973 3.7912 5.0556 4.6877 3.5265 9.8712 3.5192 19.179m-55.116-13.086c1.1066-6.7168 6.5181-11.524 18.624-8.2101 2.8132 1.1496 3.0698 12.79 2.5791 19.246m-51.764-12.22c4.3108-6.9974 15.79-5.7914 28.571-3.8967 2.4788 2.0038 1.3095 9.7877 1.8718 14.828m-58.148-10.739c3.3751-4.8897 7.0492-9.3894 14.579-8.8584 3.1973 0.22547 7.0898 1.3579 11.95 3.7525 1.505 2.4582 1.2784 8.224 1.5773 14.047m-68.793 10.903c2.7626 3.0816 7.1225 7.9465 7.0278 12.703-0.2534 12.722 8.2501 21.738 26.204 11.699 9.1462 4.6065 18.917 13.65 25.455-0.27203 7.6722 3.2926 14.422 9.9932 25.765-0.27534 6.9714 6.4446 14.826 13.635 28.747-0.29332 8.7679 5.8723 16.659 8.9479 27.714-0.31006 7.6346 3.5812 12.474 11.589 29.889-0.31941 4.9478 3.3875 16.72 8.1261 26.62-0.28448 8.2644 6.8088 16.631 3.7146 25.007-0.26724m-209.04-40.846c2.4141 9.06 9.697 22.004 17.237 20.411 3.5711-0.75455 10.178-1.7198 10.193-14.557 1.5092 13.097 23.634 20.195 27.922 1.6876 4.5717 9.212 20.688 13.487 30.098 1.8191 3.5673 12.707 14.992 15.865 21.32 1.2886 13.508 3.734 23.642 20.315 33.913 2.0496 5.6489 7.7662 21.484 13.657 28.043-2.901 4.6505 4.8814 13.836 9.7884 20.143 5.5313 2.6482 2.4882-4.8437 2.8997-5.5266 7.9129m-171.42-42.943c9.4327 9.9605 18.642 21.619 32.263-0.25601 3.621 15.827 21.956 21.454 26.258-0.20837 0.72043 17.035 21.553 21.179 25.503-0.20237 0.17957 19.399 33.195 12.246 26.701 0.25309 4.5872 9.3189 10.658 14.57 18.964 13.629 6.1823-0.7001 15.378-6.3445 23.015-14.428m-137.31-24.847c9.2417 5.9885 22.817 19.149 27.024 0.20699 1.0713 16.658 23.277 19.633 29.647 0.22708-3.035 16.087 28.258 12.155 26.65 0.20412 0.65237 16.758 19.621 9.5866 40.178 0.30774m-111.67-23.428c13.054 10.292 24.992 16.919 29.588-0.57571 11.806 10.693 23.938 23.542 30.461-0.5927 1.524 13.262 17.676 11.371 38.425-0.74766m-85.056-27.135c8.7738 8.963 14.924 14.948 29.052 4.688 8.4234 4.5829 15.71 8.0114 25.39-0.90748 6.8084 5.2055 15.28 5.0791 20.61 1.4382m-65.79-25.804c3.645 2.796 7.779 4.4997 13.485 2.6932 7.4908 4.5131 19.05 2.6339 23.184-2.8452 5.3906 5.3807 13.699 4.4986 19.051 1.7609m-49.509-20.181c6.6259 2.2718 13.292 3.6734 20.251-1.301 7.2579 5.8836 14.796 6.5152 22.542 3.2412m-38.843-15.664c6.1131 2.5114 11.778 1.5406 18.465-2.072 3.0781 3.2723 10.271 6.7783 15.34 2.3179m-81.991 140.95c3.0206 2.1213 3.9599 7.4857 3.624 14.837m129.68 19.894c2.7519-11.625 19.218-12.979 25.312-6.6851 2.2424 7.8617 1.2104 15.187 1.5433 22.355m-56.983-13.197c4.4583-9.9772 17.935-11.499 26.412-6.7916 5.1074 1.6261 2.6158 13.331 3.9229 19.998m-57.504-14.736c0.68386-16.702 15.294-11.739 26.493-6.1171 0.477 6.5508 1.2696 12.25 0.88944 21.113m-57.543-17.048c2.494-6.5471 7.6352-10.445 13.244-9.0242 7.7424 1.9616 17.039 7.0787 16.834 11.146 0.64521 7.1886 0.13763 10.771 0.0538 15.679m-55.427-16.501c-0.9606-10.755 23.161-17.258 25.298-3.4325-0.0432 8.6407 0.27053 15.576 1.249 20.192m-53.147-12.786c2.05-14.77 10.216-16.36 23.305-10.68 4.6607 3.9903 3.8829 14.316 4.4045 23.127m-33.29-22.909c4.7345 1.2178 6.5725 15.403 8.1266 23.553m-28.584 0.18068c1.2724-0.92587 1.6356-4.8393 1.9519-8.9068m150.77 13.169c8.3642-1.1942 16.596-2.3001 21.85-1.4249m-48.85 1.1067c7.2573-0.96211 14.008-1.363 19.241-0.0845m58.984-1.9527c-6.0275-0.54299-12.452-0.76513-20.578 0.39001m-62.507 28.121c-0.70096-8.4597 1.401-20.424-2.1076-25.373-3.9375-2.194-15.386-1.7009-22.727 2.3834-4.1398 4.7695-1.83 13.99-2.6263 20.913m-44.361-22.386c8.9444-7.0494 17.432-0.89405 21.185 5.775m-24.359 0.30583c-5.3631-5.6239-15.854-12.513-22.934-8.4755-8.1831 4.6666-4.1974 12.88-5.0667 27.803m0.62371-22.581c-4.0289-2.8613-11.161-9.4115-22.772-6.4438-3.7192 0.95058-6.234 4.134-7.8283 8.2643m216.06-8.696c3.3148 8.6717 1.9546 19.506 2.3787 28.178m-31.754-27.248c3.7184 3.2102 2.7683 15.304 2.7044 27.801m-32.313-26.779c4.1628 5.8328 2.6495 11.77 3.7258 27.267m-77.338-26.56c-1.9914 7.5009-1.1638 16.049-0.57238 24.509m-21.738-23.12c-5.0182 4.7643-1.5346 14.848-2.0426 22.434m-43.298-31.11c-5.6228 4.8923-11.534 5.6066-17.537 4.9889m-7.1755-7.1445c11.898 6.7028 8.5141 22.08 9.3163 35.082" fill="none" stroke="#000300" stroke-width="6"/>
<path d="m370 690v-134c0-30 50-30 50 0v134" fill="none" stroke="#000" stroke-width="5"/>
</g>
<g transform="translate(9.5)" stroke="#000" stroke-width="8">
<path d="m320 690h130l30 30v25h-190v-25z" fill="#da121a"/>
<path d="m290 720h190" fill="none"/>
</g>
<g stroke="#000" stroke-width="8">
<path d="m103.5 690v-32h18v-28h20v-185h-18v-35h18v-115h-17v-30l-13-7v-41h28v23h30v-23h30v23h30v-23h28v41l-13 7v30h-17v115h18v35h-18v185h20v28h18v32z" fill="#da121a"/>
<path d="m124.5 265h120" fill="none"/>
<path d="m141.5 295h86" fill="none"/>
<path d="m141.5 410h86" fill="none"/>
<path d="m141.5 445h86" fill="none"/>
<path d="m141.5 630h86" fill="none"/>
<path d="m121.5 658h126" fill="none"/>
<path d="m523.5 690v-32h18v-28h20v-185h-18v-35h18v-115h-17v-30l-13-7v-41h28v23h30v-23h30v23h30v-23h28v41l-13 7v30h-17v115h18v35h-18v185h20v28h18v32z" fill="#da121a"/>
<path d="m544.5 265h120" fill="none"/>
<path d="m561.5 295h86" fill="none"/>
<path d="m561.5 410h86" fill="none"/>
<path d="m561.5 445h86" fill="none"/>
<path d="m561.5 630h86" fill="none"/>
<path d="m541.5 658h126" fill="none"/>
</g>
</g>
</g>
</svg>
