<?xml version="1.0" encoding="UTF-8" standalone="no"?>
<svg
   xmlns:dc="http://purl.org/dc/elements/1.1/"
   xmlns:cc="http://creativecommons.org/ns#"
   xmlns:rdf="http://www.w3.org/1999/02/22-rdf-syntax-ns#"
   xmlns:svg="http://www.w3.org/2000/svg"
   xmlns="http://www.w3.org/2000/svg"
   xmlns:xlink="http://www.w3.org/1999/xlink"
   xmlns:sodipodi="http://sodipodi.sourceforge.net/DTD/sodipodi-0.dtd"
   xmlns:inkscape="http://www.inkscape.org/namespaces/inkscape"
   height="660"
   width="600"
   version="1.0"
   id="svg2"
   sodipodi:version="0.32"
   inkscape:version="0.46"
   sodipodi:docname="A.svg"
   inkscape:export-filename="/Users/olivier/Desktop/Blason Rouge/Blason_Vide_3D.png"
   inkscape:export-xdpi="144"
   inkscape:export-ydpi="144"
   inkscape:output_extension="org.inkscape.output.svg.inkscape">
  <metadata
     id="metadata49">
    <rdf:RDF>
      <cc:Work
         rdf:about="">
        <dc:format>image/svg+xml</dc:format>
        <dc:type
           rdf:resource="http://purl.org/dc/dcmitype/StillImage" />
        <dc:title>Gabarit d'un blason en pointe pour le projet Blasons de Wikipédia</dc:title>
        <dc:date>03-AUG-2006</dc:date>
        <dc:creator>
          <cc:Agent>
            <dc:title>Jérôme BLUM (wagner51)</dc:title>
          </cc:Agent>
        </dc:creator>
        <cc:license
           rdf:resource="http://web.resource.org/cc/PublicDomain" />
        <dc:language>fr</dc:language>
        <dc:subject>
          <rdf:Bag>
            <rdf:li>gabarit modèle blason projet wikipédia</rdf:li>
          </rdf:Bag>
        </dc:subject>
      </cc:Work>
      <cc:License
         rdf:about="http://web.resource.org/cc/PublicDomain">
        <cc:permits
           rdf:resource="http://web.resource.org/cc/Reproduction" />
        <cc:permits
           rdf:resource="http://web.resource.org/cc/Distribution" />
        <cc:permits
           rdf:resource="http://web.resource.org/cc/DerivativeWorks" />
      </cc:License>
    </rdf:RDF>
  </metadata>
  <sodipodi:namedview
     inkscape:window-height="1232"
     inkscape:window-width="2016"
     inkscape:pageshadow="2"
     inkscape:pageopacity="0.0"
     guidetolerance="10.0"
     gridtolerance="10.0"
     objecttolerance="10.0"
     borderopacity="1.0"
     bordercolor="#666666"
     pagecolor="#ffffff"
     id="base"
     showgrid="true"
     height="660px"
     inkscape:zoom="1.5675068"
     inkscape:cx="224.12325"
     inkscape:cy="330.46081"
     inkscape:window-x="2604"
     inkscape:window-y="44"
     inkscape:current-layer="svg2"
     inkscape:window-maximized="0">
    <inkscape:grid
       id="GridFromPre046Settings"
       type="xygrid"
       originx="0px"
       originy="0px"
       spacingx="1px"
       spacingy="1px"
       color="#0000ff"
       empcolor="#0000ff"
       opacity="0.2"
       empopacity="0.4"
       empspacing="50" />
  </sodipodi:namedview>
  <desc
     id="desc4">Flag of Canton of Valais (Wallis)</desc>
  <defs
     id="defs6">
    <linearGradient
       id="linearGradient2893">
      <stop
         style="stop-color:white;stop-opacity:0.3137255;"
         offset="0"
         id="stop2895" />
      <stop
         id="stop2897"
         offset="0.19"
         style="stop-color:white;stop-opacity:0.25098041;" />
      <stop
         style="stop-color:#6b6b6b;stop-opacity:0.1254902;"
         offset="0.60000002"
         id="stop2901" />
      <stop
         style="stop-color:black;stop-opacity:0.1254902;"
         offset="1"
         id="stop2899" />
    </linearGradient>
    <radialGradient
       inkscape:collect="always"
       xlink:href="#linearGradient2893"
       id="radialGradient3163"
       gradientUnits="userSpaceOnUse"
       gradientTransform="matrix(1.353218,0,0,1.348928,-77.62935,-85.74693)"
       cx="221.44487"
       cy="226.33101"
       fx="221.44487"
       fy="226.33101"
       r="300" />
    <g
       id="s">
      <g
         id="c">
        <path
           transform="matrix(0.951057,0.309017,-0.309017,0.951057,0,-1)"
           d="M 0,0 L 0,1 L 0.5,1 L 0,0 z"
           id="t" />
        <use
           height="540"
           width="810"
           y="0"
           x="0"
           id="use2144"
           transform="scale(-1,1)"
           xlink:href="#t" />
      </g>
      <g
         id="a">
        <use
           height="540"
           width="810"
           y="0"
           x="0"
           id="use2147"
           transform="matrix(0.309017,0.951057,-0.951057,0.309017,0,0)"
           xlink:href="#c" />
        <use
           height="540"
           width="810"
           y="0"
           x="0"
           id="use2149"
           transform="matrix(-0.809017,0.587785,-0.587785,-0.809017,0,0)"
           xlink:href="#c" />
      </g>
      <use
         height="540"
         width="810"
         y="0"
         x="0"
         id="use2151"
         transform="scale(-1,1)"
         xlink:href="#a" />
    </g>
    <radialGradient
       r="300"
       fy="226.33101"
       fx="221.44487"
       cy="226.33101"
       cx="221.44487"
       gradientTransform="matrix(1.353218,0,0,1.348928,-77.62935,-85.74693)"
       gradientUnits="userSpaceOnUse"
       id="radialGradient3163-7"
       xlink:href="#linearGradient2893-3"
       inkscape:collect="always" />
    <linearGradient
       id="linearGradient2893-3">
      <stop
         id="stop2895-9"
         offset="0"
         style="stop-color:white;stop-opacity:0.3137255;" />
      <stop
         style="stop-color:white;stop-opacity:0.25098041;"
         offset="0.19"
         id="stop2897-05" />
      <stop
         id="stop2901-2"
         offset="0.60000002"
         style="stop-color:#6b6b6b;stop-opacity:0.1254902;" />
      <stop
         id="stop2899-2"
         offset="1"
         style="stop-color:black;stop-opacity:0.1254902;" />
    </linearGradient>
  </defs>
  <g
     inkscape:groupmode="layer"
     id="layer3"
     inkscape:label="Fond écu"
     style="display:inline">
    <path
       id="path2855"
       style="fill:#ffffff;fill-opacity:1;fill-rule:evenodd;stroke:none;stroke-width:1px;stroke-linecap:butt;stroke-linejoin:miter;stroke-opacity:1"
       d="M 300,658.5 C 300,658.5 598.50001,546.17969 598.50001,260.72817 C 598.50001,-24.723354 598.50001,2.1764765 598.50001,2.1764765 L 1.5,2.1764765 L 1.5,260.72817 C 1.5,546.17969 300,658.5 300,658.5 z"
       sodipodi:nodetypes="cccccc" />
  </g>
  <g
     inkscape:groupmode="layer"
     id="layer2"
     inkscape:label="Reflet final"
     style="display:inline"
     sodipodi:insensitive="true">
    <path
       sodipodi:nodetypes="cccccc"
       d="M 300.00001,658.5 C 300.00001,658.5 598.50001,546.17969 598.50001,260.72817 C 598.50001,-24.723334 598.50001,2.1764865 598.50001,2.1764865 L 1.5,2.1764865 L 1.5,260.72817 C 1.5,546.17969 300.00001,658.5 300.00001,658.5 z"
       style="opacity:1;fill:url(#radialGradient3163);fill-opacity:1;fill-rule:evenodd;stroke:none;stroke-width:1px;stroke-linecap:butt;stroke-linejoin:miter;stroke-opacity:1"
       id="path2875"
       inkscape:export-xdpi="144"
       inkscape:export-ydpi="144" />
  </g>
  <g
     inkscape:groupmode="layer"
     id="layer1"
     inkscape:label="Contour final"
     style="display:inline">
    <path
       sodipodi:nodetypes="cccccc"
       d="M 299.99999,658.50028 C 299.99999,658.50028 1.5,546.17992 1.5,260.72828 C 1.5,-24.723336 1.5,2.1764957 1.5,2.1764957 L 598.49999,2.1764957 L 598.49999,260.72828 C 598.49999,546.17992 299.99999,658.50028 299.99999,658.50028 z"
       style="opacity:1;fill:none;fill-opacity:1;fill-rule:evenodd;stroke:#000000;stroke-width:3.00000048;stroke-linecap:butt;stroke-linejoin:miter;stroke-miterlimit:4;stroke-dasharray:none;stroke-opacity:1"
       id="path1411"
       inkscape:export-xdpi="144"
       inkscape:export-ydpi="144" />
  </g>
  <path
     style="fill:#000000;fill-opacity:1;fill-rule:evenodd;stroke:#000000;stroke-width:3;stroke-linecap:butt;stroke-linejoin:miter;stroke-miterlimit:4;stroke-dasharray:none;stroke-opacity:1;display:inline"
     d="M 1.5,2.1874978 L 1.5,260.71875 C 1.5,546.17028 299.99999,658.5 299.99999,658.5 C 299.99999,658.49999 598.5,546.17027 598.5,260.71875 C 598.5,-24.732772 598.5,2.1874978 598.5,2.1874978 L 1.5,2.1874978 z M 99.96875,110.34375 L 500,110.34375 L 500,283.59375 C 500,474.87062 299.99999,550.125 299.99999,550.125 C 299.99999,550.125 99.96875,474.87062 99.96875,283.59375 C 99.96874,92.316908 99.96875,110.34375 99.96875,110.34375 z"
     id="path4305" />
  <path
     sodipodi:type="arc"
     style="fill:#fcef3c;fill-opacity:1;stroke:#000000;stroke-width:3;stroke-miterlimit:4;stroke-dasharray:none;stroke-opacity:1"
     id="path2106"
     sodipodi:cx="972.55243"
     sodipodi:cy="88.141418"
     sodipodi:rx="39.844906"
     sodipodi:ry="40.967297"
     d="M 960.24667,127.10597 A 39.844906,40.967297 0 1 1 960.31175,127.12763"
     sodipodi:start="1.884771"
     sodipodi:end="8.1662395"
     sodipodi:open="true"
     transform="translate(-670.7256,-29.19421)" />
  <path
     sodipodi:type="arc"
     style="fill:#fcef3c;fill-opacity:1;stroke:#000000;stroke-width:3;stroke-miterlimit:4;stroke-dasharray:none;stroke-opacity:1"
     id="path2993"
     sodipodi:cx="972.55243"
     sodipodi:cy="88.141418"
     sodipodi:rx="39.844906"
     sodipodi:ry="40.967297"
     d="M 960.24667,127.10597 A 39.844906,40.967297 0 1 1 960.31175,127.12763"
     sodipodi:start="1.884771"
     sodipodi:end="8.1662395"
     sodipodi:open="true"
     transform="translate(-914.7442,-26.87805)" />
  <path
     sodipodi:type="arc"
     style="fill:#fcef3c;fill-opacity:1;stroke:#000000;stroke-width:2.5;stroke-miterlimit:4;stroke-dasharray:none;stroke-opacity:1"
     id="path2995"
     sodipodi:cx="972.55243"
     sodipodi:cy="88.141418"
     sodipodi:rx="39.844906"
     sodipodi:ry="40.967297"
     d="M 960.24667,127.10597 A 39.844906,40.967297 0 1 1 960.31175,127.12763"
     sodipodi:start="1.884771"
     sodipodi:end="8.1662395"
     sodipodi:open="true"
     transform="translate(-428.3606,-25.75565)" />
  <path
     sodipodi:type="arc"
     style="fill:#fcef3c;fill-opacity:1;stroke:#000000;stroke-width:2.5;stroke-miterlimit:4;stroke-dasharray:none;stroke-opacity:1"
     id="path2999"
     sodipodi:cx="972.55243"
     sodipodi:cy="88.141418"
     sodipodi:rx="39.844906"
     sodipodi:ry="40.967297"
     d="M 960.24667,127.10597 A 39.844906,40.967297 0 1 1 960.31175,127.12763"
     sodipodi:start="1.884771"
     sodipodi:end="8.1662395"
     sodipodi:open="true"
     transform="matrix(0.7525606,0,0,0.7276901,-431.90464,538.34136)" />
  <g
     id="g2030"
     style="fill:#e20909;stroke:#000000;stroke-width:4.39327145;stroke-miterlimit:4;stroke-dasharray:none;stroke-opacity:1"
     transform="matrix(0.698791,0,0,0.667297,-305.9675,157.6606)">
    <path
       id="path8066"
       d="M 691.9852,447.17581 C 689.31044,443.79874 686.9563,435.86308 691.25123,430.13028 C 694.41362,425.90928 698.69545,424.6337 702.25347,424.17662 C 701.0594,429.05801 702.04269,432.15396 702.87634,434.97892 C 697.15143,436.18664 692.25499,441.58627 691.9852,447.17581"
       style="fill:#e20909;fill-opacity:1;stroke:#000000;stroke-width:4.39327145;stroke-miterlimit:4;stroke-dasharray:none;stroke-opacity:1;display:inline" />
    <path
       id="path6078"
       d="M 698.33517,392.16213 C 698.18151,390.89583 698.29102,388.93733 700.01651,386.3632 C 703.79529,380.72585 711.17562,381.30833 716.61452,384.37745 C 715.18188,385.83555 713.04562,388.88508 712.68801,391.16383 C 707.92761,387.90632 702.97279,389.11614 698.33517,392.16213"
       style="fill:#e20909;fill-opacity:1;stroke:#000000;stroke-width:4.39327145;stroke-miterlimit:4;stroke-dasharray:none;stroke-opacity:1;display:inline" />
    <path
       id="path6076"
       d="M 684.7586,420.45171 C 682.08382,417.07464 679.72969,409.13898 684.02463,403.40618 C 687.18701,399.18518 691.46886,397.9096 695.02686,397.45253 C 693.8328,402.33391 694.81608,405.42987 695.64973,408.25482 C 689.92482,409.46255 685.02839,414.86217 684.7586,420.45171"
       style="fill:#e20909;fill-opacity:1;stroke:#000000;stroke-width:4.39327145;stroke-miterlimit:4;stroke-dasharray:none;stroke-opacity:1;display:inline" />
    <path
       id="path6072"
       d="M 730.01805,438.40415 C 725.82917,438.40415 723.14584,444.01053 723.1349,443.96591 C 725.4093,446.48632 726.47689,448.78496 724.69913,454.19624 C 730.68326,454.00816 737.18996,449.07349 736.57654,443.96591 C 736.57654,443.96591 734.24407,438.40415 730.01805,438.40415"
       style="fill:#e20909;fill-opacity:1;stroke:#000000;stroke-width:4.39327145;stroke-miterlimit:4;stroke-dasharray:none;stroke-opacity:1;display:inline" />
    <path
       sodipodi:nodetypes="cccscccsccccssccsssccssccssccssssccccccccssccsssssss"
       id="path7095"
       d="M 863.66884,245.9186 C 860.74924,246.10671 856.86358,247.69093 850.21974,251.06558 C 824.91907,261.81691 797.63172,261.31175 772.63471,273.13521 C 757.01001,281.09862 747.92703,289.69681 740.25457,299.06067 C 725.8831,316.60033 705.69766,321.81025 682.56228,324.62515 C 657.94787,328.2364 651.66592,301.65111 654.39139,304.56298 C 647.86564,309.99585 649.18613,323.50909 656.80134,329.51804 C 695.71981,358.15202 763.52648,292.2587 738.04018,315.40284 C 721.91013,330.05059 723.47989,340.12753 738.04018,347.53248 C 741.66659,350.3122 751.6136,355.4066 752.2667,355.64287 C 723.22472,328.03796 750.05401,323.35706 772.24601,288.65414 C 750.34091,320.42679 769.45302,328.25674 777.2214,357.5145 C 779.0153,368.35865 768.70472,379.7401 760.3517,379.7401 C 757.79677,379.7401 751.26659,383.06923 745.89197,387.14863 C 740.51735,391.22804 734.25895,394.59697 731.97642,394.63515 C 718.52256,398.95237 721.90924,375.13692 712.46355,383.48336 C 710.77274,385.52703 707.82118,387.22662 705.85561,387.22662 C 703.89003,387.22662 702.98876,388.34959 703.83436,389.72212 C 704.67995,391.09465 706.90867,392.21763 708.80974,392.21763 C 710.71087,392.21763 715.19477,394.90741 718.76053,398.22244 C 731.50473,412.82437 705.31563,402.2838 699.48088,397.75453 C 695.53766,394.30422 695.12744,394.3285 695.12741,398.4564 C 695.12739,400.96295 693.2093,405.05349 690.92943,407.58059 C 686.97904,411.95942 687.18368,412.23575 695.28289,412.10369 C 712.43763,416.23391 726.97396,418.23849 705.62238,422.08572 C 694.82895,421.37469 694.07241,421.88176 698.548,426.84278 C 700.86946,429.41604 702.44547,432.92535 702.04632,434.64123 C 700.8376,439.83742 707.76981,440.52519 709.12071,435.34309 C 716.8104,430.20667 740.78092,420.30969 729.2555,432.30169 C 727.00991,434.62952 723.58044,434.66072 723.73592,437.05875 C 723.8914,439.45678 726.39791,439.97602 729.87742,441.8938 C 737.37218,446.02461 739.90598,446.59004 739.90595,439.47627 C 739.90593,436.14302 741.65144,434.54613 745.50327,434.48526 C 748.58177,434.43663 753.89926,432.85949 757.31983,430.89797 C 788.19119,419.10885 734.79436,440.52875 765.09388,461.07799 C 760.02796,438.47465 779.53125,444.4564 789.81536,417.17268 C 795.8986,423.18332 788.99114,431.56734 789.03796,438.38449 C 794.63985,435.26091 802.96682,427.69491 803.34221,420.29207 C 803.22138,396.62589 803.43995,436.37483 817.72421,429.65022 C 811.61039,422.72035 810.0977,413.64744 815.85843,402.74554 C 819.24515,397.64146 816.45833,393.59487 822.54412,391.74972 C 827.00445,391.11461 828.2543,389.27798 828.37465,383.01546 C 828.45826,378.66459 830.03136,373.30983 831.87297,371.08381 C 834.73811,367.6207 834.34906,365.84657 829.2298,358.99621 C 810.68793,328.93794 838.25401,306.74531 866.85621,304.87492 C 879.36064,304.87492 879.81307,304.64 875.8741,300.27384 C 870.75,294.59401 870.5873,290.26224 875.4854,284.8329 C 880.02508,279.80088 876.11257,271.73591 867.71135,258.08419 C 862.83295,250.15696 861.60873,252.02089 861.49212,249.97379 C 861.37551,247.9267 865.43934,250.10334 867.24491,249.89581 C 872.50547,249.2912 872.69277,249.59495 868.25553,247.01038 C 866.84006,246.18592 865.4206,245.80575 863.66884,245.9186 z"
       style="fill:#e20909;fill-opacity:1;stroke:#000000;stroke-width:4.39327145;stroke-miterlimit:4;stroke-dasharray:none;stroke-opacity:1;display:inline" />
    <path
       sodipodi:nodetypes="cscsz"
       id="path3450"
       d="M 848.77519,262.9735 C 857.34459,275.45957 851.01941,292.30327 865.32176,297.42836 C 871.37034,299.59577 871.85514,288.74511 870.34622,275.30786 C 868.39386,271.21041 862.59042,264.25391 859.48271,262.78865 C 856.37501,261.32343 840.20576,250.48744 848.77519,262.9735 z"
       style="fill:#e20909;fill-opacity:1;stroke:#000000;stroke-width:4.39327145;stroke-miterlimit:4;stroke-dasharray:none;stroke-opacity:1;display:inline" />
    <path
       id="path6100"
       d="M 867.66555,70.826831 C 865.3749,70.459671 862.67879,70.163701 856.44711,70.163701 C 848.73518,70.163701 841.69656,72.867181 836.33926,74.580181 C 830.96855,76.296561 827.96618,77.618751 820.41284,77.618751 C 805.62234,77.618751 799.85235,69.537381 799.85235,63.024881 C 799.85235,58.744871 801.20808,55.307061 803.80775,51.769051 C 802.58658,50.663541 800.90497,50.212141 799.29173,50.212141 C 794.20445,50.212141 788.3558,54.999281 788.3558,64.618051 C 788.3558,79.379031 800.66929,86.210731 812.79705,86.210731 C 823.9084,86.210731 834.5044,81.040451 839.22331,79.179811 C 843.9563,77.335281 850.57349,75.641771 854.70401,75.641771 C 862.10751,75.641771 864.80178,76.249151 868.08946,77.107421 C 868.14941,76.720021 868.22462,75.985141 868.22462,75.354671 C 868.22462,73.377711 867.97614,72.060491 867.66555,70.826831"
       style="fill:#e20909;fill-opacity:1;stroke:#000000;stroke-width:4.39327145;stroke-miterlimit:4;stroke-dasharray:none;stroke-opacity:1;display:inline" />
    <path
       id="path6094"
       d="M 722.87961,2.463023 C 722.03843,0.088668045 721.28364,-1.696389 720.11519,-3.228592 C 726.15075,-3.279276 730.52026,-1.236572 732.4586,4.234754 C 734.34133,9.549099 733.10379,13.413594 730.7813,16.121538 C 727.52435,13.451897 725.27712,12.234473 722.28492,11.730635 C 723.9891,8.598741 723.85093,5.204749 722.87961,2.463023"
       style="fill:#e20909;fill-opacity:1;stroke:#000000;stroke-width:4.39327145;stroke-miterlimit:4;stroke-dasharray:none;stroke-opacity:1;display:inline" />
    <path
       id="path6092"
       d="M 677.47448,-1.68846 C 679.72671,-5.753138 683.05997,-7.402051 687.35843,-7.402051 C 693.80424,-7.402051 697.7849,-1.38122 698.42732,4.484159 C 695.43216,4.640253 693.57949,5.318673 691.70495,6.584346 C 689.27165,2.966899 683.88346,-2.112059 677.47448,-1.68846"
       style="fill:#e20909;fill-opacity:1;stroke:#000000;stroke-width:4.39327145;stroke-miterlimit:4;stroke-dasharray:none;stroke-opacity:1;display:inline" />
    <path
       id="path6090"
       d="M 657.60112,30.201441 C 658.75119,25.290491 664.19565,20.978902 671.45089,21.085179 C 677.27374,21.170463 681.81259,24.111575 684.5363,26.264773 C 678.95492,27.388126 675.48813,30.331896 674.07169,33.032021 C 670.2576,30.353629 664.42934,28.442754 657.60112,30.201441"
       style="fill:#e20909;fill-opacity:1;stroke:#000000;stroke-width:4.39327145;stroke-miterlimit:4;stroke-dasharray:none;stroke-opacity:1;display:inline" />
    <path
       id="path6088"
       d="M 693.50123,87.972181 C 695.19683,90.594621 696.08094,92.224461 701.26618,94.872171 C 699.4742,96.941881 693.99848,101.27658 688.63305,99.892841 C 684.535,98.835921 680.54631,95.288371 678.9307,89.891561 C 686.05629,91.819861 690.15536,89.908581 693.50123,87.972181"
       style="fill:#e20909;fill-opacity:1;stroke:#000000;stroke-width:4.39327145;stroke-miterlimit:4;stroke-dasharray:none;stroke-opacity:1;display:inline" />
    <path
       sodipodi:nodetypes="cccsssccsssscsscccscsssssccccczzcsss"
       id="path3470"
       d="M 691.11345,4.491309 C 687.71603,4.512555 686.75999,5.562439 686.75998,8.078597 C 690.35506,16.862809 690.66928,27.58449 696.71076,36.464971 C 683.97549,21.614412 682.43121,30.137753 680.8517,24.299386 C 679.68658,19.992794 678.8604,20.215703 671.91155,26.794893 C 662.60829,35.603211 662.17042,37.278211 670.82316,37.088851 C 673.65099,37.026971 677.15944,45.528861 686.318,51.495861 C 691.29884,56.888771 705.28704,81.927451 693.98985,84.425481 C 691.65583,83.813211 688.23305,84.273671 686.37129,85.439281 C 683.70186,87.110551 684.21173,88.403061 688.62575,91.522071 C 691.70425,93.697401 694.22309,97.027651 694.22308,99.008601 C 694.22304,100.98956 695.34256,102.67386 696.71076,102.67386 C 698.07897,102.67388 699.19848,100.46282 699.19847,97.760851 C 706.68762,94.616491 712.33035,91.257951 716.22363,99.476491 C 720.6887,108.90204 714.21967,116.39245 714.12465,126.53715 C 713.91812,148.58532 701.64735,156.60688 679.68559,148.68476 C 669.97561,143.99069 647.16199,144.09999 650.92161,160.53841 C 664.8878,145.9477 680.12654,171.80853 715.05507,157.11495 C 741.63877,134.29986 722.14923,134.25618 735.46473,151.36707 C 742.16794,159.98092 739.52161,173.2068 735.37194,180.98484 C 730.83862,182.70222 748.47915,181.56121 749.49658,172.47006 C 750.14751,166.6537 752.64116,167.58296 756.72645,173.01596 C 760.57762,178.1376 761.32984,177.27362 771.4194,175.2775 C 777.59243,174.05623 781.83663,174.24421 782.06985,172.08013 C 782.30307,169.91606 780.78443,173.63026 772.3523,166.62121 C 761.44212,157.55234 824.71756,199.24429 831.27015,163.99362 C 835.22525,142.57948 823.06443,135.09238 794.58608,130.67033 C 794.27511,128.89619 795.06525,132.58776 787.27846,126.92707 C 766.0695,107.40837 754.05973,80.297541 735.27005,57.754761 C 738.09554,48.689771 730.59124,18.995805 734.57039,17.358756 C 737.80188,7.879875 731.03426,15.101716 726.79635,12.601699 C 722.55845,10.101682 719.52551,3.435025 717.8562,7.844641 C 716.18687,12.254257 717.53801,26.831549 712.18113,34.671331 C 708.65196,13.606744 701.87051,18.375501 702.69678,11.509918 C 703.30043,6.494366 702.97145,5.691199 695.38918,4.803244 C 693.66391,4.6012 692.24592,4.484217 691.11345,4.491309 z"
       style="fill:#e20909;fill-opacity:1;stroke:#000000;stroke-width:4.39327145;stroke-miterlimit:4;stroke-dasharray:none;stroke-opacity:1;display:inline" />
    <path
       id="path6086"
       d="M 652.57088,212.45259 C 648.49874,212.68917 645.57382,215.68887 644.36645,219.34578 C 642.73074,224.30007 643.95849,229.07422 646.54202,233.94506 C 649.49922,229.01292 653.01841,227.62554 655.04249,227.10334 C 657.48028,223.70265 657.83861,215.23308 652.57088,212.45259"
       style="fill:#e20909;fill-opacity:1;stroke:#000000;stroke-width:4.39327145;stroke-miterlimit:4;stroke-dasharray:none;stroke-opacity:1;display:inline" />
    <path
       id="path6084"
       d="M 652.06806,199.93921 C 652.6299,198.64064 653.57924,196.59166 655.02156,194.60867 C 660.08224,187.65097 666.59405,189.17761 672.15207,193.29135 C 669.25426,196.87652 667.72133,200.23426 667.00025,203.64106 C 664.35778,200.15496 658.37377,197.13906 652.06806,199.93921"
       style="fill:#e20909;fill-opacity:1;stroke:#000000;stroke-width:4.39327145;stroke-miterlimit:4;stroke-dasharray:none;stroke-opacity:1;display:inline" />
    <path
       id="path6082"
       d="M 661.30784,240.92486 C 657.80622,239.11891 654.97657,241.79366 653.98374,242.67274 C 651.02958,247.21965 653.09985,254.89667 658.38302,257.29245 C 659.67061,254.1639 661.87285,251.15935 663.82864,249.31371 C 664.51839,245.45382 663.82748,242.22437 661.30784,240.92486"
       style="fill:#e20909;fill-opacity:1;stroke:#000000;stroke-width:4.39327145;stroke-miterlimit:4;stroke-dasharray:none;stroke-opacity:1;display:inline" />
    <path
       id="path6080"
       d="M 703.28825,257.24547 C 698.46218,259.69805 701.53299,264.88761 703.25652,267.91452 C 704.83093,269.54916 707.99641,271.56692 710.56862,272.72593 C 713.56298,266.41895 713.21086,263.80995 712.21374,260.1046 C 709.16408,256.78486 706.11859,255.80714 703.28825,257.24547"
       style="fill:#e20909;fill-opacity:1;stroke:#000000;stroke-width:4.39327145;stroke-miterlimit:4;stroke-dasharray:none;stroke-opacity:1;display:inline" />
    <path
       id="path6068"
       d="M 924.74597,494.84143 C 923.62252,495.04112 922.03794,495.55392 920.45312,496.48619 C 918.32857,498.7446 916.65569,501.66117 916.65569,507.54198 C 916.65569,512.18554 918.91948,516.12447 921.54102,516.95147 C 925.04529,510.24738 928.78438,506.73641 930.68236,505.29281 C 932.47852,499.49131 930.30271,493.85386 924.74597,494.84143"
       style="fill:#e20909;fill-opacity:1;stroke:#000000;stroke-width:4.39327145;stroke-miterlimit:4;stroke-dasharray:none;stroke-opacity:1;display:inline" />
    <path
       id="path6066"
       d="M 948.42232,509.4444 C 952.27848,508.87117 955.98863,510.45646 960.04449,513.51879 C 959.03889,518.60072 958.90447,523.48931 960.38211,527.89154 C 952.13151,525.66137 946.20823,521.90087 943.16539,517.60801 C 942.28544,514.28339 943.33164,510.20114 948.42232,509.4444"
       style="fill:#e20909;fill-opacity:1;stroke:#000000;stroke-width:4.39327145;stroke-miterlimit:4;stroke-dasharray:none;stroke-opacity:1;display:inline" />
    <path
       id="path6064"
       d="M 980.02709,493.18069 C 980.95748,495.31667 981.33135,497.75425 979.44753,503.63207 C 982.30725,505.21375 990.33517,504.28345 993.75073,500.08072 C 994.4677,499.19848 995.89433,496.77004 996.03069,494.2501 C 995.64515,492.11576 993.85352,489.80023 992.3646,488.5826 C 990.44617,487.01372 984.16512,487.26612 980.02709,493.18069"
       style="fill:#e20909;fill-opacity:1;stroke:#000000;stroke-width:4.39327145;stroke-miterlimit:4;stroke-dasharray:none;stroke-opacity:1;display:inline" />
    <path
       id="path6070"
       d="M 921.78365,468.76406 C 920.69724,468.15671 918.63708,467.70101 916.79625,467.70101 C 907.84472,467.70101 906.7011,476.35844 912.39561,487.81768 C 913.66911,484.74701 915.67808,483.66034 917.91541,483.01378 C 915.55994,477.61235 917.45559,470.92348 921.78365,468.76406"
       style="fill:#e20909;fill-opacity:1;stroke:#000000;stroke-width:4.39327145;stroke-miterlimit:4;stroke-dasharray:none;stroke-opacity:1;display:inline" />
    <path
       sodipodi:nodetypes="cccccccsscccsccsccsccscccccccczccssccsssssssssssssssssssssssssscczcccccccccccscccccccc"
       id="path3482"
       d="M 989.91058,-2.502936 C 963.56496,-1.674121 959.88769,28.709099 986.28336,37.529871 C 1003.5016,39.149981 966.13885,33.837021 976.17489,84.293881 C 977.06314,95.944871 978.63567,109.24839 966.97714,115.33173 C 1001.6236,105.79918 997.44584,79.777231 1000.1723,65.109671 C 1002.1111,23.633405 994.75102,87.510171 1030.1666,61.468931 C 1004.8966,50.808571 1010.4081,21.855615 1037.3323,21.594296 C 1049.1997,23.191054 1058.1773,31.138463 1061.4319,42.962071 C 1068.0424,66.978831 1048.2679,91.963431 1001.1052,119.23096 C 982.87417,129.77135 967.44166,146.37925 958.96985,164.53999 C 944.29982,192.53637 956.75103,219.91512 971.71932,244.7861 C 985.43523,263.2903 1007.1113,292.23859 991.38764,314.50429 C 978.87405,327.86621 958.58518,318.39526 945.44294,292.98056 C 940.87444,284.14577 933.10842,273.5756 929.03973,268.72736 C 925.75398,263.92965 921.22395,259.48453 916.83446,260.53898 C 917.80434,256.66096 919.71088,253.02833 919.71086,252.03866 C 919.71086,245.3322 912.08652,223.40234 908.82719,220.68887 C 896.26554,190.08437 904.80368,193.55741 873.7891,183.69709 C 869.17868,184.81308 851.85145,204.51478 841.89323,209.14963 C 836.15865,211.81867 835.93161,232.69513 832.0973,235.11602 C 841.1313,248.42023 863.31819,253.42654 867.46924,269.27326 C 869.34491,274.22222 869.01646,279.86822 866.22539,290.79699 C 861.46043,309.45476 861.86065,317.16375 866.22539,328.69749 C 873.95204,353.13281 860.88781,392.44401 841.34843,400.05336 C 871.69178,397.30663 868.23883,382.05225 873.9217,371.43303 C 879.38224,378.51242 877.35195,399.58759 870.2679,409.56748 C 853.27235,429.66582 806.17036,432.69213 822.89291,465.00569 L 832.0973,478.66179 C 833.31254,417.99392 885.51585,450.07934 890.48042,392.17692 C 907.59611,417.4776 893.62189,451.35537 897.39934,440.05944 C 906.36532,430.06471 912.65635,417.91978 905.10443,401.26525 C 897.5525,384.61071 892.37041,375.71156 892.42394,373.30465 C 897.88352,380.6048 911.64506,395.11161 924.91945,400.44328 C 937.96284,404.36347 948.16928,416.43266 951.97317,432.33896 C 955.71843,448.00018 953.75573,459.99715 946.37583,466.73016 C 939.29014,473.19474 928.04869,475.30336 924.37528,470.86333 C 915.38153,464.02166 919.48002,471.21181 916.96111,476.07949 C 914.10959,479.52616 919.68054,489.06418 922.89822,485.83637 C 923.76197,484.96996 928.39903,484.02548 933.23774,483.73079 C 938.07634,483.43612 944.34062,481.22265 947.07554,478.73978 C 954.86451,471.66862 952.86238,478.18288 944.89877,485.83637 C 940.98514,489.59772 934.54826,493.05602 930.59451,493.47886 C 926.64087,493.90175 923.86303,495.22267 924.453,496.44227 C 925.04298,497.6619 926.68658,501.79202 928.10684,505.56646 C 931.31612,514.09571 934.00553,514.30744 936.03641,506.19034 C 936.89485,502.75904 939.39805,499.95158 941.55593,499.95158 C 943.7138,499.9516 948.1068,497.47696 951.27355,494.49266 C 955.96105,490.07506 957.02634,489.83467 957.02634,493.08894 C 957.02634,495.28738 953.94782,499.47811 950.18511,502.44708 C 941.74262,509.10883 941.63761,510.61527 949.56322,511.18136 C 952.98379,511.42567 957.46164,512.02322 959.51402,512.58507 C 961.89668,513.23742 963.30132,511.87276 963.40103,508.68585 C 963.59939,502.34444 971.26502,487.47405 974.36244,487.47405 C 975.65252,487.47408 976.10758,488.9854 975.37306,490.90537 C 973.43534,495.97087 978.29265,497.99901 981.90329,493.63483 C 983.59404,491.59118 986.47391,489.96955 988.27798,489.96955 C 993.77811,489.96957 995.31535,484.41653 990.76565,481.07932 C 986.81104,478.17852 986.77285,477.30903 990.37703,470.31744 C 992.52661,466.14753 994.0407,460.09233 994.49721,456.98208 C 995.20223,452.17893 993.93366,451.30871 994.65276,451.28921 C 995.37186,451.26972 995.49394,454.45431 997.37361,456.9041 C 1002.0571,463.00796 1003.7911,464.01092 1006.7802,456.12425 C 1010.4511,446.43878 1009.9128,443.96917 1001.8049,435.45835 C 997.70013,431.14968 994.34774,426.19069 994.41949,424.46253 C 999.96234,428.00624 1014.1634,431.46406 1023.5276,431.27171 C 995.91024,404.84987 1014.2904,424.50799 1030.8644,405.06635 C 1047.4384,385.62472 1040.7084,369.85671 1056.874,374.60147 C 1036.7198,352.02083 1035.1761,412.61105 994.34176,385.31428 C 991.05707,379.50147 993.98641,372.20708 986.1013,370.10729 C 971.10948,370.08158 954.38601,350.85214 949.71867,328.1516 C 948.65347,309.75091 923.44036,309.26238 924.68627,284.87017 C 949.75647,309.93922 945.76637,335.60989 993.78438,332.08634 C 1017.0696,337.57672 1014.2401,317.60463 1034.1047,312.4767 C 1021.8591,306.18398 1018.2689,313.21567 1011.7556,312.39871 C 1015.2391,306.11927 1019.3123,279.29001 1020.5158,271.46156 C 1024.9687,231.49174 1074.9481,266.85014 1068.8394,299.06116 C 1090.9649,274.70143 1076.1742,240.22302 1030.4491,242.79182 C 1044.5163,235.97392 1070.9526,224.85048 1073.3772,213.38944 C 1076.8242,197.09616 1070.6725,182.78571 1064.5893,178.99423 C 1081.782,225.81242 1015.2089,207.16665 1009.4256,244.58988 C 962.0016,166.16636 1080.4942,206.16608 1066.7182,129.60291 C 1050.1914,176.62936 994.08091,144.99946 980.11523,197.68343 C 964.32804,146.15088 1041.1132,122.31733 1061.0898,94.966441 C 1092.4867,67.627261 1081.6437,28.868924 1056.301,13.717853 C 1044.0283,5.173383 1028.5529,7.151219 1012.222,19.176768 C 972.58287,30.815755 982.87302,-0.17893395 989.91058,-2.502936 z"
       style="fill:#e20909;fill-opacity:1;stroke:#000000;stroke-width:4.39327145;stroke-miterlimit:4;stroke-dasharray:none;stroke-opacity:1;display:inline" />
    <path
       sodipodi:nodetypes="ccccczccczccssccszcscccccccc"
       id="path9044"
       d="M 790.48063,168.67883 C 740.67665,177.13295 730.93031,185.93532 703.58241,201.69772 C 694.2924,207.57406 682.49081,189.64315 674.88066,192.03661 C 671.31613,181.79315 669.89393,192.08536 665.95601,198.18842 C 661.12684,200.04736 661.12689,204.11526 665.95601,204.11526 C 672.67249,205.98927 678.33309,210.41708 683.36988,214.09728 C 688.25694,217.66806 665.77587,207.69955 656.62714,212.88096 C 652.675,209.33613 652.2737,211.13369 652.27367,214.72116 C 651.62673,217.29908 653.50526,219.22575 651.88498,219.47821 C 652.97137,222.92038 651.83839,228.7568 655.38331,227.27666 C 658.9282,225.79652 672.09536,230.40569 680.12704,229.56275 C 681.29941,234.76433 667.88229,233.24962 661.05835,237.49265 C 656.82301,235.86229 655.72563,240.30877 659.73676,242.79559 C 661.10497,243.64387 662.22449,246.44829 662.22447,249.11233 C 662.22444,255.17981 669.68201,255.64383 671.24237,249.65823 C 678.60999,243.51427 682.69568,246.76229 697.63197,243.9542 C 696.37065,257.47839 699.98764,252.29194 697.67414,256.52086 C 694.61403,262.11454 699.07065,260.08274 705.4482,260.10816 C 711.82572,260.13359 715.49062,263.90692 713.61095,254.18134 C 712.27443,247.47782 712.73481,246.46025 717.57571,246.3829 C 720.62003,246.33427 725.97171,244.75711 729.39226,242.79559 C 745.74864,234.35748 730.44024,252.26362 741.80629,255.58944 C 752.91671,241.63683 762.4361,257.54439 783.49966,229.46023 C 789.00746,225.78588 770.05587,240.94265 778.1622,252.15592 C 784.64283,237.49496 786.33333,250.76891 806.51085,224.07931 C 812.00933,224.07931 834.33664,216.49321 836.69458,205.47306 L 855.90968,175.96655 C 852.93272,152.16535 814.03984,188.34496 790.48063,168.67883 z"
       style="fill:#e20909;fill-opacity:1;stroke:#000000;stroke-width:4.39327145;stroke-miterlimit:4;stroke-dasharray:none;stroke-opacity:1;display:inline" />
    <path
       sodipodi:nodetypes="cscccssssscccczccccssssscczczzczsssczzcczczzzsczcczcccc"
       id="path10015"
       d="M 857.95803,-12.398938 C 852.60528,-12.307507 849.6262,-11.365615 846.45243,-9.279553 C 840.72288,-5.507609 835.19699,-2.132233 829.03855,0.85844205 C 819.9057,4.686368 817.47917,11.257638 824.29639,13.881856 C 823.37906,15.238892 826.70555,15.328619 809.29246,20.744498 C 801.36594,24.066813 797.05499,29.712712 802.4513,29.712722 C 803.58255,29.712722 804.04449,32.905551 803.46192,36.887311 C 801.97669,47.038641 809.08283,53.542501 821.26449,53.498011 C 821.33617,53.497751 821.64151,53.525051 821.88643,53.576001 C 821.88201,53.550261 821.89068,53.523831 821.88643,53.498011 C 822.81597,53.806821 822.38116,53.678931 821.88643,53.576001 C 822.59894,57.732111 825.17223,60.702911 831.13755,60.828561 C 828.9167,58.374801 827.88702,56.513161 828.10566,53.264061 C 837.4208,52.692271 850.02471,49.236621 853.91552,39.694751 C 856.04718,37.015061 854.18211,35.916051 860.13477,42.892111 C 866.22663,50.031351 874.53578,70.085791 860.75668,82.196331 C 854.74854,87.366301 843.98985,90.808861 838.60064,80.558651 C 834.09415,82.162701 836.79631,85.940791 837.66774,87.655241 C 838.69441,88.971761 842.46138,91.337061 840.23318,92.100361 C 836.8126,92.142411 832.35809,93.172211 830.36015,94.439911 C 827.25126,96.412521 827.39967,97.524651 831.37076,101.92643 C 839.83026,111.30339 860.03752,106.58166 871.87357,92.490281 C 876.57908,86.888191 877.46052,86.575381 877.47089,90.462671 C 877.49145,98.145811 869.81899,111.837 862.62245,116.97745 C 853.95129,123.17124 837.81892,126.85362 830.74884,124.23 C 812.87031,113.5958 793.94397,121.23827 778.19626,107.07341 C 787.90127,148.05877 818.71935,128.06572 807.89544,133.05206 C 797.58874,137.80014 778.41457,156.46214 763.27008,135.14784 C 747.87285,152.91811 779.12046,176.2359 796.93172,165.7958 C 814.50066,155.49771 792.39013,166.99194 782.62746,187.78744 C 772.8648,208.58292 771.43649,213.40236 763.58104,209.38916 C 786.10708,236.67492 819.78553,196.3476 834.86909,194.4941 C 849.95264,192.6406 841.43938,194.5804 833.78072,197.92542 C 816.73682,205.36965 808.60734,226.02902 816.75555,241.20686 C 819.52695,246.36912 821.79975,248.46323 822.4306,246.43183 C 824.32767,240.32295 832.7139,233.98333 848.55142,226.77972 C 871.03888,214.26486 873.79527,200.3294 872.8842,196.91163 C 871.95511,193.42616 874.33437,203.27126 870.86295,219.13722 C 867.37725,235.06827 878.01238,253.33233 895.29336,253.33233 C 890.25126,243.57144 889.24926,238.34423 902.27011,218.2794 C 919.93415,198.44312 913.24463,201.34158 914.21333,209.24214 C 915.18201,217.1427 920.6614,220.89234 922.84904,221.64611 C 921.02819,214.94221 924.05223,201.29054 930.80088,193.63627 C 937.54944,185.98202 939.62409,176.79726 935.69851,165.48387 C 931.77292,154.17044 931.66559,146.28416 935.30979,153.86415 C 938.95408,161.44414 946.64488,157.04146 942.85285,156.68719 C 939.96566,156.41742 941.21851,143.82729 943.47253,137.01946 C 952.14955,120.49957 936.22156,105.74134 934.84334,96.077561 C 933.46512,86.413821 934.2523,99.082771 938.65263,97.715251 C 940.05775,103.99953 949.5287,104.3713 949.83612,97.726441 C 946.17891,97.610351 944.69491,89.354231 943.91458,75.500821 C 943.13424,61.647411 939.37337,57.852041 933.21083,51.860341 C 920.21613,38.124991 944.04302,57.187871 945.32712,48.700861 C 936.63487,48.702871 919.35483,13.432765 911.67672,1.716267 C 899.44897,-13.688545 876.28851,-12.084822 857.95803,-12.398938 z"
       style="fill:#e20909;fill-opacity:1;stroke:#000000;stroke-width:4.39327145;stroke-miterlimit:4;stroke-dasharray:none;stroke-opacity:1;display:inline" />
    <g
       style="fill:#e20909;fill-opacity:1;stroke:#000000;stroke-width:2.78914452;stroke-miterlimit:4;stroke-dasharray:none;stroke-opacity:1;display:inline"
       transform="matrix(1.565795,0,0,1.584525,405.1703,-69.45416)"
       id="g2247">
      <path
         style="fill:#e20909;fill-opacity:1;stroke:#000000;stroke-width:2.78914452;stroke-miterlimit:4;stroke-dasharray:none;stroke-opacity:1"
         d="M 282.3176,48.939137 C 274.37357,54.773968 272.72042,51.306421 272.43987,54.187523 C 272.50289,54.485664 272.98225,54.454863 273.62873,54.267011 C 273.86634,54.836806 274.66394,55.07494 275.3633,55.896502 C 277.1785,57.656242 281.73358,58.314135 283.35401,55.280475 C 281.57773,57.692785 276.52215,57.549875 273.90159,54.187523 C 275.74749,53.580921 277.77745,52.388297 277.14249,52.722991 C 276.31741,53.157904 277.43543,56.849539 279.74634,55.826837 C 281.30053,55.139022 281.34394,53.393908 280.62547,52.259954 C 282.3855,49.65991 282.08674,51.455801 283.99716,52.518288 C 283.99716,52.518288 283.93867,50.804427 283.95818,50.80931 C 283.26809,50.734481 282.95625,48.940402 282.3176,48.939137 z"
         id="path7086"
         sodipodi:nodetypes="ccccccssccsc" />
      <path
         style="fill:#e20909;fill-opacity:1;stroke:#000000;stroke-width:2.78914452;stroke-miterlimit:4;stroke-dasharray:none;stroke-opacity:1"
         d="M 316.99124,44.930533 C 320.23417,47.197019 320.93,54.329593 317.88504,58.285583 C 316.95112,58.414223 319.86868,56.180481 319.76775,53.459522 C 319.57468,48.254283 317.85982,46.547417 317.30202,47.087701 C 315.6478,48.689937 311.84586,49.711876 310.53419,51.998501 C 309.22254,54.285131 307.56082,57.944192 307.79936,57.048608 C 308.41579,54.734223 311.46595,50.399201 313.61779,49.124946 C 316.87104,47.198459 319.29051,45.965102 315.16767,45.101255 C 313.02292,44.651872 311.29605,45.772709 312.54494,44.922586 C 313.73276,44.114044 315.45886,44.232974 316.99124,44.930533 z"
         id="path3474"
         sodipodi:nodetypes="ccsssssssc" />
      <path
         style="fill:#e20909;fill-opacity:1;stroke:#000000;stroke-width:2.78914452;stroke-miterlimit:4;stroke-dasharray:none;stroke-opacity:1"
         d="M 300.0457,76.840691 C 298.14853,69.993803 296.81395,67.49479 289.78713,66.972346 C 296.06807,67.176014 297.90298,70.315563 300.0457,76.840691 z"
         id="path12926"
         sodipodi:nodetypes="ccc" />
      <path
         style="fill:#e20909;fill-opacity:1;stroke:#000000;stroke-width:2.78914452;stroke-miterlimit:4;stroke-dasharray:none;stroke-opacity:1"
         d="M 275.78735,52.907525 C 284.19768,50.415096 283.0525,46.165502 286.60965,49.632513 C 286.62799,42.485448 276.65772,53.975424 269.02542,53.540144 C 269.94852,54.223874 274.2126,54.16549 275.78735,52.907525 z"
         id="path16804"
         sodipodi:nodetypes="cccc" />
      <path
         style="fill:#e20909;fill-opacity:1;stroke:#000000;stroke-width:2.78914452;stroke-miterlimit:4;stroke-dasharray:none;stroke-opacity:1"
         d="M 279.24271,67.068333 C 281.1421,69.092638 285.48676,71.386691 287.86236,68.847608 C 285.21022,71.430648 279.39017,68.709819 277.57329,64.151326 C 277.71341,65.53623 278.52393,65.758321 279.24271,67.068333 z"
         id="path16808"
         sodipodi:nodetypes="cccc" />
    </g>
  </g>
  <rect
     y="0.41563129"
     x="1.3375391"
     height="143.04088"
     width="599.31879"
     id="rect25664"
     style="fill:#2b5df2;fill-opacity:1;stroke:#000000;stroke-width:2.67507744;stroke-miterlimit:4;stroke-dasharray:none;stroke-opacity:1;display:inline" />
  <g
     id="g13764"
     style="stroke-width:19.68715286;stroke-miterlimit:4;stroke-dasharray:none;display:inline"
     transform="matrix(0.1625576,0,0,0.1428465,235.82008,1.5345206)">
    <g
       id="g13766"
       style="fill:#fcef3c;fill-opacity:1;stroke:#000000;stroke-width:19.68715286;stroke-miterlimit:4;stroke-dasharray:none;stroke-opacity:1"
       transform="translate(0,4)">
      <path
         id="path13768"
         style="fill:#fcef3c;fill-opacity:1;fill-rule:evenodd;stroke:#000000;stroke-width:19.68715286;stroke-linecap:butt;stroke-linejoin:miter;stroke-miterlimit:4;stroke-dasharray:none;stroke-opacity:1"
         d="M 350.52292,657.37224 C 346.66206,621.90959 346.36888,588.3005 335.2512,554.024 C 325.75879,524.75834 322.62151,515.67182 305.23335,483.26364 C 299.73624,476.44041 289.51453,456.80575 281.47766,446.52536 C 268.46149,429.87569 264.22043,421.97692 250.25,408.25567 C 238.80396,397.01379 226.34626,383.56673 207.28077,370.05187 C 181.99035,356.40024 161.31388,353.12237 140.6158,355.79624 C 99.479703,367.11531 59.669971,394.80074 44.907948,436.20464 C 37.993011,464.64865 42.261924,494.40166 52.618133,522.07495 C 78.495612,574.85096 102.73139,600.20161 137.72495,620.68132 C 158.03802,629.89387 186.37097,641.5663 208.93699,641.68996 C 198.74237,614.72596 192.76027,591.81403 188.32642,566.85691 C 187.45992,557.81743 190.95503,545.42478 197.81252,544.1284 C 208.33168,542.1398 220.54407,550.16809 233.82252,562.49808 C 259.52145,585.39789 287.06332,609.00312 295.20534,643.42912 C 296.85804,647.96522 296.39575,653.20713 298.24118,657.66919" />
      <path
         id="path13770"
         style="fill:#fcef3c;fill-opacity:1;fill-rule:nonzero;stroke:#000000;stroke-width:19.68715286;stroke-linecap:butt;stroke-linejoin:miter;stroke-miterlimit:4;stroke-dasharray:none;stroke-opacity:1"
         d="M 393.6259,57.12017 C 365.2515,87.709236 342.75191,116.00231 324.40715,147.24517 C 303.30045,182.27051 290.3391,229.11701 285.34465,258.40142 C 281.47876,283.37975 275.76846,309.46578 284.84465,355.15142 C 294.51458,393.95292 306.50214,421.07358 317.46965,450.71392 C 330.14479,484.93943 339.27609,509.51409 349.3759,538.58892 C 360.29092,572.58348 362.97512,594.64345 363.6259,604.74517 C 365.50775,625.70274 365.40128,642.6747 364.65715,657.37017 L 431.4384,657.37017 C 430.69427,642.6747 430.58779,625.70274 432.46965,604.74517 C 433.12043,594.64345 435.80461,572.58348 446.71965,538.58892 C 456.81946,509.51409 465.95075,484.93943 478.6259,450.71392 C 489.59341,421.07358 501.58097,393.95292 511.2509,355.15142 C 520.32709,309.46578 514.61679,283.37975 510.7509,258.40142 C 505.75645,229.11701 492.79511,182.27051 471.6884,147.24517 C 453.41875,116.13021 431.0236,87.940438 402.8134,57.49517 L 398.17297,51.576902 L 393.6259,57.12017 z" />
      <path
         id="path13772"
         style="fill:#fcef3c;fill-opacity:1;fill-rule:evenodd;stroke:#000000;stroke-width:19.68715286;stroke-linecap:butt;stroke-linejoin:miter;stroke-miterlimit:4;stroke-dasharray:none;stroke-opacity:1"
         d="M 331.34465,704.40142 C 317.38299,743.53144 260.45647,815.19349 230.21965,835.62017 C 222.37748,840.91802 267.70602,832.5686 288.0009,828.12017 C 314.61991,822.28553 349.21835,793.92258 348.40715,803.93267 C 346.72379,824.70514 347.00434,824.36177 349.28215,842.24517 C 356.39282,874.928 358.50446,884.30129 367.46965,909.12017 C 371.70076,920.83339 375.31898,929.88855 377.6884,934.93267 C 381.84556,943.7826 386.62468,954.02651 394.8134,961.40142 L 397.99548,964.78902 L 401.28215,961.40142 C 409.30407,953.97394 414.19403,944.18709 418.40715,934.93267 C 420.71622,929.86064 424.39481,920.83339 428.6259,909.12017 C 437.59109,884.30129 439.73397,874.928 446.84465,842.24517 C 449.12246,824.36177 449.37175,824.70514 447.6884,803.93267 C 446.8772,793.92258 481.47565,822.28553 508.09465,828.12017 C 528.38953,832.5686 573.71807,840.91802 565.8759,835.62017 C 535.63908,815.19349 478.74383,743.53144 464.78215,704.40142 L 331.34465,704.40142 z" />
      <path
         id="path13774"
         style="fill:#fcef3c;fill-opacity:1;fill-rule:evenodd;stroke:#000000;stroke-width:19.68715286;stroke-linecap:butt;stroke-linejoin:miter;stroke-miterlimit:4;stroke-dasharray:none;stroke-opacity:1"
         d="M 445.57533,657.37224 C 449.43619,621.90959 449.72937,588.3005 460.84705,554.024 C 470.33946,524.75834 473.47674,515.67182 490.8649,483.26364 C 496.36201,476.44041 506.58372,456.80575 514.62059,446.52536 C 527.63676,429.87569 531.87782,421.97692 545.84825,408.25567 C 557.29429,397.01379 569.75199,383.56673 588.81748,370.05187 C 614.1079,356.40024 634.78437,353.12237 655.48245,355.79624 C 696.61855,367.11531 736.42828,394.80074 751.1903,436.20464 C 758.10524,464.64865 753.83633,494.40166 743.48012,522.07495 C 717.60264,574.85096 693.36686,600.20161 658.3733,620.68132 C 638.06023,629.89387 609.72728,641.5663 587.16126,641.68996 C 597.35588,614.72596 603.33798,591.81403 607.77183,566.85691 C 608.63833,557.81743 605.14322,545.42478 598.28573,544.1284 C 587.76657,542.1398 575.55418,550.16809 562.27573,562.49808 C 536.5768,585.39789 509.03493,609.00312 500.89291,643.42912 C 499.24021,647.96522 499.7025,653.20713 497.85707,657.66919" />
      <rect
         id="rect13776"
         style="fill:#fcef3c;fill-opacity:1;stroke:#000000;stroke-width:19.68715286;stroke-miterlimit:4;stroke-dasharray:none;stroke-opacity:1"
         y="655.37946"
         x="239.3521"
         height="51.503345"
         width="317.88773" />
    </g>
  </g>
  <g
     id="g7579"
     transform="translate(-1099.6612,40.720036)">
    <g
       inkscape:label="Meubles"
       id="layer4" />
    <g
       inkscape:label="Reflet final"
       id="layer2-1"
       transform="translate(1098.1612,-41.448206)">
      <path
         inkscape:export-ydpi="144"
         inkscape:export-xdpi="144"
         id="path2875-7"
         style="fill:url(#radialGradient3163-7);fill-opacity:1;fill-rule:evenodd;stroke:none"
         d="M 300.00001,658.5 C 300.00001,658.5 598.50001,546.17969 598.50001,260.72817 C 598.50001,-24.723334 598.50001,2.1764865 598.50001,2.1764865 L 1.5,2.1764865 L 1.5,260.72817 C 1.5,546.17969 300.00001,658.5 300.00001,658.5 z"
         sodipodi:nodetypes="cccccc"
         inkscape:connector-curvature="0" />
    </g>
  </g>
  <use
     x="0"
     y="0"
     xlink:href="#path2999"
     id="use2483"
     transform="translate(-127.59116,-70.85088)"
     width="600"
     height="660" />
  <use
     x="0"
     y="0"
     xlink:href="#path2999"
     id="use2485"
     transform="translate(121.84955,-70.85088)"
     width="600"
     height="660" />
  <use
     x="0"
     y="0"
     xlink:href="#path2999"
     id="use2491"
     transform="translate(209.26083,-170.83512)"
     width="600"
     height="660" />
  <use
     x="0"
     y="0"
     xlink:href="#path2999"
     id="use2493"
     transform="translate(250,-286.44215)"
     width="600"
     height="660" />
  <use
     x="0"
     y="0"
     xlink:href="#path2999"
     id="use2495"
     transform="translate(259.26083,-395.53258)"
     width="600"
     height="660" />
  <use
     x="0"
     y="0"
     xlink:href="#use2491"
     id="use2497"
     transform="matrix(-1,0,0,1,603.21072,3.0515824)"
     width="600"
     height="660" />
  <use
     x="0"
     y="0"
     xlink:href="#use2493"
     id="use2499"
     transform="matrix(-1,0,0,1,603.21072,3.0515824)"
     width="600"
     height="660" />
  <use
     x="0"
     y="0"
     xlink:href="#use2495"
     id="use2501"
     transform="matrix(-1,0,0,1,603.21072,3.0515824)"
     width="600"
     height="660" />
  <use
     x="0"
     y="0"
     xlink:href="#g13764"
     id="use2525"
     transform="translate(-199.09787,0)"
     width="600"
     height="660" />
  <use
     x="0"
     y="0"
     xlink:href="#g13764"
     id="use2527"
     transform="translate(198.69954,-0.3188904)"
     width="600"
     height="660" />
</svg>
