<?xml version="1.0" encoding="UTF-8" standalone="no"?>
<!-- Created with Inkscape (http://www.inkscape.org/) -->

<svg
   version="1.1"
   id="svg1"
   width="797"
   height="893"
   viewBox="0 0 797 893"
   xmlns="http://www.w3.org/2000/svg"
   xmlns:svg="http://www.w3.org/2000/svg">
  <defs
     id="defs1" />
  <g
     id="g1">
    <path
       style="display:inline;fill:#ffffff;stroke:none;stroke-width:13.5;stroke-linecap:butt;stroke-miterlimit:2.8;stroke-dasharray:none"
       d="M 28.915755,514.22146 7.3045994,7 H 398.45851 789.61243 L 768.00127,514.22146 C 759.58015,711.86821 599.99464,885.125 398.45851,885.125 196.92239,885.125 37.336879,711.86821 28.915755,514.22146 Z"
       id="path2-9" />
    <path
       id="path13"
       style="display:inline;opacity:1;fill:#e64625;fill-opacity:1;stroke:none;stroke-width:0.5;stroke-linecap:butt;stroke-miterlimit:2.8;stroke-dasharray:none"
       d="m 398.45851,7 v 878.125 c 0,0 -60.44104,-4.95478 -114.74381,-19.50516 C 229.41194,851.06946 182.14332,811.5769 182.14332,811.5769 L 647.17526,6.1179407 Z M 149.11441,5.0313437 615.21905,812.34825 c 0,0 53.08165,-44.60893 77.43418,-82.6364 24.35253,-38.02747 49.58784,-94.32091 49.58784,-94.32091 L 17.789973,217.12891 7.3045994,7 Z M 25.638719,436.908 H 771.27832 L 781.10703,215.98576 53.263818,636.20624 31.554923,545.76192 Z" />
    <path
       id="path5-9"
       style="display:inline;opacity:1;fill:none;stroke:#000000;stroke-width:8;stroke-linecap:butt;stroke-miterlimit:2.8;stroke-dasharray:none;stroke-opacity:1"
       d="M 781.10703,215.98576 53.263818,636.20624 M 647.17526,6.1179407 182.14332,811.5769 M 771.27832,436.908 H 25.638719 M 17.789973,217.12891 742.24107,635.39094 M 149.11441,5.0313437 615.21905,812.34825 M 398.45851,885.125 V 5.8997582" />
    <path
       style="display:inline;opacity:1;fill:none;stroke:#000000;stroke-width:14;stroke-linecap:butt;stroke-miterlimit:2.8;stroke-dasharray:none"
       d="M 28.915755,514.22146 7.3045994,7 H 398.45851 789.61243 L 768.00127,514.22146 C 759.58015,711.86821 599.99464,885.125 398.45851,885.125 196.92239,885.125 37.336879,711.86821 28.915755,514.22146 Z"
       id="path2" />
    <g
       id="g12"
       transform="translate(6.0287291,-2.617356)"
       style="display:inline">
      <path
         style="opacity:1;fill:#000000;fill-opacity:1;stroke:none;stroke-width:1;stroke-linecap:butt;stroke-miterlimit:2.8;stroke-dasharray:none"
         d="m 382.55887,308.73934 v -22.96696 c 0,-0.91877 -1.13428,-3.27567 -5.46089,-0.92048 -4.1075,2.23593 -6.33274,5.09119 -6.33274,11.02698 0,6.1764 2.82802,13.84816 2.82802,13.84816 -2.10858,0.32353 -5.66941,-0.9266 -14.22761,-11.70435 -9.70164,-12.21774 -9.63252,-18.17813 -9.63252,-22.80602 0,-4.6279 2.20402,-12.89585 8.88389,-17.21165 6.39107,-4.12921 12.24075,-4.2145 16.04354,-2.70857 -1.99363,-4.33536 -3.76738,-13.26267 1.37911,-23.01706 5.85293,-11.09334 13.24779,-22.11861 16.39011,-28.65211 3.14232,6.5335 10.53718,17.55877 16.39011,28.65211 5.14649,9.75439 3.37274,18.6817 1.37911,23.01706 3.80279,-1.50593 9.65247,-1.42064 16.04354,2.70857 6.67987,4.3158 8.88389,12.58375 8.88389,17.21165 0,4.62789 0.0691,10.58828 -9.63252,22.80602 -8.5582,10.77775 -12.11903,12.02788 -14.22761,11.70435 0,0 2.82802,-7.67176 2.82802,-13.84816 0,-5.93579 -2.22524,-8.79105 -6.33274,-11.02698 -4.32661,-2.35519 -5.46089,0.002 -5.46089,0.92048 v 22.96696"
         id="path12-4" />
      <path
         style="opacity:1;fill:#f5d306;fill-opacity:1;stroke:none;stroke-width:0.5;stroke-linecap:butt;stroke-miterlimit:2.8;stroke-dasharray:none"
         d="m 392.42978,308.36737 v -93.44258 c 3.52729,10.31067 11.69416,20.82552 11.69416,30.01324 0,11.39959 -5.1043,10.99125 -5.95501,21.84638 4.25358,-4.25358 6.63558,-5.85292 11.94404,-5.85292 5.30847,0 16.91223,3.43689 16.91223,16.67402 0,12.76073 -5.30847,17.3546 -8.54119,20.07689 2.0077,-8.16687 2.36758,-13.18479 -2.31394,-17.89905 -4.8661,-4.90013 -10.75304,-5.27444 -15.48303,-1.08892 -3.78896,3.35283 -3.78504,7.11198 -3.78504,7.11198 v 22.62418 z"
         id="path12" />
      <path
         id="path6"
         style="opacity:1;fill:#ffffff;stroke:#000000;stroke-width:8;stroke-miterlimit:2.8"
         d="M 523.58777,439.52536 A 131.15799,131.15799 0 0 1 392.42978,570.68335 131.15799,131.15799 0 0 1 261.27179,439.52536 131.15799,131.15799 0 0 1 392.42978,308.36737 131.15799,131.15799 0 0 1 523.58777,439.52536 Z" />
      <path
         id="path7-3-1"
         style="stroke-width:7;stroke-miterlimit:2.8"
         transform="rotate(-45,426.00826,484.2413)"
         d="m 433.88364,326.1042 28.7152,74.05938 74.05938,28.71521 -74.05938,28.7152 -28.71521,74.05938 -28.7152,-74.05938 -74.05938,-28.71521 74.05938,-28.7152 z" />
      <path
         id="path11-2"
         style="opacity:1;fill:#f5d306;fill-opacity:1;stroke:none;stroke-width:3;stroke-linecap:butt;stroke-miterlimit:2.8;stroke-dasharray:none"
         d="m 319.75718,366.85275 145.3452,145.34521 -32.06317,-72.67261 h -81.21886 z m 0,145.34521 145.34521,-145.3452 -72.67261,32.06317 v 81.21886 z" />
      <path
         id="path7-3"
         style="opacity:1;fill:none;stroke:#000000;stroke-width:7;stroke-miterlimit:2.8"
         transform="rotate(-45,426.00826,484.2413)"
         d="m 433.88364,326.1042 28.7152,74.05938 74.05938,28.71521 -74.05938,28.7152 -28.71521,74.05938 -28.7152,-74.05938 -74.05938,-28.71521 74.05938,-28.7152 z" />
      <path
         id="path7"
         style="opacity:1;stroke-width:7;stroke-miterlimit:2.8"
         transform="translate(-41.453857,10.646576)"
         d="m 433.88364,309.28687 33.89643,85.69548 85.69549,33.89644 -85.69549,33.89643 -33.89644,85.69548 -33.89643,-85.69548 -85.69548,-33.89644 85.69548,-33.89643 z" />
      <path
         id="path8-4"
         style="opacity:1;fill:#f5d306;fill-opacity:1;stroke:none;stroke-width:3;stroke-linecap:butt;stroke-miterlimit:2.8;stroke-dasharray:none"
         d="M 272.83786,439.52536 H 512.0217 l -79.50922,-31.44949 -80.1654,62.89898 z M 392.42978,319.93344 v 239.18384 l 31.44949,-79.50922 -62.89898,-80.1654 z" />
      <path
         id="path7-7"
         style="fill:none;stroke:#000000;stroke-width:7;stroke-miterlimit:2.8"
         transform="translate(-41.453857,10.646576)"
         d="m 433.88364,309.28687 33.89643,85.69548 85.69549,33.89644 -85.69549,33.89643 -33.89644,85.69548 -33.89643,-85.69548 -85.69548,-33.89644 85.69548,-33.89643 z" />
    </g>
  </g>
</svg>
