<svg xmlns="http://www.w3.org/2000/svg" viewBox="0 0 541.88 706.39"><g fill-rule="evenodd"><path fill="#131516" d="m256.856 706.085-2.826-.265-2.825-.31-2.782-.264-2.825-.265-2.782-.31-2.825-.264-2.781-.265-4.548-.795-4.503-.838-4.415-.928-4.326-.927-4.327-1.015-4.238-1.06-4.194-1.104-4.194-1.147-4.15-1.237-4.15-1.28-4.106-1.324-4.15-1.37-4.106-1.456-4.15-1.501-4.15-1.545-4.15-1.634-2.516-1.236-2.517-1.192-2.516-1.236-2.516-1.192-2.517-1.192-2.472-1.192-2.517-1.192-2.516-1.192-4.415-2.517-4.37-2.517-4.283-2.604-4.194-2.605-4.15-2.65-4.106-2.736-4.062-2.738-3.973-2.825-3.93-2.87-3.84-2.914-3.841-3.002-3.797-3.002-3.752-3.135-3.709-3.134-3.708-3.268-3.665-3.31-1.898-1.9-1.854-1.942-1.899-1.898-1.898-1.943-1.898-1.898-1.899-1.943-1.854-1.942-1.898-1.899-1.855-2.119-1.81-2.075-1.766-2.075-1.766-2.12-1.721-2.074-1.722-2.12-1.678-2.119-1.633-2.119-1.634-2.075-1.633-2.163-1.59-2.12-1.589-2.119-1.545-2.163-1.545-2.12-1.546-2.162-1.5-2.208-1.457-2.34-1.37-2.384-1.412-2.34-1.368-2.384-1.325-2.34-1.324-2.34-1.325-2.34-1.28-2.295-1.28-2.34-1.28-2.296-1.237-2.34-1.236-2.296-1.236-2.296-1.192-2.295-1.192-2.296-1.192-2.296-1.325-3.135-1.236-3.134-1.236-3.09-1.192-3.091-1.192-3.09-1.104-3.091-1.103-3.09-1.06-3.091-1.06-3.046-1.015-3.09-.971-3.091-.927-3.047-.883-3.09-.883-3.135-.84-3.09-.794-3.09-.574-3.003-.574-2.914-.485-2.958-.486-2.958-.486-2.914-.441-2.914-.397-2.913-.398-2.87-.353-2.87-.353-2.914-.31-2.825-.308-2.87-.31-2.87-.264-2.825-.22-2.826-.266-2.825V167.68l-.044-27.947v-83.84L0 27.947V0h73.684v17.262l.044 2.473v12.318l.044 2.516v4.945h43.045V9.845l.044-2.472V2.472L116.905 0h74.037v22.207l.044 2.428v9.934l.044 2.473v2.472h43.001V24.635l.044-2.428V7.373l.044-2.428V0h74.17v39.514h42.205V12.318l.045-2.473V2.472L350.583 0h74.037v19.735l.044 2.472v9.846l.044 2.516v4.945h43.31V9.845l.044-2.472V2.472L468.106 0h73.772v27.947l-.044 27.946V83.84l-.044 27.947v55.893l-.045 27.947v83.884l-.044 27.947v139.778l-.22 3.399-.31 3.4-.308 3.355-.354 3.4-.353 3.399-.441 3.4-.442 3.399-.53 3.4-.53 3.443-.573 3.4-.618 3.443-.663 3.4-.706 3.444-.706 3.443-.795 3.444-.839 3.444-1.324 4.591-1.413 4.548-1.501 4.503-1.59 4.459-1.589 4.459-1.722 4.415-1.766 4.37-1.854 4.372-1.898 4.326-1.987 4.327-2.075 4.327-2.119 4.282-2.163 4.238-2.296 4.283-2.34 4.282-2.384 4.239-1.28 1.898-1.28 1.899-1.28 1.898-1.281 1.899-1.28 1.942-1.28 1.899-1.237 1.942-1.28 1.899-1.898 2.56-1.943 2.561-1.943 2.472-1.942 2.473-1.987 2.428-1.986 2.428-1.987 2.384-1.987 2.34-2.03 2.34-2.031 2.296-2.075 2.296-2.075 2.251-2.12 2.208-2.119 2.207-2.119 2.208-2.163 2.163-2.163 2.12-2.208 2.118-2.207 2.12-2.252 2.075-2.251 2.075-2.296 2.03-2.34 2.031-2.34 1.987-2.384 1.987-2.384 1.987-2.428 1.942-2.472 1.943-2.473 1.942-2.516 1.899-2.56 1.898-2.605 1.899-2.12 1.368-2.119 1.325-2.119 1.368-2.119 1.413-2.119 1.369-2.12 1.369-2.074 1.368-2.12 1.413-5.43 2.958-5.43 2.826-2.737 1.412-2.693 1.325-2.693 1.324-2.693 1.325-2.693 1.236-2.693 1.236-2.693 1.236-2.693 1.192-2.693 1.148-2.693 1.148-2.694 1.104-2.737 1.06-2.737 1.06-2.693 1.015-2.781 1.015-2.738.971-2.78.927-2.782.928-2.782.883-2.825.883-2.826.838-2.825.84-2.87.794-2.914.75-2.913.751-2.914.706-3.002.707-2.958.662-2.252.353-2.207.31-2.208.352-2.207.31-2.207.309-2.208.309-2.207.309-2.208.265-2.163.264-2.207.265-2.164.221-2.207.22-2.163.177-2.164.177-2.163.177-2.163.132h-5.651l-2.826.044h-2.825l-2.782.044-2.825.045h-2.781l-2.826.044z" style="--darkreader-inline-fill:var(--darkreader-background-131516, #0f1111)"/><path fill="#da251d" d="m258.886 695.312-3.09-.265-3.046-.309-3.046-.309-3.047-.353-3.002-.353-3.002-.398-2.958-.441-3.002-.442-2.958-.441-2.958-.53-2.914-.486-2.958-.573-2.957-.574-2.914-.618-2.958-.663-4.548-1.192-4.503-1.324-4.459-1.369-4.37-1.413-4.371-1.5-4.327-1.546-4.238-1.634-4.238-1.677-4.194-1.766-4.194-1.81-4.106-1.855-4.106-1.942-4.062-1.987-4.061-2.03-3.974-2.12-4.017-2.163-3.09-1.855-3.047-1.898-3.002-1.898-3.002-1.943-2.914-1.943-2.87-1.986-2.869-1.987-2.825-1.987-2.826-2.03-2.781-2.032-2.738-2.075-2.737-2.075-2.737-2.119-2.693-2.119-2.693-2.12L100.79 629l-2.03-1.942-2.032-1.987-2.03-1.942-2.031-1.943-2.031-1.987-1.987-1.942-2.03-1.943-2.032-1.987-1.942-2.075-1.899-2.075-1.898-2.119-1.854-2.12-1.81-2.074-1.81-2.12-1.766-2.118-1.722-2.076-1.722-2.119-1.722-2.119-1.677-2.075-1.678-2.12-1.633-2.074-1.634-2.075-1.633-2.12-1.59-2.074h13.2L83 579.728h26.445l13.2-.044h26.445l13.2-.044h13.201l13.245-.044h26.444l13.2-.044h13.245l13.2-.044h13.245v116.069h-6.048z" style="--darkreader-inline-fill:var(--darkreader-text-da251d, #e54139)"/><path fill="#fcdb00" d="M273.72 688.337V579.508h13.2l13.201.044h13.2l13.2.044h26.401l13.201.044h13.2l13.2.044h26.445l13.201.044h26.4l13.245.045h13.2l-2.869 3.885-2.914 3.753-2.913 3.708-2.958 3.62-3.047 3.576-3.046 3.532-3.09 3.444-3.135 3.4-3.179 3.355-3.222 3.311-3.267 3.267-3.356 3.267-3.4 3.223-3.443 3.179-3.532 3.223-3.576 3.179-3.178 2.472-2.56 1.943-2.12 1.633-1.987 1.501-2.075 1.501-2.384 1.678-2.958 2.12-3.796 2.692-2.87 1.855-2.914 1.854-2.87 1.766-2.913 1.722-2.914 1.722-2.87 1.633-2.913 1.634-2.958 1.59-2.914 1.544-2.958 1.501-2.914 1.457-3.002 1.457-2.958 1.369-2.958 1.369-3.002 1.324-3.002 1.28-3.002 1.237-3.046 1.236-3.047 1.192-3.09 1.148-3.046 1.103-3.09 1.06-3.135 1.06-3.135 1.015-3.134.971-3.18.927-3.178.928-3.223.883-3.222.838-3.223.84-3.267.75-3.311.795-2.65.397-2.692.397-2.65.353-2.648.354-2.649.353-2.649.309-2.649.309-2.605.265-2.649.265-2.604.265-2.65.22-2.604.177-2.605.177-2.56.176-2.605.177-2.56.088z" style="--darkreader-inline-fill:var(--darkreader-text-fcdb00, #ffe11c)"/><path fill="#fcdb00" d="m50.815 570.722-1.854-3.09-1.855-3.091-1.766-3.09-1.721-3.047-1.722-3.09-1.634-3.047-1.589-3.09-1.59-3.09-1.545-3.091-1.5-3.09-1.457-3.09-1.413-3.136-1.413-3.134-1.324-3.179-1.369-3.179-.927-2.737-.883-2.693-.883-2.693-.839-2.65-.795-2.648-.794-2.65-.795-2.648-.75-2.65-.707-2.648-.706-2.605-.707-2.649-.662-2.605-.662-2.649-.662-2.605-.618-2.649-.663-2.604-.309-1.987-.353-2.031-.309-1.987-.309-1.986-.309-1.987-.309-1.987-.309-1.987-.309-1.986h255.575v107.99H52.713z" style="--darkreader-inline-fill:var(--darkreader-background-fcdb00, #caaf00)"/><path fill="#da251d" d="M273.72 567.102V465.867h255.576L528.81 469l-.53 3.179-.574 3.135-.574 3.134-.618 3.18-.662 3.134-.706 3.178-.707 3.135-.794 3.179-.795 3.179-.795 3.134-.883 3.179-.883 3.179-.927 3.223-.971 3.178-.971 3.18-1.457 3.796-1.501 3.753-1.501 3.708-1.59 3.665-1.589 3.576-1.633 3.576-1.678 3.576-1.722 3.488-1.766 3.532-1.81 3.488-1.854 3.443-1.943 3.488-1.986 3.488-2.031 3.488-2.075 3.488-2.12 3.532h-26.93l-13.465.044h-13.465l-13.466.044h-26.93l-13.465.044h-26.931l-13.465.044H327.58l-13.465.044h-26.93l-13.466.045z" style="--darkreader-inline-fill:var(--darkreader-background-da251d, #ae1e17)"/><path fill="#fff" d="m11.743 458.229-.132-1.943-.132-1.987-.133-1.942-.132-1.943-.133-1.986-.132-1.943-.133-1.943-.044-21.28v-42.516l-.044-21.236V104.37H268.07l-.044 2.251v4.504l-.044 2.251v2.252l-.044 2.207v4.504l-.044 2.251v4.503l-.044 2.252v2.252l-.045 2.251v4.548l-.485-.31-.442-.308-.441-.31-.574-.44-.75-.619-1.016-.795-1.369-1.148-1.766-1.5-1.854-1.281-1.854-1.28-1.854-1.28-1.855-1.281-1.854-1.236-1.854-1.28-1.898-1.28-1.855-1.237.045-.662.088-.707.132-.662.177-.662.397-1.325.442-1.28.397-1.236.353-1.148.133-.53.044-.53v-.485l-.044-.486-.663-.177-.662-.132-.662-.088h-1.28l-.663.044-.662.088-.618.133-1.192.309-1.192.353-1.06.309-.97.309-2.252.177-1.854.132-1.59.132-1.545.045-1.722.044h-2.075l-2.649.044h-3.4l-1.147-.133-1.192-.176-1.148-.177-1.192-.22-2.384-.442-2.384-.486-2.384-.485-2.34-.486-1.192-.177-1.148-.176-1.148-.177-1.147-.088-1.148-.088-1.104-.045h-1.104l-1.103.045-1.06.132-1.06.133-1.015.264-1.015.265-1.016.398-.971.441-.927.53-.927.618-.883.706-.883.795-.839.883-.795 1.016-.441 1.324-.486 1.369-.485 1.368-.442 1.413-2.649 1.06-3.355 1.28-1.854.75-1.855.795-.927.442-.927.441-.927.486-.883.486-.839.53-.839.53-.794.529-.75.618-.663.618-.662.618-.53.662-.53.707-.397.706-.353.75-.221.796-.177.794-.044.883.089.84.176.926.265.927.442.442.485.397 2.693.133 2.737.176 1.413.133 1.369.132 1.413.177 1.412.22 1.413.221 1.413.31 1.413.308 1.412.398 1.457.441 1.457.486 1.413.574 1.457.618-.177.22-.22.221-.266.221-.264.22-.663.442-.75.442-.795.441-.883.442-.927.397-.971.398-1.899.75-1.854.706-1.59.574-1.235.442-2.605 1.413-1.987 1.06-1.5.794-1.149.574-.927.441-.794.398-.84.353-1.015.353-2.958.707-2.251.53-1.634.353-1.148.309-.75.176-.53.177-.353.132-.353.177-.22.574-.09.353v.309l.045.442.883.53.927.485.927.397.927.398.927.309.972.309.97.22 1.016.177 1.016.133 1.015.088h2.12l1.103-.088 1.148-.133 1.148-.22 1.192-.266 3.002-2.295 2.737-2.12 1.28-.97 1.28-.928 1.28-.883 1.281-.75.618-.398.662-.309.707-.353.662-.265.706-.309.751-.22.706-.266.795-.176.795-.177.794-.176.84-.089.882-.132.927-.044.927-.045h1.016l1.015.045-.132.176-.22.221-.266.265-.353.22-.795.53-.883.486-1.81.927-1.324.662-.133.398-.088.397-.132.442-.089.397.353.486.442.397.486.397.618.31.662.308.75.265.795.221.839.132.883.177.971.088.971.045 1.016.044h2.119l1.06-.089 1.103-.044 1.06-.132 1.104-.089 1.103-.176 1.06-.177 2.075-.353 1.986-.486.928-.22.838-.265.84-.265.75-.265.706-.265.618-.309.574-.265.486-.309h.971l.53.133.53.176.574.22.53.266.573.353.574.397.574.442.574.486.618.53.574.573 1.192 1.236 1.192 1.325 1.148 1.369 1.104 1.412 1.06 1.457 1.015 1.413 1.854 2.65 1.457 2.25.574 1.413.53 1.413.44 1.325.354 1.28.133.618.088.618.088.618.088.618v1.722l-.044.574-.088.574-.132.574-.133.574-.177.574-.22.574-.221.574-.265.53-.309.574-.353.574-.353.574-.442.618-.441.574-.486.574-.53.618-.574.618-.574.618-2.34.883-2.295.927-2.208.927-2.207 1.016-1.06.53-1.06.53-1.015.617-1.015.618-.971.618-.971.707-.972.75-.927.795-.883 1.325-.839 1.368-.838 1.369-.84 1.413-.529-.045-.53-.132-.53-.22-.574-.31-.573-.353-.53-.397-.574-.398-.574-.485-1.016-.883-.882-.883-.751-.707-.486-.485-1.28-.53-1.236-.486-1.28-.441-1.28-.398-1.281-.353-1.324-.309-1.28-.309-1.325-.22-1.325-.221-1.324-.177-1.325-.132-1.368-.089-1.325-.088-1.324-.044-1.369-.044h-1.324l-2.693.044-2.693.088-2.65.177-2.692.22-2.605.221-2.605.265-2.516.22-2.517.266h-3.929l-3.973.044-3.93.044h-3.929l-3.885-.044-3.84-.133-1.899-.088-1.898-.132-1.855-.133-1.81-.22-1.457-.354-1.368-.353-1.28-.441-1.237-.442-1.192-.486-1.103-.53-1.104-.53-.971-.573-.972-.618-.927-.662-.839-.663-.794-.706-.795-.706-.706-.751-.707-.795-.618-.839-.618-.838-.574-.883-.53-.883-.485-.928-.486-.97-.485-.972-.398-1.016-.397-1.015-.397-1.06-.354-1.103-.353-1.104-.353-1.148-.618-2.34-.574-2.472v-1.148l.044-1.104.044-1.015.089-.972.176-.927.22-.927.133-.486.221-.441.177-.486.265-.485 1.545-1.28 1.545-1.37 1.59-1.412 1.589-1.457 1.589-1.501 1.501-1.59.75-.794.751-.795.706-.839.663-.839.662-.883.662-.838.618-.883.574-.928.53-.883.486-.927.485-.927.442-.971.397-.927.353-.972.265-.97.265-1.016.22-1.016.133-1.015.088-1.016v-1.06l-.573-1.147-.619-1.104-.573-1.015-.619-.927-.618-.883-.618-.84-.618-.75-.662-.706-.618-.618-.662-.574-.663-.53-.706-.486-.662-.441-.706-.398-.751-.353-.706-.309-.795-.265-.75-.22-.795-.177-.84-.177-.794-.132-.883-.132-.883-.089-.883-.088-1.898-.088-1.987-.045h-4.37l-3.003.31-2.957.353-2.958.397-2.958.397-2.958.398-2.958.441-2.958.442-2.914.397-2.958.442-2.914.441-2.914.397-2.913.354-2.87.397-2.87.309-2.87.31-2.825.264H40.352l-2.252.044h-4.459l-2.251.044h-4.504l-2.251.044h-4.503l-2.208.045-.088.75-.044.706-.044.751v.75l1.457 1.987 1.5 1.855 1.546 1.81 1.5 1.722 1.546 1.633 1.59 1.59 1.633 1.5 1.678 1.458 1.721 1.368 1.81 1.369 1.855 1.324 1.986 1.28 2.031 1.28 2.163 1.237 2.296 1.236 2.384 1.192 1.104.442 1.104.441 1.147.486 1.148.441 1.148.486 1.148.442 1.148.485 1.148.486-.486.177-.486.22-.485.177-.442.22-2.295.221-2.252.177-2.207.22-2.208.221-2.207.221-2.163.221-2.208.22-2.163.266-2.163.265-2.12.264-2.163.265-2.119.31-2.163.353-2.12.353-2.163.353-2.119.397-.353 1.766-.309 1.634-.088.794-.089.707-.044.75-.044.663v1.324l.044.618.089.618.132.574.132.574.177.574.22.53.266.53.265.485.353.53.353.486.397.486.486.485.486.486.53.485.573.486.618.486.707.485.706.486 1.59 1.015 1.81 1.016 1.147.397 1.148.398 1.148.353 1.192.309 2.34.618 2.384.53 2.428.441 2.472.398 2.473.353 2.472.265 2.517.265 2.516.22 2.56.221 2.517.177 2.56.176 2.561.177 2.605.176 2.56.177-2.913 1.192-2.87 1.104-2.914 1.015-2.913.972-2.958.927-2.914.927-2.914.883-2.914.883-2.914.927-2.87.927-2.869.971-2.87 1.06-1.412.574-1.369.574-1.413.574-1.368.662-1.369.618-1.368.707-1.369.706-1.324.75-.398.707-.309.75-.265.707-.22.706-.133.707-.132.706-.044.662v.663l.044.662.088.618.132.618.177.618.265.618.265.574.309.574.353.53.397.53.398.53.485.485.486.486.53.485.574.442.574.397.618.398.662.397.662.353.707.353.75.31.75.308.751.265.795.265.794.22h1.943l1.942-.043 1.943-.044 2.03-.045 2.032-.044 2.075-.088 2.119-.132 2.119-.177 3.134-.795 3.18-.794 3.134-.84 3.134-.794 3.135-.795 3.178-.794 3.135-.795 3.179-.75v.132l.088.22-7.814 5.078-6.843 4.459-5.916 3.841-5.121 3.355-4.327 2.826-3.664 2.384-3.002 1.987-2.473 1.59-1.986 1.324-1.546 1.06-1.192.794-.927.662-.706.486-.574.441-.486.353-.485.398-.574.794-.486.795-.441.75-.31.707-.264.662-.221.618-.088.619-.089.53v.573l.089.486.132.486.177.485.22.442.265.441.354.398.353.397.441.353.442.397.485.354.53.309 1.148.662 1.28.662 2.782 1.28 2.958 1.37h9.889l2.649-.928 2.649-1.015 2.604-1.06 2.517-1.104 2.56-1.148 2.473-1.236 2.516-1.236 2.473-1.28 2.428-1.28 2.428-1.37 2.472-1.412 2.428-1.413 2.429-1.413 2.428-1.5 2.428-1.502 2.472-1.5h.618l.662.087-3.355 4.062-3.355 4.106-3.311 4.106-3.355 4.106-3.312 4.106-3.355 4.106-3.311 4.106-3.311 4.061-3.355 4.106-3.312 4.106-3.31 4.106-3.356 4.106-3.311 4.106-3.311 4.106-3.356 4.106-3.31 4.062-.972 1.677-.883 1.501-.397.707-.353.706-.31.706-.264.663-.177.706-.132.75-.089.751v.795l.089.839.176.927.265 1.015.353 1.06.972.486 1.06.485 1.103.486 1.148.441 1.236.398 1.236.353 1.236.265 1.28.22 1.325.133 1.28.044h.662l.619-.044.662-.044.618-.088.618-.089.662-.176.618-.177.574-.177.618-.264.574-.265.574-.31.574-.353 2.075-.838 2.075-.928 2.03-1.015 1.987-1.104 1.987-1.148 1.943-1.236 1.942-1.28 1.899-1.325 1.854-1.412 1.854-1.457 1.81-1.501 1.81-1.59 1.766-1.59 1.722-1.633 1.722-1.677 1.677-1.678 1.678-1.766 1.678-1.722 1.589-1.81 1.633-1.766 3.135-3.665 3.046-3.62 2.958-3.664 2.87-3.62 2.781-3.577 2.737-3.487v.574l-.044.53-.088.573-.088.53-.133.574-.176.574-.221.662-.22.662-1.988 3.974-2.207 4.415-2.428 4.856-2.605 5.21-2.825 5.563-2.958 5.916-3.179 6.27-3.311 6.533-3.444 6.843-3.576 7.064-3.664 7.33-3.797 7.549-3.885 7.77-3.973 7.903-4.018 8.08-4.061 8.211-.442 1.369-.486 1.457-.485 1.545-.442 1.59-.132.794-.133.795-.044.839v.794l.089.84.132.794.088.397.133.397.176.398.177.397.75.574.795.486.795.397.839.353.794.31.84.264.838.221.883.132.839.133.883.044.883.044.883-.044.883-.044.927-.088.883-.133.883-.176.927-.177.883-.22.927-.266.883-.265 1.81-.618 1.766-.706 1.766-.75 1.722-.795 1.721-.795 1.634-.839 1.104-1.015 1.147-.972 1.104-1.015 1.148-.971 1.148-1.016 1.148-.971 1.148-.971 1.147-.972 2.252-3.84 2.296-3.886 2.251-3.885 2.208-3.885 2.251-3.93 2.164-3.885 2.207-3.929 2.163-3.973 2.164-3.93 2.163-3.973 2.119-3.93 2.163-3.973 2.12-3.93 2.074-3.929 2.12-3.929 2.074-3.93 3.312-6.666 2.693-5.519 2.163-4.503 1.722-3.576 1.412-2.87 1.104-2.295.971-1.855.84-1.59.308-.132.353-.044-1.28 4.724-1.28 4.768-1.236 4.813-1.28 4.812-1.28 4.812-1.237 4.857-1.28 4.856-1.28 4.857-1.237 4.9-1.236 4.857-1.236 4.9-1.236 4.857-1.236 4.856-1.237 4.857-1.192 4.812-1.236 4.857v5.032l1.104.354 1.06.176 1.147.089 1.148-.089 1.192-.176 1.192-.31 1.192-.44 1.236-.53 1.192-.574 1.237-.707 1.236-.795 1.236-.838 1.236-.928 1.236-.927 1.192-1.015 1.192-1.06 1.192-1.103 1.148-1.104 1.148-1.148 1.104-1.148 2.163-2.296 1.987-2.251 1.81-2.12 1.589-1.986 1.413-1.722 1.192-1.457 1.06-2.12 1.015-2.118 1.015-2.075.971-2.075.972-2.076.971-2.075.883-2.03.927-2.075.883-2.075.883-2.076.839-2.119.839-2.075.838-2.119.84-2.12.794-2.118.839-2.164 1.015-3.31 1.016-3.268 1.015-3.311 1.015-3.267 1.016-3.267 1.015-3.311 1.06-3.268 1.015-3.267.486 3.709.441 3.444.221 1.677.265 1.634.309 1.59.353 1.589.398 1.633.397 1.59.53 1.633.53 1.634.662 1.677.706 1.722.839 1.81.883 1.855.574.132.485.132.53.045.486.044h.441l.442-.044.441-.045.398-.088.397-.132.397-.133.353-.176.354-.177.309-.22.353-.266.309-.264.309-.265.574-.618.53-.663.53-.706.485-.707.971-1.545.972-1.5 1.457-3.047 1.5-3.002 1.502-3.003 1.457-3.046 1.5-3.002 1.502-3.002 1.456-3.002 1.502-3.003 1.456-3.002 1.501-3.046 1.502-3.002 1.456-3.002 1.501-3.003 1.502-3.002 1.456-3.002 1.501-3.002.177.353.22.397.177.486.221.574.397 1.236.398 1.457.353 1.678.397 1.766.354 1.854.353 1.899.662 3.929.618 3.708.53 3.268.441 2.516-.044 1.81-.132 1.854-.089 1.81-.176 1.855-.177 1.81-.22 1.81-.265 1.81-.265 1.855-.354 1.81-.353 1.81-.397 1.854-.442 1.81-.485 1.855-.53 1.854-.574 1.854-.618 1.854-5.165 8.3-4.503 7.285-4.018 6.358-3.488 5.607-3.046 4.945-2.737 4.326-2.428 3.885-2.208 3.532-2.03 3.223-1.987 3.09-1.943 3.091-1.942 3.09-2.12 3.268-2.251 3.532-2.516 3.929-2.782 4.37v2.341l1.369-.044 1.324-.133 1.369-.176 1.324-.265 1.369-.265 1.324-.31 1.413-.308 1.369-.31-.574 1.59-.662 1.634-.707 1.633-.839 1.634-.838 1.677-.928 1.678-.97 1.722-1.016 1.677-2.031 3.312-2.075 3.267-1.987 3.134-1.854 2.958-.706.442-.75.353-.707.353-.707.31-.706.264-.706.221-.75.22-.707.133-.707.133-.706.132-.662.044-.707.089h-1.412l-1.413-.045-1.369-.132-1.412-.22-1.37-.222-1.368-.309-2.781-.618-2.737-.618-1.81.044-1.678.045-1.545.044-1.501.132-1.457.177-1.457.22-1.413.265-1.5.354-1.723.927-1.324.706-1.015.53-.751.353-.662.31-.574.264-.662.22-.75.266-4.769.265-4.503.22-1.06.089-1.06.088-1.015.132-.97.133-.972.176-.883.221-.883.22-.883.31-.795.309-.75.353-.75.442-.663.485-.662.53-.574.618-.574.662-.486.751-.441.795-.397.883-.31.971-.309 1.06-.22 1.147-.133 1.237-.088 1.324-.044 1.457.485 1.766.53 1.678.31.794.397.795.397.707.441.706.53.662.574.574.353.31.353.264.354.265.397.22.397.221.442.221.485.221.486.177.53.176.53.133.574.132.618.133.132-1.899.133-1.457.132-1.148.088-1.015.133-.971.176-.972.177-1.192.265-1.5h.397l.353.043.398.089.397.088.75.265.84.309.794.397.883.442.927.485.927.486 2.164.22 1.633.221.662.089.618.132.574.133.53.22.486.265.53.31.53.397.573.485 1.28 1.237 1.678 1.765.486.089.441.044.486.088.485.044.354-1.457.441-1.721.22-.928.266-.927.309-.927.309-.927.353-.839.442-.794.22-.354.221-.353.265-.309.265-.309.265-.265.309-.22.309-.177.353-.133.309-.088.397-.088h.354l.441.044.75.706.663.663.662.573.618.486.574.442.574.309.574.309.574.22.618.133.662.132.706.089.751.044h1.722l2.119-.089 1.368-.441 1.37-.441 1.368-.442 1.368-.397 1.369-.354 1.368-.353 1.37-.309 1.368-.309 1.368-.265 1.325-.22 1.368-.177 1.369-.177 1.369-.132 1.368-.088 1.369-.089 1.368-.044h1.369l1.369.044 1.412.089 1.369.132 1.369.132 1.368.177 1.413.265 1.368.265 1.413.309 1.369.353 1.413.397 1.412.486 1.369.486 1.413.53 1.412.573 1.413.663.971.176 1.016.177 1.06.088 1.103.044 1.06-.044 1.103-.088.574-.133.53-.088.53-.176.53-.177 1.015-.927.839-.795.397-.309.398-.309.353-.22.397-.221.397-.177.398-.132.485-.089.53-.088.574-.044h.662l.707.044.839.044.22 1.06.177 1.015.132 1.06.089 1.015.088 1.104.044 1.148.088 1.236.089 1.369.353-.089.397-.088.353-.177.398-.176.353-.221.309-.265.353-.265.31-.309.617-.706.574-.795.53-.839.441-.927.442-.927.397-.971.353-.972.31-.97.264-.928.221-.883.177-.795.132-.75-.176-1.457-.221-1.325-.31-1.236-.397-1.104-.485-1.015-.53-.883-.574-.839-.662-.706-.707-.618-.75-.53-.839-.486-.839-.397-.927-.31-.927-.264-.971-.22-1.016-.177-1.015-.089-1.06-.044-1.103-.044h-1.104l-2.207.088-2.252.177-2.252.22-2.207.221-2.163.133-2.031.088.132-1.148.177-1.104.177-1.103.22-1.06.265-1.06.265-1.059.265-1.015.309-1.016.662-2.03.75-1.943.84-1.899.838-1.898.928-1.899.97-1.854.972-1.854 1.015-1.855 1.06-1.898 1.015-1.898 1.06-1.943 1.015-1.943.486.089.486.088.485.132.442.177.927.353.883.442.883.53.883.53.883.617.839.619 1.81 1.28 1.854 1.236.971.574.971.53 1.06.485 1.104.398.441-2.384.442-2.384.485-2.34.486-2.384.486-2.34.53-2.34.53-2.34.573-2.296.574-2.296.618-2.295.618-2.296.662-2.252.707-2.252.75-2.251.75-2.208.796-2.207.397-.927.574-1.236.662-1.502.795-1.633.927-1.722.971-1.766.574-.883.53-.839.574-.839.574-.838.618-.751.574-.706.618-.663.662-.574.618-.53.662-.44.662-.31.619-.265.662-.132h.662l.662.088.662.22.663.398.618.53.662.706.618.84.088.926.089.972.044.97v2.032l-.088 1.015-.089 1.016-.132 1.06-.31 2.118-.397 2.164-.485 2.163-.574 2.163-.618 2.164-.662 2.163-.663 2.12-.706 2.118-.706 2.031-.707 2.031-.662 1.943-.618 1.854-.971 2.075-.928 2.075-.927 2.075-.97 2.075-.928 2.075-.927 2.075-.971 2.075-.928 2.075-.927 2.075-.97 2.075-.928 2.12-.927 2.075-.927 2.075-.927 2.075-.972 2.119-.927 2.075v.353l.044.397v.354l.045.441 1.015-.088.971-.133.971-.176.928-.177.97-.22.884-.221.927-.265.883-.31.883-.308.883-.31.883-.397.839-.353 1.721-.839 1.678-.883 1.634-.927 1.633-1.015 1.634-1.06 1.677-1.06 3.311-2.251 3.4-2.252.088.31.133.662.132.97.177 1.281.353 3.135.441 3.62.398 3.753.441 3.443.353 2.738.265 1.677.795 2.164.794 2.119.84 2.12.838 2.162.883 2.12.883 2.119.971 2.075.972 2.119 1.06 2.075 1.059 2.075 1.148 2.075 1.192 2.031 1.236 2.03 1.324 2.032 1.369 1.986 1.5 1.987v.707l.045.662.044.662.088.662H11.876z" style="--darkreader-inline-fill:var(--darkreader-background-ffffff, #181a1b)"/><path fill="#fcdb00" d="M273.72 457.787v-35.761l8.256.044h16.467l8.212.044h8.256l8.211.045h8.256l8.212.044h8.256l8.211.044h8.256l8.212.044h8.255l8.212.044 8.256.044h8.211l.795 2.384.795 2.34.794 2.384.795 2.34.795 2.384.838 2.34.795 2.384.795 2.34.794 2.384.84 2.34.794 2.384.795 2.34.838 2.384.795 2.34.795 2.384.839 2.34H273.72z" style="--darkreader-inline-fill:var(--darkreader-text-fcdb00, #ffe11c)"/><path fill="#00973f" d="m419.057 453.284-2.34-6.887-2.384-6.844-2.472-6.799-2.517-6.799-2.56-6.71-2.65-6.667-2.692-6.667-2.737-6.622-2.782-6.578-2.825-6.579-2.87-6.534-2.958-6.534-2.958-6.49-3.002-6.49-3.002-6.446-2.914-5.342-2.914-5.342-3.002-5.254-3.002-5.21-3.09-5.165-3.135-5.121-3.178-5.077-3.18-5.033-3.222-4.99-3.267-4.944-3.311-4.945-3.311-4.9-3.355-4.901-3.356-4.812-3.4-4.857-3.399-4.812-.309-.31-.574-.617-.794-.927-1.06-1.28-1.324-1.502-1.501-1.854-1.766-2.075-1.943-2.34-2.207-2.56-2.34-2.826-2.56-3.047-2.782-3.223-2.914-3.443-3.09-3.665-3.267-3.797-3.444-3.973-4.15-4.46-3.267-3.487-2.56-2.737-2.12-2.208-1.986-2.03-2.031-2.076-2.34-2.384-2.958-2.914v-16.026l4.812 4.636 4.813 4.636 4.723 4.724 4.68 4.768 4.636 4.812 4.591 4.856 4.547 4.901 4.504 4.945 4.503 4.989 4.415 5.077 4.37 5.077 4.371 5.166 4.327 5.253 4.282 5.254 4.238 5.342 4.194 5.387 2.075 2.87 2.031 2.87 2.075 2.869 2.12 2.914 2.074 2.87 2.075 2.913 2.12 2.914 2.074 2.87 1.943 3.135 1.942 3.134 1.899 3.135 1.942 3.179 1.899 3.178 1.942 3.223 1.899 3.223 1.898 3.223 1.898 3.223 1.899 3.267 1.854 3.267 1.898 3.311 1.855 3.312 1.854 3.31 1.854 3.312 1.854 3.311 2.208 4.768 2.207 4.724 2.208 4.813 2.207 4.812 2.207 4.812 2.164 4.857 2.163 4.856 2.119 4.9 2.12 4.901 2.118 4.901 2.031 4.945 2.03 4.989 2.032 4.989 1.986 4.989 1.943 5.033 1.898 5.033 1.237 3.752 1.28 3.709 1.236 3.753 1.236 3.752 1.236 3.753 1.28 3.797 1.237 3.753 1.236 3.752h-15.275z" style="--darkreader-inline-fill:var(--darkreader-background-00973f, #007932)"/><path fill="#00973f" d="m438.924 453.902-2.163-6.27-2.208-6.268-2.207-6.181-2.252-6.181-2.251-6.137-2.34-6.093-2.296-6.092-2.384-6.049-2.428-6.004-2.473-6.005-2.472-6.004-2.56-5.96-2.65-5.96-2.648-5.96-2.738-5.917-2.163-4.37-2.251-4.371-2.252-4.283-2.296-4.282-2.295-4.239-2.384-4.238-2.34-4.194-2.428-4.15-2.429-4.15-2.428-4.106-2.472-4.106-2.472-4.062-2.473-4.062-2.472-4.061-2.516-4.062-2.473-4.018-3.885-5.298-3.885-5.298-3.885-5.21-3.93-5.165-3.973-5.121-4.017-5.077-4.018-5.033-4.061-5.033-4.062-4.945-4.106-4.9-4.15-4.857-4.194-4.813-4.194-4.812-4.238-4.724-4.238-4.724-4.327-4.636-3.708-3.664-3.047-3.002-2.604-2.56-2.517-2.385-2.605-2.516-3.002-2.87-3.62-3.532-4.547-4.415v-7.859l.044-2.649v-5.254l.044-2.604v-2.605l.707.574.838.706 1.28 1.148 2.076 1.854 3.134 2.914 4.503 4.194 6.27 5.828 8.3 7.726 4.193 4.415 4.15 4.46 4.194 4.458 4.15 4.504 4.15 4.503 4.15 4.547 4.15 4.548 4.106 4.636 4.062 4.635 4.061 4.636 4.018 4.724 4.017 4.768 3.974 4.812 3.929 4.857 3.885 4.856 3.841 4.99 3.84 5.518 3.842 5.563 3.752 5.651 3.753 5.651 3.664 5.695 3.62 5.74 3.62 5.783 3.533 5.828 3.487 5.916 3.444 5.916 3.4 5.96 3.31 6.005 3.267 6.048 3.223 6.137 3.135 6.137 3.09 6.18 2.517 5.873 2.472 5.872 2.428 5.916 2.428 5.916 2.384 5.96 2.34 5.96 2.34 6.004 2.296 6.005 2.295 6.004 2.252 6.049 2.207 6.048 2.164 6.093 2.163 6.137 2.12 6.136 2.074 6.137 2.075 6.181-2.207.044-2.208.044-2.163.045-2.207.044-2.208.044-2.163.044-2.208.044-2.207.044z" style="--darkreader-inline-fill:var(--darkreader-background-00973f, #007932)"/><path fill="#00973f" d="m461.704 455.933-1.324-4.283-1.369-4.238-1.412-4.282-1.413-4.239-1.457-4.238-1.457-4.194-1.501-4.239-1.501-4.194-1.545-4.194-1.545-4.15-1.59-4.194-1.633-4.15-1.634-4.15-1.633-4.15-1.678-4.106-1.722-4.106-1.722-4.106-1.765-4.106-1.766-4.062-1.766-4.062-1.855-4.017-1.854-4.018-1.854-4.018-1.898-4.017-1.899-3.974-1.942-3.973-1.987-3.93-1.987-3.929-2.03-3.93-2.031-3.884-2.031-3.885-2.075-3.532-2.031-3.488-2.075-3.444-2.075-3.444-2.075-3.443-2.119-3.4-2.075-3.4-2.12-3.355-2.118-3.355-2.12-3.311-2.163-3.311-2.163-3.268-2.163-3.267-2.163-3.223-2.208-3.222-2.207-3.18-4.283-5.694-4.326-5.652-4.415-5.607-4.415-5.562-4.503-5.475-4.503-5.43-4.592-5.387-4.591-5.342-4.636-5.298-4.724-5.21-4.723-5.21-4.724-5.12-4.813-5.122-4.812-5.033-4.856-5.033-4.856-4.945-1.148-.97-1.987-1.811-2.781-2.56-3.4-3.18-3.973-3.664-4.37-4.062-4.68-4.37-4.945-4.504v-5.518l.044-1.855v-3.664l.044-1.81v-1.81l2.958 2.251 2.914 2.34 2.914 2.384 2.914 2.473 2.913 2.516 2.87 2.56 2.87 2.606 2.87 2.649 2.869 2.693 2.825 2.693 2.87 2.693 2.826 2.737 2.825 2.693 2.826 2.738 2.825 2.693 2.826 2.649 4.459 4.635 4.37 4.592 4.371 4.68 4.37 4.68 4.283 4.724 4.238 4.768 4.239 4.768 4.194 4.857 4.15 4.856 4.15 4.945 4.105 4.944 4.062 5.034 4.062 5.077 4.017 5.121 3.974 5.21 3.973 5.254 1.457 2.03 1.457 2.075 1.5 2.075 1.458 2.076 1.457 2.119 1.5 2.075 1.502 2.075 1.457 2.119 2.693 4.282 2.648 4.327 2.65 4.327 2.648 4.326 2.605 4.371 2.605 4.371 2.56 4.415 2.561 4.415 2.517 4.415 2.516 4.503 2.472 4.503 2.473 4.548 2.428 4.547 2.428 4.636 2.34 4.68 2.34 4.68 1.5 3.443 1.546 3.488 1.501 3.488 1.501 3.532 1.501 3.532 1.501 3.576 1.545 3.576 1.501 3.576 1.501 3.62 1.501 3.62 1.501 3.621 1.457 3.62 1.501 3.665 1.457 3.664 1.501 3.62 1.457 3.665 1.678 4.9 1.501 4.327 1.324 3.797 1.148 3.355 1.016 2.914.883 2.65.794 2.383.75 2.164.707 2.075.662 1.986.663 1.987.706 2.12.706 2.207.795 2.428.883 2.693.971 3.002h-15.275z" style="--darkreader-inline-fill:var(--darkreader-background-00973f, #007932)"/><path fill="#00973f" d="m485.103 457.831-.618-2.251-.265-1.06-.265-1.06-.22-1.015-.177-.971-.133-.971-.132-.972-.088-.927-.044-.883v-.883l.044-.883.088-.839.088-.839.177-.794.22-.795.265-.795.31-.75.397-.795.397-.75.486-.707.53-.75.574-.75.662-.707.706-.707.795-.75.839-.707.883-.706.97-.706 1.06-.707.883-.441.883-.398.883-.397.883-.397.84-.398.882-.397.883-.441.883-.398-1.501-.176-1.457-.133-1.501-.176-1.457-.177-1.5-.133-1.502-.176-1.457-.133-1.5-.132-1.016-.31-1.016-.264-.927-.309-.883-.353-.883-.31-.794-.352-.795-.398-.75-.353-.707-.397-.662-.442-.662-.397-.619-.442-.574-.485-.53-.486-.53-.486-.485-.53-.485-.573-.442-.53-.397-.618-.397-.574-.398-.662-.353-.619-.353-.706-.31-.706-.617-1.457-.574-1.59-.53-1.677-.486-1.81v-1.016l.044-.971.089-.927.088-.927.088-.883.177-.84.177-.794.176-.795.22-.794.266-.75.265-.707.309-.707.353-.662.353-.662.353-.662.398-.619.441-.618.442-.574.485-.618.486-.574 1.104-1.103 1.147-1.148 1.28-1.06 1.325-1.104 1.457-1.103 1.501-1.148-1.633-.044-1.59-.045-1.545-.088-1.5-.088-1.458-.177-1.413-.132-1.412-.22-1.325-.266-1.324-.309-1.325-.309-1.324-.441-1.28-.442-1.28-.53-1.281-.618-1.325-.662-1.28-.75-1.236-1.193-1.104-1.147-1.015-1.193-.883-1.147-.795-1.148-.706-1.148-.574-1.148-.486-1.148-.397-1.148-.31-1.104-.176-1.148-.132-1.103-.044-1.148.044-1.104.132-1.104.221-1.103.265-1.104.353-1.06.442-1.103.485-1.06.574-1.104.618-1.06.663-1.059.75-1.06.795-1.015.883-1.06.883-1.015.97-1.06 1.016-1.015 1.016-1.015 1.103-.972 1.148-1.015-2.781-.133-2.737-.132-2.693-.177-2.65-.265-1.28-.176-1.28-.177-1.28-.265-1.236-.22-1.236-.31-1.237-.353-1.192-.353-1.192-.397-.883-.574-.838-.618-.795-.574-.75-.618-.707-.618-.662-.619-.618-.618-.574-.662-.574-.662-.486-.706-.441-.663-.442-.706-.353-.707-.353-.75-.31-.706-.264-.751-.265-.795-.177-.75-.176-.795-.133-.795-.132-.794-.044-.84-.088-.838v-1.678l.044-.883.044-.883.088-.927.265-1.81.353-1.898.795-1.59.839-1.457.883-1.368.883-1.325.927-1.28.927-1.28 1.06-1.325 1.059-1.324-2.56-.045-2.429-.088-2.295-.044-2.252-.133-1.06-.088-1.06-.088-1.015-.133-1.015-.176-.971-.133-.972-.22-.927-.221-.927-.31-.883-.264-.883-.353-.839-.398-.838-.441-.84-.442-.794-.53-.75-.573-.75-.663-.751-.662-.707-.75-.706-.795-.707-.883-.662-.927-.662-1.016-.618-1.103-.618-1.148-.486-1.855-.309-1.766-.132-.838-.133-.795-.088-.795-.044-.794v-2.208l.088-.75.088-.663.089-.706.132-.662.177-.707.176-.662.221-.618.265-.662.265-.663.309-.662.353-.618.353-.662.353-.662.84-1.325.97-1.369 1.06-1.412 1.192-1.457h-5.475l-2.427-.044-2.296-.133-1.104-.044-1.015-.132-1.016-.133-1.015-.132-.927-.177-.927-.22-.927-.221-.883-.31-.84-.309-.838-.353-.839-.397-.795-.442-.794-.53-.795-.53-.75-.617-.795-.663-.75-.706-.751-.75-.795-.883-.75-.883-.75-.972-.796-1.06-.75-1.103-.795-1.192-.485-2.075-.354-1.943-.176-.927-.088-.839-.089-.883-.044-.794-.044-.795v-.795l.044-.75.044-.75.133-.707.088-.707.177-.662.176-.662.221-.662.22-.663.31-.662.309-.618.353-.662.353-.618.397-.663.442-.662.971-1.28 1.104-1.369 1.236-1.413 1.369-1.456-2.65.264-2.074.265-1.634.133-1.324.132-1.236.133-1.28.044-1.457.088-1.855.088-1.457-.176-1.412-.22-1.325-.222-1.28-.265-1.236-.309-1.148-.353-1.104-.397-1.06-.398-.97-.485-.972-.486-.883-.53-.839-.53-.794-.617-.75-.663-.663-.662-.662-.706-.574-.75-.574-.84-.486-.839-.441-.838-.442-.928-.353-.97-.353-1.016-.31-1.06-.264-1.06-.22-1.147-.177-1.192-.133-1.192-.132-1.28-.045-1.325-.044-1.325-.044-1.413.31-1.015.352-.971.31-.883.353-.795.353-.795.353-.706.397-.706.398-.663.883-1.324.97-1.28 1.105-1.413 1.236-1.501-1.28.309-1.28.353-1.237.353-1.28.31-1.236.352-1.28.353-1.237.31-1.236.353-2.075.044-1.987.044-1.898-.044-1.81-.088-.927-.045-.84-.088-.882-.132-.795-.133-.839-.132-.794-.177-.795-.22-.795-.221-.75-.265-.75-.265-.707-.353-.706-.354-.707-.353-.706-.441-.662-.442-.707-.485-.662-.53-.618-.574-.662-.618-.618-.618-.618-.707-.619-.75-.573-.75-.619-.84-.441-1.28-.397-1.236-.354-1.236-.309-1.192-.309-1.148-.22-1.148-.177-1.148-.132-1.104-.089-1.104v-1.103l.044-1.104.089-1.104.132-1.148.265-1.103.265-1.148.397-1.148 1.192-2.296.883-1.722.618-1.236.442-.883.265-.53.132-.353.044-.177v-.176l-2.34.706-2.384.618-2.295.574-2.296.486-1.148.177-1.104.176-1.147.133-1.104.088-1.104.088-1.06.044h-1.103l-1.06-.044-1.06-.088-1.015-.133-1.06-.176-1.015-.22-1.015-.266-.971-.309-.972-.353-.97-.442-.972-.485-.927-.53-.883-.574-.927-.662-.883-.75-.883-.795-.84-.84-.838-.926-.795-1.457-.662-1.325-.618-1.236-.485-1.192-.398-1.104-.309-1.104-.22-1.015-.133-1.06-.088-1.015v-1.06l.088-1.103.088-1.148.177-1.192.265-1.28.265-1.37.309-1.5.353-.972.353-.97.353-1.016.353-.972.354-.97.353-.972.397-.971.353-.972-3.796 1.192-3.62 1.148-1.767.486-1.766.441-1.721.353-1.678.265-.883.089-.839.044-.839.044h-1.678l-.882-.088-.839-.089-.839-.132-.839-.177-.883-.22-.838-.265-.883-.265-.84-.353-.882-.398-.883-.441-.883-.486v-3.046l.044-1.016v-2.031l.044-.97v-1.016l1.457.883 1.413.794 1.368.751 1.37.662 1.412.574 1.368.486 1.369.441 1.413.353.706.133.707.088.75.089.75.088.751.044h2.296l.794-.044.795-.088.839-.133.839-.132.839-.133.883-.176.927-.221.883-.265 1.103-.442 1.104-.574 1.192-.53 1.236-.53.618-.264.618-.22.663-.221.618-.177.662-.133.662-.132.662-.044.707-.044.53.618.53.618.53.618.573.662-.662 1.06-.618 1.104-.574 1.103-.486 1.104-.485 1.104-.398 1.104-.353 1.147-.309 1.104-.22 1.104-.222 1.104-.132 1.148-.088 1.103v1.06l.044 1.104.088 1.06.177 1.103.22 1.015.31 1.06.353 1.015.441 1.016.486.971.53.971.662.928.706.883.75.883.884.883.927.794.971.795 1.104.795 1.148.706 1.236.706 1.324.663 1.501.176 1.546.177 1.545.044h1.545l1.59-.088 1.544-.133 1.546-.22 1.589-.265 1.545-.354 1.59-.397 1.545-.441 1.545-.486 1.545-.574 1.545-.618 1.501-.618 1.501-.707-1.942-.353-1.766-.397-1.678-.397-1.5-.442-.663-.22-.662-.266-.618-.265-.618-.309-.53-.309-.53-.309-.486-.397-.441-.353-.397-.442-.398-.441-.353-.442-.309-.53-.309-.53-.265-.573-.22-.618-.177-.663-.177-.706-.132-.75-.133-.751-.044-.839-.044-.883-.044-.927v-.971l.044-1.06.486-.706.53-.663.53-.662.573-.618.574-.53.618-.53.618-.485.662-.442.663-.397.706-.353.706-.353.707-.265.706-.221.75-.22.751-.133.75-.089.751-.088h.795l.75.044.795.044.75.133.751.177.795.22.75.265.75.31.751.352.707.442.75.441.707.53.662.53.706.618.663.662.397.045.397.044.398-1.016.441-1.015.486-.927.574-.883.618-.795.662-.795.662-.706.75-.618.795-.618.795-.486.839-.486.839-.397.883-.309.883-.265.927-.22.927-.133.927-.044h.927l.927.088.927.132.927.221.883.31.883.352.883.442.84.53.794.618.794.662.751.75.75.84.663.927.618.97.574 1.105v1.677l-.133 1.501-.088.707-.132.662-.133.618-.132.618-.177.53-.22.53-.221.486-.221.485-.265.442-.31.397-.308.397-.353.398-.398.353-.397.309-.397.353-.486.265-.971.618-1.104.53-1.192.53-1.369.53-1.456.53-1.59.573 1.016 1.192.883 1.148.794 1.148.707 1.104.309.53.265.53.22.53.221.529.133.53.132.53.088.53.089.485v.53l-.045.53-.044.53-.088.53-.177.485-.176.53-.265.574-.265.53-.353.53-.353.573-.442.53-.485.574-.53.574-.574.618-.618.574-.707.618-.706.353-.706.31-.707.264-.706.22-.707.222-.662.176-.706.133-.662.088-.663.088-.662.044-.662.045-.618-.045-.662-.044-.618-.088-.619-.088-.573-.177-.619-.132-.573-.221-.574-.22-.574-.266-.53-.309-.53-.309-.53-.397-.485-.353-.53-.442-.486-.441-.441-.442-.442-.53-.441-.53-.442-.573-.397-.574-.397-.619-.31-.883-.308-.883-.265-.882-.265-.84-.839.795-.75.84-.751.794-.662.795-.662.794-.574.84-.574.794-.486.839-.486.883-.441.883-.397.927-.354.971-.353 1.016-.265 1.06-.265 1.147-.264 1.192.176 1.634.22 1.545.31 1.457.353 1.413.442 1.28.485 1.236.574 1.148.662 1.06.707 1.015.75.927.795.839.883.795.927.706.971.662 1.016.574 1.06.53 1.103.442 1.148.397 1.192.353 1.236.265 1.28.22 1.28.177 1.325.089 1.369.044 1.368.044 1.413-.044 1.413-.133 1.457-.132 1.457-.177 1.5-.22 1.502-.31 1.5-.309 2.12-.706 1.236-.441.927-.221 1.104-.133.485.398.53.397.53.442.53.441-1.236 2.296-1.192 2.119-1.06 2.03-.927 1.943-.442.928-.397.927-.353.883-.265.927-.265.883-.22.839-.177.883-.133.883-.088.839v.883l.044.838.089.883.176.883.22.883.31.927.353.883.442.928.53.97.573.972.663 1.016.706 1.015.839 1.06.927 1.06.971 1.103 1.59.706 1.589.663 1.59.618 1.677.574 1.633.485 1.678.398.883.176.839.133.839.132.882.088.84.089.882.044.84.044h.882l.883-.044.883-.044.883-.133.839-.088.883-.177.883-.176.883-.265.883-.265.883-.265.883-.353.883-.397.883-.398-1.766-.662-1.546-.618-1.368-.574-1.236-.574-.53-.309-.486-.31-.485-.308-.442-.31-.397-.308-.353-.31-.354-.352-.309-.354-.309-.353-.265-.397-.264-.398-.221-.441-.177-.442-.22-.485-.177-.486-.133-.53-.309-1.148-.265-1.28-.22-1.413-.265-1.589.485-.927.486-.839.53-.839.486-.706.53-.707.53-.618.573-.574.53-.53.574-.441.574-.441.618-.354.618-.309.618-.265.618-.22.662-.133.662-.132.663-.089.662-.044.706.044.707.045.75.088.707.132.75.133.795.22.75.221.795.31.795.308.838.31 1.678.794 1.766.883.574.75.618.751.618.75.618.795.839-1.192.795-1.06.706-.97.706-.84.707-.75.706-.618.353-.265.354-.265.353-.265.353-.22.397-.177.398-.177.441-.176.442-.133.927-.265 1.06-.176 1.147-.133 1.325-.088 1.456-.044h1.634l1.148.397 1.104.398.97.397.884.441.839.442.75.486.353.265.31.264.308.31.265.309.31.309.264.353.22.353.222.397.441.84.353.926.31 1.016.264 1.148.221 1.324.177 1.413-.177.706-.22.663-.266.662-.22.574-.265.574-.265.485-.31.486-.308.486-.31.397-.352.397-.354.353-.353.354-.397.309-.398.309-.397.265-.441.265-.883.441-.972.353-1.015.353-1.06.31-2.34.53-2.56.53.574.97.53.972.485.971.486.971.397.972.31 1.015.22.971.177.972.044.53v.971l-.044.53-.089.485-.088.53-.132.486-.177.485-.22.53-.221.486-.31.53-.309.485-.353.53-.441.53-.442.485-.485.53-.75.397-.751.354-.795.309-.75.309-.751.265-.75.22-.751.177-.75.132-.751.133-.707.088-.706.044h-.75l-.663-.044-.706-.044-.706-.132-.663-.133-.662-.176-.662-.177-.618-.265-.618-.265-.618-.309-.618-.353-.574-.353-.574-.442-.53-.441-.53-.486-.53-.53-.485-.574-.486-.574-.441-.618-.442-.662-.397-.706-.31-1.237-.22-1.192-.265-1.192-.22-1.148-.928.795-.883.795-.839.839-.794.794-.75.795-.707.839-.662.795-.574.838-.574.84-.486.838-.441.839-.398.839-.353.883-.309.839-.22.883-.177.883-.133.883-.044.927v.927l.044.883.089.971.176.927.265.972.265.971.397.971.398 1.016.485 1.015.574 1.016.618 1.015.707 1.06.75 1.103.84 1.06.75.53.794.53.75.485.795.442.795.441.795.398.839.353.794.353.84.309.838.265.795.265.883.22.838.177.84.177.838.132.883.088.883.089.883.088h2.649l.927-.044.883-.088.927-.133.927-.132.927-.133.927-.176.972-.221.927-.22.971-.266.927-.265.971-.309h1.987l.442.574.485.662-.132.398-.177.397-1.148.883-1.103.927-1.016.927-.971.972-.883.971-.839 1.015-.75 1.016-.663 1.06-.618 1.06-.574 1.059-.485 1.103-.398 1.06-.309 1.104-.264 1.104-.177 1.103-.088 1.148v1.104l.044 1.104.176 1.103.221 1.148.265 1.104.397 1.06.486 1.103.574 1.06.618 1.104.75 1.015.795 1.06.927 1.015.972.971 1.103.972 1.148.971 1.28.927 1.501.486 1.413.485 1.413.354 1.369.309 1.324.265 1.324.176 1.325.133 1.324.044h1.325l1.324-.044 1.413-.133 1.369-.176 1.457-.221 1.5-.265 1.502-.31 1.633-.396-1.633-.751-1.501-.795-.707-.397-.662-.397-.662-.442-.618-.441-.574-.486-.53-.442-.53-.485-.485-.486-.442-.53-.397-.485-.398-.53-.309-.574-.309-.53-.265-.574-.22-.618-.177-.574-.088-.618-.089-.662-.044-.662v-.663l.089-.662.088-.706.177-.707.176-.75.265-.75.31-.795.396-.751.398-.839.794-.574.795-.53.75-.53.795-.44.795-.398.75-.353.751-.265.75-.265.751-.22.75-.178.751-.088.75-.088h1.413l.75.088.707.133.707.132.662.22.706.266.662.265.663.353.662.397.662.442.662.441.663.53.618.574.618.574.618.662.618.706.574.707.574.795.618.794.265-.176.353-.354.486-.485.618-.618.706-.707.839-.839.971-.927 1.148-1.015.883-.397.883-.31.927-.264.927-.177.927-.177.883-.088.927-.044h.883l.883.088.883.089.839.176.839.22.839.266.794.309.75.353.707.397.662.486.663.486.618.574.53.618.53.618.44.706.398.75.353.795.265.84.221.882.132.927.089.972-.044 1.015-.045 1.06-.176 1.103-.22 1.104-.84 1.104-.794.883-.795.839-.75.662-.795.574-.795.486-.795.397-.838.353-.84.265-.882.22-.927.177-.972.133-2.119.265-2.384.22.486 1.457.441 1.37.354 1.324.309 1.236.132.618.088.618.045.618.044.574v.574l-.044.53-.045.53-.088.573-.132.486-.133.53-.22.486-.221.485-.265.486-.353.486-.354.441-.397.442-.486.441-.485.397-.574.442-.574.397-.662.353-.75.398-.751.353-.84.397-1.633.177-1.545.088h-1.413l-1.368-.044-.618-.088-.618-.089-.574-.132-.574-.132-.53-.133-.53-.177-.485-.22-.486-.221-.442-.265-.441-.309-.441-.309-.398-.31-.397-.352-.397-.398-.354-.397-.353-.441-.353-.486-.31-.486-.352-.53-.265-.53-.618-1.191-.53-1.325-.177-1.324-.176-1.325-.133-1.28-.132-1.28-1.501 1.147-1.413 1.148-1.324 1.104-1.148 1.06-.574.574-.53.53-.486.573-.485.574-.442.574-.441.574-.397.574-.354.618-.353.618-.309.618-.265.663-.265.662-.265.706-.176.707-.22.706-.133.795-.133.75-.132.84-.044.838-.089.883v2.826l.044 1.015.221.75.265.751.265.706.265.663.309.662.309.618.309.618.353.574.353.574.398.574.397.53.442.485.397.486.485.486.486.441.486.442.485.397.574.397.53.398.574.353 1.192.706 1.28.618 1.369.574 1.457.574 1.545.486 1.634.441h8.211l1.634-.044 1.457-.044 1.412-.088 1.545-.133 1.943-.132.265 1.06.22.662.221.485.354.663-1.722 1.545-1.722 1.545-1.634 1.501-1.545 1.501-.706.75-.706.751-.663.75-.618.796-.618.794-.53.795-.53.795-.44.794-.442.84-.354.882-.309.84-.264.926-.177.883-.177.927-.044.972-.044 1.015.088 1.016.089 1.06.22 1.059.265 1.148.353 1.147.442 1.193.486 1.236.618 1.236.662.75.706.663.662.662.707.662.706.618.707.574.706.574.75.53.751.486.706.485.795.442.75.397.795.397.75.354.795.353.84.265.838.265.839.265.839.176.839.177.883.176.927.089.883.088.927.044.971.044.927-.044.971-.044 1.016-.044 1.015-.133 1.016-.132 1.06-.177 1.059-.22-1.413-.883-1.369-.84-1.192-.838-1.103-.795-.972-.75-.883-.795-.397-.397-.353-.398-.31-.397-.308-.442-.265-.441-.265-.442-.177-.441-.176-.486-.177-.485-.132-.53-.088-.53-.045-.574-.044-.574.044-.618v-.662l.089-.662.088-.707.132-.75.133-.75.176-.84.619-.662.618-.618.618-.574.574-.53.574-.486.618-.441.574-.441.573-.398.619-.309.574-.309.573-.265.574-.22.618-.221.574-.133.618-.132.619-.089h1.854l.618.089.662.132.662.133.663.176.706.221.662.265.75.309.707.309.75.397 1.546.84 1.59.97.75 1.104.53.883.53 1.148.794 1.899h.927l.795-.84.75-.794.662-.662.663-.574.662-.486.618-.397.618-.353.662-.265.662-.265.751-.177.795-.132.838-.089 1.987-.132 2.472-.132 1.06.22.971.31.972.353.883.441.838.486.795.53.75.618.707.618.618.662.574.75.486.751.441.75.397.795.31.84.22.838.177.839.088.839v.838l-.088.84-.133.838-.22.839-.31.795-.397.794-.485.75-.574.751-.663.707-.75.662-.839.574-.927.574-1.06.53-1.147.441-1.237.398-1.015.088-.839.088-.706.044h-1.413l-.883-.044h-1.104l-1.412-.088.397 1.192.397 1.192.353 1.148.265 1.236.089.618.088.618.044.663v.706l-.044.706-.088.75-.133.796-.22.838-.663.972-.706.883-.75.794-.751.707-.75.662-.795.53-.795.485-.795.442-.794.353-.795.265-.839.177-.795.132-.838.088h-.84l-.794-.044-.839-.132-.794-.177-.795-.22-.795-.31-.75-.309-.795-.397-.706-.441-.75-.486-.707-.53-.662-.574-.663-.618-.618-.662-.618-.707-.574-.75-.53-.75-.53-.795-.485-.84v-6.489l-1.06.662-1.015.706-1.015.707-1.016.75-.927.795-.927.795-.883.839-.795.838-.794.883-.75.883-.663.928-.662.927-.574.971-.486.971-.485 1.016-.398.971-.309 1.06-.265 1.015-.176 1.06-.133 1.06v1.059l.044 1.06.133 1.103.22 1.104.265 1.104.398 1.103.485 1.104.618 1.104.663 1.104.794 1.147.883 1.104 1.016 1.104.574.441.618.398.574.353.618.353 1.28.662 1.28.574 1.325.53 1.368.442 1.413.397 1.457.353 1.457.31 1.457.264 1.5.22 1.546.222 3.09.353 3.135.353.22.706.222.84.088.485.088.53.044.574.044.618-2.03 1.104-1.899 1.015-1.766 1.015-1.545.972-.75.485-.707.53-.662.53-.574.486-.618.574-.53.53-.485.573-.442.574-.441.618-.398.663-.309.662-.309.662-.265.706-.265.795-.176.75-.133.84-.132.882-.044.883-.044.972v1.015l.044 1.016.088 1.103.088 1.148.177 1.236.397 1.016.398 1.015.441 1.016.397 1.015.398 1.016.441 1.015.398 1.06.441 1.015-1.192.044-1.236.044-1.192.045-1.236.044-1.192.044-1.236.044-1.192.044-1.237.044z" style="--darkreader-inline-fill:var(--darkreader-background-00973f, #007932)"/><path fill="#fcdb00" d="m497.553 457.964-.795-2.075-.706-1.943-.574-1.81-.265-.883-.22-.839-.177-.839-.177-.794-.088-.75-.088-.795-.045-.751v-.706l.045-.751.088-.706.176-.707.177-.662.265-.706.309-.663.353-.706.397-.662.486-.663.53-.706.574-.662.662-.707.75-.706.795-.706.883-.707.927-.706 1.634-.839 1.633-.795 1.634-.794 1.677-.75 1.28.882 1.281.75.618.31.618.309.662.309.574.22.618.221.618.221.619.177.618.132.574.133.618.044.618.088h1.81l.618-.088.618-.089.662-.088.618-.177.618-.176.663-.22.618-.222.662-.265.662-.309.662-.353 1.369-.75 1.413-.883.132 1.06.088 1.059.089 1.501.044 2.207.044 3.223.044 4.68.044 6.358.089 8.432h-30.86z" style="--darkreader-inline-fill:var(--darkreader-text-fcdb00, #ffe11c)"/><path fill="#da251d" d="m265.509 448.56-1.943-3.576-1.898-3.576-1.854-3.665-.883-1.81-.883-1.81-.84-1.766-.794-1.81-.75-1.766-.663-1.766-.662-1.722-.574-1.722-.353-1.766-.309-1.766-.22-1.677-.221-1.722-.221-1.634-.133-1.677-.132-1.634-.133-1.59-.176-3.266-.088-3.223-.045-3.267-.044-3.312-.971.265-.883.31-.75.308-.707.31-.662.309-.618.353-.574.397-.53.397-.53.398-.485.485-.53.486-.53.53-1.192 1.236-1.413 1.413-1.898 1.06-1.987 1.147-2.03 1.148-2.076 1.148-1.06.53-1.059.486-1.015.485-1.06.397-1.015.398-1.015.353-.972.265-.971.22 1.501-3.399 1.545-3.444 1.59-3.487 1.633-3.576 1.59-3.665 1.633-3.664 1.545-3.709 1.501-3.708 1.457-3.753 1.369-3.753.618-1.898.618-1.899.618-1.854.53-1.898.53-1.855.485-1.898.442-1.854.441-1.855.353-1.898.353-1.854.265-1.81.221-1.855-.132-1.413-.133-1.28-.22-1.192-.221-1.104-.31-.971-.353-.927-.176-.398-.22-.397-.222-.353-.264-.353-.265-.31-.31-.264-.308-.265-.31-.265-.397-.177-.353-.22-.397-.177-.442-.132-.485-.133-.486-.088-.486-.088-.574-.045-.574-.044h-.574l-.662.044-.662.045-1.501 1.28-1.457 1.28-1.369 1.325-1.28 1.368-1.192 1.369-1.148 1.369-1.06 1.412-1.015 1.457-.927 1.457-.883 1.457-.794 1.501-.795 1.501-.706 1.546-.663 1.545-.618 1.59-.574 1.589-.574 1.633-.485 1.634-.486 1.677-.486 1.678-.838 3.4-.75 3.487-.751 3.577-.707 3.62-.75 3.708-.75 3.797h-.222l-.264-.044-.265-.088-.354-.133-.75-.309-.883-.441-2.03-1.06-2.208-1.236-2.252-1.324-2.119-1.237-1.722-1.015-1.236-.662-.839-.265-.839-.221-.838-.177-.84-.176-.838-.133-.795-.088-.839-.088-.794-.044-.795-.045h-.839l-.794.045-.795.044-1.59.176-1.589.265-1.545.31-1.59.353-1.544.441-1.59.486-3.09 1.06-3.09 1.103-.133-.53-.044-.53 2.605-4.238 2.649-4.238 2.648-4.239 2.65-4.238 2.604-4.238 2.649-4.239 2.649-4.194 2.649-4.238 2.649-4.239 2.649-4.238 2.649-4.238 2.648-4.239 2.65-4.238 2.648-4.239 2.65-4.238 2.648-4.238.442-1.325.441-1.28.441-1.28.486-1.325.442-1.28.485-1.28.486-1.28.441-1.281.354-1.899.309-1.898.309-1.899.22-1.854.177-1.854.177-1.854.132-1.855.088-1.81.044-1.854v-3.576l-.088-1.81-.088-1.766-.088-1.81-.177-1.766-.177-1.766-.662-3.444-.618-3.444-.662-3.4-.618-3.443-.618-3.444-.618-3.443-.618-3.444-.619-3.444-.662-.309-.397-.176-.397-.044-.53-.045-.486 1.06-.795 2.075-1.103 2.87-1.325 3.576-1.5 4.017-1.634 4.371-1.722 4.548-1.81 4.503-1.06 2.296-1.103 2.34-1.148 2.34-1.148 2.34-1.192 2.384-1.236 2.34-1.236 2.34-1.237 2.34-1.28 2.34-1.324 2.34-1.28 2.295-1.37 2.296-1.324 2.296-1.368 2.251-1.369 2.252-1.369 2.207-.662.044-.618.133-.883-1.148-.839-1.236-.75-1.236-.662-1.28-.618-1.281-.486-1.369-.486-1.368-.397-1.413-.31-1.457-.308-1.457-.22-1.457-.133-1.501-.133-1.501-.088-1.545-.044-1.501v-1.546l.044-1.545.088-1.545.089-1.545.132-1.546.353-3.046.353-3.002.442-2.914.441-2.826.442-2.693.397-2.604.353-1.502.398-1.5.353-1.546.397-1.501.353-1.545.398-1.501.397-1.501.397-1.546 1.413-.618 1.413-.662 1.324-.706 1.28-.795 1.325-.795 1.28-.839 1.28-.927 1.325-.927-.044 1.545-.044 1.59-.088 1.59-.089 1.633-.176 1.633-.177 1.678-.22 1.678-.266 1.766-.838 3.487-.795 3.267-.75 3.135-.751 2.914-.662 2.737-.574 2.517-.53 2.34-.397 2.075-.31 1.854-.176 1.634-.044.706-.044.618.044.618.044.486.088.441.133.398.176.309.221.22.265.177.309.088h.353l.398-.044.883-3.311.927-3.311.883-3.312.927-3.31.839-3.312.838-3.267.795-3.267.795-3.311.706-3.267.618-3.267.574-3.312.53-3.267.441-3.267.354-3.311.132-1.634.132-1.633.089-1.634.044-1.677-.618.044h-1.148l-.574.088-.75 1.28-.795 1.237-.795 1.236-.839 1.148-.883 1.148-.927 1.06-.927.97-1.015.928-.53.441-.53.397-.574.398-.574.353-.574.353-.618.31-.618.308-.618.265-.662.221-.706.22-.663.177-.75.133-.75.132-.751.044-.795.089h-.795l-.883-.265-.794-.265-.75-.353-.707-.398-.618-.441-.574-.442-.486-.53-.485-.53-.442-.53-.441-.573-.354-.618-.353-.618-.618-1.236-.618-1.28-.353-1.414-.353-1.192-.398-.927-.353-.75-.176-.265-.221-.265-.177-.177-.176-.132-.177-.088-.22-.045-.177-.044-.221.044-.177.089-.22.132-.177.133-.22.22-.442.486-.442.618-.441.75-.486.884-.53.971-.53 1.06-.573.794-.618.75-.574.707-.618.707-.618.662-.619.618-.618.618-.618.574-1.324 1.104-1.369 1.06-1.457 1.059-1.5 1.06h-2.429l-1.06-.045-1.015-.044-.927-.088-.883-.133-.795-.176-.75-.177-.706-.22-.619-.265-.573-.265-.53-.353-.442-.31-.441-.397-.398-.441-.353-.442-.309-.486-.265-.485-.265-.574-.22-.574-.221-.618-.177-.618-.132-.707-.133-.706-.264-1.501-.221-1.678-.22-1.81-.222-1.943-.485.045-.442.044-1.457 1.28-1.5 1.236-1.502 1.236-1.545 1.237-1.59 1.192-1.544 1.103-1.59 1.06-1.59.927-1.412.31-1.324.22-1.192.132h-1.104l-.971-.044-.927-.132-.795-.22-.75-.31-.619-.397-.574-.398-.485-.53-.442-.53-.309-.617-.309-.663-.22-.706-.133-.75-.133-.795-.044-.795v-1.722l.089-.927.088-.883.132-.927.133-.927.397-1.899.442-1.854.485-1.81.442-1.722-.795.044-.75.044-.751.089-.706.088-1.369.265-1.28.353-1.325.397-1.28.398-1.369.397-1.456.353h-1.457l-1.413-.132-.662-.088-.618-.089-.619-.132-.618-.133-.53-.132-.53-.22-.529-.177-.486-.221-.441-.265-.397-.265-.398-.265-.309-.309-.353-.309-.265-.353-.22-.397-.221-.398-.133-.441-.132-.442-.089-.441-.044-.53v-.486l.044-.574.089-.574.132-.574.177-.618.265-.662.265-.662.309-.707.883-.883.927-.883.971-.882.927-.972.397-.485.442-.486.353-.486.353-.53.31-.53.264-.53.177-.529.132-.53-.441-.176-.442-.133-.441-.132-.442-.044-.927-.089h-.927l-1.898.221-1.943.265-.971.132-.971.045h-1.016l-.971-.089-.486-.088-.53-.088-.485-.177-.486-.176-.53-.221-.485-.221-.486-.309-.485-.353-.663-1.016-.485-.971-.177-.441-.176-.442-.133-.441-.132-.442-.089-.397-.044-.398-.044-.397v-.397l.044-.354.044-.353.045-.397.088-.353.265-.707.309-.662.397-.706.486-.707.53-.662.573-.706.619-.75.662-.707.397-.265.839-.486 1.104-.706 1.236-.883.618-.442.574-.485.574-.486.485-.486.442-.441.309-.442.132-.176.089-.221.044-.177v-.176l-1.148-.353-1.148-.265-1.104-.221-1.06-.132-1.015-.133-1.06-.088-1.015-.044-1.06-.089-1.191-.574-.971-.53-.442-.308-.397-.265-.353-.265-.31-.265-.264-.31-.265-.264-.221-.31-.177-.264-.176-.31-.133-.308-.132-.31-.088-.308-.133-.662-.044-.707v-1.545l.088-1.766.089-1.987 1.103-1.06 1.104-.97 1.104-.928 1.103-.839 1.104-.883 1.192-.839 1.236-.838 1.28-.84.089-.485.088-.397.088-.442.133-.397-1.104-.618-1.103-.618-1.06-.618-.971-.618-.972-.663-.838-.706-.442-.353-.353-.353-.353-.354-.353-.397-.31-.397-.264-.398-.265-.397-.177-.442-.22-.397-.133-.486-.088-.441-.089-.486-.044-.485.044-.486.045-.53.088-.574.132-.53.177-.573.265-.619.265-.618 1.103-.706 1.06-.75 1.104-.751 1.06-.75 1.059-.751 1.103-.75 1.06-.707 1.104-.75v-.84l.044-.397.044-.397-1.015-.442-1.016-.441-.971-.486-.971-.485-.927-.53-.84-.574-.397-.31-.397-.308-.353-.31-.31-.308-.308-.31-.265-.353-.22-.353-.177-.353-.177-.353-.132-.353-.045-.398-.044-.397v-.397l.044-.442.133-.397.176-.442.177-.441.309-.486.31-.441.396-.486 1.501-1.016 1.457-1.015 1.546-.971 1.5-.972.045-.53.044-.44h-.971l-.883.087-.795.177-.75.177-.707.265-.662.309-.618.353-.53.397-.53.442-.53.485-.485.53-.442.574-.927 1.192-.971 1.369-2.34.441-2.384.31-2.384.22-2.34.177-2.34.132-2.34.044-2.34.044h-2.34l-2.295-.044-2.34-.088-2.296-.044-2.295-.089-2.296-.044-2.296-.044-2.251-.044-2.252.044.397.486.53.441.662.442.795.397.883.353.971.354 1.06.264 1.192.31 1.236.22 1.28.22 1.369.222 1.413.176 2.914.265 3.046.221 3.046.177 3.002.088 2.958.044 2.737.044h2.517l2.207-.044h3.267l1.148 1.015 1.148 1.06 1.148 1.06 1.148 1.06v.176l-.045.176-.088.177-.132.22-.354.486-.441.53-.486.574-.618.618-.662.618-.706.663-1.413 1.236-1.413 1.104-.662.485-.574.397-.53.354-.397.22-2.163-.132-2.164-.22-2.119-.222-2.119-.264-2.119-.31-2.075-.353-2.075-.397-2.03-.442-2.032-.485-1.986-.53-1.987-.574-1.943-.618-1.898-.662-1.898-.707-1.899-.794-1.81-.84-1.81-.838-1.766-.927-1.766-1.016-1.677-1.015-1.678-1.104-1.633-1.148-1.59-1.192-1.545-1.28-1.501-1.325-1.457-1.368-1.457-1.457-1.368-1.501-1.325-1.545-1.28-1.634-1.236-1.678-1.192-1.766h2.958l2.958-.044h3.002l2.958-.044 2.957-.044 2.958-.044 3.003-.089 2.957-.088 2.958-.088 2.958-.088 3.002-.133 2.958-.088 2.958-.133 2.958-.176 3.002-.133 2.958-.176 2.384-.574 2.914-.707 3.355-.838 3.665-.84 1.942-.397 2.031-.397 2.03-.397 2.076-.354 2.119-.353 2.12-.265 2.162-.265 2.12-.176 2.119-.133 2.075-.044h2.075l2.03.089 1.987.22 1.899.265 1.81.353 1.766.53 1.677.574 1.545.75 1.457.84 1.28.97 1.193 1.149 1.06 1.28.882 1.457.75 1.59.089.97.044.972-.044.971-.132.972-.177.97-.22.928-.31.971-.309.927-.397.928-.442.927-.485.927-.53.883-.574.927-.618.883-.618.839-.662.883-.707.839-.706.839-.707.794-.75.84-1.545 1.544-1.545 1.457-1.546 1.413-1.5 1.369-1.502 1.236-1.368 1.148-.442.883-.353.839-.353.883-.221.883-.22.927-.133.927-.133.883-.044.971v.927l.044.927.045.972.132.971.177.927.176.971.22.972.266.971.265.971.309.927.353.972.353.971.75 1.898.84 1.855.882 1.81.883 1.81.928 1.722.927 1.678 1.589 1.147 1.545 1.06 1.545 1.06 1.634 1.015 1.633.927 1.766.971 1.855.928 2.03.883 1.192.22 1.016.177.971.132 1.104.089 1.324.132 1.722.088 2.296.177 2.958.177 4.105-.089 3.974-.044 3.929-.044 3.797-.088 3.752-.089 3.665-.044 3.532-.088 3.531-.088 3.4-.044 3.355-.089 3.267-.044 3.223-.044 3.179-.044 3.09-.044 3.002-.045h3.002l1.148.354 1.104.353 1.015.353.927.397.883.398.84.441.75.442.794.485.707.574.706.618.75.663.707.75.706.795.75.927.796 1.016.838 1.06.75.308.928.265 1.06.265 1.103.177.75-1.457.575-1.148.485-.883.354-.707.397-.618.353-.618.442-.662.53-.839.882-.75.883-.707.883-.662.883-.618.927-.574.883-.53.927-.486.928-.441 3.576-1.722 3.443-1.633.795-.442.795-.486.794-.485.707-.53.706-.574.706-.574.618-.662.618-.707.574-.75.53-.839.486-.883.441-.971.398-1.06.353-1.104.309-1.192.265-1.324-.044-1.016-.045-1.015-.044-.971-.132-.927-.088-.928-.177-.883-.177-.838-.22-.795-.221-.839-.265-.75-.265-.751-.309-.75-.309-.707-.353-.706-.353-.707-.354-.662-.838-1.324-.84-1.325-.926-1.28-1.016-1.28-2.075-2.561-2.207-2.738-2.163-1.942-1.634-1.501-1.192-1.104-.839-.795-.574-.53-.353-.441-.265-.353-.265-.353-.22-1.413-.177-1.28-.22-1.148-.266-1.06-.264-.971-.31-.883-.309-.795-.397-.75-.486-.707-.53-.662-.617-.618-.707-.662-.75-.663-.927-.662-.972-.662-1.148-.75-3.222-1.325-3.4-1.369-1.722-.75-1.721-.751-1.678-.795-1.633-.883-.84-.441-.75-.486-.75-.485-.75-.53-.663-.53-.662-.53-.663-.574-.573-.618-.574-.618-.53-.618-.486-.662-.441-.707-.398-.706-.309-.75-.309-.795-.22-.795.044-.971.044-.927.132-.84.177-.794.22-.706.221-.663.31-.618.353-.574.353-.53.397-.485.442-.442.485-.397.53-.353.53-.31.574-.308.574-.221.618-.22.662-.177.662-.177.662-.132 1.457-.177 1.501-.088 1.546-.089h1.545l1.633.045 1.59.044 1.5.397 1.502.353 1.457.398 1.5.353 1.502.397 1.5.398 1.502.353 1.5.441 3.268-.044 3.223-.044 3.222-.044 3.267-.133 3.267-.132 3.312-.177 3.355-.265 3.488-.265-.221 1.104-.177 1.06-.176 1.06-.177 1.103-.177 1.06-.176 1.103-.177 1.06-.176 1.104 3.134 1.854 3.09 1.943 3.047 2.03 3.046 2.076 3.046 2.207 3.047 2.252 3.046 2.384 3.09 2.516.044 19.294v19.249l.044 19.25v38.542l.045 19.293v38.543l.044 19.249v19.25l.044 19.293V394.3l.044 19.25v19.293l.044 19.249z" style="--darkreader-inline-fill:var(--darkreader-background-da251d, #ae1e17)"/><path fill="#fcdb00" d="m103.572 441.761-.618-.971-.53-1.016-.441-1.015-.22-.53-.133-.486-.133-.53-.132-.53-.088-.485-.089-.53-.044-.485v-1.501l.044-.53.089-.486.088-.486.132-.485.133-.442.176-.485.221-.442.22-.441.222-.486.309-.397.264-.442.354-.397.353-.442.353-.397.574-.265.795-.309 1.015-.353 1.236-.353 1.325-.398 1.457-.353 1.5-.309 1.546-.265 1.545-.22 1.457-.133h2.075l.618.088.574.089.53.132.485.133.442.22.353.221.309.31.265.308.176.397-.176.619-.088.662-.133.662-.044.662-.088 1.413-.044 1.457.044 1.501.044 1.501.088 1.501.044 1.457-1.5-.132-1.016-.089-1.016-.22-1.5-.353-1.634-.972-1.457-.75-.618-.31-.618-.264-.574-.221-.486-.177-.485-.132-.486-.044-.397-.044-.398.044-.353.044-.353.088-.31.177-.264.176-.265.221-.265.265-.265.31-.22.352-.442.84-.397.926-.84 2.384-.926 2.914h-.663zm22.118-3.267-.397-1.192-.353-1.06-.265-.971-.176-.927-.133-.839-.044-.795v-.794l.044-.795.088-.795.133-.794.132-.84.442-1.854.53-2.207 1.412-1.016 1.457-.97 1.457-1.016 1.457-.927.927-.31.927-.22.927-.22.928-.133.927-.133.927-.044.927-.044h.971l.927.044.927.044.972.088.927.089 1.898.22 1.899.31 1.942.309 1.943.309 1.942.265 1.987.22 1.015.089.971.044 1.016.044h1.015l1.016-.044 1.015-.044 1.016-.133 1.06-.132.926-.53.971-.486.928-.485.97-.486 2.473-3.709 2.517-3.708 2.428-3.753 2.384-3.797 1.192-1.942 1.104-1.899 1.103-1.942 1.06-1.987.971-1.987.971-1.987.927-2.03.84-2.031 1.854-.486 1.765-.441.883-.177.883-.133.928-.088.882-.044h.883l.928.044.883.088.97.177.928.22.971.266.971.353 1.016.397-.839 2.031-.971 2.031-1.016 2.075-1.103 2.031-1.06 2.03-1.104 2.076-1.103 2.03-1.06 2.076-1.015 2.119-.927 2.075-.442 1.06-.397 1.06-.353 1.059-.354 1.104-.353 1.06-.265 1.103-.265 1.06-.176 1.103-.177 1.104-.132 1.148-.089 1.104v1.103l.398.398.441.353.442.309.485.265.486.22.53.177.53.177.53.132.573.088.574.089.574.044.618.044h1.192l1.28-.044 1.28-.133 1.325-.176 1.325-.177 1.324-.176 1.28-.221 1.325-.133 1.28-.132 1.28-.088.53.088.486.132.53.133.53.177.53.176.485.22.53.266.485.265.486.309.486.309.441.309.442.353.397.397.397.398.353.397.354.442.265.441.309.442.22.485.221.486.133.53.132.485.088.53.044.53-.044.53-.044.574-.132.574-.177.573-.22.574-.31.574-.353.574-.397.574h-.795l-.397-.706-.398-.618-.441-.53-.442-.442-.485-.353-.486-.309-.53-.22-.53-.133-.53-.088-.573-.044h-.53l-.574.044-.574.132-.574.133-.618.176-.574.221-1.147.53-1.193.618-1.103.662-1.104.662-1.015.618-.972.619-.883.53-.794.397-1.369-.574-1.324-.574-1.369-.574-1.324-.574-1.369-.574-1.324-.574-1.325-.574-1.324-.574-3.444-.176-3.4-.177-3.31-.177-3.267-.132-3.223-.088-3.223-.089-3.223-.044h-3.267l-1.942.707-2.075.75-1.104.353-1.104.353-1.104.354-1.147.265-1.104.309-1.148.22-1.104.177-1.06.088-1.059.044h-1.06l-.485-.044-.486-.088-.485-.044-.442-.133-1.236-1.368-.927-1.192-.397-.574-.354-.574-.309-.53-.309-.53-1.148.089-1.015.176-.883.177-.795.22-.706.265-.618.31-.53.397-.53.441-.441.486-.442.53-.441.662-.442.662-.927 1.634-1.148 1.986-.53.265-.44.265z" style="--darkreader-inline-fill:var(--darkreader-text-fcdb00, #ffe11c)"/><path fill="#00973f" d="m516.58 432.887-.529-.31-.927-.352-1.678-.663-.927-.75-.839-.75-.75-.707-.662-.75-.53-.707-.442-.75-.353-.751-.265-.75-.176-.751-.089-.75v-.795l.089-.795.132-.839.22-.839.354-.883.353-.927.663-.839.706-.75.75-.663.795-.618.839-.53.839-.44.883-.398.839-.31.927-.264.883-.177.883-.088h1.765l.883.132.84.177.838.22.795.31.75.397.707.442.662.485.618.574.574.662.53.663.441.794.353.795.31.883.22.927.133 1.016.044 1.06-.044 1.147-.177 1.148-.265 1.236-.618.839-.574.75-.618.663-.574.574-.618.53-.574.485-.662.398-.618.309-.662.309-.707.265-.75.22-.795.177-1.766.353-1.987.265z" style="--darkreader-inline-fill:var(--darkreader-text-00973f, #62ffa4)"/><path fill="#fcdb00" d="M498.127 422.38v-.354h6.314v.662h-6.314z" style="--darkreader-inline-fill:var(--darkreader-text-fcdb00, #ffe11c)"/><path fill="#da251d" d="m54.832 397.302-.53-.397-.53-.442-.44-.397-.398-.397-.353-.353-.31-.398-.264-.397-.22-.353-.222-.354-.132-.397-.133-.353-.088-.353-.044-.398-.044-.353v-.397l.088-.75.177-.795.22-.84.31-.882.706-1.987.839-2.252 2.649-5.386 2.649-5.342 2.693-5.386 2.649-5.386 2.693-5.387 2.693-5.386 2.737-5.386 2.693-5.386 2.737-5.343 2.693-5.386 2.737-5.342 2.738-5.342 2.693-5.342 2.737-5.298 2.737-5.298 2.737-5.254 1.28-2.781 1.237-2.693 1.236-2.693 1.236-2.65 1.28-2.648 1.236-2.605 1.237-2.56 1.28-2.606 1.236-2.56 1.28-2.561 1.28-2.56 1.325-2.561 1.325-2.561 1.368-2.56 1.369-2.562 1.413-2.604 1.368-.31 1.413-.264 1.413-.31 1.368-.264 1.413-.31 1.413-.264 1.412-.265 1.457-.265-1.721 5.298-1.766 5.298-1.855 5.298-1.942 5.254-2.03 5.298-2.12 5.253-2.163 5.254-2.296 5.254-2.34 5.21-2.384 5.165-2.472 5.122-2.56 5.12-2.606 5.034-2.693 4.989-2.737 4.945-2.781 4.9-.486 1.148-.441 1.06-.398 1.015-.353.971-.309 1.016-.265 1.104-.309 1.148-.22 1.28.397-.22.397-.222.353-.265.398-.309.706-.618.706-.706.707-.795.662-.839.618-.883.618-.927 1.148-1.898 1.06-1.899.97-1.721.884-1.59 2.384-4.812 2.428-4.812 2.384-4.813 2.384-4.856 2.384-4.857 2.428-4.856 2.384-4.857 2.384-4.856 2.34-4.812 2.384-4.857 2.384-4.856 2.34-4.813 2.34-4.812 2.34-4.812 2.295-4.812 2.296-4.769.353-.088.31-.044.353-.044.353-.044.132.309.22.309.31.353.397.353.927.75 1.104.795 1.192.795 1.192.795 1.104.75.971.75v.884l-1.545 3.753-1.501 3.752-1.501 3.753-1.545 3.753-1.501 3.752-1.546 3.753-1.5 3.797-1.502 3.753-2.693 5.298-2.693 5.253-2.693 5.298-2.693 5.254-2.693 5.298-2.693 5.254-2.737 5.254-2.737 5.254-2.738 5.253-2.781 5.254-2.781 5.254-2.782 5.21-2.87 5.253-2.825 5.21-2.87 5.254-2.913 5.21-1.148 1.677-1.236 1.678-1.325 1.633-1.324 1.634-1.369 1.634-1.368 1.589-1.413 1.59-1.369 1.589-1.324.794-1.325.795-1.324.75-1.369.795-1.28.795-1.324.795-1.325.794-1.324.795-1.59.265-1.633.309-1.634.265-1.633.265-1.59.265-1.633.22-1.59.221-1.545.177z" style="--darkreader-inline-fill:var(--darkreader-text-da251d, #e54139)"/><path fill="#fcdb00" d="M273.72 381.63v-30.95h6.27l6.268.044h12.494l6.27.045h6.269l6.269.044h12.538l6.225.044h6.269l6.269.044H361.4l6.312.044h6.27l.97 2.031.928 1.987.971 1.987.971 2.03.972 1.987.97 2.031.928 1.987.971 2.03.972 1.987.97 2.031.972 1.987.971 2.03.972 1.988.97 2.03.972 1.987.971 2.031-7.417.044-6.622.089-6.004.044-5.474.088-5.21.044-5.033.044h-5.077l-5.254.044-5.65.045h-6.181l-6.888.044h-7.726l-8.83.044-9.977.044H286.7l-12.98.044zm205.953.44-1.325-.44-1.28-.442-1.192-.486-1.192-.53-1.104-.574-1.06-.618-1.015-.618-.927-.662-.883-.707-.839-.706-.75-.75-.706-.795-.663-.795-.574-.839-.485-.883-.442-.883-.353-.883-.265-.97-.22-.928-.133-.971-.044-1.016v-1.015l.132-1.06.177-1.06.265-1.059.353-1.104.441-1.104.53-1.103.618-1.148.75-1.148.795-1.148 1.192-1.148 1.237-1.148 1.192-1.103 1.236-1.104 1.81.088 2.075.177 2.207.22 2.34.177 1.192.088 1.192.045h1.148l1.148-.045 1.104-.088 1.103-.177 1.06-.176.971-.31 1.325-.043 1.236-.089 1.148-.044 1.147-.044h1.192l1.325-.044 1.457-.044h1.677l1.987-.044h4.989l3.134-.045h7.859l4.812-.044h5.519l-.089 5.122-.044 3.885-.044 2.87-.044 1.986-.044 1.325-.044.883-.089.662-.088.618-.574-.662-.618-.662-.662-.574-.618-.574-.663-.486-.706-.397-.662-.398-.707-.353-.706-.309-.706-.22-.707-.221-.75-.177-.707-.132-.75-.089-.75-.044-.751-.044-.75.044-.751.044-.75.044-.751.133-.75.132-.751.177-.75.177-.707.22-1.501.486-1.457.574-1.413.662-1.368.662-1.237-1.103-1.236-1.06-1.192-.927-1.148-.795-1.148-.75-1.147-.618-.574-.265-.574-.221-.574-.22-.618-.177-.574-.177-.618-.132-.574-.089-.618-.088-.618-.044-.618-.044h-.663l-.618.044-.662.044-.706.088-.663.133-.706.132-.706.177-.75.22-.751.221-.795.265-.839.574-.794.53-.751.574-.706.53-.663.574-.618.574-.574.53-.53.573-.44.574-.442.618-.354.574-.353.574-.265.618-.22.618-.177.618-.132.619-.089.662-.044.662v.662l.044.663.089.662.176.706.177.707.22.75.31.706.309.751.397.795.441.75.442.795.53.839.574.839.618.838-.133.265-.132.265-.53.089-.486.088z" style="--darkreader-inline-fill:var(--darkreader-text-fcdb00, #ffe11c)"/><path fill="#da251d" d="m119.29 372.358.308-2.384.397-2.34.398-2.384.839-4.68.927-4.636 1.015-4.636 1.104-4.635 1.104-4.592 1.192-4.547 1.236-4.592 1.236-4.547 1.28-4.503 1.325-4.504 1.28-4.503 1.28-4.503 1.28-4.46 1.28-4.458.796-2.517.75-2.472.795-2.517.75-2.472.795-2.517.795-2.472.75-2.517.795-2.472.794-2.517.751-2.472.795-2.472.794-2.517.795-2.472.795-2.473.75-2.516.795-2.473 1.545-.618 1.501-.662 1.457-.662 1.501-.75 1.501-.751 1.457-.75 1.501-.751 1.501-.707-1.06 5.033-1.103 5.033-1.192 4.99-1.192 4.988-1.28 4.99-1.28 4.988-1.325 4.945-1.369 4.989-1.457 4.944-1.413 4.99-1.5 4.944-1.502 4.989-1.545 4.945-1.59 4.989-1.588 4.989-1.634 4.988-.132 1.06-.133 1.148-.088 1.148-.088 1.104.353-.221.353-.265.353-.31.31-.264.573-.618.486-.662.441-.707.398-.75.397-.75.397-.84 1.236-3.752 1.28-3.709 1.237-3.753 1.236-3.708 1.236-3.753 1.192-3.709 1.236-3.708 1.192-3.753 1.192-3.708 1.192-3.665 1.148-3.708 1.192-3.709 1.148-3.709 1.148-3.664 1.148-3.708 1.148-3.665 2.428-7.285 1.81-5.474 1.324-3.885.927-2.65.574-1.589.31-.839.088-.176.088-.088.044-.045h.044l.353.398.398.397.441.397.442.398 1.015.795 1.06.75 1.148.75 1.192.751 1.236.707 1.192.75v1.81l.088.618-1.678 5.342-1.633 5.387-1.59 5.386-1.545 5.43-1.545 5.43-1.545 5.475-1.59 5.43-1.589 5.475-1.677 5.43-1.722 5.387-.927 2.693-.883 2.693-.971 2.693-.972 2.693-.971 2.65-1.06 2.648-1.06 2.65-1.103 2.604-1.104 2.605-1.192 2.605-1.192 2.605-1.28 2.56-1.236 1.634-1.369 1.81-1.545 1.943-1.633 2.03-1.766 2.12-1.854 2.119-1.943 2.075-2.03 2.075-1.016 1.015-1.06.972-1.015.97-1.06.928-1.103.883-1.06.883-1.06.795-1.103.794-1.06.707-1.104.662-1.06.574-1.103.574-1.06.441-1.059.398-1.06.353-1.06.22z" style="--darkreader-inline-fill:var(--darkreader-text-da251d, #e54139)"/><path fill="#00973f" d="m482.454 348.826-1.148-.618-1.015-.618-.839-.53-.75-.53-.619-.53-.309-.309-.22-.264-.221-.265-.22-.31-.177-.308-.177-.31-.132-.353-.133-.353-.22-.75-.177-.84-.133-.926-.088-1.104-.088-1.192-.044-1.369.353-.706.353-.663.397-.618.398-.618.441-.53.486-.53.485-.53.53-.44.53-.398.574-.397.53-.353.618-.31.574-.264.618-.221.618-.177.662-.132.618-.133.662-.044.663-.044.662.044.662.044.706.133.663.176.662.177.662.265.662.265.663.353.662.397.618.442.662.485.618.53.618.574.398.795.441.839.486.794.485.795.044.839.045.75v.751l-.045.706-.088.663-.088.618-.177.618-.176.574-.221.53-.265.53-.265.485-.309.442-.353.441-.353.397-.398.398-.441.353-.442.309-.485.31-.486.308-.53.265-.53.265-.53.22-.573.177-.618.221-1.192.309-1.28.31-1.325.22-1.369.132z" style="--darkreader-inline-fill:var(--darkreader-text-00973f, #62ffa4)"/><path fill="#da251d" d="m37.35 325.692-1.28-.618-1.104-.619-.972-.53-.397-.308-.353-.265-.31-.265-.264-.265-.265-.31-.177-.264-.176-.31-.089-.308-.088-.31-.044-.308v-.707l.088-.397.089-.397.132-.442.133-.441.397-.972.53-1.147.618-1.237.75-1.412 3.665-4.592 3.664-4.68 3.664-4.636 3.665-4.68 3.708-4.68 3.664-4.68 3.709-4.679 3.752-4.68 3.753-4.636 3.797-4.591 3.797-4.592 3.84-4.547 3.886-4.503 3.973-4.46 3.973-4.37 4.018-4.327.618-.265.53-.22.574-.221.53-.133.573-.132.53-.133.53-.044.574-.088 1.148-.044 1.236-.044 1.324.044 1.457.044-1.59 3.002-1.721 3.046-1.766 3.003-1.854 3.046-1.899 3.002-1.942 2.958-2.031 3.002-2.03 2.958-2.076 2.958-2.075 2.914-2.119 2.914-2.119 2.87-2.12 2.87-2.074 2.825-2.075 2.826-2.075 2.781-.927.883-1.06 1.06-1.06 1.103-1.059 1.237-.53.618-.441.618-.442.662-.353.662-.265.618-.22.663-.089.353-.088.309v.309l-.044.353.441-.044.486-.133.486-.22.53-.265.573-.31.574-.397.574-.441.618-.53 1.28-1.148 1.325-1.28 1.324-1.413 1.325-1.457 1.324-1.545 1.28-1.501 1.193-1.501 1.148-1.369 1.898-2.428 1.369-1.678 1.545-1.987 1.545-2.03 1.545-1.987 1.545-1.987 1.59-2.03 1.545-1.987 1.545-1.987 1.545-1.987 1.59-2.03 1.545-1.988 1.545-1.986 1.59-1.987 1.545-1.987 1.545-1.986 1.589-1.987 1.545-1.987.133.088.176.177.133.265.176.353.398.883.441 1.015.486 1.148.441 1.104.442 1.016.441.838.442.486.485.486.486.485.486.442-.354.839-.309.839-.353.882-.265.883-1.633 2.208-1.678 2.207-1.633 2.208-1.678 2.207-1.633 2.208-1.678 2.207-1.634 2.208-1.677 2.207-1.634 2.252-1.677 2.207-1.634 2.208-1.633 2.207-1.678 2.252-1.633 2.208-1.678 2.207-1.634 2.252-2.075 2.295-2.075 2.296-2.119 2.252-2.119 2.251-2.207 2.208-2.208 2.207-2.295 2.075-2.34 2.075-1.192.972-1.192.971-1.192.971-1.236.927-1.28.883-1.237.883-1.28.84-1.325.838-1.28.795-1.369.75-1.324.75-1.369.663-1.412.662-1.413.619-1.457.573-1.457.574-1.148.265-1.192.265-1.192.265-1.148.265-1.192.309-1.148.265-1.147.309-1.192.309z" style="--darkreader-inline-fill:var(--darkreader-text-da251d, #e54139)"/><path fill="#fcdb00" d="M273.72 310.504v-31.169h6.844l3.443.044h3.443l3.4.044h6.843l3.443.044h3.444l3.4.044 3.443.044h3.444l3.443.044h3.444l3.443.045 3.4.044 1.368 1.81 1.413 1.81 1.457 1.898 1.501 1.943 1.545 1.987 1.546 2.03 1.545 2.032 1.59 2.119 1.5 2.075 1.501 2.163 1.457 2.12 1.369 2.207 1.324 2.163 1.236 2.163.574 1.104.574 1.104.53 1.104.486 1.103H273.72zm205.82-.353-.176-1.369-.177-.75-.22-.618 1.765-.618 1.678-.618 1.545-.663 1.457-.706.662-.397.663-.354.618-.397.574-.442.53-.441.53-.442.485-.485.441-.486.398-.485.397-.574.353-.53.265-.618.309-.618.22-.618.177-.663.177-.706.088-.75.089-.751v-1.634l-.045-.839-.088-.927-.132-.927-.177-.971-.574-.839-.53-.795-.574-.75-.53-.75-.573-.663-.574-.618-.53-.618-.574-.53-.574-.53-.574-.441-.618-.442-.574-.397-.618-.353-.618-.31-.574-.308-.662-.265-.618-.177-.662-.22-.619-.133-.662-.088-.706-.089-.662-.044-.707-.044h-.706l-.706.044-.751.088-.75.089-.751.132-1.59.353-1.633.442-2.34 1.236-1.368.706-.486.221-.486.177-.485.176-.574.177-1.016-.75-.927-.707-.883-.574-.838-.574-.795-.485-.795-.53-.75-.53-.75-.53 4.37-.044h8.829l4.415-.044h8.83l4.415-.044h8.83l4.414-.044h26.534v33.289h-49.49zm-43.707-7.947-1.854-.75-1.678-.707-1.5-.75-.707-.354-.662-.353-.618-.397-.618-.398-.53-.397-.53-.397-.486-.442-.485-.441-.442-.486-.397-.485-.353-.53-.353-.53-.31-.618-.308-.574-.221-.662-.265-.707-.22-.706-.177-.75-.177-.84-.132-.838-.133-.883-.132-.972-.089-1.015-.088-1.06.353-1.324.398-1.325.397-1.28.397-1.28 2.914-.045 2.87-.044h2.914l2.913-.044 2.914-.044 2.87-.044h2.914l2.913-.044-2.163 1.413-1.81 1.324-.795.618-.75.662-.662.663-.574.706-.265.353-.265.353-.22.398-.222.397-.176.442-.177.441-.176.486-.133.485-.22 1.016-.177 1.148-.088 1.28-.045 1.413.133.618.176.618.221.618.22.574.266.618.309.574.309.574.353.574.397.53.398.574.441.574.486.53 1.06 1.147 1.191 1.104-1.633.088-1.59.133-1.545.132-1.545.133z" style="--darkreader-inline-fill:var(--darkreader-text-fcdb00, #ffe11c)"/><path fill="#131516" d="M419.675 273.728v.176z" style="--darkreader-inline-fill:var(--darkreader-text-131516, #dbd8d3)"/><path fill="#00973f" d="m437.732 270.151-1.369-.618-1.192-.618-1.015-.53-.442-.309-.397-.264-.397-.31-.31-.264-.308-.31-.265-.309-.265-.309-.221-.309-.177-.309-.176-.353-.133-.397-.088-.353-.177-.84-.132-.97-.044-1.016v-2.561l.044-1.5.883-1.104.883-1.06.441-.486.486-.441.442-.398.485-.397.486-.353.485-.31.53-.308.486-.265.53-.265.485-.177.53-.176.574-.133.53-.132.53-.044.573-.044.574-.045.574.045.574.044.618.088.574.132.618.177.618.22.663.222.618.264.662.31.662.353.662.353.663.441.485.619.442.618.397.574.353.618.31.574.264.574.265.573.177.574.132.574.133.53.044.574.044.53-.044.53-.044.53-.089.53-.132.485-.177.486-.176.53-.265.44-.265.487-.353.485-.353.442-.354.441-.441.442-.486.441-.485.398-.53.441-.574.397-.574.398-.662.353-.663.397-.706.353-1.148.133-1.103.176-1.148.177-1.104.22z" style="--darkreader-inline-fill:var(--darkreader-text-00973f, #62ffa4)"/><path fill="#da251d" d="M37.703 264.853v-.309l-1.016-.264-1.015-.31-1.015-.309-1.016-.353-.971-.397-.927-.397-.927-.442-.84-.486-.838-.53-.706-.53-.707-.617-.574-.618-.265-.354-.264-.353-.177-.353-.22-.397-.177-.398-.133-.397-.088-.397-.088-.442.353-.618.309-.53.353-.574.309-.53 2.56-1.81 2.517-1.766 2.56-1.766 2.517-1.766 2.56-1.766 2.561-1.766 2.561-1.766 2.56-1.721 2.605-1.722 2.56-1.722 2.606-1.722 2.604-1.678 2.605-1.677 2.65-1.678 2.648-1.678 2.649-1.633 1.766-.927 1.898-1.104 1.987-1.104 2.12-1.148 1.059-.574 1.06-.53 1.059-.485 1.06-.442 1.059-.397 1.015-.309 1.016-.265 1.015-.176 1.59.574 1.191.485.928.31.706.264.618.177.574.132.574.133.75.176-.132.442-.132.53-5.828 4.15-5.298 3.708-4.812 3.4-4.37 3.046-3.93 2.737-3.488 2.384-3.09 2.164-2.693 1.854-2.296 1.633-1.942 1.413-1.59 1.236-1.236 1.06-.486.442-.441.397-.309.397-.265.353-.177.31-.132.309-.044.264.044.265h2.428l5.828-3.708 5.165-3.223 4.46-2.826 3.884-2.428 3.311-2.12 2.826-1.765 2.384-1.501 2.03-1.28 1.678-1.104 1.413-.927 1.236-.795 1.104-.662.971-.663.971-.662.972-.662 1.06-.706.53 1.5.485 1.413.441 1.28.442 1.149.397 1.103.397 1.016.31.971.264.927-.309.044-.309.045-.397.132-.397.177-.972.485-1.148.618-1.192.75-1.324.84-1.369.883-1.368.971-2.737 1.943-2.517 1.81-2.119 1.5-1.413.972-3.664 2.12-3.753 2.074-3.796 2.075-3.886 2.031-1.898.971-1.942.928-1.943.927-1.943.883-1.942.883-1.943.839-1.942.794-1.943.75-.97.133-1.016.089-1.016.088-.971.088-.971.133-1.016.088-.971.088-.971.133z" style="--darkreader-inline-fill:var(--darkreader-text-da251d, #e54139)"/><path fill="#fcdb00" d="m273.764 238.143.045-3.046v-3.003l.044-3.002.044-3.046.044-3.002.044-3.002v-3.003l2.826 2.958 2.781 2.914 2.826 2.958 2.78 2.914 2.826 2.958 2.826 2.958 2.825 2.958 2.826 2.958-2.87.089-2.87.044-2.825.088-2.87.044-2.825.089-2.826.044-2.87.088-2.825.044zm156.86 1.634-.044-1.413-.089-1.369-.132-1.369-.088-1.324-.089-1.236-.088-1.236-.044-1.104.795-.353.838-.354.751-.353.75-.397.751-.353.662-.398.662-.441.619-.397.618-.442.53-.441.53-.486.485-.486.485-.485.398-.53.397-.53.353-.53.31-.574.308-.574.221-.618.22-.618.133-.618.133-.662.088-.662.044-.707v-1.456l-.088-.751-.133-.795-.176-.795-.177-.839-.265-.838-.265-.883-.75-1.016-.706-.971-.663-1.016-.662-.927 4.46-.088 4.06-.044 3.71-.044 3.531-.044 3.444-.045 3.532-.044 3.752-.044h4.106l4.591-.044h5.166l5.96-.044h6.843l7.858-.044h9.007l10.286-.044 11.744-.045v33.289h-98.628zm-44.944-9.404-1.986-.663-1.81-.662-1.722-.706-.839-.353-.75-.398-.75-.397-.707-.397-.706-.442-.619-.441-.618-.486-.53-.53-.573-.53-.486-.53-.441-.618-.398-.618-.397-.618-.31-.706-.308-.707-.22-.75-.222-.795-.176-.839-.133-.883-.044-.883-.044-.97.044-1.016.044-1.06.133-1.104.309-1.06.353-1.103.309-1.015.353-1.06 2.517.044 2.472.044 2.516.044 2.473.045 2.516.044 2.473.044 2.516.044 2.516.088-1.103 1.192-.972 1.148-.838 1.104-.75 1.104-.354.574-.31.53-.264.53-.22.573-.221.53-.177.53-.132.574-.089.53-.088.573v1.148l.044.574.088.574.133.618.176.618.177.619.265.662.309.618.353.706.397.662.442.707.486.75.53.707.573.795 1.722 1.5.883.795.177.221.088.132.044.133-.044.088-1.545.089-1.501.088-1.501.132-1.457.133z" style="--darkreader-inline-fill:var(--darkreader-text-fcdb00, #ffe11c)"/><path fill="#da251d" d="m30.816 224.677-2.252-1.103-.971-.53-.883-.574-.398-.265-.353-.31-.353-.308-.353-.31-.31-.308-.264-.353-.265-.354-.22-.397-.221-.397-.221-.398-.177-.485-.132-.442-.133-.485-.132-.53-.088-.574-.089-.574-.132-1.28v-1.413l1.236-.795 1.236-.795 1.28-.706 1.237-.706 1.28-.707 1.324-.618 1.28-.662 1.325-.574 2.65-1.148 2.692-1.104 2.737-.971 2.738-.971 2.78-.927 2.826-.84 2.826-.882 2.825-.84 2.87-.838 2.87-.839 2.913-.839 2.87-.883 1.325-.309 1.324-.309 1.325-.309 1.324-.309 1.28-.309 1.325-.309 1.324-.309 1.325-.309.397.044.397.133.486.176.441.22.972.575 1.06.75 1.103.75 1.104.84.574.397.574.353.573.354.574.309v.529l-2.87 1.148-2.869 1.104-2.87 1.104-2.825 1.103-2.87 1.06-2.825 1.06-2.826 1.015-2.825 1.016-2.826 1.06-2.825 1.015-2.87 1.015-2.825 1.06-2.826 1.015-2.87 1.06-2.825 1.06-2.87 1.103-.22.441-.133.53.133.31.22.352.75-.088.751-.044.75-.088.796-.044 2.34-.75 2.295-.707 2.34-.75 2.296-.707 2.34-.707 2.295-.706 2.34-.706 2.296-.751 2.34-.706 2.34-.707 2.295-.706 2.34-.707 2.34-.706 2.34-.706 2.296-.707 2.34-.706h1.015l.53.044.53.044-.089.662-.176 1.104-.177 1.369-.265 1.5-.265 1.502-.309 1.324-.176.574-.177.486-.177.397-.176.265-2.958.795-3.002.795-2.958.794-2.914.75-2.958.751-2.914.707-2.913.706-2.914.662-2.914.663-2.914.574-2.87.574-2.913.53-2.914.53-2.914.44-2.914.398-2.913.397z" style="--darkreader-inline-fill:var(--darkreader-text-da251d, #e54139)"/><path fill="#fcdb00" d="m412.611 209.843-.618-.486-.574-.485-.574-.442 1.104-.088h2.252l1.147-.044-.53.485-.53.486-.529.486-.574.53z" style="--darkreader-inline-fill:var(--darkreader-text-fcdb00, #ffe11c)"/><path fill="#00973f" d="m382.414 198.894-.662-.265-1.06-.397-1.943-.618-1.192-.75-1.06-.796-.838-.838-.75-.883-.574-.928-.442-.927-.309-.971-.22-.971-.045-.972.044-.97.177-.972.265-.927.353-.927.441-.883.574-.84.618-.75.707-.75.75-.663.84-.618.882-.485.971-.442 1.016-.353 1.015-.22 1.06-.133h1.148l1.103.132 1.148.22 1.192.398 1.192.53 1.148.706 1.192.84 1.192 1.015.486.927.397.971.31.927.264.972.177.927.044.927v.883l-.044.486-.044.441-.089.442-.132.441-.133.442-.176.397-.177.441-.22.398-.221.397-.265.442-.265.397-.353.353-.31.397-.397.354-.397.353-.397.353-.486.353-.486.353-1.589.486-1.633.442-1.634.53-1.59.53z" style="--darkreader-inline-fill:var(--darkreader-text-00973f, #62ffa4)"/><path fill="#da251d" d="m53.42 191.212-2.164-.22-2.251-.266-2.296-.265-2.384-.309-2.428-.397-2.428-.441-2.384-.486-1.192-.31-1.192-.308-1.148-.353-1.148-.354-1.104-.397-1.103-.397-1.06-.442-1.015-.485-1.016-.53-.927-.53-.927-.574-.883-.618-.795-.662-.794-.663-.707-.75-.662-.75-.662-2.429-.486-1.854-.176-.707-.089-.662v-.574l.044-.485.045-.265.132-.221.088-.22.133-.222.353-.441.486-.442.618-.485.706-.53.883-.574.971-.706 3.356-.354 3.355-.353 3.355-.397 3.355-.353 3.356-.353 3.31-.31 3.356-.309 3.355-.22 3.356-.221 3.399-.177 3.355-.088 3.4-.044 3.4.044 3.399.133 1.721.088 1.722.088 1.722.133 1.722.176.574 1.104.53 1.104.573 1.148.574 1.147 1.457 1.855.795 1.015.397.574.221.53-2.781.309-2.782.353-2.737.31-2.737.308-2.737.265-2.693.265-2.693.22-2.693.266-2.694.22-2.693.177-2.693.22-2.649.177-2.693.177-2.693.177-2.693.176-2.693.133.883.53.927.44.972.398 1.06.353 1.059.354 1.148.265 1.192.264 1.236.221 1.236.177 1.28.176 1.325.133 1.324.088 2.737.133 2.782.044 2.825-.044 2.826-.045 2.737-.132 2.693-.132 2.605-.133 2.472-.132 2.34-.089 2.119-.088-.31.971-.264.972-.309 1.06-.265 1.059-.265 1.104-.22 1.103-.221 1.104-.221 1.104-1.413.132-1.324.089-1.413.044-1.81.088-2.517.044-3.399.044-4.591.044-6.005.045z" style="--darkreader-inline-fill:var(--darkreader-text-da251d, #e54139)"/><path fill="#fcdb00" d="M370.891 168.916v-.883l.044-.838v-2.649l.044-.883v-.883l-.97-2.296-.487-1.28-.132-.398-.088-.309v-.574l1.545-.971 1.457-.927.618-.486.618-.441.574-.486.53-.486.53-.485.44-.486.442-.53.354-.485.353-.53.309-.53.309-.53.22-.53.221-.574.177-.574.132-.618.089-.574.088-.662v-1.324l-.044-.663-.044-.706-.133-.75-.132-.751-.177-.795-.22-.839-.221-.838-.265-.883-.31-.883-.75-.795-.662-.795-.706-.75-.663-.707 9.669-.044h9.713l9.712-.044h19.381l9.713-.044h19.425l9.713-.044h58.276l9.713-.044v34.48H370.89z" style="--darkreader-inline-fill:var(--darkreader-text-fcdb00, #ffe11c)"/><path fill="#da251d" d="m164.056 164.28-1.634-.397-1.633-.441-1.59-.397 1.325-.354 1.368-.397 1.369-.486 1.324-.53 1.369-.53 1.369-.573 1.368-.618 1.369-.663 2.693-1.324 2.693-1.369 2.693-1.412 2.649-1.37h1.06l.573.045.618.044-2.075 1.854-1.942 1.855-.971.883-1.016.883-.971.794-1.015.795-1.016.75-1.06.707-1.059.618-1.148.574-.574.265-.574.22-.618.221-.618.177-.618.177-.662.176-.662.133-.707.088z" style="--darkreader-inline-fill:var(--darkreader-text-da251d, #e54139)"/><path fill="#fcdb00" d="m318.972 163.398-1.236-.618-1.148-.618-1.147-.53-1.104-.574-1.016-.574-.485-.31-.486-.352-.485-.354-.442-.353-.441-.75-.442-.75-.397-.751-.353-.707-.31-.75-.264-.75-.221-.751-.22-.751-.177-.75-.133-.751-.088-.75-.088-.707v-.75l-.045-.751.045-.75.044-.751.088-.75.088-.751.133-.707.176-.75.177-.707.22-.75.221-.707.221-.75.574-1.413.618-1.413.707-1.412.794-1.37 1.148.045 1.236.044h2.516l1.325-.044 1.325-.088 1.324-.089 1.369-.132 3.796-.044 3.841-.044h15.364l3.84-.044h3.842l-.839 1.103-.971 1.325-.53.618-.53.574-.309.22-.265.221-.309.133-.309.132-.927-.397-.927-.353-.927-.31-.927-.308-.883-.265-.927-.221-.883-.177-.84-.176-.882-.089-.839-.088-.839-.044h-1.633l-.795.088-.795.089-.75.176-.75.177-.751.265-.75.265-.707.309-.662.397-.663.397-.662.442-.662.53-.618.53-.574.617-.574.663-.574.662-.53.75-.53.795-.485.883-.486.883-.132 1.457-.088 1.325-.045 1.236v1.104l.089 1.06.176.97.089.486.132.442.177.441.176.442.177.441.265.442.22.397.31.441.618.84.75.838.883.883 1.015.927 1.104.972 1.28 1.06-.794.22-.795.22-.795.177-.794.177-1.59.265-1.589.22-1.545.133-1.545.132-1.501.133-1.457.132zm-124.807-3.268-.398-.397-.309-.397-.353-.442 1.192-.662 1.28-.75 1.325-.795 1.236-.839.618-.486.574-.485.574-.486.486-.53.485-.574.398-.618.353-.618.309-.706-1.457-.795-1.28-.706-1.236-.662-1.501-.707-1.899-.883-2.516-1.148-3.356-1.545-4.414-1.987-2.164-.22-2.163-.177-2.207-.22-2.12-.177-2.119-.133-2.075-.132-1.986-.133-1.899-.088.265-.927.265-.927.31-.84.308-.794.31-.75.352-.751.354-.662.353-.618.397-.618.442-.574.441-.53.442-.486.485-.441.486-.442.53-.397.53-.397.573-.31.574-.353.618-.265.663-.309.662-.22.662-.265.75-.177.751-.22 1.545-.354 1.722-.265 1.81-.265 1.943-.265.397.177.397.132.883 1.237.883 1.103.883 1.06.972 1.015 1.015 1.016 1.148 1.015 1.28 1.06 1.413 1.192 1.104.441 1.456.53 1.722.663 1.943.794 2.075.839 2.163 1.015 1.06.53 1.06.574 1.059.574 1.015.618.971.618.927.663.84.706.838.706.707.75.662.751.53.795.485.839.31.839.22.883.088.883-.044.883-.177.971-.353.971-.53.972-.706 1.015-1.28.53-1.28.441-1.28.398-1.281.353-1.236.309-1.28.265-1.237.22-1.236.221-1.236.133-1.28.132-1.236.133-1.28.088-2.517.133-2.56.132z" style="--darkreader-inline-fill:var(--darkreader-text-fcdb00, #ffe11c)"/><path fill="#131516" d="m213.06 133.906-.176-.177-.353-.265-.663-.397-1.06-.662-1.5-.927-2.12-1.28-2.825-1.679-.088-.75-.044-.706-.044-.663v-.706l1.236.044 1.28.044 1.324-.044h1.369l2.737-.044h2.826l1.412.088 1.37.089 1.412.22 1.413.221.662.177.706.176.662.221.663.22.662.266.662.265.618.353.662.309v.574l.045.53.044.53.088.53h-2.914l-.53.043-.441.044-.397.045-.398.088-.353.132-.397.177-.353.176-.398.265-.927.663-1.192.883-.971.397-.795.22-1.06.221-1.765.265z" style="--darkreader-inline-fill:var(--darkreader-text-131516, #dbd8d3)"/><path fill="#00973f" d="m315.44 133.155-1.324-.574-1.148-.574-1.06-.574-.882-.53-.75-.53-.354-.308-.309-.265-.309-.31-.265-.308-.22-.353-.221-.31-.177-.397-.177-.353-.132-.397-.088-.398-.133-.441-.088-.486-.088-1.015-.045-1.148v-1.236l.089-1.457.53-1.06.573-1.015.31-.442.309-.441.309-.398.309-.353.353-.353.353-.353.353-.31.353-.264.398-.265.353-.22.441-.222.398-.176.397-.177.442-.132.441-.133.486-.132.97-.133.972-.088 1.06.044 1.148.044 1.147.177 1.237.22.794.398.75.442.707.485.662.486.574.485.574.53.486.53.441.53.398.574.353.574.309.574.22.574.221.618.133.618.088.574.044.618v.618l-.088.618-.088.618-.177.618-.22.618-.265.574-.354.618-.353.574-.441.574-.486.574-.574.574-.574.53-.662.53-.706.485-.751.53-.795.442-1.236.265-1.148.309-1.148.265-1.147.264z" style="--darkreader-inline-fill:var(--darkreader-text-00973f, #62ffa4)"/><path fill="#fff" d="m212.177 130.595-.75-.53-.707-.442-.706-.485.177-.133.176-.088.31-.088.485-.045 1.898-.088 3.532-.088.133.265.132.265-.176.22-.177.221-.22.22-.222.177-.441.31-.486.22-.53.221-.573.132-.574.133-.574.132z" style="--darkreader-inline-fill:var(--darkreader-text-ffffff, #e8e6e3)"/><path fill="#da251d" d="M10.728 88.432V10.817h52.184v82.781H10.728zm62.956 2.472V50.772h43.221v42.825H73.684zm53.993-2.472V10.817h52.184v82.781h-52.184zm63.265 2.472V50.772h43.177v42.825h-43.177zm53.994-2.472V10.817h52.183v82.781h-52.183zm63.353 2.472V50.772h42.294v42.825h-42.294zm53.331-2.472V10.817h52.227v82.781H361.62zm63 2.472V50.772h43.486v42.825H424.62zm54.258-2.472V10.817h52.184v82.781h-52.184z" style="--darkreader-inline-fill:var(--darkreader-background-da251d, #ae1e17)"/><path fill="#131516" d="M22.692 75.143v-47.24h29.403v50.374H22.692zm116.95 0v-47.24h29.447v50.374h-29.447zm117.346 0v-47.24h29.359v50.374h-29.359zm116.332 0v-47.24h29.711v50.374H373.32zm117.61 0v-47.24h29.359v50.374h-29.358z" style="--darkreader-inline-fill:var(--darkreader-text-131516, #dbd8d3)"/><path fill="#da251d" d="M29.888 68.873V35.452h14.746v35.629H29.888zm117.302 0V35.452h14.702v35.629h-14.701zm117.26 0V35.452h14.656v35.629H264.45zm116.374 0V35.452h14.746v35.629h-14.746zm117.303 0V35.452h14.701v35.629h-14.701z" style="--darkreader-inline-fill:var(--darkreader-text-da251d, #e54139)"/></g></svg>