<?xml version="1.0" encoding="UTF-8" standalone="no"?>
<svg
   id="Ebene_1"
   data-name="Ebene 1"
   viewBox="0 0 553.11 625.84792"
   version="1.1"
   width="553.10999"
   height="625.8479"
   xmlns="http://www.w3.org/2000/svg"
   xmlns:svg="http://www.w3.org/2000/svg">
  <defs
     id="defs1">
    <style
       id="style1">
      .cls-1 {
        fill: #00973f;
      }

      .cls-2 {
        fill: #fcdb00;
      }

      .cls-3 {
        fill: #131516;
      }

      .cls-4 {
        fill: #f2b398;
      }

      .cls-5 {
        fill: #da251d;
      }

      .cls-6 {
        fill: #090;
      }

      .cls-7 {
        fill: #d1d2d4;
      }
    </style>
  </defs>
  <path
     class="cls-3"
     d="M 263.76895,625.5471 260.74,625.35 l -2.7,-0.23 -2.66,-0.27 -2.66,-0.23 -2.7,-0.23 -2.66,-0.23 -2.66,-0.23 -4.22,-0.7 -4.19,-0.7 -4.11,-0.78 -4.11,-0.82 -4.03,-0.86 -4.03,-0.94 -3.99,-0.94 -3.95,-1.02 -3.91,-1.06 -3.91,-1.1 -3.91,-1.17 -3.87,-1.17 -3.91,-1.29 -3.87,-1.29 -3.87,-1.37 -3.87,-1.41 -2.39,-1.06 -2.39,-1.06 -2.39,-1.06 -2.39,-1.06 -2.39,-1.06 -2.39,-1.02 -2.39,-1.06 -2.35,-1.02 -3.25,-1.64 -3.17,-1.64 -3.17,-1.68 -3.13,-1.72 -3.09,-1.72 -3.05,-1.76 -3.05,-1.8 -3.01,-1.8 -3.01,-1.84 -2.93,-1.88 -2.93,-1.88 -2.93,-1.92 -2.89,-1.96 -2.86,-1.96 -2.86,-1.96 -2.82,-1.99 -2.27,-1.84 -2.27,-1.88 -2.27,-1.84 -2.27,-1.84 -2.27,-1.84 -2.27,-1.84 -2.23,-1.88 -2.27,-1.84 -2.15,-1.96 -2.07,-1.96 -2.07,-1.92 -1.99,-1.96 -1.96,-1.92 -1.96,-1.96 -1.92,-1.92 -1.88,-1.92 -1.88,-1.96 -1.84,-1.92 -1.84,-1.96 -1.84,-1.96 -1.84,-1.96 -1.84,-1.96 -1.88,-1.96 -1.84,-1.99 -0.2,-0.31 -0.23,-0.39 -0.35,-0.39 -0.39,-0.39 -0.39,-0.39 -0.35,-0.39 -0.27,-0.35 -0.16,-0.31 -1.92,-2.46 -1.92,-2.46 -1.84,-2.46 -1.8,-2.46 -1.8,-2.46 -1.76,-2.46 -1.72,-2.43 -1.68,-2.46 -1.64,-2.46 -1.68,-2.46 -1.6,-2.46 -1.6,-2.46 -1.6,-2.46 -1.56,-2.46 -1.56,-2.5 -1.56,-2.46 -1.56,-2.93 -1.53,-2.93 -1.49,-2.93 -1.45,-2.93 -1.45,-2.93 -1.41,-2.97 -1.37,-2.93 -1.33,-2.93 -1.33,-2.93 -1.29,-2.97 -1.25,-2.93 -1.25,-2.97 -1.21,-2.93 -1.21,-2.97 -1.13,-2.93 -1.13,-2.97 -1.41,-4.54 -1.06,-3.48 -0.78,-2.74 -0.66,-2.19 -0.55,-1.92 -0.51,-1.88 -0.59,-2.15 -0.7,-2.58 -0.78,-3.4 -0.7,-3.4 L 5.43,402.76 4.8,399.44 4.21,396.12 3.7,392.83 3.19,389.54 2.72,386.25 2.29,383 1.9,379.71 1.55,376.46 1.2,373.17 0.89,369.92 0.62,366.63 0.35,363.31 0.08,359.99 V 135 L 0.04,112.51 V 44.98 L 0,22.49 V 0 h 553.11 v 22.49 l -0.04,22.49 v 44.98 l -0.04,22.49 v 44.98 l -0.04,22.49 v 67.51 l -0.04,22.49 v 90.01 l -0.16,1.88 -0.12,1.88 -0.16,1.88 -0.12,1.92 -0.12,1.88 -0.12,1.88 -0.12,1.88 -0.12,1.92 -0.66,4.89 -0.7,4.85 -0.78,4.77 -0.86,4.77 -0.9,4.73 -0.98,4.69 -1.02,4.69 -1.13,4.65 -1.17,4.65 -1.29,4.62 -0.66,2.31 -0.66,2.31 -0.7,2.35 -0.74,2.31 -0.74,2.31 -0.74,2.31 -0.78,2.31 -0.82,2.35 -0.82,2.31 -0.86,2.31 -0.86,2.35 -0.9,2.35 -1.06,2.23 -1.06,2.27 -1.06,2.27 -1.1,2.23 -1.1,2.27 -1.1,2.23 -1.1,2.27 -1.13,2.23 -1.13,2.23 -1.13,2.23 -1.13,2.23 -1.17,2.23 -1.17,2.19 -1.17,2.19 -1.17,2.23 -1.21,2.15 -1.41,2.23 -1.41,2.23 -1.45,2.19 -1.45,2.19 -1.45,2.15 -1.49,2.15 -1.49,2.15 -1.49,2.15 -1.53,2.15 -1.53,2.11 -1.53,2.11 -1.56,2.11 -1.56,2.07 -1.6,2.07 -1.6,2.07 -1.6,2.07 -4.38,5.16 -2.07,2.15 -1.99,2.07 -1.96,2.03 -1.88,1.99 -1.88,1.96 -1.88,1.96 -1.8,1.88 -1.84,1.92 -1.84,1.88 -1.88,1.88 -1.88,1.92 -1.92,1.88 -1.96,1.96 -2.03,1.96 -2.11,1.96 -2.19,2.03 -1.68,1.33 -1.64,1.33 -1.68,1.33 -1.68,1.33 -1.64,1.37 -1.68,1.33 -1.68,1.33 -1.64,1.37 -2.89,2.07 -2.89,2.03 -2.86,1.99 -2.86,1.96 -2.86,1.92 -2.89,1.88 -2.86,1.84 -2.89,1.84 -2.89,1.8 -2.89,1.8 -2.93,1.72 -2.97,1.76 -2.97,1.72 -2.97,1.68 -3.05,1.68 -3.05,1.68 -2.27,1.02 -2.23,1.06 -2.27,1.02 -2.23,1.06 -2.27,1.06 -2.23,1.06 -2.23,1.06 -2.23,1.06 -4.34,1.64 -4.34,1.56 -4.3,1.49 -4.26,1.45 -4.26,1.37 -4.22,1.33 -4.26,1.25 -4.26,1.17 -4.26,1.13 -4.26,1.06 -4.3,1.02 -4.34,0.98 -4.38,0.9 -4.38,0.86 -4.46,0.78 -4.5,0.74 -2.66,0.27 -2.66,0.23 -2.66,0.2 -2.66,0.2 -2.66,0.2 -2.06079,0.15289 -1.96921,0.12711 -1.89632,0.12 c -1.56266,0.0525 -0.52658,0.008 -2.0892,0.0942 l -0.94237,0.0471 c -1.74605,0.0693 -2.93375,0.22487 -4.68079,0.25155 l -3.12334,0.003 c -1.94971,0.0485 -3.9324,0.003 -5.81664,-0.004 -0.82339,-0.0126 -5.02352,-0.0575 -5.81476,-0.14257 z"
     id="path1" />
  <path
     class="cls-2"
     d="m 226.36,611.19 -2.46,-0.63 -2.5,-0.63 -2.5,-0.66 -2.46,-0.66 -2.5,-0.66 -2.46,-0.7 -2.46,-0.66 -2.46,-0.7 -2.43,-0.74 -2.46,-0.74 -2.39,-0.7 -2.43,-0.78 -2.39,-0.74 -2.35,-0.74 -2.31,-0.78 V 431.34 l 1.99,0.66 1.53,0.51 1.13,0.35 0.9,0.31 0.7,0.27 0.63,0.23 0.66,0.27 c 0,0 0.55579,0.21394 0.82,0.35 0.48944,0.25205 0.94295,0.56855 1.41,0.86 0.47304,0.29519 1.41,0.9 1.41,0.9 l 1.37,0.94 1.37,0.94 1.33,1.02 1.29,1.02 1.29,1.06 1.25,1.1 1.21,1.13 1.21,1.13 1.17,1.17 1.13,1.21 1.1,1.25 1.1,1.29 1.06,1.29 1.02,1.33 0.98,1.33 0.94,1.41 0.9,1.41 0.9,1.45 0.82,1.45 0.82,1.49 0.74,1.53 0.74,1.53 0.7,1.56 0.63,1.6 0.63,1.6 0.55,1.6 0.55,1.68 0.47,1.64 0.43,1.72 0.43,1.72 h -11.74 v -6.49 h -11.42 v 6.49 h -5.79 v 10.91 h 5.79 v 6.57 h 11.42 v -6.57 h 12.28 v 71.9 h -12.28 v -6.49 h -11.42 v 6.49 h -5.79 v 11.27 h 5.79 v 6.26 h 11.42 v -6.26 h 12.28 v 41.07 h -0.78 l -2.5,-0.59 z"
     id="path2" />
  <path
     class="cls-2"
     d="m 324.38,609 v -38.29 h 12.28 v 6.26 h 10.95 v -6.26 h 4.93 v -11.27 h -4.93 v -6.49 h -10.95 v 6.49 h -12.28 v -71.9 h 12.28 v 6.57 h 10.95 v -6.57 h 5.48 v -10.91 h -5.48 v -6.49 h -10.95 v 6.49 h -11.97 l 0.23,-1.17 0.23,-1.13 0.27,-1.13 0.31,-1.1 0.35,-1.13 0.35,-1.1 0.39,-1.1 0.39,-1.1 0.47,-1.06 0.43,-1.1 0.51,-1.06 0.51,-1.06 0.51,-1.06 0.55,-1.02 0.59,-1.02 0.59,-1.02 1.21,-1.99 1.29,-1.99 1.33,-1.92 1.37,-1.88 1.41,-1.84 1.45,-1.8 1.45,-1.76 1.49,-1.68 1.33,-1.21 1.29,-1.17 1.25,-1.06 1.25,-1.02 1.21,-0.94 1.25,-0.9 1.25,-0.82 1.25,-0.78 1.29,-0.78 1.29,-0.7 1.37,-0.66 1.45,-0.66 1.49,-0.63 1.53,-0.59 1.64,-0.63 1.72,-0.59 v 10.56 l -0.04,10.56 v 21.12 l -0.04,10.56 v 10.6 l -0.04,10.56 v 21.12 l -0.04,10.56 v 21.16 l -0.04,10.56 v 21.12 l -0.04,10.6 -2.5,0.82 -2.5,0.82 -2.46,0.78 -2.5,0.78 -2.46,0.74 -2.46,0.74 -2.5,0.74 -2.46,0.7 -2.46,0.7 -2.46,0.66 -2.46,0.66 -2.46,0.63 -2.46,0.63 -2.46,0.59 -2.46,0.59 -2.5,0.55 v -2.54 z"
     id="path3" />
  <g
     id="g8"
     transform="translate(-0.01)">
    <path
       class="cls-1"
       d="m 293.06,212.67 -0.55,-2.43 -0.55,-2.58 -0.55,-2.66 -0.23,-1.33 -0.23,-1.25 -0.2,-1.25 -0.16,-1.21 -0.12,-1.13 -0.04,-1.06 v -0.94 l 0.08,-0.86 1.17,-0.7 1.21,-0.7 1.21,-0.7 1.21,-0.7 1.21,-0.7 1.21,-0.66 1.21,-0.7 1.21,-0.66 0.31,1.45 0.31,1.49 0.27,1.49 0.23,1.53 0.23,1.56 0.2,1.64 0.2,1.64 0.2,1.72 0.2,0.59 0.31,0.82 0.12,0.47 0.08,0.51 0.04,0.51 -0.04,0.51 -2.31,0.59 -1.8,0.55 -0.74,0.23 -0.66,0.31 -0.55,0.31 -0.51,0.39 -0.2,0.2 -0.23,0.23 -0.2,0.23 -0.2,0.23 -0.35,0.63 -0.31,0.66 -0.31,0.78 -0.31,0.94 -0.35,1.06 -0.35,1.17 -0.39,-2.19 z"
       id="path4" />
    <path
       class="cls-1"
       d="m 267.36,372.47 h -9.04 v -5.95 l 0.04,-5.98 v -5.95 l 0.04,-5.95 0.04,-5.95 0.04,-5.95 0.08,-5.95 0.08,-5.95 0.08,-5.91 0.08,-5.91 0.12,-5.91 0.12,-5.87 0.16,-5.87 0.16,-5.83 0.2,-5.83 0.2,-5.83 0.12,-1.96 0.12,-1.96 0.12,-1.96 0.12,-1.96 0.12,-1.96 0.12,-1.96 0.12,-1.96 0.16,-1.96 0.12,-1.96 0.12,-1.96 0.16,-1.96 0.12,-1.96 0.12,-1.92 0.16,-1.96 0.12,-1.96 0.12,-1.96 0.47,-3.05 0.43,-3.05 0.47,-3.01 0.47,-3.01 0.47,-3.01 0.47,-3.01 0.47,-2.97 0.51,-3.01 0.47,-2.97 0.51,-2.93 0.55,-2.97 0.51,-2.93 0.55,-2.93 0.55,-2.93 0.55,-2.93 0.55,-2.89 1.88,-0.2 1.92,-0.16 1.96,-0.2 1.99,-0.12 2.03,-0.12 2.07,-0.08 2.15,-0.04 2.19,0.04 0.04,0.12 0.08,0.16 0.08,0.23 0.12,0.35 0.12,0.55 0.2,0.78 0.2,1.06 0.27,1.41 0.35,1.76 0.43,2.19 0.51,2.66 0.63,3.17 0.7,3.79 0.86,4.38 0.94,5.05 1.1,5.79 0.55,4.34 0.51,4.38 0.47,4.38 0.47,4.38 0.39,4.38 0.39,4.38 0.31,4.38 0.31,4.38 0.31,4.38 0.23,4.38 0.23,4.38 0.23,4.38 0.35,8.76 0.27,8.8 0.23,8.8 0.16,8.8 0.12,8.84 0.08,8.84 0.08,8.84 0.04,8.88 0.08,8.88 0.04,8.88 h -10.13 v 9.39 h -20.98868 c -0.0383,-3.09565 -0.007,-6.1937 0.009,-9.29 z"
       id="path5" />
    <path
       class="cls-1"
       d="m 240.33,366.52 v -5.98 l 0.04,-5.95 v -5.91 l 0.04,-5.91 0.04,-5.91 0.04,-5.91 0.08,-5.87 0.08,-5.91 0.12,-5.87 0.12,-5.87 0.12,-5.87 0.16,-5.87 0.16,-5.83 0.2,-5.87 0.23,-5.87 0.27,-3.6 0.27,-3.6 0.31,-3.6 0.31,-3.56 0.35,-3.56 0.35,-3.52 0.35,-3.52 0.39,-3.52 0.43,-3.52 0.39,-3.48 0.47,-3.48 0.43,-3.52 0.47,-3.48 0.47,-3.52 0.47,-3.48 0.51,-3.52 0.43,-1.99 0.43,-1.99 0.43,-1.99 0.39,-1.99 0.43,-1.99 0.43,-1.99 0.43,-1.96 0.43,-1.99 0.43,-1.99 0.43,-1.99 0.43,-1.99 0.43,-1.96 0.43,-1.99 0.43,-1.99 0.43,-1.96 0.47,-1.99 0.35,0.08 0.35,0.12 0.31,0.16 0.35,0.16 0.7,0.47 0.7,0.55 1.41,1.25 1.45,1.37 1.1,0.63 1.53,0.9 0.35,0.27 0.39,0.27 0.35,0.27 0.31,0.31 0.27,0.31 c 0.23935,0.53149 0.50149,0.71519 0.98,1.01 l -0.04,0.94 -0.04,0.94 -0.12,0.98 -0.12,0.98 -0.27,1.96 -0.31,1.99 -0.39,1.99 -0.39,2.03 -0.43,1.99 -0.39,2.03 -0.7,4.97 -0.66,4.34 -0.55,3.83 -0.51,3.4 -0.43,2.97 -0.35,2.66 -0.35,2.39 -0.31,2.19 -0.27,2.03 -0.27,1.99 -0.27,1.99 -0.27,2.07 -0.27,2.19 -0.27,2.39 -0.35,2.66 -0.35,3.01 -0.27,7.04 -0.27,7.04 -0.2,7.04 -0.23,7.04 -0.2,7.08 -0.16,7.08 -0.16,7.08 -0.16,7.08 -0.12,7.12 -0.12,7.08 -0.12,7.12 -0.12,7.12 -0.08,7.16 -0.08,7.12 -0.08,7.16 -0.08,7.16 h -14.32 v -5.95 z"
       id="path6" />
    <path
       class="cls-1"
       d="m 302.49,364.01 v -8.25 l -0.04,-8.21 -0.08,-8.21 -0.08,-8.21 -0.12,-8.21 -0.16,-8.21 -0.16,-8.18 -0.23,-8.18 -0.31,-8.18 -0.35,-8.18 -0.43,-8.14 -0.23,-4.07 -0.27,-4.07 -0.27,-4.03 -0.31,-4.07 -0.31,-4.07 -0.35,-4.03 -0.39,-4.03 -0.39,-4.07 -0.7,-4.3 -0.51,-3.32 -0.43,-2.58 -0.31,-2.15 -0.27,-1.92 -0.27,-1.92 -0.27,-2.19 -0.35,-2.7 0.9,1.33 0.78,1.1 0.39,0.47 0.35,0.47 0.39,0.39 0.39,0.35 0.43,0.39 0.43,0.31 0.51,0.35 0.55,0.39 1.29,0.74 1.56,0.9 1.02,0.16 0.98,0.16 1.02,0.16 0.98,0.16 1.02,0.16 1.02,0.2 1.02,0.16 1.02,0.2 0.12,1.17 0.12,1.02 0.08,1.06 0.08,1.29 0.08,1.64 0.12,2.23 0.12,2.93 0.16,3.87 0.35,3.79 0.35,3.79 0.35,3.76 0.35,3.79 0.35,3.79 0.35,3.79 0.39,3.79 0.35,3.76 0.35,3.79 0.39,3.79 0.35,3.79 0.35,3.79 0.39,3.79 0.35,3.79 0.35,3.79 0.39,3.79 0.16,4.19 0.2,4.19 0.2,4.22 0.16,4.19 0.16,4.19 0.16,4.19 0.16,4.19 0.16,4.22 0.12,4.22 0.12,4.19 0.12,4.26 0.12,4.22 0.12,4.22 0.08,4.26 0.12,4.3 0.08,4.26 h -17.21 l -0.04,-8.21 z"
       id="path7" />
    <path
       class="cls-1"
       d="m 267.21,193.79 -1.13,-0.66 -1.1,-0.7 -0.98,-0.66 -0.94,-0.7 -0.9,-0.7 -0.86,-0.7 -0.82,-0.74 -0.78,-0.78 -0.78,-0.78 -0.74,-0.82 -0.78,-0.9 -0.74,-0.9 -0.74,-0.94 -0.78,-1.02 -0.04,-1.84 -0.04,-2.07 v -1.06 l 0.04,-1.1 0.04,-1.06 0.08,-1.1 0.12,-1.06 0.16,-1.06 0.2,-1.02 0.27,-0.94 0.16,-0.43 0.16,-0.47 0.2,-0.39 0.2,-0.43 0.23,-0.35 0.23,-0.39 0.27,-0.31 0.31,-0.31 0.63,-0.16 0.66,-0.16 0.66,-0.12 0.7,-0.12 -0.04,-0.55 -0.04,-0.43 -0.04,-0.39 -0.04,-0.35 -0.2,-0.59 -0.2,-0.51 -1.68,-0.78 -1.72,-0.78 -1.76,-0.82 -1.8,-0.82 -1.8,-0.78 -1.84,-0.78 -1.88,-0.74 -1.84,-0.7 -0.94,-0.31 -0.94,-0.27 -0.94,-0.27 -0.94,-0.23 -0.94,-0.23 -0.94,-0.16 -0.94,-0.2 -0.9,-0.12 -0.94,-0.08 -0.9,-0.04 -0.94,-0.04 -0.9,0.04 -0.9,0.08 -0.9,0.12 -0.86,0.16 -0.9,0.2 -1.68,0.9 -1.72,0.9 -1.76,0.9 -1.76,0.86 -1.76,0.82 -1.76,0.74 -1.72,0.66 -1.72,0.63 0.47,-3.6 0.43,-3.48 0.39,-3.44 0.31,-3.36 0.12,-1.68 0.12,-1.64 0.04,-1.64 0.04,-1.68 v -1.64 l -0.04,-1.64 -0.12,-1.64 -0.12,-1.64 -0.7,-1.84 -0.51,-1.37 -0.39,-1.02 -0.27,-0.78 -0.2,-0.59 -0.16,-0.47 -0.08,-0.47 -0.12,-0.51 2.43,-0.04 2.39,-0.04 2.46,-0.08 2.43,-0.08 2.46,-0.04 2.43,-0.08 2.46,-0.04 2.46,-0.08 h 7.43 l 2.46,0.04 2.46,0.08 2.5,0.12 2.46,0.2 2.46,0.2 0.74,1.41 0.78,1.41 0.82,1.41 0.86,1.41 0.94,1.37 1.02,1.33 0.51,0.66 0.55,0.63 0.59,0.63 0.55,0.63 0.63,0.59 0.63,0.55 0.63,0.55 0.66,0.51 0.66,0.51 0.7,0.47 0.74,0.43 0.74,0.43 0.78,0.35 0.78,0.35 0.82,0.31 0.86,0.27 0.9,0.23 0.9,0.2 0.9,0.16 0.98,0.08 2.54,-0.23 2.43,-0.27 1.17,-0.16 1.17,-0.2 1.17,-0.23 1.13,-0.23 1.13,-0.31 1.13,-0.35 1.13,-0.43 1.13,-0.47 1.13,-0.55 1.1,-0.63 1.13,-0.74 1.13,-0.78 1.17,-1.21 1.1,-1.13 0.55,-0.63 0.55,-0.59 0.55,-0.66 0.55,-0.7 0.35,-0.78 0.39,-0.78 0.35,-0.78 0.35,-0.78 0.39,-0.78 0.39,-0.74 0.35,-0.78 0.39,-0.74 1.1,-0.04 1.1,-0.04 h 1.06 l 1.1,-0.04 1.1,-0.04 1.06,-0.04 h 1.1 l 1.1,-0.04 0.94,0.27 0.94,0.23 0.98,0.27 0.94,0.27 0.98,0.27 0.94,0.23 0.98,0.27 0.98,0.27 1.21,0.63 1.21,0.63 1.17,0.7 1.17,0.66 1.13,0.74 1.13,0.74 1.13,0.74 1.13,0.78 2.27,1.64 2.27,1.76 2.27,1.84 2.31,1.92 0.98,1.02 1.21,1.17 1.37,1.29 1.49,1.37 1.45,1.45 1.37,1.45 0.63,0.7 0.59,0.74 0.51,0.7 0.43,0.66 -0.08,0.2 -0.16,0.2 -0.16,0.23 -0.2,0.23 -0.51,0.55 -0.63,0.55 -0.74,0.59 -0.78,0.63 -0.86,0.66 -0.9,0.63 -1.8,1.25 -1.68,1.13 -1.41,0.94 -0.98,0.66 -1.02,0.94 -1.6,1.53 -2.03,1.92 -2.23,2.03 -1.13,0.98 -1.1,0.98 -1.06,0.86 -0.94,0.82 -0.86,0.63 -0.74,0.51 -0.31,0.2 -0.23,0.16 -0.23,0.08 h -0.16 l -0.66,-0.82 -0.63,-0.82 -0.66,-0.78 -0.63,-0.82 -1.1,-2.27 -1.02,-1.96 -0.55,-0.94 -0.51,-0.86 -0.55,-0.78 -0.55,-0.78 -0.55,-0.74 -0.63,-0.7 -0.63,-0.66 -0.7,-0.66 -0.74,-0.63 -0.74,-0.63 -0.86,-0.63 -0.9,-0.59 -2.19,1.25 -1.29,0.74 -0.9,0.63 -1.02,0.74 -1.33,0.51 -1.33,0.47 -0.63,0.27 -0.63,0.23 -0.59,0.27 -0.59,0.27 -0.55,0.31 -0.51,0.31 -0.47,0.39 -0.47,0.43 -0.39,0.47 -0.35,0.51 -0.27,0.59 -0.27,0.66 0.55,0.47 0.66,0.47 0.39,0.27 0.43,0.23 0.51,0.27 0.59,0.31 0.39,0.78 0.39,0.86 0.35,0.86 0.31,0.86 0.27,0.86 0.23,0.9 0.23,0.94 0.16,0.9 0.16,0.94 0.12,0.94 0.04,0.98 0.04,0.94 -0.04,0.98 -0.04,0.98 -0.12,0.98 -0.16,0.98 -0.78,0.66 -0.78,0.63 -0.78,0.66 -0.78,0.66 -0.78,0.66 -0.78,0.7 -0.78,0.66 -0.78,0.66 -1.64,0.86 -1.56,0.78 -1.53,0.7 -1.49,0.55 -1.45,0.51 -1.41,0.43 -1.41,0.35 -1.41,0.31 -1.45,0.23 -1.45,0.23 -1.49,0.16 -1.53,0.16 -3.25,0.27 -3.56,0.23 -1.29,-0.67 z"
       id="path8" />
  </g>
  <path
     class="cls-4"
     d="m 305.02,224.17 -1.1,-0.63 -1.02,-0.63 -0.98,-0.7 -0.43,-0.31 -0.43,-0.35 -0.39,-0.39 -0.35,-0.35 -0.35,-0.39 -0.31,-0.39 -0.31,-0.39 -0.23,-0.39 -0.27,-0.43 -0.2,-0.43 -0.16,-0.43 -0.16,-0.47 -0.12,-0.47 -0.08,-0.47 -0.04,-0.51 -0.04,-0.51 0.04,-0.51 0.08,-0.55 0.08,-0.55 0.12,-0.55 0.2,-0.59 0.2,-0.59 0.27,-0.63 0.27,-0.63 1.13,-0.27 1.1,-0.31 1.13,-0.27 1.1,-0.27 1.13,-0.31 1.1,-0.27 1.1,-0.27 1.13,-0.27 0.12,-0.27 0.08,-0.23 0.08,-0.27 0.08,-0.27 0.04,-0.51 -0.04,-0.51 -0.08,-0.47 -0.12,-0.51 -0.2,-0.47 -0.23,-0.47 -0.47,-0.9 -0.51,-0.9 -0.23,-0.47 -0.23,-0.43 -0.16,-0.43 -0.16,-0.43 1.17,-0.16 1.21,-0.2 1.21,-0.2 1.29,-0.23 1.29,-0.31 1.29,-0.31 1.33,-0.43 1.37,-0.43 1.49,-1.88 1.53,-1.84 1.56,-1.8 1.56,-1.84 1.6,-1.76 1.6,-1.76 1.64,-1.76 1.64,-1.68 1.17,-0.86 1.37,-0.94 0.7,-0.51 0.74,-0.55 0.74,-0.59 0.7,-0.59 0.66,-0.59 0.59,-0.66 0.27,-0.31 0.27,-0.31 0.23,-0.35 0.23,-0.31 0.2,-0.35 0.16,-0.35 0.16,-0.35 0.08,-0.35 0.08,-0.35 0.04,-0.39 v -0.35 l -0.04,-0.39 -1.1,-0.16 -0.98,-0.16 -0.94,-0.23 -0.86,-0.23 -0.78,-0.23 -0.78,-0.31 -0.74,-0.31 -0.78,-0.39 -0.04,-0.31 -0.08,-0.31 v -0.31 l -0.04,-0.27 1.49,-1.6 1.64,-1.72 0.9,-0.9 0.9,-0.9 0.98,-0.86 0.98,-0.86 0.98,-0.82 1.06,-0.78 1.02,-0.7 1.06,-0.66 0.55,-0.27 0.55,-0.27 0.55,-0.27 0.51,-0.23 0.55,-0.2 0.55,-0.16 0.55,-0.16 0.55,-0.12 1.92,1.76 1.96,1.68 1.92,1.64 1.88,1.72 0.9,0.86 0.9,0.94 0.86,0.94 0.82,1.02 0.82,1.06 0.78,1.13 0.74,1.21 0.7,1.25 -0.04,0.43 -0.08,0.39 -0.08,0.39 -0.12,0.39 -0.27,0.74 -0.35,0.74 -0.39,0.7 -0.47,0.66 -0.51,0.66 -0.55,0.63 -0.55,0.63 -0.63,0.55 -0.59,0.59 -0.66,0.55 -1.25,1.02 -1.25,0.94 -0.74,0.94 -0.66,0.78 -0.94,0.98 -1.64,1.6 -1.96,1.64 -1.99,1.6 -2.03,1.56 -2.03,1.56 -2.03,1.53 -2.07,1.53 -2.03,1.53 -2.07,1.56 -2.03,1.53 -1.99,1.6 -1.99,1.6 -1.96,1.64 -1.92,1.68 -1.84,1.72 -0.9,0.9 -0.9,0.9 -0.86,0.9 -0.86,0.94 -0.55,1.17 -0.47,1.06 -0.47,0.94 -0.43,0.82 -0.43,0.7 -0.43,0.63 -0.43,0.59 -0.51,0.47 -0.51,0.43 -0.59,0.35 -0.66,0.35 -0.74,0.31 -0.86,0.31 -0.94,0.27 -1.1,0.27 -1.21,0.31 -1.17,-0.63 z"
     id="path9" />
  <path
     class="cls-4"
     d="m 191.86,150.79 -1.02,-0.35 -0.31,-0.12 -0.27,-0.16 -0.27,-0.16 -0.27,-0.23 -0.16,-0.31 -0.16,-0.35 -0.16,-0.39 -0.12,-0.43 -0.2,-0.9 -0.12,-0.98 -0.12,-1.06 -0.04,-1.13 v -2.31 l 0.08,-2.39 0.16,-2.23 0.12,-2.03 0.08,-1.64 0.31,-3.36 0.31,-3.36 0.35,-3.36 0.31,-3.36 0.35,-3.32 0.31,-3.36 0.35,-3.32 0.35,-3.32 -0.23,-2.93 -0.27,-2.86 -0.23,-2.74 -0.2,-2.7 -0.04,-1.33 -0.04,-1.29 v -1.33 l 0.08,-1.29 0.12,-1.29 0.16,-1.29 0.2,-1.29 0.31,-1.33 h 4.58 l 1.49,-0.08 0.74,-0.08 0.78,-0.08 0.74,-0.08 0.78,-0.16 0.78,-0.12 0.78,-0.2 0.78,-0.2 0.78,-0.27 0.47,-0.63 0.39,-0.51 0.35,-0.51 0.35,-0.59 0.39,-0.66 0.51,-0.9 0.63,-1.21 0.82,-1.53 h 0.55 l 0.31,1.64 0.2,1.29 0.2,1.02 0.2,0.9 0.16,0.82 0.23,0.9 0.27,1.02 0.31,1.29 -0.08,0.59 -0.16,0.59 -0.23,0.55 -0.27,0.59 -0.63,1.13 -0.74,1.25 -0.27,0.12 -0.27,0.16 -0.27,0.23 -0.23,0.31 -0.23,0.35 -0.23,0.39 -0.2,0.43 -0.2,0.47 -0.2,0.55 -0.16,0.55 -0.16,0.59 -0.16,0.59 -0.27,1.29 -0.23,1.37 -0.16,1.37 -0.16,1.37 -0.16,1.37 -0.08,1.29 -0.12,2.23 -0.08,1.64 0.59,3.17 0.63,3.13 0.27,1.56 0.27,1.53 0.27,1.56 0.2,1.56 0.16,1.56 0.12,1.6 0.04,1.6 v 1.64 l -0.04,0.82 -0.08,0.82 -0.08,0.86 -0.12,0.82 -0.12,0.86 -0.16,0.9 -0.16,0.86 -0.23,0.9 0.04,0.94 0.04,0.98 0.04,0.98 0.04,1.02 0.43,-0.08 0.47,-0.04 0.43,-0.08 0.47,-0.04 0.59,-1.49 0.59,-1.45 0.59,-1.45 0.59,-1.41 0.7,-0.04 0.7,-0.04 h 1.49 l 0.82,2.03 0.86,2.27 0.39,1.21 0.39,1.29 0.35,1.29 0.31,1.29 0.27,1.33 0.16,1.33 0.08,0.66 0.04,0.66 v 1.33 l -0.04,0.66 -0.04,0.63 -0.08,0.63 -0.16,0.63 -0.12,0.63 -0.2,0.63 -0.23,0.59 -0.23,0.59 -2.74,0.08 -2.78,0.04 -2.74,0.08 -2.7,0.04 -2.74,0.08 -2.74,0.04 -2.74,0.08 -2.7,0.04 -1.84,-0.55 z"
     id="path10" />
  <path
     class="cls-4"
     d="m 276.19,142.34 -1.56,-0.47 -1.56,-0.47 -1.49,-0.55 -0.74,-0.27 -0.7,-0.27 -0.66,-0.31 -0.7,-0.35 -0.66,-0.31 -0.63,-0.39 -0.63,-0.35 -0.59,-0.39 -0.59,-0.43 -0.59,-0.43 -0.51,-0.47 -0.51,-0.47 -0.51,-0.51 -0.47,-0.55 -0.43,-0.55 -0.39,-0.59 -0.39,-0.63 -0.35,-0.63 -0.31,-0.66 -0.27,-0.7 -0.27,-0.74 -0.23,-0.74 -0.16,-0.82 -0.16,-0.82 1.13,-0.23 0.9,-0.12 h 0.74 l 0.31,0.04 0.35,0.04 0.31,0.12 0.35,0.12 0.39,0.16 0.39,0.16 0.94,0.51 1.17,0.63 h 0.63 l 0.31,0.04 0.31,0.04 0.16,-0.7 0.08,-0.66 0.08,-0.7 0.08,-0.86 0.08,-1.17 0.08,-1.64 0.12,-2.19 0.12,-2.86 0.55,0.35 0.55,0.27 0.55,0.27 0.55,0.23 0.55,0.23 0.55,0.2 0.55,0.16 0.59,0.16 0.55,0.12 0.55,0.08 0.59,0.08 0.55,0.08 1.13,0.04 h 1.17 l 1.17,-0.08 1.17,-0.12 1.21,-0.16 1.21,-0.2 2.5,-0.47 2.62,-0.55 0.08,2.03 0.08,1.6 0.08,1.25 0.08,1.02 0.08,0.94 0.12,0.9 0.12,1.1 0.16,1.33 h 0.51 l 0.59,0.04 0.59,0.04 0.59,0.08 0.12,-0.66 0.12,-0.63 0.12,-0.63 0.2,-0.59 1.29,0.12 1.29,0.12 1.29,0.12 1.33,0.12 -0.35,1.33 -0.43,1.25 -0.2,0.59 -0.23,0.55 -0.23,0.51 -0.27,0.51 -0.23,0.47 -0.27,0.47 -0.31,0.47 -0.31,0.39 -0.31,0.43 -0.31,0.39 -0.35,0.35 -0.35,0.39 -0.78,0.66 -0.82,0.66 -0.9,0.59 -0.94,0.59 -1.06,0.59 -1.1,0.55 -1.21,0.59 -1.25,0.55 -0.86,0.23 -0.86,0.2 -0.82,0.2 -0.86,0.23 -0.82,0.2 -0.86,0.23 -0.82,0.23 -0.82,0.2 -1.64,-0.39 z"
     id="path11" />
  <path
     class="cls-4"
     d="m 273.92,118.13 -0.98,-0.66 -0.86,-0.74 -0.82,-0.78 -0.74,-0.82 -0.7,-0.86 -0.63,-0.9 -0.55,-0.94 -0.51,-0.94 -0.47,-0.98 -0.39,-1.02 -0.35,-1.06 -0.31,-1.06 -0.23,-1.1 -0.2,-1.1 -0.16,-1.13 -0.16,-1.1 -0.08,-1.13 -0.04,-1.13 v -1.17 l 0.04,-1.13 0.04,-1.13 0.08,-1.13 0.12,-1.13 0.16,-1.13 0.16,-1.1 0.2,-1.1 0.2,-1.06 0.43,-2.11 0.51,-1.99 0.35,-0.59 0.35,-0.59 0.39,-0.55 0.43,-0.51 0.39,-0.47 0.43,-0.47 0.47,-0.43 0.47,-0.39 0.47,-0.35 0.51,-0.35 0.51,-0.31 0.51,-0.27 0.51,-0.23 0.55,-0.23 0.59,-0.2 0.55,-0.16 0.59,-0.12 0.59,-0.08 0.59,-0.08 0.59,-0.04 h 0.63 l 0.63,0.04 0.63,0.08 0.63,0.08 0.63,0.12 0.66,0.16 0.63,0.2 0.66,0.23 0.63,0.27 0.66,0.27 0.66,0.31 0.66,0.35 0.66,0.82 0.66,0.82 0.63,0.86 0.55,0.9 0.55,0.9 0.47,0.94 0.43,0.94 0.39,0.98 0.39,1.02 0.31,1.02 0.27,1.02 0.23,1.06 0.2,1.06 0.16,1.06 0.12,1.1 0.08,1.1 0.04,1.1 0.04,1.1 -0.04,1.1 -0.08,1.1 -0.08,1.13 -0.16,1.1 -0.16,1.1 -0.23,1.1 -0.23,1.1 -0.27,1.06 -0.31,1.1 -0.35,1.06 -0.35,1.02 -0.43,1.06 -0.43,1.02 -0.47,0.98 -0.74,0.74 -0.7,0.66 -0.7,0.51 -0.7,0.47 -0.74,0.35 -0.74,0.27 -0.74,0.23 -0.74,0.16 -0.78,0.16 -0.82,0.08 -0.82,0.04 -0.82,0.04 -1.8,0.04 -1.96,0.08 -1.02,-0.63 z"
     id="path12" />
  <path
     class="cls-2"
     d="m 294.42,102.56 c -0.24,-6.37 -1.28,-12.8 -3.9,-18.66 -0.51,-1.06 -0.74024,-2.362162 -1.6,-3.18 -1.20675,-1.147905 -2.94014,-1.677225 -4.57,-2.02 -4.04159,-0.849987 -8.35,-1.18 -12.39,0.02 -3.29,0.92 -5.73,3.69 -6.96,6.78 -0.88,2.05 -1.44,4.24 -1.76,6.44 -0.28,3.91 -0.56,7.83 -0.82,11.75 -1.69,-0.18 -3.61,-0.83 -4.23,-2.58 -0.51,-1.61 -0.44,-3.35 -0.28,-5.01 1.14,-5.23 1.84,-10.55 3.11,-15.74 0.96,-2.28 1.73032,-4.953665 3.75,-6.36 5.07007,-3.530363 12,-3.43 18.24,-3.29 3.03,0.1 6.51873,-0.204336 8.91,1.64 3.85757,2.975261 4.66,8.59 6.21,13.23 1.4,4.31 2.36,8.97 1.42,13.48 -0.24,1.01 -0.35412,2.16339 -1.03,2.96 -0.99686,1.17493 -2.58,1.72 -4.06,2.21 -0.01,-0.56 -0.03,-1.12 -0.04,-1.68 v 0 z"
     id="path13" />
  <path
     class="cls-3"
     d="m 277.21,114.73 c -0.03,-0.29 -0.05,-0.58 -0.08,-0.88 v -0.41 c 0.08,-0.06 0.15,-0.12 0.24,-0.16 0.05,-0.03 0.12,-0.05 0.18,-0.06 0.08,-0.02 0.16,0 0.24,-0.01 0.16,0.02 0.33,0.05 0.49,0.08 0.19,0.05 0.38,0.1 0.58,0.15 0,0.17 0,0.35 0,0.52 0.03,0.17 0.05,0.33 0.08,0.5 -0.18,0.14 -0.36,0.29 -0.56,0.42 -0.04,0.03 -0.08,0.06 -0.13,0.07 -0.12,0.03 -0.25,0.08 -0.37,0.11 -0.2,0.04 -0.39,0.07 -0.59,0.11 -0.03,-0.14 -0.05,-0.29 -0.08,-0.43 v 0 z"
     id="path14" />
  <path
     class="cls-3"
     d="m 278.74,111.87 c -0.44,-0.15 -0.88,-0.31 -1.34,-0.37 -0.35,-0.07 -0.71,-0.09 -1.07,-0.1 -0.72,0.02 -1.44,0.05 -2.16,0.08 0.06,-0.26 0.09,-0.52 0.12,-0.78 0.06,-0.23 0.09,-0.47 0.11,-0.71 0.29,-0.12 0.57,-0.27 0.85,-0.4 0.3,-0.07 0.59,-0.18 0.89,-0.23 0.41,-0.04 0.83,-0.09 1.24,-0.07 0.29,0 0.57,0 0.85,0.05 0.83,0.1 1.65,0.23 2.47,0.4 0.42,0.07 0.85,0.12 1.27,0.18 -0.06,0.3 -0.1,0.6 -0.12,0.9 -0.06,0.3 -0.1,0.6 -0.12,0.9 -0.89,0.1 -1.77,0.2 -2.66,0.31 -0.12,-0.05 -0.23,-0.1 -0.35,-0.16 v 0 z"
     id="path15" />
  <path
     class="cls-3"
     d="m 276.58,106.2 c -0.36,-0.22 -0.72,-0.42 -1.06,-0.66 -0.15,-0.13 -0.3,-0.25 -0.4,-0.42 -0.14,-0.15 -0.18,-0.35 -0.26,-0.52 -0.03,-0.35 -0.06,-0.7 -0.08,-1.06 0.1,-0.08 0.2,-0.18 0.33,-0.2 0.16,-0.06 0.34,-0.02 0.5,-0.03 h 0.65 c 0.18,0.25 0.33,0.51 0.47,0.78 0.28,0.04 0.55,0.05 0.83,0.04 0.34,0.02 0.67,-0.08 1,-0.17 0.27,-0.1 0.52,-0.22 0.77,-0.35 0.32,-0.12 0.64,-0.24 0.98,-0.27 0.22,-0.04 0.43,-0.04 0.65,-0.04 0.07,0.32 0.16,0.64 0.19,0.97 -0.02,0.22 -0.03,0.44 -0.1,0.65 -0.04,0.14 -0.12,0.28 -0.2,0.41 -0.09,0.12 -0.16,0.26 -0.3,0.33 -0.22,0.15 -0.42,0.32 -0.66,0.42 -0.38,0.17 -0.8,0.23 -1.21,0.32 -0.46,0.08 -0.92,0.14 -1.39,0.19 -0.12,-0.04 -0.24,-0.13 -0.36,-0.19 -0.12,-0.07 -0.24,-0.14 -0.37,-0.2 v 0 z"
     id="path16" />
  <path
     class="cls-3"
     d="m 270.29,97.32 c -0.41,-0.34 -0.83,-0.68 -1.29,-0.95 -0.32,-0.2 -0.62,-0.43 -0.96,-0.58 -0.1,-0.05 -0.2,-0.1 -0.29,-0.15 -0.02,-0.26 -0.05,-0.52 -0.08,-0.78 0.44,-0.2 0.88,-0.42 1.35,-0.56 0.58,-0.21 1.15,-0.42 1.75,-0.55 0.62,-0.15 1.26,-0.23 1.89,-0.25 0.29,0.05 0.59,0.07 0.88,0.13 0.17,0.09 0.35,0.13 0.52,0.21 0.22,0.15 0.45,0.28 0.62,0.48 0.13,0.12 0.24,0.25 0.32,0.41 0.14,0.23 0.26,0.47 0.34,0.73 0.08,0.21 0.13,0.44 0.17,0.66 -0.46,0.08 -0.91,0.16 -1.36,0.3 -0.59,0.22 -1.18,0.45 -1.75,0.73 -0.48,0.21 -0.96,0.42 -1.48,0.52 -0.11,0.07 -0.2,-0.04 -0.29,-0.1 -0.11,-0.08 -0.22,-0.15 -0.33,-0.23 v 0 z"
     id="path17" />
  <path
     class="cls-3"
     d="m 283.74,97.36 c -0.41,-0.22 -0.83,-0.43 -1.23,-0.67 -0.25,-0.18 -0.5,-0.37 -0.78,-0.52 -0.35,-0.26 -0.62,-0.6 -0.83,-0.98 -0.08,-0.15 -0.11,-0.33 -0.1,-0.5 0.27,-0.17 0.55,-0.31 0.84,-0.44 0.3,-0.14 0.6,-0.28 0.91,-0.37 0.48,-0.16 0.97,-0.26 1.47,-0.35 0.31,-0.06 0.61,-0.12 0.93,-0.13 0.32,-0.03 0.65,0.01 0.97,0.04 0.27,0.03 0.55,0.06 0.81,0.16 0.36,0.07 0.65,0.3 0.93,0.52 0.12,0.07 0.23,0.15 0.29,0.27 0.12,0.2 0.28,0.38 0.38,0.59 0.08,0.31 0.16,0.63 0.23,0.94 -1.01,0.47 -2.02,0.95 -3.07,1.35 -0.38,0.14 -0.77,0.24 -1.16,0.37 -0.2,-0.1 -0.39,-0.21 -0.59,-0.31 v 0 z"
     id="path18" />
  <path
     class="cls-3"
     d="m 268.1,92.63 c -0.12,-0.12 -0.23,-0.23 -0.35,-0.35 0.06,-0.23 0.09,-0.46 0.13,-0.7 0.06,-0.18 0.09,-0.37 0.11,-0.55 0.92,-0.21 1.84,-0.42 2.77,-0.55 0.52,-0.03 1.05,-0.1 1.57,-0.11 0.46,-0.01 0.93,0.05 1.39,0.08 0.48,0.12 0.97,0.19 1.44,0.36 0.22,0.07 0.43,0.15 0.65,0.23 0,0.33 0.02,0.67 -0.06,0.99 -0.03,0.15 -0.15,0.24 -0.25,0.34 -0.6,0 -1.21,0 -1.81,0.03 -0.51,0.02 -1.03,-0.02 -1.54,0.05 -0.7,0.06 -1.41,0.12 -2.1,0.23 -0.41,0.06 -0.83,0.11 -1.23,0.23 -0.12,0.03 -0.24,0.06 -0.35,0.09 -0.12,-0.12 -0.23,-0.23 -0.35,-0.35 v 0 z"
     id="path19" />
  <path
     class="cls-3"
     d="m 286.72,92.82 c -0.54,-0.13 -1.08,-0.22 -1.63,-0.29 -0.85,-0.08 -1.71,-0.12 -2.56,-0.11 -0.61,0 -1.22,0.01 -1.82,0 -0.22,-0.02 -0.45,-0.05 -0.67,-0.07 0.01,-0.27 0.09,-0.53 0.13,-0.8 0.01,-0.18 0.06,-0.36 0.11,-0.53 0.55,-0.15 1.11,-0.29 1.68,-0.4 0.43,-0.08 0.86,-0.15 1.29,-0.2 0.5,-0.03 1.01,-0.09 1.51,-0.1 0.55,0.04 1.1,0.07 1.64,0.13 0.66,0.15 1.34,0.25 1.98,0.48 0.08,0.05 0.27,0.03 0.28,0.15 0.02,0.35 0.13,0.69 0.14,1.04 0.01,0.16 0.06,0.31 0.09,0.47 -0.54,0.09 -1.07,0.21 -1.59,0.37 -0.12,0.04 -0.25,-0.06 -0.37,-0.08 -0.06,-0.02 -0.13,-0.04 -0.19,-0.06 v 0 z"
     id="path20" />
  <g
     id="g28"
     transform="translate(-0.01)">
    <path
       class="cls-7"
       d="m 282.54,474.36 v -33.91 c 3.17,0.38 6.29,1.13 9.33,2.07 1.05,0.35 2.1,0.7 3.15,1.06 0.07,3.7 0.07,7.4 0.09,11.09 0.04,2.9 0.02,5.81 0.06,8.71 0.05,3.39 0.03,6.78 0.08,10.17 v 3.07 h -12.71 c 0,-0.76 0,-1.51 0,-2.27 v 0 z"
       id="path21" />
    <path
       class="cls-7"
       d="m 306.67,196.87 -0.43,-0.63 -0.43,-0.63 -0.31,-0.66 -0.27,-0.7 -0.23,-0.7 -0.2,-0.7 -0.16,-0.7 -0.12,-0.7 -0.08,-0.7 -0.04,-0.74 -0.04,-0.66 -0.08,-1.37 -0.04,-1.29 0.66,-2.86 0.63,-2.82 0.66,-2.86 0.63,-2.86 0.66,-2.82 0.66,-2.86 0.66,-2.86 0.66,-2.82 0.27,-0.08 0.31,-0.04 0.31,-0.08 0.35,-0.04 0.31,0.27 0.31,0.31 0.31,0.39 0.31,0.43 0.59,0.98 0.63,1.1 1.25,2.46 1.29,2.58 0.7,1.25 0.74,1.21 0.39,0.59 0.39,0.55 0.39,0.51 0.43,0.47 0.43,0.43 0.43,0.39 0.47,0.31 0.47,0.31 0.47,0.2 0.51,0.2 0.51,0.08 0.55,0.04 0.51,-0.63 0.47,-0.55 0.47,-0.47 0.47,-0.43 0.47,-0.31 0.43,-0.23 0.23,-0.08 0.2,-0.04 0.23,-0.08 h 0.67 l 0.2,0.08 0.23,0.04 0.47,0.2 0.47,0.31 0.51,0.35 0.51,0.47 0.55,0.59 0.55,0.63 -1.17,1.21 -1.21,1.21 -1.21,1.21 -1.21,1.17 -1.17,1.21 -1.21,1.21 -1.21,1.25 -1.17,1.21 -1.84,2.19 -1.49,1.76 -0.66,0.74 -0.63,0.66 -0.63,0.59 -0.63,0.55 -0.66,0.43 -0.7,0.43 -0.78,0.35 -0.86,0.31 -0.94,0.31 -1.06,0.27 -1.21,0.27 -1.37,0.27 -0.55,-0.59 z"
       id="path22" />
    <path
       class="cls-7"
       d="M 262.53433,616.24608 C 254.14635,615.40696 247.01293,614.38731 237.44,613.11 V 487.55 h 10.17 v 6.57 h 10.95 v -6.57 h 13.03 v 6.57 h 10.95 v -6.57 h 12.71 v 6.26 h 11.19 v -6.26 h 10.17 c -0.1,41.78 -0.18,83.55 -0.23,125.33 -15.89949,2.35329 -17.37509,2.69343 -26.11848,3.56791 -4.50741,0.45081 -9.03239,0.88979 -13.56222,0.86378 -4.73492,-0.0272 -9.45349,-0.59428 -14.16497,-1.06561 z"
       id="path23" />
    <path
       class="cls-7"
       d="m 53.51,493.1 -1.64,-2.58 -1.6,-2.58 -1.6,-2.58 -1.53,-2.62 -1.53,-2.58 -1.49,-2.62 -1.45,-2.58 -1.45,-2.62 -1.41,-2.62 -1.41,-2.58 -1.37,-2.62 -1.33,-2.58 -1.33,-2.62 -1.29,-2.58 -1.29,-2.62 -1.1,-2.62 -1.06,-2.62 -1.02,-2.62 -1.02,-2.62 -0.98,-2.62 -0.98,-2.62 -0.98,-2.58 -0.94,-2.62 -0.9,-2.62 -0.86,-2.62 -0.86,-2.62 -0.86,-2.58 -0.78,-2.62 -0.78,-2.58 -0.78,-2.62 -0.74,-2.58 -0.78,-3.44 -0.74,-3.44 -0.7,-3.44 -0.63,-3.4 -0.63,-3.4 -0.59,-3.4 -0.55,-3.36 -0.51,-3.4 -0.47,-3.36 -0.43,-3.4 -0.39,-3.36 -0.35,-3.4 -0.31,-3.4 -0.27,-3.4 -0.23,-3.4 -0.2,-3.4 -0.04,-21.79 V 270.81 L 9.29,249.02 V 9.39 H 543.7 v 43.54 l -0.04,21.79 v 21.75 l -0.04,21.79 v 65.32 l -0.04,21.79 v 65.36 l -0.04,21.79 v 65.36 l -0.16,2.7 -0.16,2.7 -0.2,2.7 -0.23,2.7 -0.27,2.7 -0.23,2.66 -0.31,2.7 -0.31,2.7 -0.35,2.66 -0.35,2.7 -0.39,2.7 -0.39,2.7 -0.43,2.74 -0.47,2.7 -0.47,2.78 -0.51,2.74 -0.43,1.88 -0.43,1.84 -0.47,1.88 -0.47,1.88 -0.47,1.88 -0.47,1.92 -0.51,1.88 -0.51,1.92 -0.55,1.92 -0.55,1.92 -0.55,1.92 -0.55,1.96 -0.55,1.92 -0.59,1.92 -0.59,1.96 -0.59,1.92 -1.1,3.01 -1.13,2.97 -1.17,2.93 -1.21,2.97 -1.25,2.89 -1.25,2.93 -1.29,2.89 -1.33,2.89 -1.33,2.89 -1.37,2.89 -1.41,2.86 -1.45,2.86 -1.45,2.89 -1.49,2.86 -1.53,2.86 -1.53,2.89 -1.29,1.99 -1.25,2.03 -1.29,2.03 -1.29,1.99 -1.29,2.03 -1.25,2.03 -1.29,2.03 -1.25,1.99 -0.04,-5.4 -0.04,-5.44 v -5.4 l -0.04,-5.44 -0.04,-5.44 -0.04,-5.4 v -5.44 l -0.04,-5.4 -0.04,-5.44 v -5.4 l -0.04,-5.4 v -5.44 l -0.04,-5.4 v -5.44 l -0.04,-5.4 v -5.4 l 1.06,-0.04 h 1.06 l 1.06,-0.04 h 5.36 v -35.01 l -0.55,-0.08 -0.51,-0.04 -0.55,-0.08 h -0.7 l -1.02,-0.04 -1.41,-0.04 h -1.88 l -2.46,-0.04 v -42.52 h 1.1 l 1.06,-0.04 h 4.38 l 1.1,-0.04 h 1.13 v -34.97 l -0.66,-0.08 -0.66,-0.08 -0.98,-0.04 -1.49,-0.04 -2.27,-0.08 -3.21,-0.04 -4.42,-0.04 -5.87,-0.08 -3.48,-3.83 -3.44,-3.79 -3.48,-3.79 -3.48,-3.83 -3.48,-3.79 -3.44,-3.79 -3.48,-3.79 -3.48,-3.79 -3.48,-3.79 -3.44,-3.79 -3.48,-3.79 -3.48,-3.79 -3.48,-3.79 -3.48,-3.79 -3.44,-3.79 -3.48,-3.79 -0.31,-0.12 -0.23,-0.04 -3.48,3.76 -3.48,3.79 -3.44,3.76 -3.48,3.79 -3.48,3.79 -3.48,3.76 -3.44,3.79 -3.48,3.79 -3.48,3.76 -3.48,3.79 -3.44,3.76 -3.48,3.79 -3.48,3.79 -3.48,3.76 -3.44,3.79 -3.48,3.79 -6.22,0.23 -4.65,0.16 -3.36,0.16 -2.31,0.08 -1.45,0.08 -0.86,0.08 -0.51,0.08 -0.35,0.08 v 34.97 h 1.06 l 1.06,0.04 h 4.26 l 1.1,0.04 h 1.06 v 42.52 l -4.11,0.04 h -3.17 l -2.31,0.04 -1.68,0.04 h -1.21 l -0.9,0.08 -0.82,0.04 -0.86,0.08 v 9.07 h -14.08 l -0.04,-1.13 v -2.31 l -0.04,-1.13 v -4.5 l -0.63,-0.08 -0.59,-0.04 -0.66,-0.08 h -0.86 l -1.17,-0.04 -1.6,-0.04 h -2.23 l -2.89,-0.04 -0.08,-3.72 -0.08,-3.72 -0.08,-3.76 -0.08,-3.72 -0.12,-3.72 -0.08,-3.72 -0.12,-3.72 -0.12,-3.72 -0.08,-3.72 -0.16,-3.68 -0.12,-3.68 -0.16,-3.64 -0.16,-3.64 -0.16,-3.64 -0.16,-3.6 -0.2,-3.56 -0.43,-4.97 -0.39,-4.97 -0.43,-4.97 -0.39,-4.97 -0.43,-4.97 -0.39,-4.97 -0.43,-4.97 -0.39,-4.93 -0.43,-4.97 -0.39,-4.97 -0.43,-4.97 -0.39,-4.97 -0.43,-4.93 -0.39,-4.97 -0.43,-4.97 -0.39,-4.93 v -1.1 l 0.04,-1.1 0.04,-1.06 0.04,-1.1 v -1.1 l 0.04,-1.06 0.04,-1.06 0.04,-1.06 1.1,-2.07 1.06,-1.88 0.55,-0.9 0.51,-0.86 0.55,-0.82 0.55,-0.82 0.59,-0.82 0.63,-0.78 0.63,-0.78 0.66,-0.78 0.7,-0.78 0.78,-0.78 0.82,-0.78 0.86,-0.82 1.8,-1.33 1.8,-1.37 1.8,-1.37 1.8,-1.41 1.8,-1.41 1.8,-1.45 1.8,-1.45 1.8,-1.45 1.8,-1.45 1.8,-1.45 1.8,-1.45 1.8,-1.45 1.84,-1.41 1.8,-1.41 1.8,-1.37 1.8,-1.37 1.41,-1.29 1.41,-1.33 1.37,-1.41 1.33,-1.41 0.63,-0.74 0.63,-0.7 0.59,-0.74 0.59,-0.74 0.55,-0.78 0.51,-0.74 0.47,-0.74 0.47,-0.78 -0.12,-0.94 -0.16,-0.94 -0.2,-0.86 -0.23,-0.82 -0.27,-0.82 -0.31,-0.74 -0.39,-0.74 -0.39,-0.66 -0.39,-0.66 -0.47,-0.63 -0.47,-0.63 -0.51,-0.59 -0.51,-0.55 -0.55,-0.55 -0.55,-0.55 -0.55,-0.55 -2.31,-1.99 -2.31,-2.03 -0.59,-0.51 -0.55,-0.55 -0.51,-0.55 -0.51,-0.55 -0.47,-0.59 -0.47,-0.63 -0.43,-0.63 -0.39,-0.66 0.43,-0.39 0.35,-0.43 0.27,-0.43 0.2,-0.43 0.12,-0.47 0.04,-0.43 -0.04,-0.47 -0.08,-0.47 -0.12,-0.47 -0.2,-0.47 -0.23,-0.43 -0.27,-0.47 -0.31,-0.47 -0.35,-0.47 -0.35,-0.43 -0.43,-0.47 -0.86,-0.86 -0.94,-0.82 -0.94,-0.78 -0.9,-0.74 -1.68,-1.21 -1.13,-0.9 -2.97,-2.97 -2.86,-2.86 -1.45,-1.33 -1.41,-1.29 -1.41,-1.25 -1.45,-1.17 -1.49,-1.13 -1.49,-1.1 -0.78,-0.51 -0.78,-0.51 -0.78,-0.47 -0.82,-0.51 -0.82,-0.43 -0.82,-0.43 -0.86,-0.43 -0.86,-0.43 -0.9,-0.39 -0.94,-0.35 -0.94,-0.35 -0.94,-0.35 -1.68,-0.35 -1.64,-0.31 -1.68,-0.31 -1.64,-0.23 -3.32,-0.47 -3.32,-0.39 -3.29,-0.39 -3.25,-0.43 -1.56,-0.23 -1.6,-0.23 -1.56,-0.31 -1.53,-0.31 0.08,-1.99 0.2,-1.92 0.23,-1.88 0.27,-1.88 0.35,-1.8 0.39,-1.8 0.47,-1.8 0.47,-1.76 1.21,-0.35 1.06,-0.39 0.98,-0.39 0.82,-0.47 0.39,-0.23 0.39,-0.23 0.31,-0.23 0.31,-0.27 0.31,-0.27 0.27,-0.31 0.27,-0.27 0.23,-0.31 0.47,-0.66 0.39,-0.74 0.35,-0.74 0.31,-0.86 0.31,-0.9 0.27,-0.98 0.27,-1.06 0.27,-1.1 v -0.94 l -0.04,-0.98 -0.08,-1.02 -0.08,-1.06 -0.12,-1.06 -0.16,-1.1 -0.16,-1.1 -0.2,-1.13 -0.23,-1.13 -0.27,-1.13 -0.27,-1.13 -0.27,-1.17 -0.35,-1.13 -0.35,-1.13 -0.39,-1.1 -0.43,-1.1 -0.43,-1.1 -0.47,-1.02 -0.47,-1.06 -0.55,-0.98 -0.55,-0.94 -0.59,-0.94 -0.59,-0.86 -0.63,-0.82 -0.66,-0.78 -0.7,-0.7 -0.7,-0.66 -0.74,-0.59 -0.78,-0.55 -0.78,-0.47 -0.86,-0.35 -0.82,-0.31 -1.64,-0.23 -1.56,-0.16 -1.6,-0.08 -1.53,-0.04 h -1.56 l -1.53,0.08 -1.53,0.12 -1.53,0.12 -1.49,0.2 -1.49,0.2 -1.53,0.23 -1.49,0.27 -3.05,0.55 c 0,0 -2.11467,0.179591 -3.05,0.63 -0.44144,0.212575 -1.13,0.94 -1.13,0.94 l -0.98,0.9 -0.9,0.86 -0.74,0.82 -0.7,0.78 -0.59,0.78 -0.51,0.82 -0.47,0.82 -0.39,0.86 -0.39,0.94 -0.35,0.98 -0.31,1.06 -0.66,2.39 -0.74,2.82 -0.51,2.54 -0.55,2.7 -0.31,1.37 -0.23,1.37 -0.2,1.41 -0.12,1.37 -0.04,0.7 v 0.66 l 0.04,0.66 0.04,0.66 0.08,0.66 0.12,0.63 0.16,0.66 0.2,0.63 0.23,0.59 0.27,0.59 0.31,0.59 0.35,0.55 0.43,0.55 0.47,0.55 0.55,0.47 0.59,0.51 0.98,0.35 1.06,0.39 1.06,0.39 1.02,0.43 0.51,0.94 0.43,0.94 0.39,0.98 0.31,0.98 0.27,1.02 0.23,1.02 0.2,1.02 0.16,1.02 0.12,1.06 0.12,1.1 0.08,1.06 0.08,1.13 0.08,2.23 0.08,2.31 -3.36,0.12 -3.4,0.08 -3.4,0.08 -3.36,0.04 -3.36,0.04 h -3.36 l -3.36,0.04 -3.36,0.04 -3.32,0.04 -3.32,0.04 -3.32,0.08 -3.29,0.12 -3.29,0.12 -3.25,0.2 -3.25,0.2 -3.25,0.27 -0.35,0.23 -0.35,0.23 -0.35,-1.92 -0.35,-1.96 -0.39,-1.96 -0.35,-1.99 -0.35,-1.96 -0.35,-1.99 -0.31,-1.99 -0.23,-1.99 -0.2,-1.96 -0.16,-1.99 -0.04,-0.98 v -2.89 l 0.04,-0.98 0.08,-0.94 0.12,-0.94 0.12,-0.94 0.16,-0.94 0.16,-0.94 0.23,-0.94 0.23,-0.9 0.39,-0.82 0.43,-0.74 0.43,-0.74 0.47,-0.63 0.47,-0.63 0.51,-0.59 0.55,-0.55 0.55,-0.51 0.59,-0.51 0.59,-0.47 0.63,-0.43 0.66,-0.47 1.41,-0.86 1.49,-0.9 1.37,-1.37 1.37,-1.29 1.37,-1.17 1.37,-1.1 1.41,-1.06 1.49,-1.02 1.53,-1.02 1.68,-1.02 0.23,-0.7 0.23,-0.7 0.2,-0.66 0.12,-0.66 0.23,-1.25 0.12,-1.1 0.59,-1.6 0.55,-1.56 0.59,-1.6 0.59,-1.53 0.35,-0.74 0.35,-0.74 0.35,-0.7 0.39,-0.7 0.39,-0.7 0.47,-0.66 0.47,-0.63 0.47,-0.63 0.35,-0.12 0.31,-0.16 0.27,-0.16 0.23,-0.2 0.2,-0.23 0.2,-0.2 0.12,-0.23 0.12,-0.27 0.12,-0.51 0.08,-0.59 0.04,-0.59 V 56.5 l -0.43,-0.23 -0.39,-0.27 -0.35,-0.27 -0.31,-0.27 -0.31,-0.31 -0.27,-0.27 -0.27,-0.31 -0.2,-0.35 -0.23,-0.31 -0.16,-0.35 -0.16,-0.35 -0.16,-0.35 -0.23,-0.74 -0.2,-0.74 -0.16,-0.78 -0.08,-0.78 -0.12,-0.82 -0.04,-0.82 -0.08,-0.82 -0.08,-0.82 -0.08,-0.82 -0.16,-0.78 v -1.29 l -0.04,-1.25 -0.04,-1.25 V 39.9 l -0.04,-1.25 v -1.29 l -0.04,-1.25 v -1.25 l -1.1,-0.27 -1.13,-0.27 -1.1,-0.23 -1.1,-0.23 -1.84,-2.11 -1.45,-1.64 -1.06,-1.29 -0.86,-0.98 -0.7,-0.9 -0.66,-0.82 -0.7,-0.94 -0.86,-1.17 -0.35,-1.1 -0.27,-0.82 -0.2,-0.7 -0.23,-0.59 -0.2,-0.55 -0.23,-0.63 -0.31,-0.7 -0.39,-0.94 -0.9,0.27 -0.9,0.31 -0.9,0.35 -0.86,0.31 -0.82,0.31 -0.82,0.23 -0.39,0.12 -0.35,0.08 -0.35,0.04 h -0.35 l -0.9,-0.59 -0.94,-0.55 -0.94,-0.51 -0.98,-0.47 -0.98,-0.47 -0.98,-0.39 -1.02,-0.39 -0.98,-0.39 -1.99,-0.7 -1.96,-0.7 -0.94,-0.39 -0.94,-0.39 -0.9,-0.39 -0.86,-0.43 h -0.78 l -0.59,0.04 -0.47,0.08 -0.31,0.12 -0.27,0.12 -0.16,0.16 -0.08,0.2 -0.08,0.23 -0.04,0.51 -0.12,0.66 -0.12,0.35 -0.2,0.35 -0.27,0.43 -0.35,0.39 -1.49,0.47 -1.45,0.43 -1.49,0.47 -1.45,0.47 -1.49,0.47 -1.45,0.43 -1.45,0.47 -1.49,0.47 -1.29,-0.04 -1.33,-0.08 -1.33,-0.08 h -1.25 l -0.59,0.04 -0.59,0.08 -0.55,0.16 -0.51,0.16 -0.23,0.12 -0.23,0.12 -0.23,0.16 -0.2,0.16 -0.2,0.2 -0.2,0.2 -0.2,0.23 -0.16,0.23 v 0.55 l -0.08,0.55 -0.08,0.55 -0.12,0.59 -0.16,0.55 -0.2,0.55 -0.23,0.59 -0.23,0.55 -0.27,0.59 -0.27,0.55 -0.31,0.59 -0.35,0.55 -0.74,1.13 -0.78,1.13 -0.82,1.1 -0.9,1.06 -0.86,1.06 -0.94,1.02 -1.76,1.92 -1.64,1.76 -0.78,0.47 -0.63,0.39 -0.51,0.31 -0.39,0.35 -0.16,0.16 -0.16,0.23 -0.12,0.23 -0.08,0.27 -0.08,0.31 -0.04,0.35 -0.04,0.39 v 0.51 l 0.47,0.31 0.59,0.39 0.31,0.2 0.43,0.16 0.43,0.16 0.51,0.12 -0.27,2.19 -0.31,2.15 -0.31,2.15 -0.43,2.15 -0.23,1.06 -0.27,1.06 -0.27,1.1 -0.35,1.06 -0.35,1.1 -0.39,1.1 -0.47,1.1 -0.47,1.13 -0.08,0.47 -0.04,0.47 -0.04,0.47 v 0.47 l 0.51,0.27 0.51,0.2 0.51,0.12 0.59,0.12 1.25,0.08 1.49,0.08 0.16,0.74 0.16,0.74 0.23,0.7 0.23,0.7 0.23,0.7 0.31,0.7 0.31,0.7 0.31,0.66 0.35,0.7 0.39,0.66 0.39,0.7 0.43,0.7 0.94,1.37 1.02,1.45 0.12,1.13 0.12,1.21 0.08,0.59 0.08,0.63 0.08,0.59 0.12,0.63 0.16,0.59 0.23,0.59 0.23,0.55 0.31,0.59 0.39,0.55 0.43,0.51 0.55,0.51 0.59,0.47 0.7,-0.39 0.7,-0.43 0.7,-0.39 0.7,-0.43 0.59,0.35 0.66,0.39 0.7,0.51 0.74,0.59 0.78,0.63 0.82,0.63 0.86,0.63 0.86,0.59 0.74,0.2 0.74,0.16 0.7,0.2 0.74,0.16 0.74,0.2 0.7,0.16 0.74,0.2 0.74,0.16 0.23,1.72 0.23,1.76 0.23,1.72 0.23,1.76 0.23,1.76 0.27,1.76 0.23,1.76 0.27,1.76 -0.12,2.89 -0.2,2.93 -0.2,2.97 -0.27,2.93 -0.27,2.97 -0.27,2.93 -0.27,2.97 -0.27,2.97 -0.23,3.01 -0.2,2.97 -0.12,3.01 -0.08,2.97 v 3.01 l 0.04,1.49 0.08,1.53 0.08,1.49 0.12,1.49 0.12,1.53 0.2,1.49 0.35,0.55 0.31,0.51 0.35,0.47 0.35,0.39 0.35,0.35 0.39,0.31 0.39,0.27 0.43,0.23 0.43,0.2 0.47,0.16 0.51,0.16 0.55,0.16 1.21,0.2 1.41,0.2 2.58,0.08 2.62,0.04 2.62,0.08 2.58,0.04 2.62,0.08 2.62,0.04 2.58,0.08 2.62,0.04 -0.39,1.88 -0.47,2.03 -0.51,2.07 -0.51,1.99 -0.47,1.84 -0.39,1.56 -0.27,1.17 -0.12,0.66 0.74,-0.04 0.78,-0.04 0.74,-0.12 0.74,-0.12 0.7,-0.16 0.74,-0.16 0.7,-0.2 0.74,-0.23 1.41,-0.55 1.41,-0.59 1.41,-0.66 1.41,-0.7 2.78,-1.45 2.86,-1.45 1.45,-0.66 1.45,-0.59 0.74,-0.27 0.74,-0.27 0.74,-0.23 0.74,-0.2 h 1.64 l 1.72,0.08 0.86,0.04 0.9,0.08 0.86,0.12 0.9,0.12 0.9,0.2 0.9,0.2 0.86,0.27 0.9,0.27 0.86,0.35 0.82,0.43 0.82,0.43 0.82,0.55 0.39,2.74 0.35,2.78 0.35,2.86 0.27,2.86 0.31,2.97 0.35,2.97 0.39,2.97 0.47,3.05 -0.16,1.8 -0.2,1.76 -0.2,1.76 -0.23,1.76 -0.27,1.76 -0.27,1.76 -0.31,1.76 -0.35,1.76 -0.31,1.76 -0.39,1.76 -0.35,1.8 -0.39,1.76 -0.39,1.84 -0.39,1.8 -0.39,1.84 -0.39,1.84 -0.35,2.19 -0.39,2.23 -0.35,2.19 -0.35,2.19 -0.35,2.19 -0.35,2.19 -0.39,2.19 -0.35,2.23 -0.35,2.19 -0.35,2.19 -0.35,2.19 -0.35,2.19 -0.35,2.23 -0.35,2.19 -0.35,2.19 -0.35,2.19 -0.51,7.63 -0.47,7.63 -0.43,7.63 -0.35,7.63 -0.31,7.63 -0.27,7.63 -0.23,7.67 -0.23,7.63 -0.16,7.67 -0.16,7.67 -0.12,7.71 -0.12,7.67 -0.12,7.71 -0.08,7.74 -0.08,7.71 -0.12,7.74 -4.3,0.04 h -3.29 l -2.39,0.04 -1.76,0.04 h -1.21 l -0.94,0.08 -0.78,0.04 -0.86,0.08 -0.08,1.13 -0.04,1.1 -0.04,1.13 -0.04,1.13 -0.04,1.13 -0.04,1.13 v 1.17 l -0.04,1.13 h -13.85 v -1.13 l -0.04,-1.17 v -2.27 l -0.04,-1.13 v -3.36 l -0.98,-0.08 -0.9,-0.04 -1.06,-0.08 h -1.37 l -1.92,-0.04 -2.62,-0.04 h -3.56 l -4.69,-0.04 v -42.75 h 1.02 l 1.02,-0.04 h 4.15 l 1.06,-0.04 h 1.06 v -35.28 l -5.55,-0.08 -4.19,-0.04 -3.09,-0.04 -2.19,-0.04 -1.6,-0.04 -1.17,-0.08 -1.02,-0.08 -1.06,-0.08 -3.48,-3.83 -3.44,-3.79 -3.48,-3.83 -3.48,-3.79 -3.48,-3.79 -3.44,-3.83 -3.48,-3.79 -3.48,-3.79 -3.48,-3.83 -3.44,-3.79 -3.48,-3.83 -3.48,-3.79 -3.48,-3.79 -3.44,-3.83 -3.48,-3.79 -3.48,-3.79 -3.52,3.76 -3.52,3.79 -3.56,3.79 -3.52,3.79 -3.56,3.83 -3.52,3.79 -3.56,3.83 -3.56,3.83 -3.52,3.83 -3.52,3.83 -3.52,3.83 -3.52,3.83 -3.48,3.83 -3.48,3.87 -3.44,3.83 -3.44,3.87 h -2.43 l -2.43,0.04 -2.43,0.04 -2.43,0.04 h -2.39 l -2.43,0.04 -2.39,0.04 -2.43,0.04 v 35.28 h 1.06 l 1.06,0.04 h 4.26 l 1.1,0.04 h 1.06 v 42.75 l -2.31,0.04 h -1.76 l -1.33,0.04 -0.94,0.04 h -0.66 l -0.55,0.08 -0.47,0.04 -0.51,0.08 v 35.01 h 5.32 l 1.06,0.04 h 1.1 l 1.06,0.04 -0.04,5.48 v 5.52 l -0.04,5.52 -0.04,5.48 -0.04,5.52 v 5.48 l -0.04,5.52 -0.04,5.52 -0.04,5.52 v 5.48 l -0.04,5.52 -0.04,5.52 -0.04,5.52 V 485 l -0.04,5.48 -0.04,5.52 -1.64,-2.58 z"
       id="path24" />
    <path
       class="cls-7"
       d="m 238.06,474.87 c 0.54,-2.48 1.21,-4.94 1.97,-7.36 0.86,-2.58 1.87,-5.12 3.08,-7.56 1.08,-2.31 2.38,-4.5 3.71,-6.67 0.17,1.98 0.35,3.96 0.35,5.95 0.13,3.59 0.11,7.18 0.2,10.78 0.03,2.13 0.05,4.26 0.08,6.4 -1.68,0.05 -3.35,0.04 -5.03,0.12 -1.58,0.05 -3.17,0.04 -4.75,0.11 0.13,-0.59 0.26,-1.17 0.39,-1.76 v 0 z"
       id="path25" />
    <path
       class="cls-7"
       d="m 258.56,443.57 c 2.83,-0.89 5.67,-1.81 8.58,-2.4 1.47,-0.29 2.95,-0.56 4.44,-0.73 v 36.18 h -13.03 v -33.05 0 z"
       id="path26" />
    <path
       class="cls-7"
       d="m 306.44,473.65 v -20.69 c 0.46,0 0.69,0.53 0.95,0.84 1.05,1.54 1.87,3.22 2.64,4.91 1.32,2.83 2.53,5.72 3.64,8.64 0.27,0.71 0.53,1.41 0.62,2.17 0.29,1.42 0.61,2.83 0.88,4.26 0.22,0.95 0.44,1.9 0.66,2.85 h -9.39 v -2.97 0 z"
       id="path27" />
    <path
       class="cls-7"
       d="m 185.22,73.66 c -2.11,-1.34 -4.23,-2.67 -6.38,-3.95 -1.21,-3.61 -2.35,-7.3 -4.36,-10.56 -0.96,-1.66 -1.6,-3.7 -0.75,-5.54 0.56,-1.65 1.54,-3.22 1.39,-5.02 0.16,-1.99 0.25,-3.99 0.44,-5.98 3.14,-1.51 5.83,-3.92 7.61,-6.93 0.58,-0.86 1.05,-1.79 1.55,-2.69 4.73,-0.3 9.59,-0.9 13.85,-3.13 1.05,0.13 2.29,-0.35 3.12,0.46 3.16,2.12 7.1,2.43 10.41,4.22 2.33,1.28 3.97,3.54 4.82,6.03 1.72,0.95 2.77,2.79 2.87,4.73 0.23,1.74 -0.03,3.53 0.19,5.26 0.72,1.93 1.55,3.85 1.72,5.93 -2.08,3.15 -3.62,6.65 -4.4,10.35 -0.29,0.84 -0.31,1.89 -0.73,2.62 -1.78,0.74 -3.49,1.71 -5.31,2.32 -1.45,0.16 -3.07,0.14 -4.28,1.07 -6.97,-0.71 -14.04,-0.19 -20.85,1.41 -0.3,-0.2 -0.6,-0.39 -0.9,-0.59 v 0 z"
       id="path28" />
  </g>
  <g
     id="g84"
     transform="translate(-0.01)">
    <path
       class="cls-5"
       d="m 180.64,597.07 c -0.05,-0.04 -0.11,-0.08 -0.16,-0.13 -0.02,-0.02 -0.05,-0.05 -0.07,-0.07 v -0.16 h 1.33 v 0.55 h -0.78 c -0.1,-0.07 -0.21,-0.13 -0.31,-0.2 v 0 z"
       id="path29" />
    <path
       class="cls-5"
       d="m 372.08,596.52 v -0.35 h 1.88 v 0.31 l -0.47,0.12 -0.47,0.12 -0.47,0.12 -0.47,0.12 v -0.43 z"
       id="path30" />
    <path
       class="cls-5"
       d="m 161.83,588.42 c -0.83,-0.46 -1.67,-0.89 -2.5,-1.33 -0.09,-3.6 -0.06,-7.21 -0.15,-10.81 -0.07,-2.49 -0.03,-4.97 -0.09,-7.46 h 22.65 v 20.07 h -19.05 c -0.29,-0.16 -0.57,-0.31 -0.86,-0.47 z"
       id="path31" />
    <path
       class="cls-5"
       d="m 372.08,586.35 v -17.76 h 22.65 c -0.07,5.98 -0.14,11.97 -0.23,17.95 -2.31,1.2 -4.48,2.73 -7.21,2.2 -5.07,0.03 -10.14,0.08 -15.21,0.14 0,-0.85 0,-1.7 0,-2.54 v 0 z"
       id="path32" />
    <path
       class="cls-5"
       d="m 148.02,581.03 c -4.14,-2.51 -8.28,-5.02 -12.34,-7.66 -2.08,-1.33 -4.16,-2.67 -6.2,-4.08 2.86,-0.1 5.73,-0.11 8.59,-0.2 2.73,-0.03 5.45,-0.13 8.18,-0.16 1.67,-0.06 3.35,-0.09 5.02,-0.11 v 13.81 c -0.33,0.02 -0.65,0.02 -0.9,-0.21 -0.78,-0.46 -1.56,-0.93 -2.34,-1.39 v 0 z"
       id="path33" />
    <path
       class="cls-5"
       d="m 402.32,580.68 v -12.09 c 3.17,0.06 6.34,0.03 9.51,0.1 2.72,0.06 5.44,0.05 8.16,0.08 1.42,0.02 2.85,0.04 4.27,0.06 -2.93,1.93 -5.89,3.82 -8.87,5.66 -2.67,1.69 -5.35,3.35 -8.08,4.94 -1.66,1 -3.33,1.99 -4.99,2.98 v -1.72 0 z"
       id="path34" />
    <path
       class="cls-5"
       d="m 115.08,558.93 c -4.72,-3.75 -9.34,-7.62 -13.85,-11.61 -2.08,-1.83 -4.1,-3.72 -6.13,-5.6 3.55,-0.1 7.11,-0.12 10.67,-0.21 3.23,-0.04 6.46,-0.13 9.69,-0.17 1.78,-0.05 3.56,-0.07 5.35,-0.09 v 20.07 h -2.66 c -1.02,-0.8 -2.03,-1.59 -3.05,-2.39 v 0 z"
       id="path35" />
    <path
       class="cls-5"
       d="m 128.62,541.25 h 53.12 v 20.07 h -53.12 z"
       id="path36" />
    <path
       class="cls-5"
       d="m 372.08,558.81 v -17.8 h 57.35 v 20.3 h -57.35 z"
       id="path37" />
    <path
       class="cls-5"
       d="m 437.25,557.13 v -16.12 h 21.08 c -1.47,1.51 -2.87,3.09 -4.47,4.47 -2,1.88 -4.05,3.7 -6.17,5.44 -3.41,2.92 -6.96,5.68 -10.45,8.52 v -2.31 0 z"
       id="path38" />
    <path
       class="cls-5"
       d="m 93.68,513.67 h 57.58 v 19.99 H 93.68 c 0,-6.66 0,-13.33 0,-19.99 z"
       id="path39" />
    <path
       class="cls-5"
       d="m 159.09,513.67 h 22.65 v 19.99 h -22.65 z"
       id="path40" />
    <path
       class="cls-5"
       d="m 372.08,531.12 v -17.76 h 22.65 v 20.3 h -22.65 z"
       id="path41" />
    <path
       class="cls-5"
       d="m 402.32,531.12 v -17.76 h 57.58 v 20.3 h -57.58 z"
       id="path42" />
    <path
       class="cls-5"
       d="m 467.72,529.75 v -16.39 c 3.55,-0.02 7.1,0.14 10.65,0.12 1.94,0.04 3.88,0.07 5.82,0.11 -1.97,2.41 -4.05,4.73 -6.05,7.12 -3.15,3.55 -6.43,7 -9.62,10.51 -0.27,0.29 -0.53,0.58 -0.8,0.87 v -2.35 0 z"
       id="path43" />
    <path
       class="cls-5"
       d="m 63.45,485.98 h 57.35 v 19.87 H 63.45 c 0,-6.62 0,-13.25 0,-19.87 z"
       id="path44" />
    <path
       class="cls-5"
       d="m 128.62,485.98 h 53.12 v 19.87 h -53.12 z"
       id="path45" />
    <path
       class="cls-5"
       d="m 372.08,503.34 v -17.6 h 57.35 v 20.11 h -57.35 v -2.5 z"
       id="path46" />
    <path
       class="cls-5"
       d="m 437.25,503.34 v -17.6 h 53.12 v 20.11 h -53.12 v -2.5 z"
       id="path47" />
    <path
       class="cls-5"
       d="M 63.45,458.16 H 86.1 v 20.03 H 63.45 c 0,-6.68 0,-13.35 0,-20.03 z"
       id="path48" />
    <path
       class="cls-5"
       d="m 93.68,458.16 h 57.58 v 20.03 H 93.68 c 0,-6.68 0,-13.35 0,-20.03 z"
       id="path49" />
    <path
       class="cls-5"
       d="m 159.09,458.16 h 22.65 v 20.03 h -22.65 z"
       id="path50" />
    <path
       class="cls-5"
       d="m 372.08,475.69 v -17.52 h 22.65 v 20.03 h -22.65 v -2.5 z"
       id="path51" />
    <path
       class="cls-5"
       d="m 402.32,475.69 v -17.52 h 57.58 v 20.03 h -57.58 v -2.5 0 z"
       id="path52" />
    <path
       class="cls-5"
       d="m 467.72,475.69 v -17.52 h 22.65 v 20.03 h -22.65 v -2.5 z"
       id="path53" />
    <path
       class="cls-5"
       d="m 319.66,460.98 c -1.59,-3.69 -3.48,-7.25 -5.68,-10.61 -0.6,-0.93 -1.26,-1.83 -1.91,-2.73 0.37,-1.81 1.66,-3.24 2.62,-4.77 2.87,-4.12 6.1,-7.98 9.16,-11.97 7.49,-0.02 14.97,0.03 22.46,0.08 0.85,-0.09 1.08,0.04 0.28,0.55 -5.06,4.2 -9.86,8.71 -14.5,13.37 -2.4,3.43 -4.7,6.93 -6.91,10.48 -1.59,2.55 -3.16,5.1 -4.66,7.7 -0.29,-0.7 -0.57,-1.41 -0.86,-2.11 v 0 z"
       id="path54" />
    <path
       class="cls-5"
       d="m 232.24,461.29 c -2.13,-4.25 -4.55,-8.37 -7.31,-12.24 -1.9,-2.63 -3.95,-5.16 -6.13,-7.55 -3.41,-3.02 -6.85,-6.02 -10.27,-9.02 -0.57,-0.5 -1.14,-1 -1.71,-1.5 6.19,-0.03 12.37,-0.11 18.56,-0.08 0.6,-0.05 1.19,-0.07 1.42,0.6 2.37,3.38 4.78,6.74 7.18,10.1 1.88,2.65 3.81,5.25 5.65,7.92 -2.26,4.18 -4.19,8.52 -6.34,12.75 -0.27,0.96 -0.5,0.21 -0.74,-0.33 -0.1,-0.22 -0.21,-0.44 -0.31,-0.65 z"
       id="path55" />
    <path
       class="cls-5"
       d="m 63.45,430.51 h 57.35 v 20.34 H 63.45 c 0,-6.78 0,-13.56 0,-20.34 z"
       id="path56" />
    <path
       class="cls-5"
       d="m 128.62,430.51 h 53.12 v 20.34 h -53.12 z"
       id="path57" />
    <path
       class="cls-5"
       d="m 372.08,448.31 v -17.8 h 57.35 v 20.34 h -57.35 z"
       id="path58" />
    <path
       class="cls-5"
       d="m 437.25,448.31 v -17.8 h 53.12 v 20.34 h -53.12 z"
       id="path59" />
    <path
       class="cls-5"
       d="m 242.88,441.19 c -3.41,-4.75 -6.72,-9.57 -10.12,-14.33 -0.88,-1.26 -1.76,-2.52 -2.64,-3.78 -4.07,-0.05 -8.14,-0.02 -12.2,-0.08 v -15.37 c 7.97,0.02 15.94,0.05 23.9,0.1 3,0.04 6,0.08 8.99,0.29 3.31,8.66 6.62,17.31 10.01,25.93 -1.21,1.12 -2.82,1.72 -4.22,2.58 -2.61,1.33 -5.25,2.61 -7.62,4.35 -1.44,0.95 -2.86,1.93 -4.27,2.93 -0.61,-0.87 -1.23,-1.75 -1.84,-2.62 v 0 z"
       id="path60" />
    <path
       class="cls-5"
       d="m 304.76,441.11 c -3.91,-2.87 -8.33,-4.95 -12.83,-6.69 1.58,-7.37 4.69,-14.27 7.55,-21.2 0.74,-1.66 1.38,-3.35 2.04,-5.04 9.46,-0.17 18.92,-0.32 28.37,-0.45 2.71,-0.07 5.41,-0.04 8.12,-0.1 V 423 h -17.64 c -4.82,6.27 -9.51,12.64 -14.62,18.67 -0.18,0.26 -0.75,-0.5 -0.99,-0.56 z"
       id="path61" />
    <path
       class="cls-5"
       d="m 265.41,424.68 c -1.95,-5.08 -3.94,-10.15 -5.94,-15.21 -0.22,-0.46 -0.41,-0.94 -0.68,-1.37 4.38,-0.09 8.76,-0.23 13.14,-0.27 3.29,-0.06 6.58,-0.1 9.87,-0.08 3.91,-0.03 7.82,0.04 11.73,0.04 -2.08,5.51 -4.13,11.04 -6.25,16.54 -0.95,2.56 -1.92,5.11 -2.87,7.67 -4.84,0.38 -9.69,0.6 -14.54,0.61 -0.46,-0.09 -1.2,0.22 -1.48,-0.14 -1,-2.59 -1.99,-5.19 -2.99,-7.78 v 0 z"
       id="path62" />
    <path
       class="cls-5"
       d="M 63.45,407.63 H 86.1 V 423 H 63.45 c 0,-5.12 0,-10.25 0,-15.37 z"
       id="path63" />
    <path
       class="cls-5"
       d="m 93.68,407.63 h 57.58 V 423 H 93.68 c 0,-5.12 0,-10.25 0,-15.37 z"
       id="path64" />
    <path
       class="cls-5"
       d="M 159.09,407.63 H 210.1 V 423 h -51.01 z"
       id="path65" />
    <path
       class="cls-5"
       d="m 345.83,407.63 h 48.9 V 423 h -48.9 z"
       id="path66" />
    <path
       class="cls-5"
       d="M 402.32,407.63 H 459.9 V 423 h -57.58 z"
       id="path67" />
    <path
       class="cls-5"
       d="m 467.72,407.63 h 22.65 V 423 h -22.65 z"
       id="path68" />
    <path
       class="cls-5"
       d="m 54.61,397.34 v -17.29 h 22.88 v 9.07 h 29.49 v -9.07 h 31.25 v 9.07 h 29.69 v -9.07 h 31.25 v 9.07 h 29.45 v -9.07 h 31.49 v 9.07 h 35.67 v -9.07 h 31.25 v 9.07 h 29.38 v -9.07 h 31.57 v 9.07 h 29.38 v -9.07 h 31.25 v 9.07 h 29.69 v -9.07 h 20.65 V 399.8 H 54.61 Z"
       id="path69" />
    <path
       class="cls-5"
       d="m 85.08,380.44 v -8.21 H 63.45 v -15.14 h 57.35 v 15.14 H 99.17 v 9.39 H 85.09 v -1.17 0 z"
       id="path70" />
    <path
       class="cls-5"
       d="m 146.02,380.44 v -8.21 h -17.41 v -15.14 h 53.12 v 15.14 h -21.87 v 9.39 h -13.85 v -1.17 0 z"
       id="path71" />
    <path
       class="cls-5"
       d="m 395.51,372.23 h -23.67 v -14.82 h 57.27 v 14.82 h -19.52 v 9.39 h -14.08 z"
       id="path72" />
    <path
       class="cls-5"
       d="m 456.45,372.23 h -19.52 v -14.82 h 53.12 v 14.82 h -19.52 v 9.39 h -14.08 z"
       id="path73" />
    <path
       class="cls-5"
       d="m 371.84,329.71 h 22.65 v 19.87 h -22.65 z"
       id="path74" />
    <path
       class="cls-5"
       d="m 402.08,329.71 h 57.5 v 19.87 h -57.5 z"
       id="path75" />
    <path
       class="cls-5"
       d="m 467.41,329.71 h 22.65 v 19.87 h -22.65 z"
       id="path76" />
    <path
       class="cls-5"
       d="M 63.45,346.8 V 329.47 H 86.1 v 19.79 H 63.45 c 0,-0.82 0,-1.64 0,-2.46 z"
       id="path77" />
    <path
       class="cls-5"
       d="m 93.68,346.8 v -17.33 h 57.58 v 19.79 H 93.68 c 0,-0.82 0,-1.64 0,-2.46 z"
       id="path78" />
    <path
       class="cls-5"
       d="m 159.09,346.8 v -17.33 h 22.65 v 19.79 h -22.65 z"
       id="path79" />
    <path
       class="cls-5"
       d="m 363,319.42 v -17.29 h 22.88 v 9.15 h 29.45 v -9.15 h 31.25 v 9.15 H 476 v -9.15 h 22.65 v 19.79 H 362.99 v -2.5 0 z"
       id="path80" />
    <path
       class="cls-5"
       d="M 54.61,319.19 V 301.9 h 22.88 v 9.07 h 29.49 v -9.07 h 31.25 v 9.07 h 29.69 v -9.07 h 22.65 v 19.79 H 54.61 Z"
       id="path81" />
    <path
       class="cls-5"
       d="m 393.47,302.33 0.05,-7.5796 c -5.0723,0.0501 -7.53925,5.5e-4 -7.53925,5.5e-4 0,0 29.6792,-33.91095 44.6892,-50.59095 15.25,16.53 45.13945,50.641 45.13945,50.641 0,0 -4.93965,0.0399 -7.60975,0.009 -0.0399,2.93 0.0603,5.71985 -0.01,8.64985 h -13.77 c -0.0399,-2.98005 -0.0597,-5.91005 0.0104,-8.8 h -47.1707 c -0.0199,3.0301 0.0303,5.87 -0.01,8.8 h -13.77 c 0,0 -0.006,-1.1299 -0.01,-1.12985 z"
       id="path82" />
    <path
       class="cls-5"
       d="m 85.08,302.01 v -7.97593 c -2.82593,0.0139 -4.512908,0.0478 -7.604594,0.0358 15.06,-16.71004 45.170514,-50.13987 45.170514,-50.13987 15.53422,16.24457 30.21866,33.31131 45.28062,50.18093 -2.00707,0.0369 -6.03973,0.0309 -8.05364,0.009 -0.0498,3.05673 -0.006,6.02 0.0171,9.04 h -13.85 c -0.02,-3.01 -0.1,-6.02 -0.08,-9.04 l -46.823895,0.038 c -0.02407,3.04796 0.0339,5.98203 0.0339,9.00203 H 85.09 c 0.0071,-0.38152 -0.005,-0.7729 -0.01,-1.14993 z"
       id="path83" />
    <path
       class="cls-5"
       d="m 83.59,530.45 c -4.62,-4.92 -9.14,-9.92 -13.44,-15.12 -0.41,-0.5 -0.82,-1.01 -1.23,-1.51 3.08,-0.06 6.16,-0.13 9.24,-0.13 2.64,-0.05 5.29,-0.02 7.94,-0.03 -0.06,2.83 -0.03,5.66 -0.1,8.49 -0.07,3.12 -0.04,6.24 -0.11,9.36 0,0.45 -0.01,0.9 -0.02,1.36 l -2.27,-2.43 v 0 z"
       id="path84" />
  </g>
  <g
     id="g94"
     transform="translate(-0.01)">
    <path
       class="cls-1"
       d="m 185.69,84.84 -0.74,-0.31 -0.74,-0.23 -0.74,-0.2 -1.41,-0.43 -1.37,-0.43 -0.63,-0.23 -0.59,-0.31 -0.27,-0.2 -0.27,-0.16 -0.27,-0.23 -0.23,-0.2 -0.23,-0.27 -0.23,-0.27 -0.2,-0.27 -0.2,-0.31 -0.2,-0.35 -0.16,-0.35 -0.16,-0.43 -0.16,-0.43 0.04,-1.49 0.08,-1.25 0.08,-0.59 0.08,-0.59 0.12,-0.59 0.16,-0.55 0.39,-0.16 0.39,-0.08 0.39,-0.04 h 0.39 l 0.35,0.04 0.39,0.08 0.39,0.12 0.35,0.12 0.39,0.2 0.35,0.2 0.35,0.23 0.39,0.23 0.7,0.59 0.66,0.66 0.66,0.7 0.66,0.78 0.63,0.78 0.59,0.82 1.1,1.64 0.94,1.49 0.04,0.59 -0.04,0.47 -0.04,0.2 -0.04,0.16 -0.08,0.16 -0.08,0.16 -0.2,0.23 -0.27,0.2 -0.35,0.23 -0.43,0.2 -0.74,-0.31 z"
       id="path85" />
    <path
       class="cls-1"
       d="m 212.87,82.77 -0.51,-1.37 -0.2,-0.66 -0.2,-0.66 -0.12,-0.63 -0.08,-0.66 -0.04,-0.63 0.04,-0.59 0.04,-0.31 0.08,-0.31 0.08,-0.27 0.12,-0.27 0.12,-0.27 0.16,-0.27 0.16,-0.27 0.2,-0.27 0.23,-0.27 0.23,-0.23 0.27,-0.23 0.31,-0.23 0.9,-0.2 1.37,-0.27 0.78,-0.16 0.86,-0.12 0.9,-0.08 0.9,-0.04 h 0.86 l 0.82,0.04 0.39,0.08 0.39,0.08 0.35,0.08 0.31,0.12 0.31,0.16 0.27,0.2 0.23,0.2 0.2,0.23 0.16,0.23 0.12,0.31 0.08,0.31 0.04,0.39 -1.17,1.13 -1.21,1.21 -1.29,1.21 -1.29,1.21 -0.66,0.59 -0.66,0.55 -0.7,0.51 -0.7,0.47 -0.7,0.43 -0.7,0.39 -0.7,0.31 -0.74,0.23 -0.59,-1.37 z"
       id="path86" />
    <path
       class="cls-1"
       d="m 196.76,82.07 -0.63,-0.27 -0.66,-0.2 -0.7,-0.2 -1.37,-0.31 -1.29,-0.35 -0.59,-0.23 -0.51,-0.23 -0.23,-0.16 -0.23,-0.16 -0.2,-0.16 -0.16,-0.2 -0.16,-0.2 -0.12,-0.23 -0.08,-0.27 -0.08,-0.27 V 78 l 0.04,-0.35 0.08,-0.35 0.86,-0.23 0.86,-0.2 0.82,-0.16 0.82,-0.16 1.6,-0.2 1.6,-0.16 1.64,-0.08 1.72,-0.04 h 1.84 l 1.96,0.04 -0.12,0.74 -0.16,0.7 -0.2,0.63 -0.2,0.55 -0.23,0.51 -0.23,0.47 -0.31,0.39 -0.31,0.39 -0.39,0.31 -0.39,0.31 -0.47,0.23 -0.55,0.23 -0.55,0.23 -0.66,0.2 -0.7,0.16 -0.74,0.16 -0.63,-0.27 z"
       id="path87" />
    <path
       class="cls-1"
       d="m 171.17,75.14 -1.25,-2.11 -0.63,-1.06 -0.59,-1.1 -0.55,-1.1 -0.51,-1.1 -0.2,-0.55 -0.2,-0.55 -0.16,-0.59 -0.16,-0.55 -0.12,-0.55 -0.08,-0.55 -0.04,-0.55 -0.04,-0.55 0.04,-0.55 0.04,-0.55 0.12,-0.55 0.16,-0.51 0.16,-0.55 0.23,-0.51 0.31,-0.55 0.35,-0.51 0.55,-0.08 0.51,-0.04 h 0.74 l 0.31,0.08 0.27,0.08 0.23,0.12 0.2,0.16 0.23,0.23 0.2,0.27 0.2,0.31 0.23,0.39 0.55,0.98 0.74,1.25 0.2,0.55 0.2,0.7 0.16,0.78 0.2,0.86 0.12,0.94 0.16,0.98 0.08,0.98 0.08,1.06 v 1.02 l -0.04,0.98 -0.12,0.94 -0.2,0.9 -0.12,0.43 -0.12,0.39 -0.16,0.39 -0.16,0.35 -0.23,0.31 -0.2,0.31 -0.27,0.27 -0.27,0.23 -1.17,-1.99 z"
       id="path88" />
    <path
       class="cls-1"
       d="m 225.12,71.31 -0.94,-0.39 -1.13,-0.39 -1.84,-0.59 -0.16,-0.82 -0.08,-0.78 -0.08,-0.78 -0.04,-0.74 v -0.74 l 0.04,-0.7 0.08,-0.66 0.08,-0.66 0.16,-0.63 0.16,-0.59 0.2,-0.59 0.23,-0.55 0.27,-0.51 0.27,-0.51 0.31,-0.43 0.35,-0.43 0.39,-0.39 0.43,-0.35 0.43,-0.31 0.47,-0.27 0.51,-0.23 0.51,-0.2 0.59,-0.16 0.59,-0.12 0.59,-0.08 0.66,-0.04 h 0.63 l 0.7,0.04 0.7,0.12 0.74,0.12 0.78,0.2 0.78,0.23 -0.47,1.37 -0.63,1.76 -0.74,1.99 -0.78,2.11 -0.47,1.02 -0.43,1.02 -0.43,0.94 -0.47,0.9 -0.47,0.78 -0.43,0.66 -0.23,0.31 -0.23,0.23 -0.23,0.23 -0.2,0.2 z"
       id="path89" />
    <path
       class="cls-1"
       d="m 163.7,56.91 0.27,-1.92 0.27,-1.84 0.31,-1.76 0.2,-0.86 0.23,-0.9 0.2,-0.86 0.27,-0.86 0.27,-0.86 0.35,-0.86 0.35,-0.86 0.39,-0.86 1.17,-0.08 1.17,-0.04 1.17,-0.04 h 1.21 l -0.04,1.45 -0.04,1.17 -0.04,0.9 -0.08,0.74 -0.04,0.7 -0.12,0.74 -0.12,0.86 -0.16,1.06 -0.82,1.37 -0.51,0.9 -0.39,0.82 -0.51,1.21 -1.37,0.66 -1.29,0.63 -1.29,0.66 -1.29,0.7 0.23,-1.99 z"
       id="path90" />
    <path
       class="cls-1"
       d="m 227.27,53.78 -0.78,-0.12 -0.78,-0.12 -0.74,-0.12 -0.51,-1.21 -0.43,-1.21 -0.2,-0.59 -0.16,-0.59 -0.12,-0.55 -0.12,-0.55 -0.08,-0.55 -0.08,-0.55 -0.04,-0.55 v -1.02 l 0.08,-0.51 0.04,-0.47 0.12,-0.47 0.12,-0.47 0.16,-0.43 0.16,-0.47 0.23,-0.39 0.23,-0.43 0.27,-0.39 0.31,-0.39 0.35,-0.35 0.35,-0.35 0.43,-0.35 0.43,-0.31 0.47,-0.31 0.51,-0.27 0.55,-0.27 0.59,-0.27 0.63,-0.23 0.27,1.88 0.31,1.88 0.31,1.88 0.31,1.88 0.31,1.84 0.31,1.88 0.31,1.88 0.31,1.88 h -3.64 l -0.82,-0.12 z"
       id="path91" />
    <path
       class="cls-1"
       d="m 166.99,40.17 0.08,-0.39 0.12,-0.39 0.16,-0.39 0.16,-0.31 0.2,-0.35 0.2,-0.31 0.2,-0.27 0.47,-0.59 0.55,-0.51 0.59,-0.47 0.63,-0.47 0.66,-0.9 0.66,-0.94 0.66,-0.9 0.66,-0.9 0.66,-0.9 0.66,-0.9 0.66,-0.86 0.66,-0.9 0.27,0.04 0.27,0.04 0.27,0.08 0.27,0.08 0.59,0.31 0.59,0.35 1.29,0.86 1.29,0.9 v 0.66 l -0.08,0.66 -0.12,0.63 -0.12,0.55 -0.2,0.55 -0.2,0.55 -0.27,0.47 -0.27,0.47 -0.31,0.43 -0.35,0.43 -0.35,0.39 -0.39,0.35 -0.43,0.31 -0.43,0.31 -0.47,0.31 -0.47,0.27 -0.51,0.23 -0.55,0.23 -0.51,0.2 -0.55,0.2 -1.13,0.35 -1.17,0.27 -1.17,0.2 -1.17,0.2 -1.21,0.12 -1.13,0.12 z"
       id="path92" />
    <path
       class="cls-1"
       d="m 220.23,39.31 -0.63,-0.86 -0.63,-0.94 -0.59,-0.98 -0.59,-1.02 -0.55,-1.06 -0.51,-1.06 -0.43,-1.06 -0.2,-0.55 -0.2,-0.51 -0.16,-0.55 -0.12,-0.55 -0.12,-0.51 -0.08,-0.55 -0.04,-0.51 -0.04,-0.51 v -0.51 l 0.04,-0.51 0.08,-0.51 0.12,-0.47 0.16,-0.47 0.16,-0.47 0.23,-0.47 0.27,-0.43 0.27,0.16 0.23,0.16 0.23,0.23 0.27,0.27 0.59,0.78 0.74,1.06 0.94,0.82 1.06,0.86 0.55,0.47 0.55,0.51 0.51,0.51 0.51,0.51 0.51,0.59 0.43,0.59 0.39,0.59 0.35,0.66 0.16,0.35 0.12,0.35 0.12,0.35 0.12,0.35 0.08,0.39 0.04,0.35 0.04,0.43 0.04,0.39 -1.13,1.02 -1.1,1.02 -1.13,1.06 -1.1,1.06 -0.59,-0.86 z"
       id="path93" />
    <path
       class="cls-1"
       d="m 210.13,30.63 -0.16,-0.12 -0.23,-0.12 -0.27,-0.12 -0.94,-0.35 -1.8,-0.55 -2.07,-1.29 -1.64,-1.1 -0.7,-0.51 -0.59,-0.47 -0.55,-0.51 -0.47,-0.47 -0.43,-0.51 -0.35,-0.55 -0.35,-0.59 -0.27,-0.63 -0.31,-0.7 -0.23,-0.78 -0.27,-0.86 -0.23,-0.98 h 0.66 l 0.82,0.04 0.86,0.08 0.94,0.08 0.98,0.16 1.06,0.2 1.02,0.27 1.06,0.27 1.06,0.35 1.02,0.39 0.98,0.47 0.9,0.47 0.43,0.27 0.39,0.31 0.39,0.31 0.39,0.31 0.31,0.31 0.31,0.35 0.31,0.35 0.23,0.39 -0.23,1.37 -0.23,1.33 -0.2,1.37 -0.2,1.41 -0.27,0.12 -0.31,0.12 -0.27,0.12 -0.31,0.12 -0.2,-0.16 z"
       id="path94" />
  </g>
  <path
     class="cls-6"
     d="m 185.29,29.06 -1.25,-0.47 -1.29,-0.51 -1.21,-0.55 -0.59,-0.27 -0.55,-0.31 -0.51,-0.31 -0.43,-0.35 -0.39,-0.35 -0.35,-0.39 -0.12,-0.2 -0.12,-0.2 -0.12,-0.2 -0.08,-0.2 0.9,-0.08 0.94,-0.2 1.02,-0.23 1.1,-0.27 2.23,-0.74 2.27,-0.74 1.13,-0.39 1.1,-0.35 1.06,-0.27 1.06,-0.27 0.94,-0.16 0.9,-0.12 h 0.82 l 0.39,0.04 0.35,0.04 0.31,0.82 0.35,0.74 0.27,0.74 0.23,0.78 0.12,0.43 0.04,0.39 0.08,0.43 0.04,0.47 v 0.98 l -0.08,0.55 -0.04,0.55 -1.33,0.27 -1.02,0.23 -0.9,0.2 -0.86,0.16 -0.94,0.12 -1.13,0.16 -1.41,0.2 -1.8,0.23 -1.13,-0.39 z"
     id="path95" />
</svg>
