<svg width="500" height="606.161" viewBox="0 0 132.292 160.38" xmlns="http://www.w3.org/2000/svg"><defs><clipPath clipPathUnits="userSpaceOnUse" id="a"><path d="M458.73 199.976h69.436v84.01H458.73Z"/></clipPath><clipPath clipPathUnits="userSpaceOnUse" id="b"><path d="M458.731 199.976h69.435v84.01h-69.435z"/></clipPath><clipPath clipPathUnits="userSpaceOnUse" id="c"><path d="M458.73 199.976h69.436v84.01H458.73Z"/></clipPath></defs><g clip-path="url(#a)" transform="matrix(1.92676 0 0 -1.92676 -884.616 546.428)"><path d="M0 0v54.633M0 0v54.633h-67.16V0c.804-14.521 16.055-27.105 34.003-27.105C-15.443-27.105-.437-14.543 0 0" style="fill:#fff;fill-opacity:1;fill-rule:evenodd;stroke:none" transform="translate(527.03 228.216)"/><path d="M0 0v2.27c-.024.76.224 1.3.565 1.592a.977.977 0 0 0 .634.253c.2.001.398-.071.572-.217.297-.251.52-.721.548-1.437V-.969H0Zm-6.787-10.25H8.245v20.314H-6.787Z" style="fill:#000;fill-opacity:1;fill-rule:nonzero;stroke:none" transform="translate(470.967 253.364)"/><path d="M0 0h-2.319V3.494c.027.729.251 1.209.548 1.464a.878.878 0 0 0 .572.222.97.97 0 0 0 .634-.259c.341-.298.589-.848.565-1.622V.987Zm-8.245-9.454H6.787V11.24H-8.245Z" style="fill:#000;fill-opacity:1;fill-rule:nonzero;stroke:none" transform="translate(516.19 252.324)"/><path d="M484.253 267.947h18.858v-26.855h-18.858z" style="fill:#000;fill-opacity:1;fill-rule:nonzero;stroke:none"/><path d="m0 0 59.242.084.042-18.342s-3.373 2.319-6.873 3.88a87.032 87.032 0 0 1-6.451 2.572s-4.005 5.355-7.421 7.168c-3.415 1.813-8.475 2.487-8.475 2.487s-5.903-.168-8.012-1.77c-2.108-1.603-8.053-6.241-8.854-7.675-.801-1.433-5.187-1.939-7.211-3.035C3.964-15.728 0-18.384 0-18.384Z" style="fill:#000;fill-opacity:1;fill-rule:nonzero;stroke:none" transform="translate(463.93 239.673)"/><path d="M0 0h-2.751v6.93h-.884V0h-1.302v6.93h-.885V0h-1.302v6.93h-.884V0H-9.31v6.93h-.884V0h-1.303v7.394h-.884V0h-1.302v7.292h-.884V0h-1.302v6.93h-.884V0h-1.303v6.93h-.884V0h-1.302v6.93h-.884V0h-1.302v6.93h-.884V0h-1.878v-.561h1.878v-1.112h.884v1.112h1.302v-1.112h.884v1.112h1.302v-1.112h.884v1.112h1.303v-1.112h.884v1.112h1.302v-1.112h.884v1.112h1.302v-1.112h.884v1.112h1.303v-1.112h.884v1.112h1.302v-1.112h.884v1.112h1.302v-1.112h.885v1.112h1.302v-1.112h.884v1.112H0Z" style="fill:#000;fill-opacity:1;fill-rule:nonzero;stroke:none" transform="translate(506.304 226.689)"/><path d="M0 0v54.633" style="fill:#fff;fill-opacity:1;fill-rule:evenodd;stroke:none" transform="translate(527.03 228.216)"/><path d="m0 0-1.377.426v4.062l3.294-.004V2.543h3.935v1.941h3.602V2.543h3.669l-.001 1.938h3.283L16.417.43 15.235.06h-.193l-.002-.228V.06H0v-21.041z" style="fill:#d4000a;fill-opacity:1;fill-rule:evenodd;stroke:none" transform="translate(464.138 263.46)"/><path d="M468.036 255.586h.12v.013h-.12zM473.866 261.562h3.334v1.682h-3.334zM477.545 261.562h1.51v1.682h-1.51z" style="fill:#d4000a;fill-opacity:1;fill-rule:nonzero;stroke:none"/><path d="M0 0h-.033v-1.682h3.334v.013H0Z" style="fill:#d4000a;fill-opacity:1;fill-rule:nonzero;stroke:none" transform="translate(471.888 261.252)"/><path d="M0 0v-1.669h3.334V.013H0Z" style="fill:#d4000a;fill-opacity:1;fill-rule:nonzero;stroke:none" transform="translate(471.868 261.252)"/><path d="M0 0v-.013h-.033v-1.683h3.484v.014h.033V0Z" style="fill:#d4000a;fill-opacity:1;fill-rule:nonzero;stroke:none" transform="translate(475.58 261.266)"/><path d="M0 0v-1.696h1.917V0Z" style="fill:#d4000a;fill-opacity:1;fill-rule:nonzero;stroke:none" transform="translate(477.385 259.274)"/><path d="M0 0v.013h-.12v-1.682H0Z" style="fill:#d4000a;fill-opacity:1;fill-rule:nonzero;stroke:none" transform="translate(468.156 257.268)"/><path d="M0 0c.228-.343.383-.82.407-1.447v-.249h1.49V0Z" style="fill:#d4000a;fill-opacity:1;fill-rule:nonzero;stroke:none" transform="translate(473.345 257.282)"/><path d="M0 0v-1.696h3.484V0Z" style="fill:#d4000a;fill-opacity:1;fill-rule:nonzero;stroke:none" transform="translate(475.586 257.282)"/><path d="M475.189 247.646h-3.334v-.014h3.334zM479.008 247.646h-3.334v-.014h3.334zM470.068 253.608h.12v1.682h-.12zM473.723 253.608h3.334v1.682h-3.334z" style="fill:#d4000a;fill-opacity:1;fill-rule:nonzero;stroke:none"/><path d="M0 0v-1.696h3.334V0Z" style="fill:#d4000a;fill-opacity:1;fill-rule:nonzero;stroke:none" transform="translate(473.706 259.274)"/><path d="M477.401 253.608h1.595v1.682h-1.595z" style="fill:#d4000a;fill-opacity:1;fill-rule:nonzero;stroke:none"/><path d="M0 0v-1.443H-1.812v-.253h3.334V0Z" style="fill:#d4000a;fill-opacity:1;fill-rule:nonzero;stroke:none" transform="translate(473.746 253.311)"/><path d="M0 0h-.033v-1.682h3.367V0Z" style="fill:#d4000a;fill-opacity:1;fill-rule:nonzero;stroke:none" transform="translate(475.646 253.311)"/><path d="M0 0v-1.696h1.941V0Z" style="fill:#d4000a;fill-opacity:1;fill-rule:nonzero;stroke:none" transform="translate(477.385 251.32)"/><path d="M0 0v.014h-3.334v-1.683H0Z" style="fill:#d4000a;fill-opacity:1;fill-rule:nonzero;stroke:none" transform="translate(475.169 249.314)"/><path d="M.225 0v.014h-3.559v-1.683h3.56z" style="fill:#d4000a;fill-opacity:1;fill-rule:nonzero;stroke:none" transform="translate(478.848 249.314)"/><path d="M484.683 241.67h.175v.014h-.175zM477.201 247.336h-3.334v-1.682h3.334z" style="fill:#d4000a;fill-opacity:1;fill-rule:nonzero;stroke:none"/><path d="M0 0v-1.696h3.334V0Z" style="fill:#d4000a;fill-opacity:1;fill-rule:nonzero;stroke:none" transform="translate(473.706 251.32)"/><path d="M479.216 247.336h-1.671v-1.682h1.671z" style="fill:#d4000a;fill-opacity:1;fill-rule:nonzero;stroke:none"/><path d="M0 0v-.014h-.033v-.748h1.492v-.92h1.875V0Z" style="fill:#d4000a;fill-opacity:1;fill-rule:nonzero;stroke:none" transform="translate(471.888 245.357)"/><path d="M0 0v-.014h-.033v-.748H0v-.92h3.334V0Z" style="fill:#d4000a;fill-opacity:1;fill-rule:nonzero;stroke:none" transform="translate(475.706 245.357)"/><path d="M464.338 255.586h3.334v.013h-3.334zM468.156 255.586h2.314v.013h-2.314zM464.156 261.562h1.889v1.682h-1.889zM466.389 261.562h3.334v1.682h-3.334z" style="fill:#d4000a;fill-opacity:1;fill-rule:nonzero;stroke:none"/><path d="M0 0h-3.334v-1.682H.12V0Z" style="fill:#d4000a;fill-opacity:1;fill-rule:nonzero;stroke:none" transform="translate(473.402 263.244)"/><path d="M0 0h-.033v-1.682h3.334v.013H0Z" style="fill:#d4000a;fill-opacity:1;fill-rule:nonzero;stroke:none" transform="translate(464.37 261.252)"/><path d="M0 0v-1.669h3.334V.013H0Z" style="fill:#d4000a;fill-opacity:1;fill-rule:nonzero;stroke:none" transform="translate(464.358 261.252)"/><path d="M0 0H-3.334v-.013h-.033v-1.683H.087v.014H.12V0Z" style="fill:#d4000a;fill-opacity:1;fill-rule:nonzero;stroke:none" transform="translate(471.403 261.266)"/><path d="M0 0v-1.696h3.334V0Z" style="fill:#d4000a;fill-opacity:1;fill-rule:nonzero;stroke:none" transform="translate(466.23 259.274)"/><path d="M0 0h-3.334v-1.696h1.116l.016.014c.271.234.592.368.924.368.315 0 .636-.12.906-.368l.016-.014H.12V0Z" style="fill:#d4000a;fill-opacity:1;fill-rule:nonzero;stroke:none" transform="translate(473.242 259.274)"/><path d="M-.15 0v-1.669h3.484V.013H-.15z" style="fill:#d4000a;fill-opacity:1;fill-rule:nonzero;stroke:none" transform="translate(464.337 257.268)"/><path d="M0 0h2.314v.01c-.021.663.136 1.245.442 1.672H0v-.013Z" style="fill:#d4000a;fill-opacity:1;fill-rule:nonzero;stroke:none" transform="translate(468.156 255.6)"/><path d="M466.025 255.29h-1.872v-1.682h1.872z" style="fill:#d4000a;fill-opacity:1;fill-rule:nonzero;stroke:none"/><path d="M0 0v-1.696h1.792V0Z" style="fill:#d4000a;fill-opacity:1;fill-rule:nonzero;stroke:none" transform="translate(464.092 259.274)"/><path d="M466.369 253.608h3.334v1.682h-3.334z" style="fill:#d4000a;fill-opacity:1;fill-rule:nonzero;stroke:none"/><path d="M0 0v-1.682h.282V0Z" style="fill:#d4000a;fill-opacity:1;fill-rule:nonzero;stroke:none" transform="translate(470.188 255.29)"/><path d="M0 0h-.033v-1.682h3.367V0Z" style="fill:#d4000a;fill-opacity:1;fill-rule:nonzero;stroke:none" transform="translate(464.37 253.311)"/><path d="M0 0h-.456v1.443h-2.433V-.239H.598V0Z" style="fill:#d4000a;fill-opacity:1;fill-rule:nonzero;stroke:none" transform="translate(470.925 251.869)"/><path d="M0 0v-1.696h3.334V0Z" style="fill:#d4000a;fill-opacity:1;fill-rule:nonzero;stroke:none" transform="translate(466.23 251.32)"/><path d="M0 0h-3.334v-1.696H.12V0Z" style="fill:#d4000a;fill-opacity:1;fill-rule:nonzero;stroke:none" transform="translate(473.242 251.32)"/><path d="M0 0v-1.696h3.334V0Z" style="fill:#d4000a;fill-opacity:1;fill-rule:nonzero;stroke:none" transform="translate(464.358 249.328)"/><path d="M0 0h-3.334v-1.696H.12V0Z" style="fill:#d4000a;fill-opacity:1;fill-rule:nonzero;stroke:none" transform="translate(471.37 249.328)"/><path d="M0 0v-.014h.175V0h-.12z" style="fill:#d4000a;fill-opacity:1;fill-rule:nonzero;stroke:none" transform="translate(473.347 241.683)"/><path d="M466.165 247.336h-2.032v-1.682h2.032z" style="fill:#d4000a;fill-opacity:1;fill-rule:nonzero;stroke:none"/><path d="M0 0v-1.696h1.713V0Z" style="fill:#d4000a;fill-opacity:1;fill-rule:nonzero;stroke:none" transform="translate(464.172 251.32)"/><path d="M469.843 247.336h-3.334v-1.682h3.334z" style="fill:#d4000a;fill-opacity:1;fill-rule:nonzero;stroke:none"/><path d="M0 0h.12v1.682h-3.334V0Z" style="fill:#d4000a;fill-opacity:1;fill-rule:nonzero;stroke:none" transform="translate(473.402 245.654)"/><path d="M460.552 245.344h-.033v-.749h.033z" style="fill:#d4000a;fill-opacity:1;fill-rule:nonzero;stroke:none"/><path d="M0 0h1.58v1.682H0V.92Z" style="fill:#d4000a;fill-opacity:1;fill-rule:nonzero;stroke:none" transform="translate(466.125 243.675)"/><path d="M0 0v-.92H3.334V.762H0V.749Z" style="fill:#d4000a;fill-opacity:1;fill-rule:nonzero;stroke:none" transform="translate(468.189 244.595)"/><path d="m0 0 1.377.426v4.062l-3.294-.004V2.543h-3.934v1.941h-3.603V2.543h-3.669l.001 1.938h-3.283L-16.416.43l1.181-.37h.193l.002-.228V.06H0v-21.041z" style="fill:#d4000a;fill-opacity:1;fill-rule:evenodd;stroke:none" transform="translate(522.976 263.46)"/><path d="M519.078 255.586h-.12v.013h.12zM513.248 261.562h-3.334v1.682h3.334zM509.569 261.562h-1.735v1.682h1.735z" style="fill:#d4000a;fill-opacity:1;fill-rule:nonzero;stroke:none"/><path d="M0 0h.033v-1.682h-3.334v.013H0Z" style="fill:#d4000a;fill-opacity:1;fill-rule:nonzero;stroke:none" transform="translate(515.227 261.252)"/><path d="M0 0v-1.669h-3.334V.013H0Z" style="fill:#d4000a;fill-opacity:1;fill-rule:nonzero;stroke:none" transform="translate(515.247 261.252)"/><path d="M0 0v-.013h.033v-1.683h-3.56v.014h-.032V0Z" style="fill:#d4000a;fill-opacity:1;fill-rule:nonzero;stroke:none" transform="translate(511.535 261.266)"/><path d="M0 0v-1.696h-1.842V0Z" style="fill:#d4000a;fill-opacity:1;fill-rule:nonzero;stroke:none" transform="translate(509.73 259.274)"/><path style="fill:#d4000a;fill-opacity:1;fill-rule:nonzero;stroke:none" d="M-2.757.014c.307-.427.464-1.01.443-1.673v-.009H0v-.001h.12V.014H0Z" transform="translate(518.958 257.268)"/><path d="M0 0c-.227-.343-.383-.82-.407-1.447v-.249h-1.49V0Z" style="fill:#d4000a;fill-opacity:1;fill-rule:nonzero;stroke:none" transform="translate(513.77 257.282)"/><path d="M0 0v-1.696h-3.56V0Z" style="fill:#d4000a;fill-opacity:1;fill-rule:nonzero;stroke:none" transform="translate(511.528 257.282)"/><path d="M511.925 247.646h3.334v-.014h-3.334zM508.107 247.646h3.334v-.014h-3.334zM517.046 253.608h-.12v1.682h.12zM513.392 253.608h-3.334v1.682h3.334z" style="fill:#d4000a;fill-opacity:1;fill-rule:nonzero;stroke:none"/><path d="M0 0v-1.696h-3.334V0Z" style="fill:#d4000a;fill-opacity:1;fill-rule:nonzero;stroke:none" transform="translate(513.408 259.274)"/><path d="M509.713 253.608h-1.82v1.682h1.82z" style="fill:#d4000a;fill-opacity:1;fill-rule:nonzero;stroke:none"/><path d="M0 0v-1.443H1.812v-.253h-3.334V0Z" style="fill:#d4000a;fill-opacity:1;fill-rule:nonzero;stroke:none" transform="translate(513.368 253.311)"/><path d="M0 0h.033v-1.682H-3.559V0Z" style="fill:#d4000a;fill-opacity:1;fill-rule:nonzero;stroke:none" transform="translate(511.468 253.311)"/><path d="M0 0v-1.696h-1.866V0Z" style="fill:#d4000a;fill-opacity:1;fill-rule:nonzero;stroke:none" transform="translate(509.73 251.32)"/><path d="M0 0v.014h3.334v-1.683H0Z" style="fill:#d4000a;fill-opacity:1;fill-rule:nonzero;stroke:none" transform="translate(511.945 249.314)"/><path d="M-.225 0v.014h3.559v-1.683h-3.56z" style="fill:#d4000a;fill-opacity:1;fill-rule:nonzero;stroke:none" transform="translate(508.267 249.314)"/><path d="M509.914 247.336h3.334v-1.682h-3.334z" style="fill:#d4000a;fill-opacity:1;fill-rule:nonzero;stroke:none"/><path d="M0 0v-1.696h-3.334V0Z" style="fill:#d4000a;fill-opacity:1;fill-rule:nonzero;stroke:none" transform="translate(513.408 251.32)"/><path d="M507.898 247.336h1.671v-1.682h-1.671z" style="fill:#d4000a;fill-opacity:1;fill-rule:nonzero;stroke:none"/><path d="M0 0v-.014h.033v-.748h-1.492v-.92h-1.875V0Z" style="fill:#d4000a;fill-opacity:1;fill-rule:nonzero;stroke:none" transform="translate(515.227 245.357)"/><path d="M0 0v-.014h.033v-.748H0v-.92h-3.56V0Z" style="fill:#d4000a;fill-opacity:1;fill-rule:nonzero;stroke:none" transform="translate(511.408 245.357)"/><path d="M522.777 255.586h-3.334v.013h3.334zM518.958 255.586h-2.314v.013h2.314zM522.959 261.562h-1.889v1.682h1.889zM520.725 261.562h-3.334v1.682h3.334z" style="fill:#d4000a;fill-opacity:1;fill-rule:nonzero;stroke:none"/><path d="M0 0H3.334v-1.682H-.12V0Z" style="fill:#d4000a;fill-opacity:1;fill-rule:nonzero;stroke:none" transform="translate(513.712 263.244)"/><path d="M0 0h.033v-1.682h-3.334v.013H0Z" style="fill:#d4000a;fill-opacity:1;fill-rule:nonzero;stroke:none" transform="translate(522.744 261.252)"/><path d="M.15 0v-1.669h-3.484V.013H.15z" style="fill:#d4000a;fill-opacity:1;fill-rule:nonzero;stroke:none" transform="translate(522.757 261.252)"/><path d="M0 0H3.334v-.013h.033v-1.683H-.087v.014H-.12V0Z" style="fill:#d4000a;fill-opacity:1;fill-rule:nonzero;stroke:none" transform="translate(515.71 261.266)"/><path d="M0 0v-1.696h-3.334V0Z" style="fill:#d4000a;fill-opacity:1;fill-rule:nonzero;stroke:none" transform="translate(520.885 259.274)"/><path d="M0 0h3.334v-1.696H2.218l-.016.014a1.418 1.418 0 0 1-.924.368c-.315 0-.636-.12-.906-.368l-.016-.014H-.12V0Z" style="fill:#d4000a;fill-opacity:1;fill-rule:nonzero;stroke:none" transform="translate(513.872 259.274)"/><path d="M.15 0v-1.669h-3.484V.013H.15z" style="fill:#d4000a;fill-opacity:1;fill-rule:nonzero;stroke:none" transform="translate(522.777 257.268)"/><path d="M521.09 255.29h2.022v-1.682h-2.022Z" style="fill:#d4000a;fill-opacity:1;fill-rule:nonzero;stroke:none"/><path d="M.15 0v-1.696h-1.942V0Z" style="fill:#d4000a;fill-opacity:1;fill-rule:nonzero;stroke:none" transform="translate(523.022 259.274)"/><path d="M520.745 253.608h-3.334v1.682h3.334zM516.927 253.608h-.282v1.682h.282z" style="fill:#d4000a;fill-opacity:1;fill-rule:nonzero;stroke:none"/><path d="M.15 0h.033v-1.682h-3.517V0Z" style="fill:#d4000a;fill-opacity:1;fill-rule:nonzero;stroke:none" transform="translate(522.744 253.311)"/><path d="M0 0h.456v.456l-.001.987h2.434V-.239H-.598V0Z" style="fill:#d4000a;fill-opacity:1;fill-rule:nonzero;stroke:none" transform="translate(516.19 251.869)"/><path d="M0 0v-1.696h-3.334V0Z" style="fill:#d4000a;fill-opacity:1;fill-rule:nonzero;stroke:none" transform="translate(520.885 251.32)"/><path d="M0 0h3.334v-1.696H-.12V0Z" style="fill:#d4000a;fill-opacity:1;fill-rule:nonzero;stroke:none" transform="translate(513.872 251.32)"/><path d="M.15 0v-1.696h-3.484V0Z" style="fill:#d4000a;fill-opacity:1;fill-rule:nonzero;stroke:none" transform="translate(522.757 249.328)"/><path d="M0 0h3.334v-1.696H-.12V0Z" style="fill:#d4000a;fill-opacity:1;fill-rule:nonzero;stroke:none" transform="translate(515.744 249.328)"/><path d="M520.95 247.336h2.182v-1.682h-2.182Z" style="fill:#d4000a;fill-opacity:1;fill-rule:nonzero;stroke:none"/><path d="M.15 0v-1.696h-1.863V0Z" style="fill:#d4000a;fill-opacity:1;fill-rule:nonzero;stroke:none" transform="translate(522.942 251.32)"/><path d="M517.271 247.336h3.334v-1.682h-3.334z" style="fill:#d4000a;fill-opacity:1;fill-rule:nonzero;stroke:none"/><path d="M0 0h-.12v1.682h3.335V0Z" style="fill:#d4000a;fill-opacity:1;fill-rule:nonzero;stroke:none" transform="translate(513.712 245.654)"/><path d="M0 0h-1.58v1.682H0V.92Z" style="fill:#d4000a;fill-opacity:1;fill-rule:nonzero;stroke:none" transform="translate(520.99 243.675)"/><path d="M0 0v-.92H-3.334V.762H0V.749Z" style="fill:#d4000a;fill-opacity:1;fill-rule:nonzero;stroke:none" transform="translate(518.925 244.595)"/><path d="M0 0v-.92h3.334V.762H0V.749Z" style="fill:#d4000a;fill-opacity:1;fill-rule:nonzero;stroke:none" transform="translate(511.406 244.595)"/><path d="M0 0v-1.668h3.334V.014H0Z" style="fill:#d4000a;fill-opacity:1;fill-rule:nonzero;stroke:none" transform="translate(462.55 243.352)"/><path d="M489.161 264.776h-3.126v1.846h3.126zM492.718 264.776h-3.126v1.846h3.126zM496.275 264.776h-3.126v1.846h3.126zM499.832 264.776h-3.126v1.846h3.126zM503.389 264.776h-3.126v1.846h3.126zM485.604 264.776h-1.44v1.846h1.44zM490.801 266.972h-3.126v.979h3.126zM494.358 266.972h-3.126v.979h3.126zM497.915 266.972h-3.126v.979h3.126zM501.472 266.972h-3.126v.979h3.126zM503.102 266.972h-1.199v.979h1.199zM487.244 266.972h-3.126v.979h3.126zM489.161 260.425h-3.126v1.846h3.126zM492.718 260.425h-3.126v1.846h3.126zM496.275 260.425h-3.126v1.846h3.126zM499.832 260.425h-3.126v1.846h3.126zM503.389 260.425h-3.126v1.846h3.126zM485.604 260.425h-1.44v1.846h1.44zM490.801 262.621h-3.126v1.846h3.126zM494.358 262.621h-3.126v1.846h3.126zM497.915 262.621h-3.126v1.846h3.126zM501.472 262.621h-3.126v1.846h3.126zM503.054 262.621h-1.151v1.846h1.151zM487.244 262.621h-3.126v1.846h3.126zM489.161 256.039h-3.126v1.846h3.126zM492.718 256.039h-3.126v1.846h3.126zM496.275 256.039h-3.126v1.846h3.126zM499.832 256.039h-3.126v1.846h3.126zM503.389 256.039h-3.126v1.846h3.126zM485.604 256.039h-1.44v1.846h1.44zM490.801 258.235h-3.126v1.846h3.126zM494.358 258.235h-3.126v1.846h3.126zM497.915 258.235h-3.126v1.846h3.126zM501.472 258.235h-3.126v1.846h3.126zM503.054 258.235h-1.151v1.846h1.151zM487.244 258.235h-3.126v1.846h3.126zM489.161 251.688h-3.126v1.846h3.126zM492.718 251.688h-3.126v1.846h3.126zM496.275 251.688h-3.126v1.846h3.126zM499.832 251.688h-3.126v1.846h3.126zM503.389 251.688h-3.126v1.846h3.126zM485.604 251.688h-1.44v1.846h1.44zM490.801 253.884h-3.126v1.846h3.126zM494.358 253.884h-3.126v1.846h3.126zM497.915 253.884h-3.126v1.846h3.126zM501.472 253.884h-3.126v1.846h3.126zM503.054 253.884h-1.151v1.846h1.151zM487.244 253.884h-3.126v1.846h3.126zM490.801 249.512h-3.126v1.846h3.126zM494.358 249.512h-3.126v1.846h3.126zM497.915 249.512h-3.126v1.846h3.126zM501.472 249.512h-3.126v1.846h3.126zM503.054 249.512h-1.151v1.846h1.151zM487.244 249.512h-3.126v1.846h3.126zM490.801 245.134h-3.126v1.846h3.126zM494.358 245.134h-3.126v1.846h3.126zM497.915 245.134h-3.126v1.846h3.126zM501.472 245.134h-3.126v1.846h3.126zM503.054 245.134h-1.151v1.846h1.151zM487.244 245.134h-3.126v1.846h3.126zM489.161 247.316h-3.126v1.846h3.126zM492.718 247.316h-3.126v1.846h3.126zM496.275 247.316h-3.126v1.846h3.126zM499.832 247.316h-3.126v1.846h3.126zM503.389 247.316h-3.126v1.846h3.126zM485.604 247.316h-1.44v1.846h1.44zM489.161 242.965h-3.126v1.846h3.126zM492.718 242.965h-3.126v1.846h3.126zM496.275 242.965h-3.126v1.846h3.126zM499.832 242.965h-3.126v1.846h3.126zM503.389 242.965h-3.126v1.846h3.126zM485.604 242.965h-3.127v1.846h3.127zM507.279 239.525h7.481v-3.734h-7.481zM511.288 235.103h7.481v-3.734h-7.481zM519.855 235.103h3.247v-3.734h-3.247zM507.279 230.681h7.481v-3.734h-7.481zM515.846 230.681h7.481v-3.734h-7.481zM515.846 239.525h7.09v-3.734h-7.09zM511.288 226.26h7.481v-3.734h-7.481zM519.855 226.26h3.141v-3.734h-3.141zM481.577 239.525h7.481v-3.734h-7.481zM498.711 239.525h7.481v-3.734h-7.481zM502.72 235.103h7.481v-3.734h-7.481zM490.144 239.525h7.481v-3.734h-7.481zM473.009 239.525h7.481v-3.734h-7.481zM463.655 235.103h3.71v-3.734h-3.71zM468.451 235.103h7.481v-3.734h-7.481zM477.018 235.103h7.481v-3.734h-7.481zM464.067 230.681h7.856v-3.734h-7.856zM463.992 239.525h7.931v-3.734h-7.931zM473.009 230.681h7.481v-3.734h-7.481zM463.773 226.26h3.591v-3.734h-3.591zM468.451 226.26h7.481v-3.734h-7.481z" style="fill:#d4000a;fill-opacity:1;fill-rule:evenodd;stroke:none"/><path d="M0 0h-3.844v-2.504h-5.987V0h-4.064v-2.504h-5.79V0h-3.867v-2.504h-5.582V0h-4.562l-.003-2.504h-5.902V0h-4.24l.002-2.504h-5.541V0h-3.737v-3.992H9.496V0h-3.66v-2.504H0Z" style="fill:#d4000a;fill-opacity:1;fill-rule:nonzero;stroke:none" transform="translate(515.302 245.532)"/><path d="m0 0 9.056 7.999L18.171 0Z" style="fill:#d4000a;fill-opacity:1;fill-rule:evenodd;stroke:none" transform="translate(484.579 268.454)"/><path d="m0 0-59.652.061-.273.971H.577Z" style="fill:#d4000a;fill-opacity:1;fill-rule:nonzero;stroke:none" transform="translate(523.342 239.945)"/><path d="M0 0h-62.613v3.992h3.737V1.488h5.541l-.002 2.504h4.24V1.488h5.902l.003 2.504h4.563V1.488h5.581v2.504h3.867V1.488h5.79v2.504h4.065V1.488h5.986v2.504h3.844V1.488h5.836v2.504H0Zm-1.61-1.425h-59.134c-.131 0-.21.048-.285.181a1.191 1.191 0 0 0-.04.08l-.003.007-.038.092-.009.024-.034.098a4.303 4.303 0 0 0-.049.148h60.05l-.049-.149a2.61 2.61 0 0 0-.084-.22c-.087-.195-.171-.261-.325-.261m-47.487 6.01h-4.832v-.593l.001-1.912h-4.355v2.505h-2.149v17.167h14.585V2.08h-2.658v2.505zm-12.712 17.929v3.666l2.839-.003v-1.942h4.39v1.941h3.147v-1.941h4.124v1.939h2.827l.011-3.657-.988-.309h-15.36zm21.568 3.59h18.25V4.585h-1.992V2.08h-4.605v2.505h-5.052V2.08h-4.397v2.505h-2.204zm9.079 8.507 8.512-7.47h-16.969ZM-9.496 4.585h-4.436V2.08h-2.702v19.672h14.585V4.585h-2.203V2.08h-4.652v2.505zm-8.514 17.932.01 3.657h2.828v-1.483l-.001-.456h4.125v1.941h3.147v-1.941h4.39v1.942l2.838.003v-3.666l-.989-.306h-15.36zM0 4.585h-1.594v17.167h.001l1.376.426v4.458l-3.75-.004v-1.941h-3.478v1.941h-4.059v-1.941h-3.213l.001 1.938h-3.738l-.013-4.446 1.375-.431h.002V2.08h-1.644v2.505h-2.649v22.126h-.09l-9.325 8.184a1.684 1.684 0 0 1 1.337 1.645c0 .926-.754 1.68-1.68 1.68-.927 0-1.68-.754-1.68-1.68 0-.798.559-1.466 1.305-1.637l-9.275-8.192h-.057V4.585H-43.783l-.001-.592-.003-1.913h-1.604v19.672h.001l1.375.431-.012 4.446h-3.738v-1.938h-3.213v1.941h-4.058v-1.941h-3.478v1.941l-3.75.004v-4.458l1.376-.426h.001V4.585h-2.318V-.592h1.455l.019-.052c.034-.096.064-.191.093-.282.082-.261.173-.539.35-.728v-18.917h.76V-1.93h58.621v-18.772h.76v18.975c.232.183.337.504.431.801.029.091.059.186.093.282l.018.052H.592v5.177Z" style="fill:#000;fill-opacity:1;fill-rule:nonzero;stroke:none" transform="translate(524.798 241.54)"/><path d="M0 0" style="fill:#000;fill-opacity:1;fill-rule:nonzero;stroke:none" transform="translate(523.553 240.475)"/><path d="M0 0" style="fill:#000;fill-opacity:1;fill-rule:nonzero;stroke:none" transform="translate(523.596 240.595)"/><path d="m0 0-.035.097L0 0" style="fill:#000;fill-opacity:1;fill-rule:nonzero;stroke:none" transform="translate(463.68 240.499)"/><path d="M0 0" style="fill:#000;fill-opacity:1;fill-rule:nonzero;stroke:none" transform="translate(463.726 240.382)"/><path d="M0 0a1.91 1.91 0 0 0-.04.079C-.026.05-.013.023 0 0" style="fill:#000;fill-opacity:1;fill-rule:nonzero;stroke:none" transform="translate(463.769 240.296)"/><path d="M0 0c.054 2.475 2.703 2.545 2.706-.039v-5.024H0Z" style="fill:#fff;fill-opacity:1;fill-rule:evenodd;stroke:none" transform="translate(487.246 261.108)"/><path d="M0 0c.054 2.475 2.703 2.545 2.706-.039v-5.024H0Z" style="fill:none;stroke:#000;stroke-width:.456;stroke-linecap:butt;stroke-linejoin:miter;stroke-miterlimit:10;stroke-dasharray:none;stroke-opacity:1" transform="translate(487.246 261.108)"/><path d="M0 0c-.062 2.026 2.643 2.331 2.705.193v-5.411H0Z" style="fill:#fff;fill-opacity:1;fill-rule:evenodd;stroke:none" transform="translate(497.45 261.262)"/><path d="M0 0c-.062 2.026 2.643 2.331 2.705.193v-5.411H0Z" style="fill:none;stroke:#000;stroke-width:.456;stroke-linecap:butt;stroke-linejoin:miter;stroke-miterlimit:10;stroke-dasharray:none;stroke-opacity:1" transform="translate(497.45 261.262)"/><path d="M0 0c-.043.034-4.311 3.392-8.233 5.109-1.486.65-2.601 1.025-3.497 1.327-1.735.584-3.105 1.045-4.62 2.653-.266.282-.552.622-.884 1.015-1.981 2.346-5.668 6.711-11.532 6.495l-.093-.003-.093.003c-6.031.218-10.097-4.437-12.051-6.676-.28-.321-.522-.599-.744-.834-1.514-1.608-2.885-2.069-4.62-2.653-.896-.302-2.011-.677-3.496-1.327-3.912-1.712-7.95-5.04-7.99-5.073l-3.198 3.859c.187.155 4.628 3.813 9.178 5.805 1.687.739 2.918 1.153 3.908 1.486 1.55.522 1.94.671 2.57 1.339.171.182.376.418.615.693 2.264 2.594 7.552 8.664 15.921 8.393 8.256.262 13.294-5.716 15.454-8.274.285-.337.531-.628.704-.812.629-.668 1.02-.817 2.57-1.339.989-.333 2.22-.747 3.907-1.486 4.525-1.98 9.14-5.616 9.335-5.77L-.001.001l1.556 1.964Z" style="fill:#000;fill-opacity:1;fill-rule:nonzero;stroke:none" transform="translate(522.634 216.158)"/><path d="M0 0c-.012.01-1.267.999-3.027 2.184l2.036 3.023C.892 3.94 2.206 2.902 2.261 2.859Z" style="fill:#d4000a;fill-opacity:1;fill-rule:nonzero;stroke:none" transform="translate(523.08 216.534)"/><path d="M0 0a11.562 11.562 0 0 1-3.328.35l-.068-.003-.068.003A11.872 11.872 0 0 1-6.677.035l-.844 3.546c1.344.32 2.714.46 4.125.414a15.255 15.255 0 0 0 4.298-.464zm-13.554-3.914-2.489 2.663c2.236 2.089 4.613 3.573 7.064 4.41L-7.8-.29c-1.989-.68-3.871-1.865-5.754-3.624m20.273-.213C4.896-2.293 3.061-1.056 1.11-.344l1.249 3.425c2.465-.9 4.737-2.417 6.945-4.638zm-27.788-5.704-1.163 3.455c1.539.518 2.061.719 2.798 1.5.176.188.387.431.634.714.461.528 1.035 1.186 1.734 1.906l2.616-2.539a42.357 42.357 0 0 1-1.603-1.764c-.277-.317-.516-.59-.729-.816-1.396-1.483-2.672-1.912-4.287-2.456m35.391-.143-.372.126c-1.708.575-2.942.99-4.339 2.473-.253.269-.534.601-.858.986-.341.403-.727.86-1.167 1.346l2.702 2.447c.482-.534.908-1.037 1.249-1.441.291-.345.542-.642.727-.839.771-.818 1.337-1.009 2.849-1.518l.38-.128zm-43.075-3.461-1.968 3.068c1.633 1.048 3.176 1.892 4.585 2.509.866.379 1.717.717 2.601 1.033l1.228-3.432a36.757 36.757 0 0 1-2.368-.94c-1.233-.541-2.605-1.293-4.078-2.238m50.731-.223c-1.657 1.059-3.163 1.887-4.474 2.461-.662.289-1.304.549-1.963.793l1.267 3.418a40.42 40.42 0 0 0 2.158-.872c1.483-.65 3.158-1.568 4.975-2.729z" style="fill:#d4000a;fill-opacity:1;fill-rule:nonzero;stroke:none" transform="translate(496.988 233.09)"/><path d="m0 0-2.325 2.807a47.99 47.99 0 0 0 3.243 2.41l2.057-3.009A45.418 45.418 0 0 1 0 0" style="fill:#d4000a;fill-opacity:1;fill-rule:nonzero;stroke:none" transform="translate(464.161 216.719)"/><path d="M0 0a1.292 1.292 0 1 0-2.584 0A1.292 1.292 0 0 0 0 0" style="fill:#d4000a;fill-opacity:1;fill-rule:evenodd;stroke:none" transform="translate(494.948 278.08)"/></g><g clip-path="url(#b)" style="stroke-width:1.5;stroke-dasharray:none" transform="matrix(1.92676 0 0 -1.92676 -884.616 546.428)"><g style="stroke-width:1.5;stroke-dasharray:none"><path d="M0 0v54.633h-67.16V0c.804-14.521 16.055-27.105 34.003-27.105C-15.443-27.105-.437-14.543 0 0z" style="fill:none;stroke:#000;stroke-width:1.5;stroke-linecap:butt;stroke-linejoin:miter;stroke-miterlimit:10;stroke-dasharray:none;stroke-opacity:1" transform="translate(527.03 228.216)"/></g></g><g clip-path="url(#c)" transform="matrix(1.92676 0 0 -1.92676 -884.616 546.428)"><path d="m0 0-.193.387C3.259.309 3.88-4.688 5.604-4.831c1.489 6.387 2.14 3.241 4.043 6.083-1.68 1.125-3.483.68-6.16.693l-1.485.884c.658.205.991 1.616-.456 1.616-3.198 0-1.701.048-4.287.737-1.324.353-3.043.809-4.602.809h-1.739l1.028 1.272-3.927 2.206c-1.395-.934-1.454-3.063-2.089-3.708-.215-.218-3.558-1.57-4.172-1.819-1.167-.473-7.267-3.93-7.267-4.715 0-.535.335-.495.774-.618l-.457-.464c-.321-.927 3.052-.874 4.21-.85 5.429.277 8.251 3.366 12.294 3.277-.394-.888.009-2.337.921-2.465.517-.072-.538 2.068-.486 1.961C-7.027-2.435-6.606-1.516-5.65-.58c0 .767-.815.818-1.306 1.16.808 0 3.017.325 3.517-.154.272-.262.346-2.359 1.507-2.359 1.185 0 2.258.79 2.516 1.75z" style="fill:#000;fill-opacity:1;fill-rule:evenodd;stroke:none" transform="translate(501.535 214.33)"/><path d="M0 0c1.928.989 4.104 1.422 5.971 1.451.604-.446.755-1.938 1.565-1.938.517 0 .526.198.727.499.086.308-.652.867-1.832 1.422 1.799.149 3.571.246 4.939.023.193-.827.217-2.33 1.191-2.33.897 0 1.567.614 1.932 1.159l-.773.387-.453.731c4.776.042 4.68-3.872 6.422-5.149.843.618.274 2.495 1.28 3.636.738.837 2.884 1.432 2.612 1.753-.838.99-5.72.521-5.72.521l-2 1.237c.252.375.565.478.565.943 0 .27-.263.386-.58.386h-.386c-1.874 0-.918-.433-2.764.328-.804.33-1.58.567-2.528.757-1.784.357-3.855.196-5.71.35L5.89 7.811S3.135 9.562 2.467 9.562c-.516 0-1.367-2.694-1.645-3.254-.256-.516-2.546-1.306-3.229-1.582-2.656-1.074-3.795-1.663-5.957-3.11-.327-.137-2.139-1.132-2.356-1.775-.106-.315.885-.448.681-.666-.2-.216-.721-.375.123-.728C-6.184-2.235-2.326-1.19 0 0m.68 2.791C.037 2.521-2.543.777-3.077.321-1.748.631.275 2.4.425 2.4 1.166 1.206-.226.221-1.701.221L-2.86.14v-.352l.977.023C.24-.189 1.224.728.68 2.791M-4.251-.89l.286-.013c1.501 1.517-.442 3.296-1.212 3.462l-.042-.217c.997-.344 2.341-1.946.968-3.232m-5.832-.427 1.427.066c3.647 0 1.334 1.195-.491 1.195H-10.5v-.246c1.31.116 4.348-.269 2.705-.721l-2.125-.046Zm2.058 2.519c.377 0 .683-.259.683-.58 0-.32-.306-.579-.683-.579-.377 0-.683.259-.683.579 0 .321.306.58.683.58m-.016-.133c.296 0 .537-.204.537-.455 0-.252-.241-.455-.537-.455-.296 0-.536.203-.536.455 0 .251.24.455.536.455m.028-.261c.115 0 .208-.083.208-.186 0-.102-.093-.186-.208-.186-.115 0-.209.084-.209.186 0 .103.094.186.209.186M5.833.677c-.137-.361-.015-1.637.55-1.61.131.028-.078 1.002-.55 1.61" style="fill:#d4000a;fill-opacity:1;fill-rule:evenodd;stroke:none" transform="translate(487.066 213.778)"/></g></svg>