<?xml version="1.0" encoding="UTF-8"?>
<svg width="256px" height="94px" viewBox="0 0 256 94" version="1.1" xmlns="http://www.w3.org/2000/svg" xmlns:xlink="http://www.w3.org/1999/xlink">
    <title>Polo-Logo-White</title>
    <g id="NAEU" stroke="none" stroke-width="1" fill="none" fill-rule="evenodd">
        <g id="08-16-HP-MOB-EU" transform="translate(-60.000000, -445.000000)" fill="#FFFFFF">
            <g id="Polo-Logo-White" transform="translate(60.000000, 445.000000)">
                <g id="Group-4" transform="translate(0.000000, 64.682705)">
                    <path d="M11.2079864,8.51340664 C10.4288216,8.51340664 7.79164833,8.69326734 5.93363988,10.6717351 L5.93363988,0 L0,0 L0,2.33818915 L2.81698055,2.33818915 L2.81698055,20.4441666 L0,20.3842131 L0.0599357564,22.7823558 L3.95575992,22.7823558 L5.93363988,22.7823558 L5.93363988,21.223563 C7.9714556,23.0821236 10.4288216,23.3219379 11.3877937,23.3219379 C15.7031682,23.3219379 19.2393778,19.844631 19.2393778,15.5879276 C19.2393778,11.5710386 15.7631039,8.51340664 11.2079864,8.51340664 M15.8829754,15.7078348 C15.8829754,18.585606 13.7252882,20.7439345 10.8483719,20.7439345 C9.94933556,20.7439345 7.67177681,20.5041202 6.41312593,18.2858382 L6.41312593,18.2858382 C5.99357564,17.5663954 5.75383261,16.786999 5.75383261,15.9476491 C5.75383261,13.0099242 8.45094165,11.0314565 10.9682434,11.0314565 C13.4256094,11.0314565 15.8829754,12.6502028 15.8829754,15.7078348" id="Fill-1"></path>
                    <path d="M31.3464006,10.3719672 L31.3464006,12.7101564 L34.1633811,12.7101564 L30.5672357,20.2643059 L26.4916043,12.7101564 L29.3685206,12.7101564 L29.3685206,10.3719672 L20.7977075,10.3719672 L20.7977075,12.7101564 L23.0153304,12.7101564 L28.9489703,23.441845 C27.8701267,25.7200806 26.0121183,26.5594306 24.6935316,26.5594306 C24.0941741,26.5594306 23.614688,26.499477 23.1951377,26.4395234 L22.8954589,26.3795699 L22.5957801,29.137434 L22.8355232,29.1973876 C23.1951377,29.2573411 23.614688,29.3172947 23.9743025,29.3172947 C29.2486491,29.3172947 30.986786,25.6601271 32.5451157,22.482588 L37.2800405,12.8300635 L39.6774707,12.8300635 L39.6774707,10.4918744 L31.3464006,10.4918744" id="Fill-3"></path>
                </g>
                <path d="M72.5222652,84.774345 L72.5222652,82.8558308 C72.5222652,81.297038 72.5222652,78.4192668 71.2036786,77.1602419 C70.6642567,76.6806133 70.0049634,76.3808455 69.4056059,76.2609383 C72.4023937,75.6614027 73.2414943,72.7236778 73.2414943,70.9850244 C73.2414943,68.4070209 71.6831646,66.6683675 70.1847707,65.8889711 C68.6863768,65.1095747 67.6674689,65.0496211 65.8693962,64.929714 L61.254343,64.8697604 L53.7623735,64.8697604 L53.7623735,67.6875781 L57.0588401,67.6875781 L57.0588401,84.774345 L53.7024377,84.774345 L53.7024377,87.5921627 L63.951452,87.5921627 L63.951452,84.774345 L60.6549854,84.774345 L60.6549854,77.4600097 C61.254343,77.4000561 61.7937648,77.4000561 62.3931224,77.4000561 C67.3677901,77.4000561 68.9860556,77.9396382 68.9860556,84.5944843 L68.9860556,87.5921627 L75.9386033,87.5921627 L75.9386033,84.774345 L72.5222652,84.774345 L72.5222652,84.774345 Z M60.6549854,68.8866495 L60.6549854,67.6875781 L64.5508096,67.6875781 C67.8472762,67.6875781 69.4655416,68.8266959 69.4655416,71.1648851 C69.4655416,73.0234457 68.146955,73.8028421 67.7274047,74.0426563 C66.5886253,74.642192 65.3899102,74.642192 62.9325442,74.642192 L60.6549854,74.642192 L60.6549854,70.2655815 L60.6549854,68.8866495 L60.6549854,68.8866495 Z" id="Fill-5"></path>
                <path d="M92.001386,84.9542057 L92.001386,79.0188025 C92.001386,77.0403347 92.001386,74.642192 88.9446624,73.6829349 C87.5062043,73.2033064 86.3074892,73.0234457 84.7491595,73.0234457 C81.9321789,73.0234457 79.8344275,73.6829349 79.0552626,73.9227492 L78.8155196,74.0426563 L80.0741705,76.3808455 L80.3139135,76.2609383 C82.0520505,75.5414955 83.7302516,75.3016813 84.6892237,75.3016813 C88.5850479,75.3016813 89.064534,76.860474 89.064534,78.3593132 C89.064534,78.5991275 89.064534,78.7789882 89.064534,78.9588489 C87.8058831,78.0595454 86.2475534,77.5799168 84.2097377,77.5799168 C79.3549414,77.5799168 77.1972542,80.0979667 77.1972542,82.6160165 C77.1972542,85.6736485 80.0741705,87.7120698 84.3296092,87.7120698 C85.108774,87.7120698 87.56614,87.5921627 88.9446624,86.2132306 L88.9446624,87.2324413 L94.7584308,87.2324413 L94.7584308,84.8942521 L92.001386,84.8942521 L92.001386,84.9542057 Z M86.9068467,85.1340664 L86.9068467,85.1340664 C86.1276819,85.4338342 84.9889025,85.4937878 84.5094165,85.4937878 C81.6325002,85.4937878 80.3139135,83.9949486 80.3139135,82.556063 C80.3139135,80.8174095 81.8722432,79.7981988 84.5693522,79.7981988 C87.2664613,79.7981988 89.0045982,80.9373166 89.0045982,82.556063 C89.0045982,83.2755058 88.7648552,84.4745771 86.9068467,85.1340664 L86.9068467,85.1340664 Z" id="Fill-6"></path>
                <polyline id="Fill-7" points="101.710979 84.9542057 101.710979 64.6299462 95.7773387 64.6299462 95.7773387 66.9081817 98.654255 66.9081817 98.654255 84.9542057 95.7773387 84.9542057 95.7773387 87.2324413 104.707766 87.2324413 104.707766 84.9542057 101.710979 84.9542057"></polyline>
                <path d="M115.67601,72.9634921 C112.918965,72.9634921 111.120892,74.2824706 110.281792,75.1218205 L110.281792,73.1433528 L104.468023,73.1433528 L104.468023,75.3616348 L107.165132,75.3616348 L107.165132,86.992627 L107.105197,89.630584 L104.408088,89.630584 L104.408088,91.9687731 L113.27858,91.9687731 L113.27858,89.630584 L110.281792,89.630584 L110.281792,85.4937878 C111.660314,86.8727199 113.638194,87.6521162 115.616074,87.6521162 C119.991384,87.6521162 123.58753,84.1748093 123.58753,79.918106 C123.58753,75.6014491 119.451962,72.9634921 115.67601,72.9634921 M120.231127,80.2778274 C120.231127,83.4553665 117.65389,85.19402 115.256459,85.19402 C113.518323,85.19402 112.679222,84.5345307 111.72025,83.8150879 L111.72025,83.8150879 C110.701342,83.0356915 110.221856,81.8366201 110.221856,80.2178738 C110.221856,77.280149 112.918965,75.4215884 115.436267,75.4215884 C118.433055,75.4215884 120.231127,77.8796847 120.231127,80.2778274" id="Fill-8"></path>
                <path d="M140.129798,85.2539735 L140.129798,78.7789882 C140.129798,76.860474 140.129798,75.061867 138.032047,73.9827028 C137.013139,73.4431206 136.114103,73.3232135 135.334938,73.3232135 C132.817636,73.3232135 131.079499,74.5222849 129.700977,75.6014491 L129.700977,64.7498533 L123.827273,64.7498533 L123.827273,67.0280889 L126.584317,67.0280889 L126.584317,73.3831671 L126.524382,85.19402 L123.767337,85.19402 L123.767337,87.4722555 L132.637829,87.4722555 L132.637829,85.19402 L129.700977,85.19402 L129.700977,78.1194989 C130.839756,76.9204276 132.697765,75.6614027 134.435902,75.6614027 C134.795516,75.6614027 135.574681,75.6614027 136.233974,76.2609383 C136.773396,76.6806133 136.773396,76.860474 136.893268,79.078756 L136.893268,85.19402 L134.076287,85.19402 L134.076287,87.4722555 L143.06665,87.4722555 L143.06665,85.19402 L140.129798,85.19402" id="Fill-9"></path>
                <polyline id="Fill-10" points="165.722366 80.6975024 165.722366 84.7143914 157.631039 84.7143914 157.631039 67.8074853 161.766606 67.8074853 161.766606 64.929714 150.438748 64.929714 150.438748 67.8074853 153.915022 67.8074853 153.915022 84.7143914 150.438748 84.7143914 150.438748 87.5322091 169.078769 87.5322091 169.19864 80.6975024 165.722366 80.6975024"></polyline>
                <path d="M185.44123,85.0141592 L185.44123,79.1387096 C185.44123,77.1602419 185.44123,74.7620991 182.384507,73.8028421 C180.946048,73.3232135 179.687398,73.1433528 178.189004,73.1433528 C175.312087,73.1433528 173.274272,73.8028421 172.495107,74.1026099 L172.255364,74.222517 L173.514015,76.5607062 L173.753758,76.440799 C175.491895,75.7213562 177.170096,75.481542 178.129068,75.481542 C182.024892,75.481542 182.504378,77.0403347 182.504378,78.5391739 C182.504378,78.7789882 182.504378,78.9588489 182.504378,79.1387096 C181.245727,78.2394061 179.687398,77.7597775 177.649582,77.7597775 C172.794786,77.7597775 170.637098,80.2778274 170.637098,82.7958772 C170.637098,85.8535092 173.514015,87.8919305 177.769453,87.8919305 C178.548618,87.8919305 181.005984,87.7720234 182.384507,86.3930913 L182.384507,87.412302 L188.198275,87.412302 L188.198275,85.0741128 L185.44123,85.0741128 L185.44123,85.0141592 Z M182.504378,82.6759701 C182.504378,83.3354593 182.204699,84.5345307 180.346691,85.2539735 L180.346691,85.2539735 C179.627462,85.5537414 178.488682,85.6136949 177.949261,85.6136949 C175.072344,85.6136949 173.753758,84.1148557 173.753758,82.6759701 C173.753758,80.9373166 175.312087,79.918106 178.009196,79.918106 C180.706305,79.918106 182.504378,81.0572238 182.504378,82.6759701 L182.504378,82.6759701 Z" id="Fill-11"></path>
                <path d="M203.721636,84.6544378 L203.721636,72.9634921 L197.608189,72.9634921 L197.608189,75.2417277 L200.545041,75.2417277 L200.545041,82.3762023 C199.406261,83.6352272 197.428381,84.9542057 195.570373,84.9542057 C194.791208,84.9542057 194.251786,84.774345 193.832236,84.35467 C193.35275,83.8750415 193.113007,83.0356915 193.172943,82.0764344 L193.172943,73.0234457 L187.359174,73.0234457 L187.359174,75.3016813 L189.996348,75.3016813 L190.056283,83.3954129 C190.056283,85.3738807 191.734485,87.412302 194.91108,87.412302 C197.188638,87.412302 199.406261,86.0933235 200.545041,85.19402 L200.545041,86.992627 L206.778359,86.992627 L206.778359,84.6544378 L203.721636,84.6544378" id="Fill-12"></path>
                <path d="M220.144033,73.4431206 C219.48474,73.2632599 218.825446,73.1433528 218.166153,73.1433528 C216.428016,73.1433528 214.929622,73.8627956 213.790843,75.1817741 L213.790843,73.3831671 L207.737332,73.3831671 L207.737332,75.6014491 L210.734119,75.6014491 L210.734119,84.9542057 L207.737332,84.9542057 L207.737332,87.2923948 L213.910714,87.2923948 L217.08731,87.3523484 L217.08731,85.0141592 L213.910714,85.0141592 L213.910714,78.5391739 C215.169365,76.6206597 216.36808,75.7813098 217.866474,75.7813098 C218.465832,75.7813098 219.005254,75.9012169 219.48474,76.0810776 L219.784419,76.2009848 L220.443712,73.5030742 L220.144033,73.4431206" id="Fill-13"></path>
                <g id="Group-17" transform="translate(219.738867, 72.887951)">
                    <path d="M16.1227185,8.51340664 L16.1227185,8.27359237 C16.1826542,5.69558895 15.4034894,3.59721407 13.7252882,2.03842131 C12.2868301,0.719442815 10.3089501,0 8.15126287,0 C3.59614538,0 0,3.29744623 0,7.55414955 C0,12.2305278 4.31537446,14.8085313 8.39100589,14.8085313 C11.567601,14.8085313 14.024967,13.5495063 15.8829754,10.9115494 L16.0627827,10.6717351 L13.5454809,9.65252443 L13.4256094,9.83238513 C13.0659949,10.4319208 11.567601,12.350435 8.75062043,12.350435 C6.11344715,12.350435 3.89582416,10.7916422 3.2964666,8.45345307 L6.89261198,8.45345307 L16.1227185,8.51340664 Z M12.7063803,6.05531036 L7.19229076,6.05531036 L5.99357564,6.05531036 L3.35640236,6.05531036 C4.07563143,3.71712121 6.35319017,2.51804985 8.33107013,2.51804985 C10.6086289,2.45809628 12.1070228,3.65716764 12.7063803,6.05531036 L12.7063803,6.05531036 Z" id="Fill-14"></path>
                    <path d="M33.1444733,12.350435 L33.1444733,5.09605327 C33.1444733,3.95693548 33.1444733,2.39814272 31.4662721,1.31897849 C30.6271715,0.779396382 29.5483279,0.419674975 28.52942,0.419674975 C27.9899982,0.419674975 25.2329534,0.539582111 22.6557159,2.63795699 L22.6557159,0.659489247 L16.7820118,0.659489247 L16.7820118,2.87777126 L19.5989923,2.87777126 L19.5989923,12.350435 L16.9018833,12.350435 L16.9018833,14.6286706 L25.7124395,14.6286706 L25.7124395,12.350435 L22.7755874,12.350435 L22.7755874,5.39582111 C23.4948165,4.67637829 25.2928892,2.87777126 27.6903194,2.87777126 C30.0877497,2.87777126 30.0877497,4.55647116 30.0877497,5.75554252 L30.0877497,12.350435 L27.2707691,12.350435 L27.2707691,14.6286706 L36.2611326,14.6286706 L36.2611326,12.350435 L33.1444733,12.350435" id="Fill-16"></path>
                </g>
                <g id="Group-20" transform="translate(32.668583, 0.000000)">
                    <path d="M0,54.797561 L190.595705,54.797561 L190.595705,0 L0,0 L0,54.797561 Z M5.2144108,50.1811363 L185.381294,50.1811363 L185.381294,4.61642473 L5.2144108,4.61642473 L5.2144108,50.1811363 Z" id="Fill-18"></path>
                </g>
                <polyline id="Fill-21" points="162.725579 42.8068475 140.729156 42.8068475 140.729156 38.3103299 147.02241 38.3103299 147.02241 15.5279741 140.729156 15.5279741 140.729156 11.1513636 156.312453 11.1513636 156.312453 38.3103299 162.725579 38.3103299 162.725579 42.8068475"></polyline>
                <path d="M117.174404,20.3842131 C107.644618,20.3842131 100.752006,25.2404521 100.752006,31.9552517 C100.752006,37.5908871 106.565775,43.5862438 117.234339,43.5862438 C122.748429,43.5862438 127.423418,42.0874046 130.480142,39.3295405 C132.7577,37.2911192 133.956415,34.6531622 133.956415,31.8353445 C133.89648,25.4203128 126.524382,20.3842131 117.174404,20.3842131 M117.174404,39.269587 C112.259672,39.269587 108.663526,35.7323265 108.663526,32.0152052 C108.663526,28.9575733 111.840121,25.0006378 117.354211,25.0006378 C122.508686,25.0006378 125.865088,28.717759 125.925024,32.2550195 C125.98496,35.0128836 123.407722,39.269587 117.174404,39.269587" id="Fill-22"></path>
                <path d="M186.699881,20.3842131 C177.170096,20.3842131 170.277484,25.2404521 170.277484,31.9552517 C170.277484,37.5908871 176.091252,43.5862438 186.759817,43.5862438 C192.273906,43.5862438 196.948895,42.0874046 200.005619,39.3295405 C202.283178,37.2911192 203.481893,34.6531622 203.481893,31.8353445 C203.481893,25.4203128 196.109795,20.3842131 186.699881,20.3842131 M186.759817,39.269587 C181.845085,39.269587 178.248939,35.7323265 178.248939,32.0152052 C178.248939,28.9575733 181.425535,25.0006378 186.939624,25.0006378 C192.094099,25.0006378 195.450501,28.717759 195.510437,32.2550195 C195.510437,35.0128836 192.993135,39.269587 186.759817,39.269587" id="Fill-23"></path>
                <path d="M84.5094165,12.4103886 C81.0930784,11.8108529 78.8754554,11.8108529 75.5789888,11.8108529 L48.9675129,11.8108529 L48.9675129,15.9476491 L56.1598037,15.9476491 L56.1598037,38.4901906 L48.9675129,38.4901906 L48.9675129,42.6869403 L73.6011088,42.6869403 L73.6610446,42.3272189 L73.6610446,38.5501441 L65.929332,38.5501441 L65.929332,32.0751588 L73.9007876,32.1950659 C82.3517292,32.1950659 85.7081316,32.5547874 89.4840842,30.1566446 C92.241129,28.4779447 94.6988868,25.9598949 94.6988868,22.062913 C94.7584308,15.5279741 87.9257546,12.9499707 84.5094165,12.4103886 M76.9575112,26.5594306 L65.8693962,26.5594306 L65.929332,15.8876955 L77.0174469,15.8876955 C82.9510868,15.8876955 85.2286455,17.3265811 85.2286455,21.2835166 C85.1687098,26.919152 81.7523717,26.5594306 76.9575112,26.5594306" id="Fill-24"></path>
            </g>
        </g>
    </g>
</svg>