<svg width="215" height="76" viewBox="0 0 215 76" fill="none" xmlns="http://www.w3.org/2000/svg">
<path fill-rule="evenodd" clip-rule="evenodd" d="M145.231 64.4258V67.9551H138.968V53.1094H142.156V50.6299H133.398V53.1094H136.075V67.9551H133.398V70.4314H147.802L147.912 64.4258H145.231Z" fill="white"/>
<path fill-rule="evenodd" clip-rule="evenodd" d="M158.19 66.1779C158.19 66.7532 157.976 67.8087 156.542 68.4115L156.538 68.4134C155.962 68.672 155.078 68.7404 154.691 68.7404C152.452 68.7404 151.45 67.453 151.45 66.1779C151.45 64.63 152.651 63.7424 154.745 63.7424C156.805 63.7424 158.19 64.7213 158.19 66.1779ZM160.498 68.2174V63.0323C160.498 61.3197 160.498 59.1882 158.124 58.3415C157.02 57.9233 156.056 57.7451 154.897 57.7451C152.674 57.7451 151.078 58.3153 150.495 58.5612L150.302 58.6429L151.258 60.6729L151.437 60.5905C152.79 59.9666 154.071 59.7451 154.82 59.7451C157.814 59.7451 158.218 61.1103 158.218 62.4461C158.218 62.6364 158.209 62.8108 158.198 62.9813C157.24 62.1811 156.003 61.791 154.43 61.791C150.692 61.791 149.02 64.0151 149.02 66.22C149.02 68.8949 151.235 70.6912 154.532 70.6912C155.142 70.6912 157.052 70.5877 158.112 69.3687V70.2838H162.631V68.2174H160.498Z" fill="white"/>
<path fill-rule="evenodd" clip-rule="evenodd" d="M174.601 67.9099V57.6943H169.88V59.6936H172.169V65.9317C171.267 67.0536 169.742 68.1666 168.32 68.1666C167.737 68.1666 167.282 67.9904 166.965 67.6424C166.571 67.2107 166.395 66.5038 166.468 65.6347V57.6943H161.954V59.6936H164.01L164.038 66.8007C164.038 68.5574 165.329 70.3351 167.795 70.3351C169.549 70.3351 171.291 69.1864 172.141 68.4054V69.9667H176.995V67.9099H174.601Z" fill="white"/>
<path fill-rule="evenodd" clip-rule="evenodd" d="M187.304 58.0625C186.806 57.8869 186.284 57.7969 185.753 57.7969C184.396 57.7969 183.258 58.4035 182.364 59.6008V58.0025H177.692V59.9539H180.007V68.1695H177.692V70.227H182.446L184.889 70.2863V68.2245H182.441V62.5381C183.434 60.8377 184.348 60.111 185.493 60.111C185.964 60.111 186.382 60.194 186.736 60.3581L186.962 60.4628L187.471 58.1219L187.304 58.0625Z" fill="white"/>
<path fill-rule="evenodd" clip-rule="evenodd" d="M196.852 62.8734H192.574L191.661 62.8492L189.603 62.8658C190.162 60.8135 191.935 59.7426 193.459 59.7426C195.231 59.7426 196.372 60.7956 196.852 62.8734ZM199.479 65.0381L199.485 64.8395C199.549 62.6052 198.906 60.7209 197.626 59.3901C196.503 58.2248 194.967 57.583 193.3 57.583C189.773 57.583 187.01 60.4871 187.01 64.1933C187.01 68.3107 190.345 70.5316 193.483 70.5316C195.96 70.5316 197.862 69.4148 199.298 67.1173L199.421 66.9212L197.485 66.033L197.394 66.192C197.102 66.7047 195.976 68.3752 193.767 68.3752C191.716 68.3752 190.011 66.9927 189.541 64.9845H192.312L199.479 65.0381Z" fill="white"/>
<path fill-rule="evenodd" clip-rule="evenodd" d="M212.658 68.424V62.0691C212.658 61.0813 212.658 59.7288 211.382 58.7723C210.739 58.2793 209.914 57.9971 209.118 57.9971C208.695 57.9971 206.578 58.0941 204.554 59.9204V58.151H199.985V60.1107H202.145V68.424H200.037V70.4323H206.856V68.424H204.578V62.3022C205.146 61.6496 206.535 60.1107 208.384 60.1107C210.226 60.1107 210.226 61.5794 210.226 62.6521V68.424H208.055V70.4323H215V68.424H212.658Z" fill="white"/>
<path fill-rule="evenodd" clip-rule="evenodd" d="M63.98 54.0595V53.0251H67.0147C69.543 53.0251 70.8249 54.0436 70.8249 56.0524C70.8249 57.6744 69.7956 58.3864 69.4759 58.569C68.5903 59.1047 67.6478 59.1047 65.7702 59.1047H64.006V55.2964L63.98 54.0595ZM73.1297 67.973L73.1082 66.2987C73.1082 64.9494 73.1082 62.4367 72.089 61.3167C71.6548 60.8723 71.1395 60.629 70.7084 60.5089C73.0234 59.9904 73.6652 57.4336 73.6652 55.8922C73.6652 53.6157 72.4467 52.1049 71.3047 51.4504C70.1393 50.7882 69.3658 50.702 67.9744 50.596L64.3997 50.5449H58.6253V52.9976H61.1758V67.973H58.5988V70.4525H66.5033V67.973H63.9547V61.5644C64.4054 61.53 64.853 61.53 65.2879 61.53C69.1271 61.53 70.3685 62.0165 70.3685 67.8057V70.4525H75.7593V67.973H73.1297Z" fill="white"/>
<path fill-rule="evenodd" clip-rule="evenodd" d="M84.2605 68.3262L84.2579 68.3275C83.6756 68.5842 82.7938 68.6525 82.4089 68.6525C80.1699 68.6525 79.1678 67.362 79.1678 66.0836C79.1678 64.5376 80.368 63.6513 82.4614 63.6513C84.5244 63.6513 85.9107 64.629 85.9107 66.0836C85.9107 66.6602 85.6968 67.7176 84.2605 68.3262ZM88.2149 68.1289V62.9413C88.2149 61.2287 88.2149 59.0965 85.8436 58.2562C84.7517 57.8367 83.787 57.6572 82.6171 57.6572C80.418 57.6572 78.807 58.2236 78.2164 58.4669L78.0202 58.548L78.9792 60.5786L79.1583 60.4962C80.4997 59.8788 81.7841 59.6597 82.5393 59.6597C85.5316 59.6597 85.9348 61.0224 85.9348 62.3551C85.9348 62.5466 85.9272 62.7216 85.9164 62.8915C84.953 62.0901 83.7161 61.6999 82.1481 61.6999C78.4107 61.6999 76.7377 63.9227 76.7377 66.1264C76.7377 68.8038 78.9545 70.6026 82.2532 70.6026C82.8621 70.6026 84.7681 70.4992 85.8297 69.2795V70.1927H90.3488V68.1289H88.2149Z" fill="white"/>
<path fill-rule="evenodd" clip-rule="evenodd" d="M95.7104 68.1296V50.3369H91.1154V52.3477H93.3303V68.1296H91.1407V70.1385H98.0533V68.1296H95.7104Z" fill="white"/>
<path fill-rule="evenodd" clip-rule="evenodd" d="M110.035 64.0566C110.035 66.858 108.062 68.3688 106.206 68.3688C104.88 68.3688 104.201 67.7717 103.484 67.1402L103.48 67.137C102.697 66.4544 102.3 65.3918 102.3 63.9781C102.3 61.397 104.396 59.7994 106.337 59.7994C108.652 59.7994 110.035 61.9641 110.035 64.0566ZM106.52 57.6309C104.396 57.6309 103.007 58.7886 102.327 59.5427V57.7879H97.8427V59.7451H99.9228V69.9377L99.8994 72.2608H97.8168V74.3265H104.665V72.2608H102.354V68.621C103.401 69.8138 104.936 70.5373 106.467 70.5373C109.86 70.5373 112.621 67.4882 112.621 63.7399C112.621 59.9667 109.454 57.6309 106.52 57.6309Z" fill="white"/>
<path fill-rule="evenodd" clip-rule="evenodd" d="M125.441 68.4237L125.419 62.7757C125.419 61.104 125.419 59.5248 123.814 58.5619C123.03 58.0689 122.319 58.0025 121.728 58.0025C119.793 58.0025 118.447 59.0497 117.363 60.0114V50.5244H112.822V52.5391H114.956V58.097L114.906 68.4237H112.795V70.432H119.659V68.4237H117.39V62.2374C118.271 61.1972 119.686 60.1078 121.075 60.1078C121.339 60.1078 121.958 60.1078 122.453 60.611C122.866 60.9878 122.882 61.1448 122.979 63.088L122.986 68.4237H120.824V70.432H127.784V68.4237H125.441Z" fill="white"/>
<path fill-rule="evenodd" clip-rule="evenodd" d="M32.7327 64.1624C32.7327 66.6694 31.0508 68.5595 28.8207 68.5595C28.1098 68.5595 26.3544 68.3475 25.4062 66.3852L25.4005 66.3756C25.0789 65.7946 24.9086 65.0934 24.9086 64.3495C24.9086 61.7666 26.9837 60.0316 28.922 60.0316C30.816 60.0316 32.7327 61.4505 32.7327 64.1624ZM29.129 57.8663C28.5156 57.8663 26.4855 58.0093 25.0397 59.7724L25.0631 50.3965H20.4579V52.4603H22.6177V68.3054L20.4515 68.2747L20.5186 70.3558L23.4919 70.3289H25.0384V68.9407C26.6311 70.5799 28.4953 70.767 29.2606 70.767C32.6004 70.767 35.3167 67.7338 35.3167 64.0053C35.3167 60.5048 32.6568 57.8663 29.129 57.8663Z" fill="white"/>
<path fill-rule="evenodd" clip-rule="evenodd" d="M44.7121 59.4707V61.5243H46.8739L44.1158 68.1257L40.9628 61.5243H43.1777V59.4707H36.5247V61.5243H38.2629L42.8631 70.9117C42.0395 72.918 40.5861 73.6325 39.5809 73.6325C39.1264 73.6325 38.7402 73.5993 38.3997 73.5304L38.1813 73.4863L37.9616 75.8809L38.1408 75.9147C38.4326 75.9709 38.7339 76.0003 39.0105 76.0003C43.077 76.0003 44.4412 72.812 45.6446 69.9985L49.2882 61.5243H51.1525V59.4707H44.7121Z" fill="white"/>
<path fill-rule="evenodd" clip-rule="evenodd" d="M0 44.5404H136.763V0H0V44.5404ZM3.73798 40.7704H133.026V3.7713H3.73798V40.7704Z" fill="white"/>
<path fill-rule="evenodd" clip-rule="evenodd" d="M93.3447 34.7725H77.5356V31.1282H82.0465V12.5981H77.5356V9.05664H88.7439V31.1282H93.3447V34.7725Z" fill="white"/>
<path fill-rule="evenodd" clip-rule="evenodd" d="M60.6602 31.9053C57.138 31.9053 54.5648 29.0504 54.5604 25.9981C54.5528 23.5326 56.8412 20.3117 60.795 20.3117C64.4779 20.3117 66.922 23.3123 66.9398 26.1826C66.9549 28.4642 65.1248 31.9053 60.6602 31.9053ZM60.638 16.5449C53.8166 16.5449 48.8651 20.504 48.8651 25.9591C48.8651 30.5446 53.0171 35.4186 60.7108 35.4186C64.6583 35.4186 68.031 34.199 70.208 31.9832C71.8317 30.3307 72.7147 28.1749 72.6945 25.9138C72.6514 20.6598 67.355 16.5449 60.638 16.5449Z" fill="white"/>
<path fill-rule="evenodd" clip-rule="evenodd" d="M110.506 31.9053C106.984 31.9053 104.41 29.0504 104.406 25.9981C104.398 23.5326 106.687 20.3117 110.641 20.3117C114.323 20.3117 116.768 23.3123 116.785 26.1826C116.8 28.4642 114.97 31.9053 110.506 31.9053ZM110.484 16.5449C103.662 16.5449 98.7107 20.504 98.7107 25.9591C98.7107 30.5446 102.863 35.4186 110.556 35.4186C114.504 35.4186 117.877 34.199 120.054 31.9832C121.677 30.3307 122.56 28.1749 122.54 25.9138C122.497 20.6598 117.201 16.5449 110.484 16.5449Z" fill="white"/>
<path fill-rule="evenodd" clip-rule="evenodd" d="M31.7889 21.5809H23.8452L23.8692 12.9157H31.8275C36.0719 12.9157 37.7222 14.0919 37.7032 17.3057C37.6772 21.895 35.2091 21.5809 31.7889 21.5809ZM37.2044 10.069C34.747 9.60352 33.155 9.60352 30.7881 9.60352H11.7159V12.9802H16.8573L16.8364 31.2741H11.6665V34.6789H29.3524L29.4018 34.4043L29.4138 31.3131H23.8724L23.8901 26.0648L29.6126 26.1433C35.6725 26.1433 38.0792 26.4543 40.7778 24.4997C42.756 23.1306 44.5006 21.0911 44.5248 17.9156C44.5607 12.6328 39.6637 10.5377 37.2044 10.069Z" fill="white"/>
</svg>
