<?xml version="1.0" encoding="UTF-8" standalone="no"?>
<!-- Created with Inkscape (http://www.inkscape.org/) -->

<svg
   xmlns:dc="http://purl.org/dc/elements/1.1/"
   xmlns:cc="http://creativecommons.org/ns#"
   xmlns:rdf="http://www.w3.org/1999/02/22-rdf-syntax-ns#"
   xmlns:svg="http://www.w3.org/2000/svg"
   xmlns="http://www.w3.org/2000/svg"
   xmlns:xlink="http://www.w3.org/1999/xlink"
   version="1.0"
   width="800"
   height="400"
   viewBox="0 0 216 275"
   id="svg2467"
   xml:space="preserve"><metadata
   id="metadata2490"><rdf:RDF><cc:Work
       rdf:about=""><dc:format>image/svg+xml</dc:format><dc:type
         rdf:resource="http://purl.org/dc/dcmitype/StillImage" /><dc:title></dc:title></cc:Work></rdf:RDF></metadata>
<defs
   id="defs2469"><linearGradient
   id="linearGradient3476"><stop
     id="stop3478"
     style="stop-color:#69baee;stop-opacity:1"
     offset="0" /><stop
     id="stop3480"
     style="stop-color:#69baee;stop-opacity:0"
     offset="1" /></linearGradient>
<linearGradient
   x1="-167"
   y1="206.24998"
   x2="383.00003"
   y2="206.24998"
   id="linearGradient3482"
   xlink:href="#linearGradient3476"
   gradientUnits="userSpaceOnUse"
   gradientTransform="matrix(0.1250975,0,0,4.0125135,-219.76054,-719.58083)" /><linearGradient
   x1="-167"
   y1="206.24998"
   x2="383.00003"
   y2="206.24998"
   id="linearGradient3486"
   xlink:href="#linearGradient3476"
   gradientUnits="userSpaceOnUse"
   gradientTransform="matrix(0.1250975,0,0,4.0125135,55.239457,-719.58083)" /></defs>









<rect
   width="550"
   height="275"
   x="-167"
   y="-2.3536728e-014"
   id="rect3398"
   style="fill:#ffffff;fill-opacity:1;stroke:none" /><rect
   width="550"
   height="35.75"
   x="-167"
   y="239.25"
   id="rect3394"
   style="fill:#69baee;fill-opacity:1;stroke:none" /><rect
   width="550"
   height="35.75"
   x="-167"
   y="-2.6562086e-014"
   id="rect3396"
   style="fill:#69baee;fill-opacity:1;stroke:none" /><rect
   width="68.75"
   height="550"
   x="-240.625"
   y="-167"
   transform="matrix(0,-1,1,0,0,0)"
   id="rect3454"
   style="fill:url(#linearGradient3482);fill-opacity:1;stroke:none" /><rect
   width="68.75"
   height="550"
   x="34.375"
   y="-167"
   transform="matrix(0,1,1,0,0,0)"
   id="rect3484"
   style="fill:url(#linearGradient3486);fill-opacity:1;stroke:none" /><g
   transform="scale(0.8117016,1.2319798)"
   id="text3456"
   style="font-size:136.9727478px;font-style:normal;font-weight:bold;fill:#000000;fill-opacity:1;stroke:none;font-family:Bitstream Vera Sans"><path
     d="M 7.6565603,163.13164 45.31069,65.083762 l 13.978176,0 40.128734,98.047878 -14.78075,0 -11.43669,-29.69527 -40.99819,0 -10.767877,29.69527 z m 28.2907577,-40.2625 33.239969,0 L 58.954459,95.715363 C 55.833288,87.466755 53.514741,80.689464 51.998812,75.383471 50.75032,81.670388 48.989116,87.912629 46.715195,94.110214 z"
     id="path3009" /><path
     d="m 188.36963,163.13164 -12.03862,0 0,-76.712767 c -2.89822,2.764498 -6.6993,5.528919 -11.40325,8.293272 -4.704,2.764489 -8.92866,4.837805 -12.67399,6.219955 l 0,-11.637334 c 6.73269,-3.165635 12.61823,-7.000154 17.65665,-11.503571 5.03834,-4.503246 8.60534,-8.872815 10.70099,-13.10872 l 7.75822,0 z"
     id="path3011" /><path
     d="m 282.5384,151.56119 0,11.57045 -64.80791,0 c -0.0892,-2.89819 0.37899,-5.6849 1.40451,-8.36016 1.64973,-4.41414 4.29154,-8.76142 7.92542,-13.04183 3.63387,-4.28038 8.88404,-9.22958 15.75053,-14.84764 10.65637,-8.7391 17.85724,-15.6613 21.60264,-20.76662 3.74529,-5.1052 5.61797,-9.931791 5.61802,-14.479781 -5e-5,-4.770785 -1.70552,-8.794801 -5.11641,-12.072061 -3.41099,-3.277094 -7.85859,-4.915682 -13.34281,-4.91577 -5.7964,8.8e-5 -10.4335,1.738998 -13.91129,5.216735 -3.47785,3.477904 -5.23905,8.293347 -5.28362,14.446345 l -12.37302,-1.270744 c 0.84715,-9.229529 4.03515,-16.263198 9.56401,-21.101026 5.52883,-4.837646 12.95264,-7.256514 22.27145,-7.256613 9.40791,9.9e-5 16.85401,2.608464 22.33833,7.825103 5.48419,5.216821 8.22632,11.682 8.22639,19.395555 -7e-5,3.923766 -0.80264,7.78058 -2.40773,11.570457 -1.60521,3.78999 -4.26931,7.78056 -7.9923,11.97173 -3.72311,4.19127 -9.90962,9.94305 -18.55954,17.25536 -7.22321,6.06392 -11.8603,10.17711 -13.9113,12.33959 -2.05104,2.16251 -3.74537,4.33614 -5.08297,6.52092 z"
     id="path3013" /><path
     d="m 295.58024,137.2486 12.03862,-1.60515 c 1.38219,6.82191 3.73418,11.73767 7.05597,14.74731 3.32174,3.00967 7.36805,4.5145 12.13894,4.51449 5.66257,1e-5 10.44457,-1.96184 14.34603,-5.88555 3.90135,-3.92368 5.85205,-8.78371 5.8521,-14.58011 -5e-5,-5.52881 -1.80585,-10.08788 -5.41738,-13.67721 -3.61163,-3.58924 -8.20414,-5.38389 -13.77753,-5.38394 -2.274,5e-5 -5.1053,0.44593 -8.49391,1.33763 l 1.33762,-10.56724 c 0.80254,0.0892 1.44906,0.13382 1.93956,0.13377 5.12752,5e-5 9.74232,-1.33757 13.84441,-4.01288 4.102,-2.675182 6.15302,-6.79952 6.15307,-12.373023 -5e-5,-4.414083 -1.49373,-8.070253 -4.48104,-10.968521 -2.98741,-2.898099 -6.84422,-4.347191 -11.57045,-4.34728 -4.68172,8.9e-5 -8.58312,1.471474 -11.70422,4.414161 -3.12114,2.942855 -5.12758,7.357012 -6.01931,13.242483 l -12.03862,-2.1402 c 1.47138,-8.070253 4.81544,-14.323641 10.03219,-18.760183 5.21671,-4.436358 11.70418,-6.654583 19.46243,-6.654682 5.35046,9.9e-5 10.27737,1.148225 14.78075,3.444383 4.50328,2.296348 7.94766,5.428616 10.33315,9.396812 2.38537,3.968368 3.57808,8.181881 3.57815,12.640552 -7e-5,4.235879 -1.13705,8.092693 -3.41094,11.570448 -2.27402,3.47789 -5.64038,6.24231 -10.09907,8.29328 5.79632,1.33767 10.29965,4.11324 13.51001,8.32671 3.21023,4.21356 4.81538,9.48602 4.81545,15.81741 -7e-5,8.56081 -3.12119,15.81742 -9.36337,21.76984 -6.24231,5.95243 -14.13428,8.92864 -23.67596,8.92864 -8.60541,0 -15.75055,-2.56378 -21.43543,-7.69134 -5.68491,-5.12755 -8.92865,-11.77108 -9.73122,-19.93061 z"
     id="path3015" /></g>

<g
   transform="scale(1.0203673,0.9800392)"
   id="text3460"
   style="font-size:43.42235565px;font-style:normal;font-weight:bold;fill:#000088;fill-opacity:1;stroke:none;font-family:Bitstream Vera Sans"><path
     d="m 28.325431,51.434151 11.936907,-31.082604 4.431286,0 12.721393,31.082604 -4.685713,0 -3.625597,-9.413831 -12.997024,0 -3.413574,9.413831 z m 8.968582,-12.763798 10.537554,0 -3.243955,-8.608143 c -0.989457,-2.614929 -1.72447,-4.763429 -2.205041,-6.445506 -0.395791,1.993044 -0.954118,3.971926 -1.674984,5.93665 z"
     id="path3018" /><path
     d="m 60.256128,51.434151 0,-22.516866 3.434776,0 0,3.20155 c 1.653773,-2.473582 4.042565,-3.710383 7.166385,-3.710406 1.356933,2.3e-5 2.604335,0.243849 3.742209,0.73148 1.13784,0.487675 1.989466,1.127278 2.55488,1.91881 0.565375,0.791573 0.961151,1.731542 1.18733,2.819909 0.141328,0.706761 0.212002,1.943562 0.212024,3.710406 l 0,13.845117 -3.816418,0 0,-13.6967 c -1.8e-5,-1.554822 -0.148434,-2.717415 -0.445249,-3.487782 -0.296849,-0.770333 -0.823373,-1.3852 -1.579573,-1.844602 -0.756231,-0.459365 -1.643194,-0.689056 -2.660892,-0.689076 -1.625522,2e-5 -3.028408,0.515943 -4.208661,1.54777 -1.180269,1.031863 -1.7704,2.989542 -1.770393,5.873043 l 0,12.297347 z"
     id="path3020" /><path
     d="m 83.727098,53.299955 3.710406,0.55126 c 0.155478,1.144922 0.586591,1.978879 1.293342,2.501874 0.947029,0.706739 2.240369,1.060111 3.880025,1.060117 1.766847,-6e-6 3.130862,-0.353378 4.092048,-1.060117 0.961156,-0.706748 1.611359,-1.696189 1.950613,-2.968325 0.197871,-0.777419 0.289748,-2.409996 0.275631,-4.897736 -1.667932,1.964749 -3.745758,2.947123 -6.233483,2.947123 -3.095547,0 -5.491407,-1.116655 -7.187587,-3.349967 -1.696188,-2.233306 -2.54428,-4.911863 -2.544279,-8.03568 -10e-7,-2.148489 0.388707,-4.130904 1.166128,-5.947252 0.777415,-1.816313 1.904671,-3.219198 3.38177,-4.208661 1.477088,-0.989419 3.212143,-1.484139 5.20517,-1.484162 2.657344,2.3e-5 4.848248,1.074273 6.57272,3.222753 l 0,-2.713897 3.519588,0 0,19.463731 c -2e-5,3.50545 -0.35693,5.989653 -1.07072,7.452617 -0.71383,1.462954 -1.84462,2.618479 -3.392371,3.466579 -1.547785,0.848084 -3.452458,1.27213 -5.714026,1.27214 -2.685636,-1e-5 -4.855338,-0.604275 -6.509113,-1.812799 -1.653784,-1.208538 -2.452404,-3.028403 -2.395862,-5.459598 z m 3.159146,-13.527081 c -6e-6,2.954198 0.586591,5.109766 1.759792,6.466708 1.173187,1.356952 2.643213,2.035426 4.410083,2.035423 1.752712,3e-6 3.222739,-0.674937 4.410083,-2.024822 1.187313,-1.349875 1.780978,-3.466571 1.780995,-6.350096 -1.7e-5,-2.756287 -0.61135,-4.834113 -1.834,-6.233482 -1.222682,-1.399334 -2.696242,-2.09901 -4.420685,-2.09903 -1.696195,2e-5 -3.137952,0.689095 -4.325273,2.067226 -1.187336,1.378168 -1.781001,3.42419 -1.780995,6.138073 z"
     id="path3022" /><path
     d="m 123.35424,51.434151 0,-3.307563 c -1.75274,2.54428 -4.13447,3.816418 -7.14519,3.816418 -1.32868,0 -2.56902,-0.254428 -3.721,-0.763283 -1.152,-0.508855 -2.00716,-1.148458 -2.56548,-1.91881 -0.55834,-0.770348 -0.95058,-1.713851 -1.17673,-2.83051 -0.15549,-0.749143 -0.23323,-1.936472 -0.23323,-3.56199 l 0,-13.951128 3.81642,0 0,12.488167 c -1e-5,1.993027 0.0777,3.335839 0.23323,4.028442 0.24028,1.003581 0.74914,1.7916 1.52656,2.364058 0.77741,0.572466 1.73858,0.858697 2.88352,0.858695 1.14491,2e-6 2.21916,-0.293296 3.22275,-0.879897 1.00356,-0.586593 1.71384,-1.385213 2.13083,-2.395862 0.41697,-1.010637 0.62546,-2.47713 0.62547,-4.399482 l 0,-12.064121 3.81642,0 0,22.516866 z"
     id="path3024" /><path
     d="m 132.78927,24.740427 0,-4.38888 3.81642,0 0,4.38888 z m 0,26.693724 0,-22.516866 3.81642,0 0,22.516866 z"
     id="path3026" /><path
     d="m 142.35152,51.434151 0,-31.082604 3.81641,0 0,31.082604 z"
     id="path3028" /><path
     d="m 152.01978,51.434151 0,-31.082604 3.81641,0 0,31.082604 z"
     id="path3030" /><path
     d="m 176.46605,48.656647 c -1.41351,1.201466 -2.77399,2.049558 -4.08145,2.544278 -1.30749,0.494721 -2.71038,0.742081 -4.20866,0.742081 -2.47361,0 -4.37475,-0.604266 -5.70343,-1.812798 -1.32868,-1.20853 -1.99302,-2.752764 -1.99302,-4.632707 0,-1.102514 0.2509,-2.109623 0.75269,-3.021331 0.50178,-0.91169 1.15905,-1.64317 1.97181,-2.194441 0.81275,-0.551248 1.72799,-0.968227 2.7457,-1.250937 0.74914,-0.197875 1.87993,-0.388696 3.39237,-0.572462 3.0814,-0.367494 5.35004,-0.805675 6.80595,-1.314544 0.0141,-0.522976 0.0212,-0.855146 0.0212,-0.99651 -1e-5,-1.55482 -0.36045,-2.650272 -1.08132,-3.286359 -0.97532,-0.862209 -2.42414,-1.293322 -4.34647,-1.293342 -1.79514,2e-5 -3.12029,0.314521 -3.97544,0.943503 -0.85516,0.629021 -1.4877,1.742142 -1.89761,3.339366 l -3.7316,-0.508856 c 0.33923,-1.597224 0.89756,-2.88703 1.67498,-3.869424 0.77741,-0.982353 1.90114,-1.738568 3.37117,-2.268648 1.47002,-0.530035 3.17327,-0.795064 5.10976,-0.795087 1.92233,2.3e-5 3.48423,0.226181 4.68571,0.678474 1.20145,0.452338 2.08488,1.021267 2.65029,1.706787 0.56538,0.685562 0.96115,1.551322 1.18733,2.597285 0.12719,0.650222 0.1908,1.823416 0.19082,3.519585 l 0,5.088557 c -2e-5,3.547861 0.0813,5.791772 0.24383,6.731738 0.16253,0.939971 0.4841,1.841069 0.96471,2.703296 l -3.98604,0 c -0.3958,-0.791553 -0.65022,-1.717387 -0.76328,-2.777504 z m -0.31804,-8.523334 c -1.38523,0.565406 -3.46306,1.045991 -6.23348,1.441758 -1.56898,0.226168 -2.67857,0.480595 -3.32877,0.763284 -0.65021,0.282706 -1.152,0.696151 -1.50536,1.240335 -0.35338,0.544201 -0.53007,1.148466 -0.53006,1.812799 -1e-5,1.017716 0.38517,1.865808 1.15553,2.544279 0.77034,0.678477 1.8976,1.017713 3.38177,1.017711 1.47001,2e-6 2.77749,-0.321566 3.92243,-0.964706 1.14491,-0.643133 1.98593,-1.523028 2.52307,-2.639689 0.4099,-0.862221 0.61485,-2.134359 0.61487,-3.816418 z"
     id="path3032" /></g>

<g
   transform="scale(1.0101076,0.9899936)"
   id="text3472"
   style="font-size:28.68242836px;font-style:normal;font-weight:bold;fill:#000088;fill-opacity:1;stroke:none;font-family:Bitstream Vera Sans"><path
     d="m 20.987091,250.45615 0,-20.53147 9.10331,0 c 1.829985,2e-5 3.221156,0.18442 4.173517,0.5532 0.95233,0.36882 1.713273,1.02006 2.28283,1.95371 0.569522,0.93369 0.854292,1.9654 0.854311,3.09513 -1.9e-5,1.45654 -0.471523,2.68432 -1.414514,3.68334 -0.943026,0.99904 -2.399554,1.63393 -4.369589,1.90469 0.718914,0.34547 1.265112,0.68626 1.638596,1.02237 0.793606,0.72827 1.545212,1.6386 2.254819,2.73099 l 3.571299,5.58804 -3.417243,0 -2.716987,-4.27156 c -0.793636,-1.23244 -1.447206,-2.17545 -1.960713,-2.82903 -0.513532,-0.65356 -0.973366,-1.11106 -1.379502,-1.37249 -0.406158,-0.26142 -0.819308,-0.44349 -1.239451,-0.5462 -0.308121,-0.0653 -0.812304,-0.098 -1.512549,-0.098 l -3.151146,0 0,9.11732 z m 2.716988,-11.47017 5.840123,0 c 1.241773,10e-6 2.212792,-0.12837 2.913059,-0.38514 0.700241,-0.25675 1.232433,-0.66757 1.596581,-1.23245 0.364117,-0.56486 0.546183,-1.17875 0.546198,-1.84167 -1.5e-5,-0.97101 -0.352477,-1.7693 -1.057384,-2.39487 -0.704937,-0.62555 -1.818341,-0.93833 -3.340214,-0.93834 l -6.498363,0 z"
     id="path3035" /><path
     d="m 51.056023,248.62148 c -0.933684,0.79362 -1.832343,1.35383 -2.695981,1.68061 -0.863655,0.32679 -1.790324,0.49018 -2.78001,0.49018 -1.633932,0 -2.889721,-0.39915 -3.76737,-1.19744 -0.877654,-0.79829 -1.31648,-1.81832 -1.316479,-3.06011 -1e-6,-0.72826 0.165726,-1.3935 0.497181,-1.99573 0.331452,-0.60221 0.765609,-1.08538 1.302474,-1.44952 0.536858,-0.36413 1.141411,-0.63956 1.813659,-0.8263 0.494841,-0.13071 1.241779,-0.25675 2.240815,-0.37814 2.035397,-0.24275 3.533941,-0.53218 4.495634,-0.86832 0.0093,-0.34544 0.01399,-0.56486 0.01401,-0.65824 -1.1e-5,-1.02702 -0.238097,-1.75062 -0.714259,-2.17078 -0.644245,-0.56953 -1.601258,-0.8543 -2.871044,-0.85431 -1.185771,1e-5 -2.061089,0.20775 -2.625955,0.62322 -0.564877,0.4155 -0.982695,1.15076 -1.253456,2.2058 l -2.464896,-0.33612 c 0.22408,-1.05504 0.59288,-1.90701 1.106402,-2.55593 0.513517,-0.64889 1.255786,-1.1484 2.22681,-1.49854 0.971014,-0.35011 2.096089,-0.52518 3.375227,-0.52519 1.269786,1e-5 2.301493,0.1494 3.095125,0.44816 0.79361,0.29879 1.377155,0.67459 1.750637,1.12741 0.373456,0.45284 0.634884,1.02472 0.784285,1.71562 0.08402,0.4295 0.126032,1.20445 0.126046,2.32485 l 0,3.36122 c -1.4e-5,2.34352 0.05367,3.82573 0.161059,4.44662 0.107358,0.62089 0.319768,1.21611 0.637231,1.78565 l -2.632957,0 c -0.26144,-0.52286 -0.429501,-1.13442 -0.504183,-1.83467 z m -0.210077,-5.63005 c -0.91501,0.37348 -2.287507,0.69093 -4.117497,0.95235 -1.036383,0.14939 -1.769315,0.31745 -2.198799,0.50418 -0.429494,0.18674 -0.760948,0.45984 -0.994362,0.8193 -0.233422,0.35947 -0.350131,0.75861 -0.350127,1.19744 -4e-6,0.67224 0.254422,1.23245 0.763277,1.68061 0.508847,0.44816 1.25345,0.67224 2.233813,0.67224 0.971012,0 1.834658,-0.21241 2.590942,-0.63723 0.756265,-0.42482 1.311799,-1.00603 1.666606,-1.74364 0.270753,-0.56953 0.406136,-1.40984 0.406147,-2.52091 z"
     id="path3037" /><path
     d="m 57.330304,232.82374 0,-2.89906 2.520917,0 0,2.89906 z m 0,17.63241 0,-14.87341 2.520917,0 0,14.87341 z"
     id="path3039" /><path
     d="m 63.702621,250.45615 0,-14.87341 2.268825,0 0,2.11477 c 1.092392,-1.63392 2.670297,-2.45088 4.733721,-2.45089 0.896316,1e-5 1.720281,0.16107 2.471899,0.48317 0.751594,0.32213 1.314131,0.74462 1.687613,1.26746 0.373456,0.52287 0.634884,1.14376 0.784285,1.86268 0.09335,0.46685 0.140037,1.28381 0.140051,2.45089 l 0,9.14533 -2.520916,0 0,-9.04729 c -1.2e-5,-1.02703 -0.09805,-1.79498 -0.294107,-2.30384 -0.196082,-0.50884 -0.543875,-0.91499 -1.04338,-1.21844 -0.499524,-0.30343 -1.085403,-0.45516 -1.757639,-0.45517 -1.073731,1e-5 -2.0004,0.3408 -2.78001,1.02237 -0.779622,0.68159 -1.16943,1.97473 -1.169426,3.87941 l 0,8.12296 z"
     id="path3041" /><path
     d="m 81.993271,250.45615 -2.33885,0 0,-20.53147 2.520916,0 0,7.32466 c 1.064382,-1.33513 2.422875,-2.00271 4.075482,-2.00272 0.91499,1e-5 1.780971,0.18441 2.597945,0.5532 0.816952,0.36881 1.489195,0.887 2.016733,1.55456 0.527512,0.66759 0.940661,1.47288 1.239451,2.41588 0.29876,0.94302 0.448148,1.95139 0.448163,3.0251 -1.5e-5,2.54893 -0.630244,4.51898 -1.890688,5.91015 -1.26047,1.39117 -2.773018,2.08676 -4.53765,2.08676 -1.755311,0 -3.132477,-0.73293 -4.131502,-2.1988 z m -0.02801,-7.54875 c -4e-6,1.78332 0.242751,3.07179 0.728265,3.86541 0.793616,1.2978 1.867339,1.94671 3.221171,1.9467 1.101725,10e-6 2.05407,-0.4785 2.857039,-1.43552 0.802947,-0.95701 1.204425,-2.38319 1.204438,-4.27855 -1.3e-5,-1.94203 -0.385152,-3.37522 -1.15542,-4.29957 -0.770291,-0.92432 -1.701628,-1.38649 -2.794016,-1.3865 -1.101741,1e-5 -2.054087,0.47852 -2.857039,1.43552 -0.802963,0.95703 -1.204442,2.3412 -1.204438,4.15251 z"
     id="path3043" /><path
     d="m 94.695894,243.01944 c -10e-7,-2.75432 0.76561,-4.7944 2.296835,-6.12022 1.279127,-1.10172 2.838359,-1.65259 4.677701,-1.6526 2.04473,1e-5 3.71601,0.66992 5.01382,2.00973 1.29779,1.33983 1.9467,3.19083 1.94671,5.55302 -1e-5,1.91403 -0.28712,3.41958 -0.86131,4.51664 -0.57423,1.09707 -1.40986,1.94904 -2.50691,2.55593 -1.09708,0.60688 -2.29451,0.91033 -3.59231,0.91033 -2.082097,0 -3.76504,-0.66758 -5.048836,-2.00273 -1.283802,-1.33515 -1.925701,-3.25851 -1.9257,-5.7701 z m 2.590942,0 c -4e-6,1.9047 0.41548,3.33088 1.246453,4.27856 0.830963,0.94768 1.876671,1.42152 3.137141,1.42151 1.25111,10e-6 2.29216,-0.47617 3.12314,-1.42851 0.83095,-0.95235 1.24644,-2.40421 1.24645,-4.35559 -1e-5,-1.83932 -0.41783,-3.23283 -1.25346,-4.18052 -0.83564,-0.94766 -1.87435,-1.4215 -3.11613,-1.42151 -1.26047,1e-5 -2.306178,0.47151 -3.137141,1.41451 -0.830973,0.94302 -1.246457,2.36687 -1.246453,4.27155 z"
     id="path3045" /><path
     d="m 114.34504,250.45615 -4.55166,-14.87341 2.60495,0 2.36686,8.58512 0.88232,3.19316 c 0.0373,-0.15872 0.2941,-1.18109 0.77028,-3.06711 l 2.36686,-8.71117 2.59094,0 2.22681,8.62714 0.74227,2.84303 0.85431,-2.87104 2.54893,-8.59913 2.45089,0 -4.64969,14.87341 -2.61895,0 -2.36686,-8.90724 -0.57421,-2.53492 -3.01109,11.44216 z"
     id="path3047" /><path
     d="m 155.25391,243.25753 2.71699,0.68625 c -0.56956,2.23148 -1.59427,3.9331 -3.07412,5.10485 -1.47989,1.17176 -3.28888,1.75764 -5.42697,1.75764 -2.21282,0 -4.01247,-0.45049 -5.39897,-1.35149 -1.3865,-0.90099 -2.44155,-2.2058 -3.16515,-3.91442 -0.7236,-1.70862 -1.08539,-3.54328 -1.08539,-5.504 0,-2.1381 0.40848,-4.00311 1.22544,-5.59504 0.81696,-1.59189 1.97939,-2.801 3.48727,-3.62732 1.50788,-0.82628 3.16748,-1.23943 4.97881,-1.23945 2.05407,2e-5 3.78136,0.52288 5.18189,1.56857 1.40049,1.04574 2.37617,2.51627 2.92706,4.41161 l -2.67497,0.63023 c -0.47619,-1.49386 -1.16711,-2.58159 -2.07276,-3.26319 -0.90567,-0.68156 -2.04475,-1.02235 -3.41724,-1.02237 -1.57791,2e-5 -2.89673,0.37816 -3.95644,1.13441 -1.05972,0.75629 -1.80432,1.77166 -2.23381,3.04611 -0.42949,1.27448 -0.64424,2.58862 -0.64423,3.94243 -1e-5,1.74598 0.25442,3.2702 0.76327,4.57267 0.50885,1.30247 1.30014,2.27583 2.37387,2.92006 1.07371,0.64423 2.23613,0.96635 3.48727,0.96635 1.52187,0 2.81034,-0.43883 3.8654,-1.31648 1.05504,-0.87765 1.76929,-2.18012 2.14278,-3.90742 z"
     id="path3049" /><path
     d="m 161.024,232.82374 0,-2.89906 2.52092,0 0,2.89906 z m 0,17.63241 0,-14.87341 2.52092,0 0,14.87341 z"
     id="path3051" /><path
     d="m 172.90032,248.20133 0.36413,2.22681 c -0.7096,0.14938 -1.34449,0.22408 -1.90469,0.22408 -0.915,0 -1.62459,-0.14472 -2.12877,-0.43416 -0.50419,-0.28944 -0.85898,-0.66991 -1.06439,-1.14142 -0.20541,-0.4715 -0.30811,-1.46352 -0.30811,-2.97608 l 0,-8.55711 -1.84867,0 0,-1.96071 1.84867,0 0,-3.68334 2.50691,-1.51255 0,5.19589 2.53492,0 0,1.96071 -2.53492,0 0,8.69716 c -1e-5,0.71894 0.0443,1.1811 0.13305,1.38651 0.0887,0.20541 0.23341,0.3688 0.43416,0.49018 0.20073,0.12138 0.48783,0.18206 0.86131,0.18206 0.28009,0 0.64889,-0.0327 1.1064,-0.098 z"
     id="path3053" /><path
     d="m 175.23917,256.18423 -0.2801,-2.36686 c 0.55087,0.14938 1.03171,0.22408 1.44253,0.22408 0.5602,0 1.00836,-0.0934 1.34449,-0.2801 0.33611,-0.18674 0.61155,-0.44817 0.8263,-0.78429 0.15872,-0.25209 0.41547,-0.87765 0.77028,-1.87668 0.0467,-0.14005 0.12137,-0.34546 0.22408,-0.61622 l -5.64405,-14.90142 2.71698,0 3.09513,8.61313 c 0.40147,1.0924 0.76093,2.24082 1.07839,3.44525 0.28943,-1.15775 0.63489,-2.28749 1.03638,-3.38923 l 3.17915,-8.66915 2.52092,0 -5.65806,15.1255 c -0.60689,1.63392 -1.0784,2.759 -1.41451,3.37523 -0.44817,0.83096 -0.96169,1.44018 -1.54056,1.82766 -0.57888,0.38747 -1.2698,0.5812 -2.07276,0.58121 -0.48551,-1e-5 -1.02704,-0.10271 -1.62459,-0.30811 z"
     id="path3055" /></g>

<g
   transform="matrix(0.4341023,0,0,0.4341023,-136.42225,77.56692)"
   id="g2583"><path
     d="M 107.885,1.73 C 69.242,23.948 27.583,23.226 1.5,5.35 c 0,67.634 0,112.074 0,138.161 0,47.827 29.102,101.446 106.385,129.466 77.281,-28.02 106.385,-81.639 106.385,-129.466 0,-26.087 0,-70.527 0,-138.161 -26.083,17.876 -67.74,18.598 -106.385,-3.62 z"
     id="path2595"
     style="fill:none;stroke:#000000;stroke-width:3" /><path
     d="M 107.885,1.73 C 69.242,23.948 27.583,23.226 1.5,5.35 c 0,67.634 0,112.074 0,138.161 0,47.827 29.102,101.446 106.385,129.466 77.281,-28.02 106.385,-81.639 106.385,-129.466 0,-26.087 0,-70.527 0,-138.161 -26.083,17.876 -67.74,18.598 -106.385,-3.62 z"
     id="path2473"
     style="fill:#ffffff" /><path
     d="m 10.767,189.468 c 13.86,33.12 44.19,64.318 97.118,83.509 52.933,-19.19 83.258,-50.389 97.121,-83.509 l -194.239,0 0,0 z"
     id="path2598"
     style="fill:#0073bd" /><path
     d="M 177.803,65.374 C 165.365,53.901 150.755,59.095 139.159,49.071 129.175,40.433 114.528,36.992 103.415,37.958 c 0.728,-1.448 1.692,-3.138 2.417,-4.586 -52.65,12.559 -58.443,82.121 -10.385,90.093 0.603,-7.368 -5.314,-11.837 -5.557,-19.083 2.295,0.481 4.952,1.451 6.764,2.66 -0.724,-8.215 -7.966,-9.896 -7.729,-20.05 0.482,-20.531 10.906,-33.256 29.706,-34.782 8.938,-0.724 21.095,2.828 24.878,10.388 1.447,2.9 4.344,6.883 6.517,9.055 2.056,2.056 2.114,1.331 2.419,-1.569 0.637,-6.124 11.557,-8.859 24.392,-2.896 3.379,1.568 3.487,0.513 0.966,-1.814 z"
     id="path2600"
     style="fill:#e77329" /><path
     d="m 131.674,103.898 c -3.861,2.295 -8.815,10.989 -16.664,11.836 0.121,-2.896 0,-7.609 -0.481,-9.417 -4.469,6.883 -5.559,15.697 -16.908,23.427 -12.74,8.676 -35.351,11.454 -46.852,-0.966 -6.04,-6.521 -9.904,-15.216 -6.525,-27.539 2.261,-8.209 9.302,-8.64 13.165,-12.075 1.087,-0.963 0.111,-1.129 -1.568,-1.328 C 48.714,86.991 46.64,77.109 52.7,62.235 c 1.328,-3.263 -0.482,-3.142 -4.345,3.744 -5.504,9.799 -5.438,19.038 -8.456,27.292 -7.246,19.806 -3.441,47.522 14.913,57.425 -0.905,1.33 -1.991,3.08 -3.141,4.408 41.602,9.903 83.142,-7.486 80.003,-51.206 z"
     id="path2602"
     style="fill:#e77329" /><path
     d="m 120.083,72.501 c 2.414,4.83 9.419,8.212 11.591,14.732 -1.931,0 -5.557,0.968 -7.487,2.175 5.193,2.416 7.971,2.78 12.798,6.644 l 1.207,0.604 c 15.456,16.421 22.185,32.696 16.426,47.338 -2.896,7.368 -8.927,15.604 -18.718,18.719 -13.283,4.228 -16.906,-6.643 -28.86,-4.709 -0.842,0.136 -0.188,0.825 0.966,1.33 7.489,3.259 4.887,11.57 -9.297,17.872 -1.088,0.481 -1.163,0.574 1.236,0.847 8.542,0.966 19.351,-1.828 24.966,-4.832 7.005,-3.745 15.604,-6.267 23.067,-9.783 14.61,-6.882 22.578,-19.08 24.875,-35.989 2.777,2.055 3.621,3.865 4.95,6.161 6.038,-27.293 -13.043,-62.319 -57.72,-61.109 z"
     id="path2604"
     style="fill:#e77329" /><circle
     cx="77.817001"
     cy="103.173"
     r="2.4679999"
     id="circle2606"
     style="fill:#ffffff" /><path
     d="m 123.943,118.579 c -1.357,0 -2.463,1.105 -2.463,2.466 0,1.365 1.105,2.472 2.463,2.472 1.364,0 2.468,-1.106 2.468,-2.472 0,-1.36 -1.103,-2.466 -2.468,-2.466 z"
     id="path2608"
     style="fill:#ffffff" /><path
     d="m 143.268,78.141 c -1.363,0 -2.471,1.101 -2.471,2.466 0,1.364 1.107,2.468 2.471,2.468 1.361,0 2.465,-1.104 2.465,-2.468 -0.001,-1.365 -1.104,-2.466 -2.465,-2.466 z"
     id="path2610"
     style="fill:#ffffff" /></g></svg>