<?xml version="1.0" encoding="utf-8"?>
<!-- Generator: Adobe Illustrator 15.0.0, SVG Export Plug-In . SVG Version: 6.00 Build 0)  -->
<!DOCTYPE svg PUBLIC "-//W3C//DTD SVG 1.1//EN" "http://www.w3.org/Graphics/SVG/1.1/DTD/svg11.dtd">
<svg version="1.1" id="Layer_1" xmlns="http://www.w3.org/2000/svg" xmlns:xlink="http://www.w3.org/1999/xlink" x="0px" y="0px"
	 width="1247.24px" height="396.85px" viewBox="0 0 1247.24 396.85" enable-background="new 0 0 1247.24 396.85"
	 xml:space="preserve">
<path fill="#231F20" d="M1218.896,0H28.344C12.754,0-0.002,12.755-0.002,28.346v340.157c0,15.591,12.756,28.347,28.346,28.347
	h1190.551c15.591,0,28.347-12.756,28.347-28.347V28.346C1247.242,12.755,1234.486,0,1218.896,0z M325.984,372.756h-42.52
	c-6.262,0-11.338-5.077-11.338-11.339s5.077-11.338,11.338-11.338h42.52c6.262,0,11.338,5.076,11.338,11.338
	S332.246,372.756,325.984,372.756z M325.984,46.771h-42.52c-6.262,0-11.338-5.077-11.338-11.339c0-6.262,5.077-11.338,11.338-11.338
	h42.52c6.262,0,11.338,5.077,11.338,11.338C337.322,41.695,332.246,46.771,325.984,46.771z M963.777,372.756h-42.521
	c-6.262,0-11.338-5.077-11.338-11.339s5.076-11.338,11.338-11.338h42.521c6.262,0,11.338,5.076,11.338,11.338
	S970.039,372.756,963.777,372.756z M963.777,46.771h-42.521c-6.262,0-11.338-5.077-11.338-11.339
	c0-6.262,5.076-11.338,11.338-11.338h42.521c6.262,0,11.338,5.077,11.338,11.338C975.115,41.695,970.039,46.771,963.777,46.771z"/>
<path fill="#FFFFFF" d="M1218.896,12.755c8.597,0,15.591,6.994,15.591,15.591v340.157c0,8.597-6.994,15.591-15.591,15.591H28.344
	c-8.597,0-15.59-6.994-15.59-15.591V28.346c0-8.597,6.994-15.591,15.59-15.591H1218.896 M1218.896,4.251H28.344
	C15.092,4.251,4.25,15.094,4.25,28.346v340.157c0,13.252,10.842,24.095,24.094,24.095h1190.551
	c13.252,0,24.095-10.843,24.095-24.095V28.346C1242.99,15.094,1232.147,4.251,1218.896,4.251L1218.896,4.251z"/>
<g>
	<path fill="#FFFFFF" d="M95.132,258.97l-4.012,11.671h64.192c0,23.343-2.553,32.826-10.212,40.851
		c-15.684,16.777-46.321,15.683-46.321,15.683l-4.742-20.06h20.79c6.93,0,11.307-2.918,14.225-7.659
		c2.918-4.742,4.012-10.213,4.012-10.213H64.13l12.401-30.272H44.799v-19.331h125.833v19.331H95.132z M162.607,231.615H55.012
		V94.477h29.543l9.848-24.802l19.331,5.835l-11.671,18.966h60.545V231.615z M145.465,113.442H72.519v96.653h72.946V113.442z
		 M78.355,186.754c4.741-6.201,11.671-16.414,14.589-20.061H79.449V151.01h22.979v-31.731h14.954v31.731h20.79v15.684h-20.79v33.92
		h-14.954V178l-16.778,19.695L78.355,186.754z M89.297,145.539l-9.848-13.495l11.672-9.119l8.389,14.954L89.297,145.539z
		 M133.429,145.539l-12.401-6.93c0.729-4.012,6.565-14.954,6.565-14.954l12.036,2.918
		C137.806,130.585,133.429,145.539,133.429,145.539z M131.97,169.976c2.918,4.377,10.212,18.237,10.212,18.237l-11.307,8.753
		c-2.188-7.659-9.848-19.331-9.848-19.331L131.97,169.976z"/>
	<path fill="#FFFFFF" d="M333.3,296.901v29.179H206.374v-29.179l91.548-196.589l-93.371,0.729V70.769h125.467l-0.729,27.72
		l-90.453,198.413H333.3z"/>
	<path fill="#FFFFFF" d="M381.078,212.649c-7.659,0-14.224-6.201-14.224-14.225c0-7.659,6.565-14.225,14.224-14.225
		c8.024,0,14.225,6.565,14.225,14.225C395.303,206.448,389.103,212.649,381.078,212.649z"/>
	<path fill="#FFFFFF" d="M427.396,326.08l50.697-253.487h30.638l48.874,253.487h-30.638l-7.659-39.026h-53.251l-8.024,39.026
		H427.396z M471.893,256.416h41.579L493.047,151.01L471.893,256.416z"/>
	<path fill="#FFFFFF" d="M670.306,326.08h-31.367V70.769h31.367V326.08z"/>
	<path fill="#FFFFFF" d="M754.191,129.126c0,0,2.554-19.695,17.508-37.932c11.307-13.86,32.825-21.519,46.32-21.519
		c16.049,0,31.731,4.377,48.874,21.519c12.766,12.766,15.318,33.19,15.318,41.215c0,14.589-2.553,24.801-13.13,40.485
		c-8.024,12.401-82.429,123.644-82.429,123.644l93.371,0.729l-1.459,28.813H752.368v-31.367c0,0,91.912-134.95,96.289-141.515
		c4.377-6.93,5.836-14.225,5.836-20.06c0-14.589-13.131-33.92-34.649-33.92c-32.826,0-37.567,36.473-37.567,36.473L754.191,129.126z
		"/>
	<path fill="#FFFFFF" d="M1040.869,242.192c0,18.236-2.554,36.473-8.754,48.874c-10.577,22.248-24.802,35.014-51.792,35.014
		c-63.828,0-66.745-67.476-66.745-67.476l28.084-5.835c2.553,14.225,5.471,21.884,10.941,30.637
		c5.472,9.483,16.049,14.225,25.167,14.225c18.602,0,34.649-8.389,34.649-55.804c0-47.779-24.438-52.521-34.649-52.521
		c-9.483,0-13.495,3.282-13.495,3.282l-21.884-17.507l53.251-73.311H917.59l0.729-32.096h115.255v29.543l-45.592,62.734
		c8.024,1.824,17.143,5.836,25.531,12.036C1033.209,188.577,1040.869,213.743,1040.869,242.192z"/>
	<path fill="#FFFFFF" d="M1095.941,191.495l-18.966-28.814c0,0,4.377-9.848,8.024-24.802l17.507,29.179
		C1102.507,167.058,1098.13,181.647,1095.941,191.495z M1091.93,214.108l12.036,21.519c0,0-2.918,42.674-14.589,90.453
		l-11.672-25.531C1077.705,300.549,1089.741,244.745,1091.93,214.108z M1101.777,124.749l-18.966-33.19
		c5.106-10.212,8.389-20.06,8.389-20.06l18.236,28.449C1105.061,110.524,1101.777,124.749,1101.777,124.749z M1185.301,268.088
		l11.307,13.13c0,0-1.094,11.307-4.012,22.979c-2.918,12.4-7.295,21.884-12.766,21.884c-7.295,0-47.78,0-47.78,0
		c-4.741,0-8.389-6.2-8.389-11.672v-90.817c-7.294,10.942-13.859,18.236-13.859,18.236l-8.389-23.343
		c15.318-14.954,20.425-23.342,22.248-26.989c2.188-4.377,2.188-9.119,2.188-9.119h-20.789v-24.437h24.071v-28.084h-17.871v-25.167
		h17.871v-33.92h11.308v33.92h17.142V68.216h13.131v36.473h21.884v25.167h-21.884v28.084h28.084v24.437h-21.884
		c0,0,0.729,13.495,22.978,36.108l-8.753,26.261c0,0-11.672-13.859-18.602-29.543v60.181h-36.473v19.695
		c0,2.918,2.553,3.282,4.741,3.282h36.108c2.918,0,3.282-1.094,3.647-3.282L1185.301,268.088z M1144.815,182.376
		c-2.918,7.66-5.105,14.225-11.671,23.342h35.743c-2.553-7.294-4.741-15.318-6.2-23.342H1144.815z M1161.229,252.77v-21.884h-25.166
		v21.884H1161.229z M1140.439,157.939h18.601v-28.084h-18.601V157.939z"/>
</g>
</svg>
