<?xml version="1.0" encoding="UTF-8" standalone="no"?>
<!-- Created with Inkscape (http://www.inkscape.org/) -->
<svg
   xmlns:dc="http://purl.org/dc/elements/1.1/"
   xmlns:cc="http://web.resource.org/cc/"
   xmlns:rdf="http://www.w3.org/1999/02/22-rdf-syntax-ns#"
   xmlns:svg="http://www.w3.org/2000/svg"
   xmlns="http://www.w3.org/2000/svg"
   xmlns:xlink="http://www.w3.org/1999/xlink"
   xmlns:sodipodi="http://sodipodi.sourceforge.net/DTD/sodipodi-0.dtd"
   xmlns:inkscape="http://www.inkscape.org/namespaces/inkscape"
   width="346.70999"
   height="79.290001"
   id="svg2"
   sodipodi:version="0.32"
   inkscape:version="0.45"
   sodipodi:docbase="H:\License plates"
   sodipodi:docname="Hungarian license plate.svg"
   inkscape:output_extension="org.inkscape.output.svg.inkscape"
   version="1.0"
   sodipodi:modified="true">
  <defs
     id="defs4">
    <g
       id="s">
      <g
         id="c">
        <path
           transform="matrix(0.9510565,0.309017,-0.309017,0.9510565,0,-1)"
           d="M 0,0 L 0,1 L 0.5,1 L 0,0 z "
           id="t" />
        <use
           id="use3302"
           transform="scale(-1,1)"
           xlink:href="#t"
           x="0"
           y="0"
           width="744.09448"
           height="1052.3622" />
      </g>
      <g
         id="a">
        <use
           id="use3305"
           transform="matrix(0.309017,0.9510565,-0.9510565,0.309017,0,0)"
           xlink:href="#c"
           x="0"
           y="0"
           width="744.09448"
           height="1052.3622" />
        <use
           id="use3307"
           transform="matrix(-0.809017,0.5877853,-0.5877853,-0.809017,0,0)"
           xlink:href="#c"
           x="0"
           y="0"
           width="744.09448"
           height="1052.3622" />
      </g>
      <use
         id="use3309"
         transform="scale(-1,1)"
         xlink:href="#a"
         x="0"
         y="0"
         width="744.09448"
         height="1052.3622" />
    </g>
  </defs>
  <sodipodi:namedview
     id="base"
     pagecolor="#ffffff"
     bordercolor="#666666"
     borderopacity="1.0"
     inkscape:pageopacity="0.0"
     inkscape:pageshadow="2"
     inkscape:zoom="3.2947804"
     inkscape:cx="137.2229"
     inkscape:cy="-8.9355049"
     inkscape:document-units="px"
     inkscape:current-layer="layer1"
     inkscape:window-width="1024"
     inkscape:window-height="742"
     inkscape:window-x="0"
     inkscape:window-y="0"
     showgrid="true"
     showguides="true"
     inkscape:guide-bbox="true"
     width="346.71px"
     height="79.29px" />
  <metadata
     id="metadata7">
    <rdf:RDF>
      <cc:Work
         rdf:about="">
        <dc:format>image/svg+xml</dc:format>
        <dc:type
           rdf:resource="http://purl.org/dc/dcmitype/StillImage" />
      </cc:Work>
    </rdf:RDF>
  </metadata>
  <g
     inkscape:label="Capa 1"
     inkscape:groupmode="layer"
     id="layer1"
     transform="translate(-5.5279208,-5.095195)">
    <rect
       style="fill:#ffffff;fill-opacity:1;stroke:#000000;stroke-width:3.09279561;stroke-miterlimit:4;stroke-dasharray:none;stroke-opacity:1"
       id="rect2221"
       width="335.62152"
       height="69.192917"
       x="11.07223"
       y="10.143804"
       ry="5.3568945" />
    <path
       style="fill:#003399;fill-opacity:1;fill-rule:evenodd;stroke:#003399;stroke-width:1px;stroke-linecap:butt;stroke-linejoin:miter;stroke-opacity:1"
       d="M 42.868685,10.363284 L 42.868685,79.30619 L 16.327325,79.30619 C 13.202305,79.2944 11.615076,77.74483 11.182541,75.04056 L 11.276562,15.666585 C 11.655475,12.509964 13.25521,10.574165 16.327325,10.110746 L 42.868685,10.363284 z "
       id="path3214"
       sodipodi:nodetypes="ccccccc" />
    <g
       style="fill:#ffcc00"
       transform="matrix(1.6138444,0,0,1.6138444,27.337182,32.052517)"
       id="g3313">
      <use
         height="1052.3622"
         width="744.09448"
         x="0"
         xlink:href="#s"
         y="-6"
         id="use3315" />
      <use
         height="1052.3622"
         width="744.09448"
         x="0"
         xlink:href="#s"
         y="6"
         id="use3317" />
      <g
         id="l">
        <use
           height="1052.3622"
           width="744.09448"
           y="0"
           xlink:href="#s"
           x="-6"
           id="use3320" />
        <use
           height="1052.3622"
           width="744.09448"
           y="0"
           x="0"
           xlink:href="#s"
           transform="matrix(-0.809017,-0.5877853,0.5877853,-0.809017,-3,-5.1961524)"
           id="use3322" />
        <use
           height="1052.3622"
           width="744.09448"
           y="0"
           x="0"
           xlink:href="#s"
           transform="matrix(-0.809017,0.5877853,-0.5877853,-0.809017,-5.1961524,-3)"
           id="use3324" />
        <use
           height="1052.3622"
           width="744.09448"
           y="0"
           x="0"
           xlink:href="#s"
           transform="matrix(0.309017,0.9510565,-0.9510565,0.309017,-5.1961524,3)"
           id="use3326" />
        <use
           height="1052.3622"
           width="744.09448"
           y="0"
           x="0"
           xlink:href="#s"
           transform="matrix(0.309017,0.9510565,-0.9510565,0.309017,-3,5.1961524)"
           id="use3328" />
      </g>
      <use
         height="1052.3622"
         width="744.09448"
         y="0"
         x="0"
         xlink:href="#l"
         transform="scale(-1,1)"
         id="use3330" />
    </g>
    <path
       transform="scale(0.9191116,1.0880072)"
       style="font-size:17.18599892px;font-style:normal;font-weight:normal;fill:#ffffff;fill-opacity:1;stroke:#ffffff;stroke-width:0.42840865;stroke-linecap:butt;stroke-linejoin:miter;stroke-miterlimit:4;stroke-opacity:1;font-family:Bitstream Vera Sans"
       d="M 32.140225,61.139583 L 32.140225,55.802525 L 27.28988,55.802525 L 27.28988,61.139583 L 25.435336,61.139583 L 25.435336,48.91302 L 27.28988,48.91302 L 27.28988,54.149379 L 32.140225,54.149379 L 32.140225,48.91302 L 33.994769,48.91302 L 33.994769,61.139583 L 32.140225,61.139583 z "
       id="text3367" />
    <path
       transform="scale(1.0471084,0.955011)"
       style="font-size:67.68917084px;font-style:normal;font-weight:normal;fill:#000000;fill-opacity:1;stroke:none;stroke-width:1px;stroke-linecap:butt;stroke-linejoin:miter;stroke-opacity:1;font-family:Bitstream Vera Sans"
       d="M 87.12138,70.570176 L 87.12138,49.549516 L 68.017698,49.549516 L 68.017698,70.570176 L 60.713349,70.570176 L 60.713349,22.414355 L 68.017698,22.414355 L 68.017698,43.038399 L 87.12138,43.038399 L 87.12138,22.414355 L 94.425729,22.414355 L 94.425729,70.570176 L 87.12138,70.570176 z M 104.60555,70.570176 L 104.60555,22.414355 L 111.90989,22.414355 L 111.90989,47.235921 L 112.07515,47.235921 L 131.87291,22.414355 L 140.56542,22.414355 L 125.13044,41.418883 L 142.18493,70.570176 L 133.52548,70.570176 L 120.37104,47.037613 L 111.90989,55.895375 L 111.90989,70.570176 L 104.60555,70.570176 z M 147.30789,70.570176 L 147.30789,22.414355 L 154.61224,22.414355 L 154.61224,63.695495 L 178.11175,63.695495 L 178.11175,70.570176 L 147.30789,70.570176 z M 183.49912,51.112018 L 183.49912,44.204285 L 200.07177,44.204285 L 200.07177,51.112018 L 183.49912,51.112018 z M 230.43205,56.721659 L 230.43205,36.262872 C 230.43203,33.949314 229.80956,32.142508 228.56465,30.84245 C 227.3197,29.542471 225.68366,28.892462 223.65653,28.89242 C 221.60733,28.892462 219.96578,29.542471 218.73187,30.84245 C 217.49795,32.142508 216.88099,33.949314 216.881,36.262872 L 216.881,56.721659 C 216.88099,59.0573 217.49795,60.869614 218.73187,62.158607 C 219.96578,63.447617 221.60733,64.092117 223.65653,64.092111 C 225.68366,64.092117 227.3197,63.447617 228.56465,62.158607 C 229.80956,60.869614 230.43203,59.0573 230.43205,56.721659 L 230.43205,56.721659 z M 209.97327,57.118275 L 209.97327,35.866255 C 209.97326,31.437413 211.36142,28.016602 214.13774,25.60381 C 216.91404,23.191109 220.08697,21.984736 223.65653,21.984687 C 227.20402,21.984736 230.37144,23.191109 233.15879,25.60381 C 235.94609,28.016602 237.33976,31.437413 237.33979,35.866255 L 237.33979,57.118275 C 237.33976,61.547166 235.94609,64.962469 233.15879,67.364195 C 230.37144,69.765927 227.20402,70.966792 223.65653,70.966792 C 220.08697,70.966792 216.91404,69.765927 214.13774,67.364195 C 211.36142,64.962469 209.97326,61.547166 209.97327,57.118275 L 209.97327,57.118275 z M 262.95458,56.721659 L 262.95458,36.262872 C 262.95455,33.949314 262.33209,32.142508 261.08717,30.84245 C 259.84222,29.542471 258.20618,28.892462 256.17905,28.89242 C 254.12985,28.892462 252.4883,29.542471 251.2544,30.84245 C 250.02047,32.142508 249.40351,33.949314 249.40352,36.262872 L 249.40352,56.721659 C 249.40351,59.0573 250.02047,60.869614 251.2544,62.158607 C 252.4883,63.447617 254.12985,64.092117 256.17905,64.092111 C 258.20618,64.092117 259.84222,63.447617 261.08717,62.158607 C 262.33209,60.869614 262.95455,59.0573 262.95458,56.721659 L 262.95458,56.721659 z M 242.49579,57.118275 L 242.49579,35.866255 C 242.49579,31.437413 243.88394,28.016602 246.66026,25.60381 C 249.43656,23.191109 252.60949,21.984736 256.17905,21.984687 C 259.72654,21.984736 262.89396,23.191109 265.68131,25.60381 C 268.46861,28.016602 269.86228,31.437413 269.86231,35.866255 L 269.86231,57.118275 C 269.86228,61.547166 268.46861,64.962469 265.68131,67.364195 C 262.89396,69.765927 259.72654,70.966792 256.17905,70.966792 C 252.60949,70.966792 249.43656,69.765927 246.66026,67.364195 C 243.88394,64.962469 242.49579,61.547166 242.49579,57.118275 L 242.49579,57.118275 z M 281.79384,35.800153 C 281.79383,38.069711 282.50443,39.78838 283.92565,40.956164 C 285.34685,42.124007 286.93882,42.707913 288.70157,42.707885 C 290.46429,42.707913 292.05626,42.124007 293.47749,40.956164 C 294.89868,39.78838 295.60928,38.069711 295.6093,35.800153 C 295.60928,33.552698 294.89868,31.839538 293.47749,30.660667 C 292.05626,29.481877 290.46429,28.892462 288.70157,28.89242 C 286.93882,28.892462 285.34685,29.481877 283.92565,30.660667 C 282.50443,31.839538 281.79383,33.552698 281.79384,35.800153 L 281.79384,35.800153 z M 274.02677,56.523351 C 274.02677,51.830078 275.92171,48.216467 279.7116,45.682507 C 278.27937,44.404548 277.11707,42.988849 276.22468,41.435408 C 275.3323,39.882025 274.8861,38.047677 274.8861,35.932358 C 274.8861,32.054371 276.21366,28.760256 278.86879,26.050004 C 281.52391,23.33984 284.8015,21.984736 288.70157,21.984687 C 292.60161,21.984736 295.8792,23.33984 298.53435,26.050004 C 301.18944,28.760256 302.51701,32.054371 302.51704,35.932358 C 302.51701,38.047677 302.0653,39.882025 301.16193,41.435408 C 300.2585,42.988849 299.11272,44.404548 297.72459,45.682507 C 301.49241,48.238501 303.37634,51.852112 303.37637,56.523351 C 303.37634,60.798002 301.92759,64.2739 299.03012,66.951053 C 296.13259,69.628213 292.68975,70.966792 288.70157,70.966792 C 284.69133,70.966792 281.24297,69.628213 278.3565,66.951053 C 275.47001,64.2739 274.02677,60.798002 274.02677,56.523351 L 274.02677,56.523351 z M 280.9345,56.457248 C 280.93449,58.660684 281.7112,60.484015 283.26462,61.927247 C 284.81802,63.370497 286.63034,64.092117 288.70157,64.092111 C 290.75074,64.092117 292.56305,63.370497 294.13852,61.927247 C 295.71394,60.484015 296.50167,58.660684 296.50169,56.457248 C 296.50167,54.253841 295.71394,52.425001 294.13852,50.970724 C 292.56305,49.516485 290.75074,48.789356 288.70157,48.789334 C 286.63034,48.789356 284.81802,49.516485 283.26462,50.970724 C 281.7112,52.425001 280.93449,54.253841 280.9345,56.457248 L 280.9345,56.457248 z "
       id="text3621"
       sodipodi:nodetypes="cccccccccccccccccccccccccccccccccccccccccsssccsssccccsssccsssccccsssccsssccccsssccssscccsssssssccccssssssscsssscccssssssscc" />
    <g
       id="g4286"
       transform="matrix(0.1340443,-0.122214,0.122214,0.1340443,144.84296,10.132434)">
      <path
         transform="matrix(-0.5602606,1.0304121,-1.1061777,-0.6014563,603.38726,293.76372)"
         d="M 219.7415 311.17191 A 44.312511 41.277409 0 1 1  131.11647,311.17191 A 44.312511 41.277409 0 1 1  219.7415 311.17191 z"
         sodipodi:ry="41.277409"
         sodipodi:rx="44.312511"
         sodipodi:cy="311.17191"
         sodipodi:cx="175.42899"
         id="path2278"
         style="fill:#791821;fill-opacity:1;stroke:#000000;stroke-width:1.60000002;stroke-miterlimit:4;stroke-dasharray:none;stroke-opacity:1"
         sodipodi:type="arc" />
      <path
         transform="matrix(-0.1196827,0.2201163,-0.2363014,-0.1284829,280.31358,312.95371)"
         d="M 219.7415 311.17191 A 44.312511 41.277409 0 1 1  131.11647,311.17191 A 44.312511 41.277409 0 1 1  219.7415 311.17191 z"
         sodipodi:ry="41.277409"
         sodipodi:rx="44.312511"
         sodipodi:cy="311.17191"
         sodipodi:cx="175.42899"
         id="path3250"
         style="fill:#000000;fill-opacity:1;stroke:#000000;stroke-width:1.60000002;stroke-miterlimit:4;stroke-dasharray:none;stroke-opacity:1"
         sodipodi:type="arc" />
      <path
         id="text3252"
         d="M 130.37734,322.55563 L 130.58437,303.76885 L 133.07048,303.79625 L 132.96781,313.11275 L 142.39978,303.89906 L 145.77012,303.9362 L 137.80502,311.46145 L 145.9091,322.72679 L 142.62846,322.69064 L 136.04383,313.1082 L 132.93519,316.07301 L 132.86345,322.58303 L 130.37734,322.55563 z M 148.13891,322.75136 L 148.34594,303.96459 L 161.01996,304.10425 L 160.99553,306.32125 L 150.80762,306.20898 L 150.7435,312.02698 L 159.56022,312.12414 L 159.53579,314.34114 L 150.71907,314.24398 L 150.62502,322.77876 L 148.13891,322.75136 z "
         style="font-size:26.24669075px;font-style:normal;font-weight:normal;writing-mode:lr-tb;fill:#000000;fill-opacity:1;stroke:none;stroke-width:1px;stroke-linecap:butt;stroke-linejoin:miter;stroke-opacity:1;font-family:Arial" />
      <rect
         transform="matrix(-0.9999996,8.5500681e-4,-8.5500681e-4,-0.9999996,0,0)"
         ry="0"
         y="-295.81522"
         x="-200.49437"
         height="13.260504"
         width="77.215546"
         id="rect3257"
         style="fill:#000000;fill-opacity:1;stroke:#000000;stroke-width:1.64557922;stroke-miterlimit:4;stroke-dasharray:none;stroke-opacity:1" />
      <path
         id="text3259"
         d="M 156.48053,278.23917 L 153.93334,278.23917 L 153.93334,262.00795 C 153.32013,262.59288 152.51588,263.17779 151.5206,263.76268 C 150.5253,264.3476 149.63143,264.78628 148.83898,265.07872 L 148.83898,262.61645 C 150.26351,261.94665 151.5088,261.13533 152.57485,260.18247 C 153.64088,259.22966 154.3956,258.30513 154.83901,257.40888 L 156.48053,257.40888 L 156.48053,278.23917 z M 163.01829,268.00798 C 163.01829,265.55515 163.27065,263.58109 163.77537,262.08579 C 164.28009,260.59051 165.03009,259.43721 166.02538,258.62586 C 167.02067,257.81456 168.27303,257.4089 169.78248,257.40888 C 170.89568,257.4089 171.8721,257.63295 172.71174,258.08105 C 173.55135,258.52918 174.24475,259.17541 174.79194,260.01974 C 175.3391,260.8641 175.76834,261.8924 176.07968,263.10466 C 176.39099,264.31694 176.54665,265.95138 176.54666,268.00798 C 176.54665,270.44197 176.29665,272.4066 175.79666,273.90188 C 175.29664,275.39717 174.549,276.55284 173.55372,277.36888 C 172.55842,278.18492 171.30134,278.59294 169.78248,278.59294 C 167.78246,278.59294 166.2117,277.87596 165.07019,276.44199 C 163.70226,274.71557 163.01829,271.90424 163.01829,268.00798 L 163.01829,268.00798 z M 165.63623,268.00798 C 165.63623,271.41367 166.03481,273.68019 166.83199,274.80755 C 167.62916,275.93491 168.61265,276.49859 169.78248,276.49859 C 170.95229,276.49859 171.93578,275.93255 172.73296,274.80047 C 173.53013,273.66839 173.92871,271.40423 173.92873,268.00798 C 173.92871,264.59289 173.53013,262.32401 172.73296,261.20135 C 171.93578,260.07872 170.94285,259.5174 169.75418,259.51738 C 168.58435,259.5174 167.65039,260.01268 166.95228,261.00323 C 166.07491,262.26741 165.63623,264.60232 165.63623,268.00798 L 165.63623,268.00798 z "
         style="font-size:28.98127365px;font-style:normal;font-weight:normal;writing-mode:lr-tb;fill:#000000;fill-opacity:1;stroke:none;stroke-width:1px;stroke-linecap:butt;stroke-linejoin:miter;stroke-opacity:1;font-family:Arial"
         transform="matrix(0.9999997,8.0152747e-4,-8.0152747e-4,0.9999997,0,0)" />
      <path
         sodipodi:nodetypes="ccccc"
         id="path3283"
         d="M 170.76386,243.86722 C 164.40781,242.27351 158.64525,242.65812 153.14463,243.91583 L 151.00736,236.53721 C 158.08714,235.12229 165.48654,235.09433 173.13523,236.63635 L 170.76386,243.86722 z "
         style="fill:#000000;fill-rule:evenodd;stroke:#000000;stroke-width:1px;stroke-linecap:butt;stroke-linejoin:miter;stroke-opacity:1" />
      <path
         id="text3301"
         d="M 134.38092,289.00966 C 134.38092,287.93947 134.49102,287.07817 134.71124,286.42576 C 134.93145,285.77336 135.25868,285.27017 135.69293,284.91617 C 136.12718,284.56219 136.6736,284.3852 137.33218,284.38519 C 137.81788,284.3852 138.2439,284.48296 138.61024,284.67847 C 138.97657,284.87399 139.2791,285.15595 139.51784,285.52433 C 139.75657,285.89273 139.94386,286.34139 140.07969,286.8703 C 140.21552,287.39923 140.28344,288.11235 140.28344,289.00966 C 140.28344,290.07163 140.17436,290.92881 139.95621,291.58121 C 139.73805,292.23362 139.41185,292.73785 138.9776,293.09389 C 138.54335,293.44993 137.99487,293.62796 137.33218,293.62796 C 136.45956,293.62796 135.77422,293.31513 135.27617,292.68948 C 134.67933,291.93623 134.38092,290.70963 134.38092,289.00966 L 134.38092,289.00966 z M 135.52314,289.00966 C 135.52314,290.49559 135.69705,291.48449 136.04486,291.97636 C 136.39267,292.46824 136.82178,292.71418 137.33218,292.71418 C 137.84258,292.71418 138.27168,292.46721 138.6195,291.97327 C 138.96731,291.47934 139.14121,290.49147 139.14122,289.00966 C 139.14121,287.51963 138.96731,286.5297 138.6195,286.03988 C 138.27168,285.55006 137.83846,285.30515 137.31983,285.30515 C 136.80943,285.30515 136.40193,285.52125 136.09734,285.95344 C 135.71454,286.505 135.52314,287.52375 135.52314,289.00966 L 135.52314,289.00966 z M 143.12975,288.56512 C 142.66874,288.39636 142.3271,288.15557 142.10483,287.84274 C 141.88256,287.52992 141.77142,287.15535 141.77142,286.71904 C 141.77142,286.06046 142.0081,285.50684 142.48146,285.05818 C 142.95481,284.60953 143.58458,284.3852 144.37076,284.38519 C 145.16105,284.3852 145.79699,284.61467 146.27858,285.07361 C 146.76016,285.53257 147.00096,286.09133 147.00096,286.74991 C 147.00096,287.16976 146.89085,287.53506 146.67064,287.84583 C 146.45043,288.1566 146.11599,288.39636 145.66734,288.56512 C 146.22301,288.74623 146.64594,289.03848 146.93613,289.44186 C 147.22632,289.84524 147.37141,290.32683 147.37142,290.88662 C 147.37141,291.66045 147.09769,292.3108 146.55025,292.83766 C 146.0028,293.36453 145.28248,293.62796 144.38928,293.62796 C 143.49608,293.62796 142.77576,293.3635 142.22831,292.83457 C 141.68087,292.30565 141.40715,291.64604 141.40715,290.85574 C 141.40715,290.26714 141.55636,289.77424 141.85477,289.37703 C 142.15319,288.97982 142.57818,288.70919 143.12975,288.56512 L 143.12975,288.56512 z M 142.90747,286.68199 C 142.90747,287.11007 143.04536,287.45995 143.32115,287.7316 C 143.59692,288.00327 143.95503,288.13911 144.39545,288.1391 C 144.82353,288.13911 145.17443,288.0043 145.44815,287.73469 C 145.72187,287.46509 145.85873,287.13477 145.85874,286.74373 C 145.85873,286.33624 145.71776,285.99358 145.43581,285.71573 C 145.15385,285.4379 144.80295,285.29898 144.38311,285.29897 C 143.95914,285.29898 143.60721,285.43481 143.32732,285.70647 C 143.04742,285.97814 142.90747,286.30331 142.90747,286.68199 L 142.90747,286.68199 z M 142.54937,290.86192 C 142.54937,291.17886 142.62449,291.48551 142.77473,291.78187 C 142.92497,292.07824 143.14827,292.30771 143.44463,292.4703 C 143.74099,292.63288 144.05999,292.71418 144.40163,292.71418 C 144.93261,292.71418 145.37097,292.54336 145.71673,292.20172 C 146.06248,291.86008 146.23536,291.42583 146.23536,290.89896 C 146.23536,290.36387 146.05734,289.92139 145.7013,289.57151 C 145.34525,289.22165 144.89968,289.04671 144.36458,289.04671 C 143.84183,289.04671 143.40861,289.21959 143.06492,289.56534 C 142.72122,289.9111 142.54937,290.34329 142.54937,290.86192 L 142.54937,290.86192 z M 150.16832,288.56512 C 149.70732,288.39636 149.36568,288.15557 149.14341,287.84274 C 148.92114,287.52992 148.81,287.15535 148.81,286.71904 C 148.81,286.06046 149.04668,285.50684 149.52003,285.05818 C 149.99339,284.60953 150.62315,284.3852 151.40934,284.38519 C 152.19963,284.3852 152.83557,284.61467 153.31716,285.07361 C 153.79874,285.53257 154.03954,286.09133 154.03954,286.74991 C 154.03954,287.16976 153.92943,287.53506 153.70922,287.84583 C 153.489,288.1566 153.15457,288.39636 152.70592,288.56512 C 153.26159,288.74623 153.68452,289.03848 153.97471,289.44186 C 154.26489,289.84524 154.40999,290.32683 154.40999,290.88662 C 154.40999,291.66045 154.13627,292.3108 153.58883,292.83766 C 153.04138,293.36453 152.32105,293.62796 151.42786,293.62796 C 150.53466,293.62796 149.81434,293.3635 149.26689,292.83457 C 148.71945,292.30565 148.44572,291.64604 148.44572,290.85574 C 148.44572,290.26714 148.59493,289.77424 148.89335,289.37703 C 149.19177,288.97982 149.61676,288.70919 150.16832,288.56512 L 150.16832,288.56512 z M 149.94605,286.68199 C 149.94605,287.11007 150.08394,287.45995 150.35972,287.7316 C 150.6355,288.00327 150.9936,288.13911 151.43403,288.1391 C 151.86211,288.13911 152.21301,288.0043 152.48673,287.73469 C 152.76045,287.46509 152.89731,287.13477 152.89732,286.74373 C 152.89731,286.33624 152.75633,285.99358 152.47438,285.71573 C 152.19243,285.4379 151.84153,285.29898 151.42169,285.29897 C 150.99772,285.29898 150.64579,285.43481 150.3659,285.70647 C 150.086,285.97814 149.94605,286.30331 149.94605,286.68199 L 149.94605,286.68199 z M 149.58795,290.86192 C 149.58795,291.17886 149.66307,291.48551 149.81331,291.78187 C 149.96354,292.07824 150.18684,292.30771 150.48321,292.4703 C 150.77957,292.63288 151.09857,292.71418 151.44021,292.71418 C 151.97118,292.71418 152.40955,292.54336 152.75531,292.20172 C 153.10106,291.86008 153.27394,291.42583 153.27394,290.89896 C 153.27394,290.36387 153.09591,289.92139 152.73987,289.57151 C 152.38383,289.22165 151.93826,289.04671 151.40316,289.04671 C 150.88041,289.04671 150.44719,289.21959 150.1035,289.56534 C 149.7598,289.9111 149.58795,290.34329 149.58795,290.86192 L 149.58795,290.86192 z M 155.57074,285.60768 L 155.57074,284.53955 L 161.43005,284.53955 L 161.43005,285.40393 C 160.85379,286.01724 160.28267,286.83224 159.71671,287.84891 C 159.15074,288.8656 158.7134,289.9111 158.4047,290.9854 C 158.18242,291.74277 158.04042,292.57217 157.97868,293.4736 L 156.83645,293.4736 C 156.8488,292.76151 156.98875,291.90124 157.2563,290.89279 C 157.52384,289.88434 157.90767,288.91191 158.40778,287.97548 C 158.90789,287.03907 159.4399,286.24981 160.00381,285.60768 L 155.57074,285.60768 z M 162.70193,291.38055 L 163.77007,291.28176 C 163.86062,291.78393 164.0335,292.14821 164.2887,292.3746 C 164.5439,292.60098 164.87113,292.71418 165.2704,292.71418 C 165.61203,292.71418 165.91148,292.63597 166.16874,292.47956 C 166.426,292.32315 166.63695,292.11425 166.8016,291.85288 C 166.96624,291.5915 167.10413,291.23855 167.21527,290.794 C 167.3264,290.34946 167.38197,289.89669 167.38197,289.43568 C 167.38197,289.38629 167.37991,289.3122 167.3758,289.21341 C 167.15352,289.5674 166.84996,289.8545 166.4651,290.07471 C 166.08024,290.29493 165.66348,290.40503 165.21483,290.40503 C 164.46569,290.40503 163.83181,290.13337 163.31318,289.59004 C 162.79455,289.04671 162.53523,288.33051 162.53523,287.44142 C 162.53523,286.52353 162.80586,285.78468 163.34714,285.22488 C 163.88841,284.6651 164.56654,284.3852 165.38153,284.38519 C 165.97013,284.3852 166.50832,284.54367 166.99608,284.8606 C 167.48384,285.17755 167.85429,285.6293 168.10744,286.21584 C 168.36057,286.80239 168.48714,287.65135 168.48715,288.76269 C 168.48714,289.91933 168.3616,290.84031 168.11053,291.52564 C 167.85944,292.21098 167.4859,292.7327 166.98991,293.0908 C 166.49391,293.44891 165.91251,293.62796 165.2457,293.62796 C 164.53772,293.62796 163.95941,293.43141 163.51075,293.03832 C 163.06209,292.64523 162.79249,292.09264 162.70193,291.38055 L 162.70193,291.38055 z M 167.25231,287.38585 C 167.25231,286.74786 167.08252,286.24157 166.74294,285.867 C 166.40336,285.49244 165.99483,285.30515 165.51736,285.30515 C 165.02343,285.30515 164.59329,285.50684 164.22696,285.91022 C 163.86062,286.3136 163.67745,286.83635 163.67746,287.47846 C 163.67745,288.05473 163.85136,288.52293 164.19917,288.88309 C 164.54698,289.24326 164.97609,289.42334 165.48649,289.42333 C 166.00101,289.42334 166.42394,289.24326 166.75529,288.88309 C 167.08663,288.52293 167.25231,288.02385 167.25231,287.38585 L 167.25231,287.38585 z M 171.28406,288.56512 C 170.82305,288.39636 170.48141,288.15557 170.25915,287.84274 C 170.03687,287.52992 169.92574,287.15535 169.92574,286.71904 C 169.92574,286.06046 170.16242,285.50684 170.63577,285.05818 C 171.10912,284.60953 171.73889,284.3852 172.52507,284.38519 C 173.31537,284.3852 173.95131,284.61467 174.4329,285.07361 C 174.91448,285.53257 175.15527,286.09133 175.15528,286.74991 C 175.15527,287.16976 175.04517,287.53506 174.82496,287.84583 C 174.60474,288.1566 174.27031,288.39636 173.82165,288.56512 C 174.37733,288.74623 174.80026,289.03848 175.09045,289.44186 C 175.38063,289.84524 175.52572,290.32683 175.52573,290.88662 C 175.52572,291.66045 175.252,292.3108 174.70456,292.83766 C 174.15711,293.36453 173.43679,293.62796 172.5436,293.62796 C 171.65039,293.62796 170.93007,293.3635 170.38263,292.83457 C 169.83518,292.30565 169.56146,291.64604 169.56146,290.85574 C 169.56146,290.26714 169.71067,289.77424 170.00909,289.37703 C 170.30751,288.97982 170.7325,288.70919 171.28406,288.56512 L 171.28406,288.56512 z M 171.06179,286.68199 C 171.06179,287.11007 171.19968,287.45995 171.47546,287.7316 C 171.75124,288.00327 172.10934,288.13911 172.54977,288.1391 C 172.97784,288.13911 173.32874,288.0043 173.60247,287.73469 C 173.87619,287.46509 174.01305,287.13477 174.01305,286.74373 C 174.01305,286.33624 173.87207,285.99358 173.59012,285.71573 C 173.30816,285.4379 172.95726,285.29898 172.53742,285.29897 C 172.11346,285.29898 171.76153,285.43481 171.48164,285.70647 C 171.20174,285.97814 171.06179,286.30331 171.06179,286.68199 L 171.06179,286.68199 z M 170.70369,290.86192 C 170.70369,291.17886 170.7788,291.48551 170.92905,291.78187 C 171.07928,292.07824 171.30258,292.30771 171.59894,292.4703 C 171.8953,292.63288 172.2143,292.71418 172.55594,292.71418 C 173.08692,292.71418 173.52529,292.54336 173.87105,292.20172 C 174.2168,291.86008 174.38967,291.42583 174.38968,290.89896 C 174.38967,290.36387 174.21165,289.92139 173.85561,289.57151 C 173.49956,289.22165 173.05399,289.04671 172.5189,289.04671 C 171.99615,289.04671 171.56293,289.21959 171.21923,289.56534 C 170.87553,289.9111 170.70369,290.34329 170.70369,290.86192 L 170.70369,290.86192 z M 176.68648,285.60768 L 176.68648,284.53955 L 182.54579,284.53955 L 182.54579,285.40393 C 181.96952,286.01724 181.39841,286.83224 180.83245,287.84891 C 180.26648,288.8656 179.82914,289.9111 179.52043,290.9854 C 179.29816,291.74277 179.15615,292.57217 179.09441,293.4736 L 177.95219,293.4736 C 177.96453,292.76151 178.10448,291.90124 178.37203,290.89279 C 178.63958,289.88434 179.02341,288.91191 179.52352,287.97548 C 180.02362,287.03907 180.55563,286.24981 181.11955,285.60768 L 176.68648,285.60768 z M 189.41766,286.63877 L 188.31248,286.72521 C 188.21369,286.28891 188.07374,285.97197 187.89264,285.77439 C 187.59215,285.45745 187.2217,285.29898 186.78128,285.29897 C 186.42729,285.29898 186.11652,285.39777 185.84898,285.59533 C 185.49911,285.85054 185.22332,286.22305 185.02164,286.71286 C 184.81994,287.20269 184.71498,287.90037 184.70675,288.80591 C 184.9743,288.39842 185.30153,288.09589 185.68845,287.89831 C 186.07536,287.70074 186.4808,287.60195 186.90477,287.60195 C 187.64566,287.60195 188.27646,287.87464 188.79715,288.42003 C 189.31784,288.96542 189.57818,289.6703 189.57819,290.53469 C 189.57818,291.10272 189.45573,291.63061 189.21083,292.11837 C 188.96591,292.60613 188.62942,292.97967 188.20135,293.23898 C 187.77326,293.4983 187.28756,293.62796 186.74424,293.62796 C 185.8181,293.62796 185.0628,293.28735 184.47831,292.60613 C 183.89382,291.92491 183.60157,290.80224 183.60157,289.23811 C 183.60157,287.48876 183.92469,286.21688 184.57092,285.42246 C 185.13483,284.73096 185.89425,284.3852 186.8492,284.38519 C 187.56128,284.3852 188.14474,284.58483 188.59958,284.98409 C 189.05441,285.38336 189.3271,285.93492 189.41766,286.63877 L 189.41766,286.63877 z M 184.87963,290.54086 C 184.87963,290.92366 184.96092,291.29 185.12351,291.63987 C 185.2861,291.98974 185.51351,292.25626 185.80576,292.43943 C 186.098,292.62259 186.40465,292.71418 186.72571,292.71418 C 187.19495,292.71418 187.59833,292.52484 187.93586,292.14615 C 188.27337,291.76747 188.44213,291.25295 188.44214,290.6026 C 188.44213,289.97696 188.27543,289.48405 187.94203,289.12388 C 187.60862,288.76373 187.18877,288.58365 186.68249,288.58364 C 186.18032,288.58365 185.7543,288.76373 185.40444,289.12388 C 185.05456,289.48405 184.87963,289.95637 184.87963,290.54086 L 184.87963,290.54086 z "
         style="font-size:12.64474487px;font-style:normal;font-weight:normal;writing-mode:lr-tb;fill:#ffffff;fill-opacity:1;stroke:none;stroke-width:1px;stroke-linecap:butt;stroke-linejoin:miter;stroke-opacity:1;font-family:Arial" />
      <text
         id="text3309"
         y="317.40546"
         x="176.63963"
         style="font-size:16.60793304px;font-style:normal;font-weight:normal;writing-mode:lr-tb;fill:#ffffff;fill-opacity:1;stroke:none;stroke-width:1px;stroke-linecap:butt;stroke-linejoin:miter;stroke-opacity:1;font-family:Arial"
         xml:space="preserve"><tspan
           y="317.40546"
           x="176.63963"
           id="tspan3311"
           sodipodi:role="line">50</tspan></text>
      <path
         transform="translate(5.5279208,5.095195)"
         id="path3315"
         d="M 156.45378,237.78261 L 156.45378,250.98139"
         style="fill:none;fill-rule:evenodd;stroke:#000000;stroke-width:3.20000005;stroke-linecap:butt;stroke-linejoin:miter;stroke-miterlimit:4;stroke-dasharray:none;stroke-opacity:1" />
    </g>
    <g
       id="g2298"
       transform="matrix(0.181395,0,0,0.181395,173.96883,-29.818035)">
      <path
         transform="matrix(7.7514051e-3,1.3819402,-1.3819402,7.7514051e-3,788.64215,358.40475)"
         d="M 131.7235,482.95877 L 100.21076,500.51217 L 69.252703,481.99804 L 69.807384,445.93051 L 101.32012,428.37711 L 132.27818,446.89124 L 131.7235,482.95877 z "
         inkscape:randomized="0"
         inkscape:rounded="0"
         inkscape:flatsided="true"
         sodipodi:arg2="1.0625753"
         sodipodi:arg1="0.5389765"
         sodipodi:r2="18.035898"
         sodipodi:r1="36.071796"
         sodipodi:cy="464.44464"
         sodipodi:cx="100.76544"
         sodipodi:sides="6"
         id="path4298"
         style="fill:#00743d;fill-opacity:1;stroke:#000000;stroke-width:1.96966338;stroke-miterlimit:4;stroke-dasharray:none;stroke-opacity:1"
         sodipodi:type="star" />
      <path
         sodipodi:nodetypes="cccc"
         id="path6238"
         d="M 168.11909,537.35959 L 172.21328,544.59959 M 123.52471,458.5006 L 127.4634,465.57108"
         style="fill:none;fill-rule:evenodd;stroke:#000000;stroke-width:2.0999999;stroke-linecap:butt;stroke-linejoin:miter;stroke-miterlimit:4;stroke-dasharray:none;stroke-opacity:1" />
      <path
         sodipodi:nodetypes="cccc"
         id="path7209"
         d="M 126.35786,537.00064 L 122.30649,543.85681 M 172.59371,458.75537 L 168.67526,465.38659"
         style="fill:none;fill-rule:evenodd;stroke:#000000;stroke-width:2.0999999;stroke-linecap:butt;stroke-linejoin:miter;stroke-miterlimit:4;stroke-dasharray:none;stroke-opacity:1" />
      <path
         sodipodi:nodetypes="cccc"
         id="path7211"
         d="M 105.68656,501.15145 L 97.994718,501.16003 M 196.84332,501.04983 L 188.84796,501.05874"
         style="fill:none;fill-rule:evenodd;stroke:#000000;stroke-width:2.0999999;stroke-linecap:butt;stroke-linejoin:miter;stroke-miterlimit:4;stroke-dasharray:none;stroke-opacity:1" />
      <path
         sodipodi:nodetypes="cccc"
         id="path7215"
         d="M 113.35034,519.75323 L 109.86465,521.73426 M 184.71725,479.19315 L 181.41144,481.07195"
         style="fill:none;fill-rule:evenodd;stroke:#000000;stroke-width:2.0999999;stroke-linecap:butt;stroke-linejoin:miter;stroke-miterlimit:4;stroke-dasharray:none;stroke-opacity:1" />
      <path
         sodipodi:nodetypes="cccc"
         id="path7217"
         d="M 180.45607,520.03927 L 185.21707,522.63482 M 110.00466,479.88922 L 113.42517,481.83321"
         style="fill:none;fill-rule:evenodd;stroke:#000000;stroke-width:2.0999999;stroke-linecap:butt;stroke-linejoin:miter;stroke-miterlimit:4;stroke-dasharray:none;stroke-opacity:1" />
      <path
         sodipodi:nodetypes="cccc"
         id="path7223"
         d="M 148.73829,462.6839 L 148.72971,456.99206 M 146.83991,545.84066 L 146.831,537.8453"
         style="fill:none;fill-rule:evenodd;stroke:#000000;stroke-width:2.0999999;stroke-linecap:butt;stroke-linejoin:miter;stroke-miterlimit:4;stroke-dasharray:none;stroke-opacity:1" />
      <rect
         y="511.99045"
         x="140.28043"
         height="13.801174"
         width="13.801173"
         id="rect7225"
         style="fill:none;fill-opacity:1;stroke:#000000;stroke-width:1.89900005;stroke-miterlimit:4;stroke-dasharray:none;stroke-opacity:1" />
      <rect
         y="473.91052"
         x="140.28043"
         height="13.801174"
         width="13.801173"
         id="rect8196"
         style="fill:none;fill-opacity:1;stroke:#000000;stroke-width:1.89900005;stroke-miterlimit:4;stroke-dasharray:none;stroke-opacity:1" />
      <rect
         transform="matrix(0.853288,-0.5214399,0.5214399,0.853288,0,0)"
         y="496.69977"
         x="-122.67448"
         height="13.801174"
         width="13.801173"
         id="rect8198"
         style="fill:none;fill-opacity:1;stroke:#000000;stroke-width:1.89900005;stroke-miterlimit:4;stroke-dasharray:none;stroke-opacity:1" />
      <rect
         transform="matrix(0.853288,-0.5214399,0.5214399,0.853288,0,0)"
         y="495.3844"
         x="-161.3847"
         height="13.801174"
         width="13.801173"
         id="rect8200"
         style="fill:none;fill-opacity:1;stroke:#000000;stroke-width:1.89900005;stroke-miterlimit:4;stroke-dasharray:none;stroke-opacity:1" />
      <rect
         transform="matrix(-0.853288,-0.5214399,-0.5214399,0.853288,0,0)"
         y="343.44821"
         x="-373.45642"
         height="13.801174"
         width="13.801173"
         id="rect8202"
         style="fill:none;fill-opacity:1;stroke:#000000;stroke-width:1.89900005;stroke-miterlimit:4;stroke-dasharray:none;stroke-opacity:1" />
      <rect
         transform="matrix(-0.853288,-0.5214399,-0.5214399,0.853288,0,0)"
         y="342.13321"
         x="-412.16669"
         height="13.801174"
         width="13.801173"
         id="rect8204"
         style="fill:none;fill-opacity:1;stroke:#000000;stroke-width:1.89900005;stroke-miterlimit:4;stroke-dasharray:none;stroke-opacity:1" />
      <path
         id="text8206"
         d="M 130.35171,476.99702 L 127.0509,470.54823 L 126.37324,471.8935 L 125.78181,470.73803 L 126.46213,469.39797 L 127.55515,468.83851 L 131.44473,476.43756 L 130.35171,476.99702 z M 134.67172,472.01394 L 133.02265,468.79215 C 132.83616,468.42782 132.59249,468.19346 132.29166,468.08908 C 131.99082,467.98471 131.68079,468.01422 131.36156,468.17761 C 131.03886,468.34279 130.83275,468.57747 130.74322,468.88165 C 130.6537,469.18583 130.70218,469.5201 130.88866,469.88443 L 132.53774,473.10622 C 132.726,473.47403 132.96924,473.7097 133.26745,473.81323 C 133.56567,473.91676 133.87612,473.88593 134.19882,473.72076 C 134.51805,473.55736 134.72374,473.324 134.81589,473.02066 C 134.90804,472.71732 134.85998,472.38175 134.67172,472.01394 L 134.67172,472.01394 z M 131.4819,473.72547 L 129.76888,470.37876 C 129.4119,469.68132 129.35477,469.03073 129.59749,468.42699 C 129.84022,467.82326 130.24265,467.37753 130.80476,467.0898 C 131.36342,466.80386 131.95945,466.73853 132.59287,466.8938 C 133.22629,467.04909 133.72149,467.47545 134.07848,468.17289 L 135.7915,471.5196 C 136.14849,472.21706 136.2043,472.86722 135.95896,473.47011 C 135.7136,474.073 135.3116,474.51742 134.75295,474.80336 C 134.19083,475.09109 133.59437,475.15773 132.96357,475.0033 C 132.33278,474.84886 131.83889,474.42293 131.4819,473.72547 L 131.4819,473.72547 z "
         style="font-size:13.71669579px;font-style:normal;font-weight:normal;writing-mode:lr-tb;fill:#000000;fill-opacity:1;stroke:none;stroke-width:1px;stroke-linecap:butt;stroke-linejoin:miter;stroke-opacity:1;font-family:Arial" />
      <path
         id="text8210"
         d="M 120.96504,488.89143 L 114.48032,484.49761 L 114.53824,486.12528 L 113.37633,485.33801 L 113.32365,483.71389 L 114.06836,482.61478 L 121.70976,487.79233 L 120.96504,488.89143 z M 123.41906,485.26962 L 116.93434,480.8758 L 116.99226,482.50346 L 115.83035,481.7162 L 115.77766,480.09207 L 116.52238,478.99297 L 124.16378,484.17051 L 123.41906,485.26962 z "
         style="font-size:13.71669579px;font-style:normal;font-weight:normal;writing-mode:lr-tb;fill:#000000;fill-opacity:1;stroke:none;stroke-width:1px;stroke-linecap:butt;stroke-linejoin:miter;stroke-opacity:1;font-family:Arial" />
      <path
         id="text8214"
         d="M 117.64003,504.10625 L 110.2443,504.10625 L 111.15161,505.34782 L 109.82647,505.34782 L 108.92513,504.10625 L 108.92513,502.85273 L 117.64003,502.85273 L 117.64003,504.10625 z M 117.62213,501.62907 L 116.45218,501.62907 L 112.19621,498.22667 C 112.02907,498.09536 111.87587,498.0098 111.73658,497.97 C 111.59731,497.93021 111.46201,497.91031 111.33068,497.91031 C 111.02826,497.91031 110.74671,498.01776 110.48605,498.23264 C 110.22541,498.44754 110.09508,498.74002 110.09508,499.11011 C 110.09508,499.44835 110.2075,499.73785 110.43234,499.97861 C 110.65718,500.21937 110.96459,500.35367 111.35456,500.38153 L 111.35456,501.62907 C 110.65021,501.62509 110.05628,501.38433 109.57278,500.9068 C 109.08929,500.42928 108.84754,499.86221 108.84753,499.20561 C 108.84754,498.48136 109.09128,497.87748 109.57875,497.39398 C 110.06624,496.91049 110.65419,496.66874 111.34262,496.66874 C 111.93158,496.66874 112.44095,496.84184 112.87072,497.18805 L 116.38055,499.98756 L 116.38055,496.66874 L 117.62213,496.66874 L 117.62213,501.62907 z "
         style="font-size:13.71669579px;font-style:normal;font-weight:normal;writing-mode:lr-tb;fill:#000000;fill-opacity:1;stroke:none;stroke-width:1px;stroke-linecap:butt;stroke-linejoin:miter;stroke-opacity:1;font-family:Arial" />
      <path
         id="text8218"
         d="M 146.22517,465.77541 L 146.22517,464.94928 C 146.22925,464.12927 146.48627,463.49488 146.99623,463.04611 C 147.46539,462.60551 148.02839,462.38521 148.68522,462.3852 C 149.35836,462.38521 149.93156,462.60551 150.40481,463.04611 C 150.8862,463.49896 151.13302,464.13539 151.14527,464.9554 L 151.14527,468.89637 C 151.13302,469.71638 150.8862,470.35077 150.40481,470.79954 C 149.9438,471.23198 149.3706,471.45637 148.68522,471.47268 C 148.09774,471.45637 147.58574,471.2789 147.14922,470.94029 C 146.6923,470.58943 146.4006,470.09171 146.27413,469.44712 L 147.55311,469.44712 C 147.74893,469.94893 148.1263,470.19983 148.68522,470.19982 C 149.47259,470.19575 149.88056,469.73882 149.90912,468.82905 L 149.90912,467.98456 C 149.31349,468.18039 148.76069,468.27218 148.25073,468.25994 C 147.68774,468.27218 147.20837,468.07227 146.81265,467.66022 C 146.41284,467.2645 146.21701,466.63623 146.22517,465.77541 L 146.22517,465.77541 z M 147.46744,465.02883 L 147.46744,465.76317 C 147.47559,466.66479 147.88152,467.12171 148.68522,467.13394 C 149.47667,467.12171 149.88464,466.66479 149.90912,465.76317 L 149.90912,465.02883 C 149.88056,464.13539 149.47259,463.67846 148.68522,463.65806 C 147.8856,463.67846 147.47967,464.13539 147.46744,465.02883 L 147.46744,465.02883 z "
         style="font-size:12.53277683px;font-style:normal;font-weight:normal;writing-mode:lr-tb;fill:#000000;fill-opacity:1;stroke:none;stroke-width:1px;stroke-linecap:butt;stroke-linejoin:miter;stroke-opacity:1;font-family:Arial" />
      <path
         id="text8222"
         d="M 165.70998,469.61165 C 165.4649,469.95299 165.3862,470.28822 165.47385,470.61732 C 165.56149,470.94644 165.73787,471.20616 166.003,471.39651 C 166.26811,471.58685 166.5706,471.67094 166.91046,471.64876 C 167.25032,471.62659 167.54278,471.44483 167.78785,471.10349 C 168.03054,470.76547 168.10866,470.43107 168.0222,470.10029 C 167.93574,469.76954 167.75995,469.50898 167.49483,469.31863 C 167.2297,469.12829 166.92663,469.04504 166.58559,469.06886 C 166.24454,469.09269 165.95266,469.27363 165.70998,469.61165 L 165.70998,469.61165 z M 162.30404,471.88976 C 162.81083,471.18387 163.48605,470.845 164.32968,470.87313 C 164.25226,470.52627 164.23032,470.18783 164.26385,469.85783 C 164.29738,469.52783 164.42834,469.20376 164.65676,468.88562 C 165.07552,468.30236 165.6309,467.95027 166.32289,467.82935 C 167.01488,467.70844 167.65417,467.85856 168.24075,468.27969 C 168.82732,468.70084 169.17395,469.25857 169.28064,469.9529 C 169.38732,470.64724 169.23128,471.28603 168.81252,471.86929 C 168.5841,472.18744 168.31808,472.41455 168.01447,472.55064 C 167.71085,472.68672 167.38565,472.77592 167.03887,472.81823 C 167.32956,473.60952 167.22269,474.35645 166.71828,475.05902 C 166.25668,475.70193 165.66345,476.06827 164.93858,476.15804 C 164.2137,476.24781 163.55134,476.07737 162.95151,475.64671 C 162.34836,475.21368 161.97426,474.63999 161.82922,473.92563 C 161.68417,473.21129 161.84244,472.53267 162.30404,471.88976 L 162.30404,471.88976 z M 163.35011,472.62573 C 163.11217,472.95713 163.03211,473.31523 163.1099,473.70004 C 163.18769,474.08486 163.38234,474.38909 163.69386,474.61274 C 164.00206,474.83402 164.35256,474.92119 164.74536,474.87424 C 165.13816,474.8273 165.45351,474.63812 165.69145,474.30673 C 165.92938,473.97532 166.00839,473.61521 165.92848,473.22636 C 165.84856,472.83751 165.6545,472.53245 165.3463,472.31117 C 165.03479,472.08751 164.68369,472.00118 164.29302,472.05216 C 163.90234,472.10314 163.58804,472.29433 163.35011,472.62573 L 163.35011,472.62573 z "
         style="font-size:12.53277683px;font-style:normal;font-weight:normal;writing-mode:lr-tb;fill:#000000;fill-opacity:1;stroke:none;stroke-width:1px;stroke-linecap:butt;stroke-linejoin:miter;stroke-opacity:1;font-family:Arial" />
      <path
         id="text2222"
         d="M 177.37631,482.3319 L 179.5492,480.97065 L 182.24247,485.26977 L 181.15862,485.94877 L 173.08493,487.44664 L 172.32471,486.23313 L 180.40165,484.74046 L 179.14435,482.73351 L 178.05531,483.41576 L 177.37631,482.3319 z "
         style="font-size:12.53277683px;font-style:normal;font-weight:normal;writing-mode:lr-tb;fill:#000000;fill-opacity:1;stroke:none;stroke-width:1px;stroke-linecap:butt;stroke-linejoin:miter;stroke-opacity:1;font-family:Arial" />
      <path
         id="text2226"
         d="M 178.09812,498.27664 L 182.04521,498.27664 C 182.8693,498.28072 183.50573,498.53773 183.9545,499.0477 C 184.3951,499.51686 184.6154,500.07985 184.61541,500.73668 C 184.6154,501.32007 184.44405,501.84227 184.10137,502.30328 C 183.75459,502.7398 183.25075,503.02334 182.58985,503.15389 L 182.58985,501.86879 C 183.0794,501.66889 183.3303,501.28948 183.34255,500.73056 C 183.32214,499.93094 182.86318,499.52706 181.96566,499.5189 L 181.12728,499.5189 C 181.31494,500.10637 181.40674,500.65713 181.40266,501.17117 C 181.40266,501.74232 181.20683,502.2278 180.81519,502.62761 C 180.41129,503.01518 179.77894,503.20488 178.91814,503.19673 L 178.10424,503.19673 C 177.27606,503.18449 176.64167,502.93767 176.20107,502.45627 C 175.76862,501.99526 175.54424,501.42207 175.52792,500.73668 C 175.54424,500.07169 175.76658,499.5087 176.19495,499.0477 C 176.63963,498.53773 177.27402,498.28072 178.09812,498.27664 L 178.09812,498.27664 z M 178.9059,499.5189 L 178.17156,499.5189 C 177.26178,499.53114 176.80486,499.93706 176.80078,500.73668 C 176.80486,501.52406 177.26178,501.93203 178.17156,501.96059 L 178.9059,501.96059 C 179.79934,501.93203 180.25423,501.52406 180.27055,500.73668 C 180.25423,499.93706 179.79934,499.53114 178.9059,499.5189 L 178.9059,499.5189 z "
         style="font-size:12.53277683px;font-style:normal;font-weight:normal;writing-mode:lr-tb;fill:#000000;fill-opacity:1;stroke:none;stroke-width:1px;stroke-linecap:butt;stroke-linejoin:miter;stroke-opacity:1;font-family:Arial" />
      <path
         id="text2230"
         d="M 176.46386,514.46806 L 180.5292,517.0616 L 177.97516,521.06502 L 176.89692,520.37714 L 178.80257,517.39005 L 177.10525,516.30721 C 177.16097,516.82669 177.04291,517.31514 176.7511,517.77258 C 176.56897,518.05804 176.34774,518.28347 176.08737,518.44886 C 175.82701,518.61424 175.579,518.71854 175.34335,518.76176 C 174.98813,518.82551 174.64879,518.82074 174.32535,518.74746 C 174.00189,518.67419 173.5289,518.43898 172.90638,518.04183 C 172.4008,517.71928 172.04862,517.4426 171.84989,517.21177 C 171.65115,516.98093 171.50016,516.71886 171.39692,516.42557 C 171.29962,516.14572 171.25556,515.81274 171.26476,515.42664 C 171.27397,515.04054 171.39815,514.66004 171.63731,514.28514 C 171.94669,513.8002 172.39472,513.42789 172.98139,513.16823 C 173.56805,512.90857 174.23743,512.96299 174.98953,513.3315 L 174.30165,514.40975 C 173.63578,514.16398 173.11412,514.33689 172.73672,514.92847 C 172.40101,515.45469 172.38521,515.87771 172.68929,516.19752 C 172.99338,516.51734 173.32255,516.79024 173.6768,517.01625 C 174.09297,517.28174 174.48361,517.43175 174.84872,517.46629 C 175.21383,517.5008 175.5379,517.29622 175.82096,516.85254 C 176.08645,516.43637 176.08463,515.98032 175.81548,515.48439 L 176.46386,514.46806 z "
         style="font-size:12.53277683px;font-style:normal;font-weight:normal;writing-mode:lr-tb;fill:#000000;fill-opacity:1;stroke:none;stroke-width:1px;stroke-linecap:butt;stroke-linejoin:miter;stroke-opacity:1;font-family:Arial" />
      <path
         id="text2234"
         d="M 146.59333,531.39243 L 146.63257,532.51775 L 146.19224,532.5331 C 145.76822,532.54788 145.43702,532.67883 145.19867,532.92596 C 144.96031,533.17306 144.84753,533.4801 144.86033,533.84706 C 144.87298,534.20992 145.01208,534.51123 145.27761,534.75098 C 145.54315,534.99074 145.85328,535.10443 146.20799,535.09207 C 146.47709,535.08268 146.72879,534.98409 146.96308,534.79632 C 147.19739,534.60852 147.34294,534.33402 147.39974,533.97282 L 148.67794,533.92825 C 148.6509,534.55783 148.40708,535.11641 147.94647,535.60397 C 147.48586,536.0915 146.93753,536.34638 146.30149,536.36856 C 145.50644,536.39628 144.86024,536.15653 144.36289,535.64933 C 143.86556,535.1421 143.60558,534.56436 143.58298,533.91608 C 143.57104,533.5736 143.62669,533.23794 143.74993,532.90911 C 143.87319,532.58028 144.11416,532.29124 144.47285,532.04196 C 144.08937,531.81448 143.80997,531.52827 143.63465,531.18332 C 143.45933,530.83836 143.36542,530.48649 143.3529,530.1277 C 143.32391,529.29596 143.56175,528.62431 144.06642,528.11277 C 144.57111,527.60123 145.20263,527.33224 145.96097,527.3058 C 146.56441,527.28476 147.11448,527.46049 147.6112,527.83302 C 148.10793,528.20555 148.42842,528.76281 148.57267,529.50482 L 147.29447,529.54939 C 147.16558,529.24772 146.998,529.00761 146.79174,528.82906 C 146.5855,528.65052 146.29889,528.56765 145.93195,528.58044 C 145.57723,528.59281 145.26766,528.72913 145.00322,528.98941 C 144.7388,529.24968 144.61427,529.59998 144.62961,530.04033 C 144.64512,530.48474 144.7928,530.82759 145.07267,531.06888 C 145.35255,531.31017 145.68005,531.42428 146.05515,531.4112 L 146.59333,531.39243 z "
         style="font-size:12.53277683px;font-style:normal;font-weight:normal;writing-mode:lr-tb;fill:#000000;fill-opacity:1;stroke:none;stroke-width:1px;stroke-linecap:butt;stroke-linejoin:miter;stroke-opacity:1;font-family:Arial" />
      <path
         id="text2238"
         d="M 164.33671,525.6098 L 164.98515,526.62609 L 165.90408,533.61825 L 164.70207,534.3852 L 163.80893,527.37658 L 161.84857,528.6274 L 163.23105,530.79411 L 162.15286,531.48207 L 160.77037,529.31535 L 160.16678,529.70047 L 159.51834,528.68418 L 160.12192,528.29906 L 159.41092,527.18474 L 160.48913,526.49679 L 161.20012,527.61111 L 164.33671,525.6098 z "
         style="font-size:12.53277683px;font-style:normal;font-weight:normal;writing-mode:lr-tb;fill:#000000;fill-opacity:1;stroke:none;stroke-width:1px;stroke-linecap:butt;stroke-linejoin:miter;stroke-opacity:1;font-family:Arial" />
      <path
         id="text2242"
         d="M 133.75711,527.85791 L 133.09422,528.8575 L 127.77577,530.56597 C 127.56888,530.63436 127.40897,530.71678 127.29605,530.81323 C 127.18314,530.90968 127.08948,531.01401 127.01506,531.1262 C 126.84371,531.38461 126.77598,531.68603 126.81189,532.03049 C 126.8478,532.37494 127.02387,532.65201 127.34006,532.86171 C 127.62905,533.05336 127.9401,533.12135 128.27319,533.06567 C 128.60629,533.00997 128.89522,532.82343 129.13998,532.50601 L 130.20587,533.21287 C 129.80338,533.81242 129.26116,534.18345 128.5792,534.32599 C 127.89726,534.46849 127.27579,534.35375 126.71479,533.98172 C 126.096,533.57134 125.71816,533.02094 125.58126,532.3305 C 125.44438,531.64004 125.57097,531.00072 125.96103,530.41253 C 126.29475,529.90933 126.73125,529.57221 127.27056,529.40117 L 131.65114,527.98862 L 128.81555,526.10816 L 129.51904,525.04736 L 133.75711,527.85791 z "
         style="font-size:12.53277683px;font-style:normal;font-weight:normal;writing-mode:lr-tb;fill:#000000;fill-opacity:1;stroke:none;stroke-width:1px;stroke-linecap:butt;stroke-linejoin:miter;stroke-opacity:1;font-family:Arial" />
      <path
         id="text2250"
         d="M 122.64177,514.35822 L 116.0278,518.06542 L 117.46154,518.72096 L 116.27648,519.3852 L 114.84806,518.72668 L 114.21972,517.60566 L 122.01343,513.23721 L 122.64177,514.35822 z "
         style="font-size:12.53277683px;font-style:normal;font-weight:normal;writing-mode:lr-tb;fill:#000000;fill-opacity:1;stroke:none;stroke-width:1px;stroke-linecap:butt;stroke-linejoin:miter;stroke-opacity:1;font-family:Arial" />
      <path
         id="text2264"
         d="M 128.62721,546.57248 C 127.7477,546.40481 127.23676,545.88966 127.0944,545.02702 C 127.0944,544.1309 127.0944,543.23267 127.0944,542.33233 C 127.0944,541.43199 127.0944,540.52955 127.0944,539.62499 C 127.20328,538.97169 127.49223,538.53194 127.96125,538.30572 C 128.43027,538.07953 128.96626,538.03352 129.56921,538.1677 C 129.87081,538.352 130.11376,538.5467 130.29805,538.7518 C 130.48233,538.95693 130.60795,539.24799 130.67492,539.62499 C 130.67492,540.52955 130.67492,541.42989 130.67492,542.326 C 130.67492,543.22213 130.67492,544.11416 130.67492,545.0021 C 130.5576,545.81439 130.12206,546.33363 129.36831,546.55983 C 129.27604,546.55983 129.19853,546.56194 129.13578,546.56616 C 129.07303,546.57038 128.90351,546.57248 128.62721,546.57248 L 128.62721,546.57248 z M 128.75258,545.36632 C 129.12115,545.36633 129.35566,545.203 129.45611,544.87635 C 129.45611,544.03032 129.45611,543.18647 129.45611,542.34479 C 129.45611,541.50311 129.45611,540.65926 129.45611,539.81323 C 129.40601,539.66269 129.35157,539.53707 129.29278,539.43636 C 129.04997,539.25208 128.84479,539.21233 128.67724,539.31712 C 128.5097,539.42192 128.38823,539.58729 128.31283,539.81323 C 128.31283,540.65083 128.31283,541.49053 128.31283,542.33233 C 128.31283,543.17414 128.31283,544.01371 128.31283,544.85104 C 128.36318,545.11073 128.50976,545.28249 128.75258,545.36632 L 128.75258,545.36632 z M 132.78896,546.54718 L 132.78896,539.42409 L 131.59545,540.31586 L 131.59545,539.04721 L 132.78896,538.1677 L 133.98209,538.1677 L 133.98209,546.54718 L 132.78896,546.54718 z "
         style="font-size:12.5630827px;font-style:normal;font-weight:normal;writing-mode:lr-tb;fill:#000000;fill-opacity:1;stroke:none;stroke-width:1px;stroke-linecap:butt;stroke-linejoin:miter;stroke-opacity:1;font-family:Arial"
         transform="scale(1.1283839,0.8862232)" />
      <path
         id="text2268"
         d="M 441.04447,150.34798 C 440.16496,150.18031 439.65402,149.66516 439.51166,148.80252 C 439.51166,147.9064 439.51166,147.00817 439.51166,146.10783 C 439.51166,145.20749 439.51166,144.30505 439.51166,143.40048 C 439.62054,142.74719 439.90949,142.30743 440.37851,142.08122 C 440.84753,141.85503 441.38352,141.80902 441.98647,141.9432 C 442.28807,142.12749 442.53102,142.32219 442.7153,142.5273 C 442.89959,142.73243 443.02521,143.02349 443.09218,143.40048 C 443.09218,144.30505 443.09218,145.20538 443.09218,146.1015 C 443.09218,146.99763 443.09218,147.88966 443.09218,148.7776 C 442.97486,149.58988 442.53932,150.10913 441.78557,150.33533 C 441.6933,150.33533 441.61579,150.33744 441.55304,150.34166 C 441.49029,150.34587 441.32077,150.34798 441.04447,150.34798 L 441.04447,150.34798 z M 441.16984,149.14182 C 441.53841,149.14182 441.77292,148.9785 441.87337,148.65184 C 441.87337,147.80582 441.87337,146.96197 441.87337,146.12029 C 441.87337,145.27861 441.87337,144.43476 441.87337,143.58873 C 441.82327,143.43819 441.76883,143.31257 441.71004,143.21185 C 441.46722,143.02758 441.26204,142.98783 441.0945,143.09262 C 440.92696,143.19742 440.80549,143.36279 440.73009,143.58873 C 440.73008,144.42633 440.73008,145.26602 440.73009,146.10783 C 440.73008,146.94964 440.73008,147.78921 440.73009,148.62654 C 440.78044,148.88623 440.92702,149.05799 441.16984,149.14182 L 441.16984,149.14182 z M 447.32908,150.32268 L 443.76121,150.32268 L 443.76121,149.21697 L 445.9849,144.89534 C 446.08534,144.69445 446.13557,144.48933 446.13557,144.27999 L 446.13557,143.65161 C 446.13557,143.4842 446.07697,143.34183 445.95978,143.22451 C 445.84259,143.10719 445.70016,143.04853 445.53249,143.04853 C 445.38194,143.04853 445.2459,143.10093 445.12437,143.20572 C 445.00283,143.31052 444.94206,143.44241 444.94206,143.60138 L 444.94206,144.34248 L 443.73629,144.34248 L 443.73629,143.73979 C 443.73628,143.41314 443.8598,143.01946 444.10684,142.55874 C 444.35387,142.09804 444.85005,141.86768 445.59537,141.86767 C 446.06438,141.86768 446.47059,142.04775 446.81399,142.40787 C 447.15738,142.76802 447.32907,143.18259 447.32908,143.65161 L 447.32908,144.41801 C 447.32907,144.59387 447.30607,144.76557 447.26007,144.9331 C 447.21406,145.10065 447.14492,145.27235 447.05265,145.4482 L 445.16827,149.12917 L 447.32908,149.12917 L 447.32908,150.32268 z "
         style="font-size:12.5630827px;font-style:normal;font-weight:normal;writing-mode:lr-tb;fill:#000000;fill-opacity:1;stroke:none;stroke-width:1px;stroke-linecap:butt;stroke-linejoin:miter;stroke-opacity:1;font-family:Arial"
         transform="matrix(0.6156085,0.9456619,-0.7427149,0.4834938,0,0)" />
      <path
         id="text2272"
         d="M 287.69398,-473.0498 C 286.81447,-473.21747 286.30353,-473.73263 286.16116,-474.59526 C 286.16116,-475.49138 286.16116,-476.38961 286.16116,-477.28996 C 286.16116,-478.19029 286.16116,-479.09274 286.16116,-479.9973 C 286.27005,-480.6506 286.559,-481.09035 287.02802,-481.31656 C 287.49704,-481.54276 288.03302,-481.58876 288.63598,-481.45458 C 288.93758,-481.27029 289.18052,-481.07559 289.36481,-480.87048 C 289.54909,-480.66536 289.67472,-480.3743 289.74169,-479.9973 C 289.74168,-479.09274 289.74168,-478.1924 289.74169,-477.29628 C 289.74168,-476.40016 289.74168,-475.50813 289.74169,-474.62019 C 289.62437,-473.8079 289.18883,-473.28865 288.43508,-473.06245 C 288.34281,-473.06245 288.2653,-473.06034 288.20255,-473.05613 C 288.1398,-473.05191 287.97027,-473.0498 287.69398,-473.0498 L 287.69398,-473.0498 z M 287.81935,-474.25596 C 288.18791,-474.25596 288.42242,-474.41928 288.52288,-474.74594 C 288.52287,-475.59196 288.52287,-476.43581 288.52288,-477.2775 C 288.52287,-478.11917 288.52287,-478.96302 288.52288,-479.80905 C 288.47278,-479.95959 288.41833,-480.08522 288.35955,-480.18593 C 288.11673,-480.37021 287.91155,-480.40995 287.74401,-480.30517 C 287.57646,-480.20036 287.45499,-480.03499 287.37959,-479.80905 C 287.37959,-478.97146 287.37959,-478.13176 287.37959,-477.28996 C 287.37959,-476.44814 287.37959,-475.60857 287.37959,-474.77124 C 287.42994,-474.51156 287.57653,-474.33979 287.81935,-474.25596 L 287.81935,-474.25596 z M 293.99124,-474.99745 L 293.99124,-474.84639 C 293.99123,-474.78785 293.98912,-474.723 293.98491,-474.65182 C 293.98069,-474.58063 293.96606,-474.48216 293.94101,-474.35641 C 293.82369,-473.95436 293.6017,-473.6277 293.27506,-473.37645 C 292.9484,-473.1252 292.57574,-472.99958 292.15708,-472.99957 C 291.82199,-472.99958 291.50786,-473.10009 291.21469,-473.30112 C 290.92152,-473.50214 290.72893,-473.70943 290.63692,-473.92298 C 290.5449,-474.13653 290.4842,-474.30823 290.4548,-474.43807 C 290.42541,-474.56791 290.41071,-474.75437 290.41071,-474.99745 L 290.41071,-475.48704 L 291.60422,-475.48704 L 291.60422,-475.0979 C 291.60422,-474.99719 291.60633,-474.89872 291.61055,-474.80249 C 291.61476,-474.70626 291.65872,-474.58485 291.74243,-474.43826 C 291.82614,-474.29168 291.97688,-474.21839 292.19465,-474.21839 C 292.41241,-474.21839 292.56737,-474.29168 292.65951,-474.43826 C 292.75165,-474.58485 292.79773,-474.77124 292.79773,-474.99745 L 292.79773,-476.2914 C 292.79773,-476.50073 292.7475,-476.64725 292.64705,-476.73097 C 292.5466,-476.81467 292.4482,-476.86489 292.35184,-476.88164 C 292.25548,-476.89838 292.15286,-476.90675 292.04397,-476.90675 L 291.83042,-476.90675 L 291.83042,-477.96224 L 292.04397,-477.96224 C 292.54647,-477.96223 292.79773,-478.19674 292.79773,-478.66577 L 292.79773,-479.67065 C 292.79773,-479.78796 292.79146,-479.87384 292.77894,-479.92829 C 292.76642,-479.98272 292.71619,-480.06649 292.62827,-480.1796 C 292.54034,-480.2927 292.40424,-480.34925 292.21995,-480.34926 C 292.01062,-480.34925 291.85566,-480.28644 291.75509,-480.16082 C 291.65451,-480.03518 291.60422,-479.87179 291.60422,-479.67065 L 291.60422,-479.0553 L 290.41071,-479.0553 L 290.41071,-479.67065 C 290.41071,-480.19845 290.5803,-480.64031 290.91948,-480.99623 C 291.25865,-481.35214 291.69214,-481.5301 292.21995,-481.53011 C 292.51312,-481.5301 292.79581,-481.4547 293.06802,-481.30391 C 293.34023,-481.1531 293.54119,-480.97718 293.67091,-480.77617 C 293.80062,-480.57513 293.88644,-480.3888 293.92836,-480.21718 C 293.97027,-480.04554 293.99123,-479.86336 293.99124,-479.67065 L 293.99124,-478.69069 C 293.99123,-478.14626 293.75251,-477.73169 293.27506,-477.44696 C 293.54317,-477.26267 293.72957,-477.07634 293.83424,-476.88797 C 293.9389,-476.69959 293.99123,-476.44629 293.99124,-476.12808 L 293.99124,-474.99745 z "
         style="font-size:12.5630846px;font-style:normal;font-weight:normal;writing-mode:lr-tb;fill:#000000;fill-opacity:1;stroke:none;stroke-width:1px;stroke-linecap:butt;stroke-linejoin:miter;stroke-opacity:1;font-family:Arial"
         transform="matrix(-0.6377183,0.9308951,-0.7311172,-0.5008585,0,0)" />
      <path
         id="text2276"
         d="M -295.51739,437.71393 C -296.3969,437.54626 -296.90784,437.03111 -297.0502,436.16847 C -297.0502,435.27235 -297.0502,434.37412 -297.0502,433.47378 C -297.0502,432.57344 -297.0502,431.671 -297.0502,430.76643 C -296.94132,430.11314 -296.65237,429.67338 -296.18335,429.44717 C -295.71433,429.22098 -295.17834,429.17497 -294.57539,429.30915 C -294.27379,429.49344 -294.03084,429.68814 -293.84655,429.89325 C -293.66227,430.09838 -293.53665,430.38944 -293.46968,430.76643 C -293.46968,431.671 -293.46968,432.57133 -293.46968,433.46745 C -293.46968,434.36358 -293.46968,435.25561 -293.46968,436.14355 C -293.587,436.95583 -294.02254,437.47508 -294.77629,437.70128 C -294.86856,437.70128 -294.94607,437.70339 -295.00882,437.70761 C -295.07157,437.71182 -295.24109,437.71393 -295.51739,437.71393 L -295.51739,437.71393 z M -295.39202,436.50777 C -295.02345,436.50777 -294.78894,436.34445 -294.68849,436.01779 C -294.68849,435.17177 -294.68849,434.32792 -294.68849,433.48624 C -294.68849,432.64456 -294.68849,431.80071 -294.68849,430.95468 C -294.73859,430.80414 -294.79303,430.67852 -294.85182,430.5778 C -295.09463,430.39353 -295.29981,430.35378 -295.46736,430.45857 C -295.6349,430.56337 -295.75637,430.72874 -295.83177,430.95468 C -295.83177,431.79228 -295.83177,432.63197 -295.83177,433.47378 C -295.83177,434.31559 -295.83177,435.15516 -295.83177,435.99249 C -295.78142,436.25218 -295.63484,436.42394 -295.39202,436.50777 L -295.39202,436.50777 z M -289.47125,433.40457 C -289.40429,433.51346 -289.36033,433.63072 -289.33936,433.75634 C -289.31841,433.88197 -289.30793,434.03692 -289.30793,434.22121 L -289.30793,435.82916 C -289.30793,436.03875 -289.32678,436.22937 -289.36448,436.401 C -289.40218,436.57263 -289.52781,436.83014 -289.74135,437.17354 C -289.95491,437.51693 -290.36738,437.71381 -290.97876,437.76416 C -291.35577,437.76416 -291.69501,437.68249 -291.99648,437.51917 C -292.29796,437.35584 -292.50947,437.15897 -292.631,436.92855 C -292.75254,436.69813 -292.82794,436.50547 -292.8572,436.35058 C -292.88647,436.19569 -292.9011,436.02189 -292.9011,435.82916 L -292.9011,434.51029 C -292.9011,434.326 -292.89689,434.19405 -292.88845,434.11443 C -292.88002,434.03482 -292.85075,433.92804 -292.80065,433.7941 L -291.14209,429.30915 L -289.78525,429.30915 L -291.14209,432.8268 C -290.97467,432.76802 -290.79461,432.73862 -290.60188,432.73862 L -290.48916,432.73862 C -290.03676,432.79741 -289.69746,433.01939 -289.47125,433.40457 L -289.47125,433.40457 z M -290.61453,434.03296 C -290.74029,433.86529 -290.90783,433.78146 -291.11717,433.78145 C -291.22605,433.78146 -291.32867,433.81494 -291.42503,433.8819 C -291.52139,433.94887 -291.59047,434.02843 -291.63226,434.12056 C -291.67405,434.21271 -291.69494,434.34262 -291.69494,434.51029 L -291.69494,435.82916 C -291.69494,436.01345 -291.64472,436.18515 -291.54427,436.34425 C -291.44382,436.50336 -291.27219,436.5704 -291.02937,436.54535 C -290.8116,436.54535 -290.66917,436.47205 -290.60207,436.32547 C -290.53498,436.17889 -290.50144,436.01345 -290.50143,435.82916 L -290.50143,434.51029 C -290.50144,434.4014 -290.50776,434.31137 -290.52041,434.24018 C -290.53307,434.169 -290.56444,434.09993 -290.61453,434.03296 L -290.61453,434.03296 z "
         style="font-size:12.5630846px;font-style:normal;font-weight:normal;writing-mode:lr-tb;fill:#000000;fill-opacity:1;stroke:none;stroke-width:1px;stroke-linecap:butt;stroke-linejoin:miter;stroke-opacity:1;font-family:Arial"
         transform="matrix(0.6377183,-0.9308951,0.7311172,0.5008585,0,0)" />
      <path
         id="text2280"
         d="M -132.69166,-581.17056 C -133.57117,-581.33823 -134.08211,-581.85338 -134.22447,-582.71602 C -134.22447,-583.61214 -134.22447,-584.51037 -134.22447,-585.41071 C -134.22447,-586.31105 -134.22447,-587.21349 -134.22447,-588.11806 C -134.11559,-588.77135 -133.82664,-589.21111 -133.35762,-589.43732 C -132.8886,-589.66351 -132.35261,-589.70952 -131.74966,-589.57534 C -131.44806,-589.39105 -131.20511,-589.19635 -131.02083,-588.99124 C -130.83654,-588.78611 -130.71092,-588.49505 -130.64395,-588.11806 C -130.64395,-587.21349 -130.64395,-586.31316 -130.64395,-585.41704 C -130.64395,-584.52091 -130.64395,-583.62888 -130.64395,-582.74094 C -130.76127,-581.92866 -131.19681,-581.40941 -131.95056,-581.18321 C -132.04283,-581.18321 -132.12034,-581.1811 -132.18309,-581.17688 C -132.24584,-581.17267 -132.41536,-581.17056 -132.69166,-581.17056 L -132.69166,-581.17056 z M -132.56629,-582.37672 C -132.19772,-582.37672 -131.96321,-582.54004 -131.86276,-582.8667 C -131.86276,-583.71272 -131.86276,-584.55657 -131.86276,-585.39825 C -131.86276,-586.23993 -131.86276,-587.08378 -131.86276,-587.92981 C -131.91286,-588.08035 -131.9673,-588.20597 -132.02609,-588.30669 C -132.26891,-588.49096 -132.47409,-588.53071 -132.64163,-588.42592 C -132.80917,-588.32112 -132.93064,-588.15575 -133.00604,-587.92981 C -133.00605,-587.09221 -133.00605,-586.25252 -133.00604,-585.41071 C -133.00605,-584.5689 -133.00605,-583.72933 -133.00604,-582.892 C -132.95569,-582.63231 -132.80911,-582.46055 -132.56629,-582.37672 L -132.56629,-582.37672 z M -127.82638,-581.19586 L -127.82638,-582.47717 L -130.2134,-582.47717 L -130.2134,-583.59553 L -128.47968,-589.57534 L -127.21103,-589.57534 L -129.00762,-583.59553 L -127.82638,-583.59553 L -127.82638,-585.98255 L -126.6206,-585.98255 L -126.6206,-583.59553 L -126.04244,-583.59553 L -126.04244,-582.47717 L -126.6206,-582.47717 L -126.6206,-581.19586 L -127.82638,-581.19586 z "
         style="font-size:12.5630827px;font-style:normal;font-weight:normal;writing-mode:lr-tb;fill:#000000;fill-opacity:1;stroke:none;stroke-width:1px;stroke-linecap:butt;stroke-linejoin:miter;stroke-opacity:1;font-family:Arial"
         transform="scale(-1.1283839,-0.8862232)" />
      <path
         id="text2288"
         d="M -443.28335,-186.21504 C -444.16286,-186.38271 -444.6738,-186.89786 -444.81616,-187.7605 C -444.81616,-188.65662 -444.81616,-189.55485 -444.81616,-190.45519 C -444.81616,-191.35553 -444.81616,-192.25798 -444.81616,-193.16254 C -444.70728,-193.81584 -444.41833,-194.25559 -443.94931,-194.4818 C -443.48029,-194.708 -442.9443,-194.754 -442.34135,-194.61982 C -442.03975,-194.43553 -441.7968,-194.24083 -441.61251,-194.03572 C -441.42823,-193.8306 -441.30261,-193.53954 -441.23564,-193.16254 C -441.23564,-192.25798 -441.23564,-191.35764 -441.23564,-190.46152 C -441.23564,-189.5654 -441.23564,-188.67336 -441.23564,-187.78542 C -441.35296,-186.97314 -441.7885,-186.45389 -442.54225,-186.22769 C -442.63452,-186.22769 -442.71203,-186.22558 -442.77478,-186.22136 C -442.83753,-186.21715 -443.00705,-186.21504 -443.28335,-186.21504 L -443.28335,-186.21504 z M -443.15798,-187.4212 C -442.78941,-187.4212 -442.5549,-187.58452 -442.45445,-187.91118 C -442.45445,-188.7572 -442.45445,-189.60105 -442.45445,-190.44273 C -442.45445,-191.28441 -442.45445,-192.12826 -442.45445,-192.97429 C -442.50455,-193.12483 -442.55899,-193.25046 -442.61778,-193.35117 C -442.86059,-193.53545 -443.06577,-193.57519 -443.23332,-193.4704 C -443.40086,-193.3656 -443.52233,-193.20023 -443.59773,-192.97429 C -443.59773,-192.1367 -443.59773,-191.297 -443.59773,-190.45519 C -443.59773,-189.61338 -443.59773,-188.77381 -443.59773,-187.93648 C -443.54738,-187.67679 -443.4008,-187.50503 -443.15798,-187.4212 L -443.15798,-187.4212 z M -438.50625,-191.62973 C -438.29692,-191.62972 -438.08541,-191.57112 -437.87173,-191.45394 C -437.65805,-191.33674 -437.49888,-191.2007 -437.39421,-191.04581 C -437.28955,-190.89092 -437.21836,-190.72759 -437.18066,-190.55584 C -437.14296,-190.38407 -437.12411,-190.20183 -437.12411,-190.00911 L -437.12411,-188.12473 C -437.12411,-187.94044 -437.13044,-187.78549 -437.14309,-187.65986 C -437.15574,-187.53423 -437.20392,-187.35838 -437.28763,-187.13231 C -437.37134,-186.90623 -437.57441,-186.68847 -437.89684,-186.479 C -438.21928,-186.26954 -438.56478,-186.16481 -438.93335,-186.16481 C -439.21809,-186.16481 -439.48819,-186.23395 -439.74365,-186.37223 C -439.99912,-186.51051 -440.19804,-186.68016 -440.34041,-186.88119 C -440.48278,-187.08221 -440.57907,-187.28528 -440.6293,-187.4904 C -440.67952,-187.69552 -440.70463,-187.90696 -440.70463,-188.12473 L -440.70463,-188.33828 L -439.4862,-188.33828 L -439.4862,-188.12473 C -439.48621,-188.04115 -439.4841,-187.95744 -439.47988,-187.8736 C -439.47566,-187.78977 -439.4317,-187.68504 -439.34799,-187.55941 C -439.26428,-187.43378 -439.11764,-187.37097 -438.90804,-187.37097 C -438.6821,-187.37097 -438.53143,-187.43168 -438.45602,-187.55309 C -438.38062,-187.67449 -438.33871,-187.77079 -438.33027,-187.84197 C -438.32184,-187.91316 -438.31762,-187.99067 -438.31762,-188.0745 L -438.31762,-188.21291 L -438.31762,-189.84579 C -438.31762,-189.92119 -438.31973,-190.0008 -438.32394,-190.08464 C -438.32816,-190.16847 -438.37423,-190.27321 -438.46216,-190.39884 C -438.55008,-190.52446 -438.69462,-190.58727 -438.89578,-190.58727 C -439.18895,-190.58727 -439.38576,-190.44069 -439.4862,-190.14752 L -440.55396,-190.14752 L -440.55396,-194.61982 L -437.12411,-194.61982 L -437.12411,-193.50184 L -439.4862,-193.50184 L -439.4862,-191.25285 C -439.19304,-191.50409 -438.86638,-191.62972 -438.50625,-191.62973 L -438.50625,-191.62973 z "
         style="font-size:12.56308842px;font-style:normal;font-weight:normal;writing-mode:lr-tb;fill:#000000;fill-opacity:1;stroke:none;stroke-width:1px;stroke-linecap:butt;stroke-linejoin:miter;stroke-opacity:1;font-family:Arial"
         transform="matrix(-0.6156085,-0.9456619,0.7427149,-0.4834938,0,0)" />
    </g>
    <rect
       style="fill:none;fill-opacity:1;stroke:#000000;stroke-width:3.09279561;stroke-miterlimit:4;stroke-dasharray:none;stroke-opacity:1"
       id="rect3216"
       width="335.62152"
       height="69.192917"
       x="11.072082"
       y="10.14367"
       ry="5.3568945" />
  </g>
</svg>
