<?xml version="1.0" encoding="UTF-8" standalone="no"?>
<!-- Created with Inkscape (http://www.inkscape.org/) -->

<svg
   xmlns:dc="http://purl.org/dc/elements/1.1/"
   xmlns:cc="http://creativecommons.org/ns#"
   xmlns:rdf="http://www.w3.org/1999/02/22-rdf-syntax-ns#"
   xmlns:svg="http://www.w3.org/2000/svg"
   xmlns="http://www.w3.org/2000/svg"
   xmlns:xlink="http://www.w3.org/1999/xlink"
   xmlns:sodipodi="http://sodipodi.sourceforge.net/DTD/sodipodi-0.dtd"
   xmlns:inkscape="http://www.inkscape.org/namespaces/inkscape"
   version="1.1"
   width="1841.875"
   height="388.28125"
   viewBox="0 0 52.625 11.09375"
   id="svg2"
   inkscape:version="0.48.0 r9654"
   sodipodi:docname="registrationplate.svg"
   inkscape:export-filename="C:\Users\DOR\Desktop\registrationplate.png"
   inkscape:export-xdpi="600"
   inkscape:export-ydpi="600">
  <sodipodi:namedview
     pagecolor="#ffffff"
     bordercolor="#666666"
     borderopacity="1"
     objecttolerance="10"
     gridtolerance="10"
     guidetolerance="10"
     inkscape:pageopacity="0"
     inkscape:pageshadow="2"
     inkscape:window-width="1436"
     inkscape:window-height="850"
     id="namedview4173"
     showgrid="false"
     inkscape:zoom="0.35355339"
     inkscape:cx="878.36243"
     inkscape:cy="215.95184"
     inkscape:window-x="0"
     inkscape:window-y="14"
     inkscape:window-maximized="0"
     inkscape:current-layer="flowRoot5458-3"
     fit-margin-top="0"
     fit-margin-left="0"
     fit-margin-right="0"
     fit-margin-bottom="0" />
  <desc
     id="desc4">Flag of the European Union</desc>
  <metadata
     id="metadata44">
    <rdf:RDF>
      <cc:Work
         rdf:about="">
        <dc:format>image/svg+xml</dc:format>
        <dc:type
           rdf:resource="http://purl.org/dc/dcmitype/StillImage" />
        <dc:title />
      </cc:Work>
    </rdf:RDF>
  </metadata>
  <defs
     id="defs6">
    <g
       id="s">
      <g
         id="c">
        <path
           d="M 0,0 V 1 H 0.5 z"
           transform="matrix(0.95105652,0.30901699,-0.30901699,0.95105652,0,-1)"
           id="t"
           inkscape:connector-curvature="0" />
        <use
           transform="scale(-1,1)"
           id="use11"
           x="0"
           y="0"
           width="27"
           height="18"
           xlink:href="#t" />
      </g>
      <use
         transform="matrix(0.30901699,0.95105652,-0.95105652,0.30901699,0,0)"
         id="use13"
         x="0"
         y="0"
         width="27"
         height="18"
         xlink:href="#c" />
      <use
         transform="matrix(-0.80901699,0.58778525,-0.58778525,-0.80901699,0,0)"
         id="use15"
         x="0"
         y="0"
         width="27"
         height="18"
         xlink:href="#c" />
      <use
         transform="matrix(-0.80901699,-0.58778525,0.58778525,-0.80901699,0,0)"
         id="use17"
         x="0"
         y="0"
         width="27"
         height="18"
         xlink:href="#c" />
      <use
         transform="matrix(0.30901699,-0.95105652,0.95105652,0.30901699,0,0)"
         id="use19"
         x="0"
         y="0"
         width="27"
         height="18"
         xlink:href="#c" />
    </g>
  </defs>
  <g
     inkscape:groupmode="layer"
     id="layer5"
     inkscape:label="White"
     style="display:inline">
    <rect
       style="fill:#ffffff;fill-opacity:1;stroke:none"
       id="rect5772"
       width="47.88158"
       height="10.324354"
       x="4.3717127"
       y="0.33186176"
       inkscape:export-filename="C:\Users\DOR\Desktop\1-1.png"
       inkscape:export-xdpi="300.02036"
       inkscape:export-ydpi="300.02036" />
  </g>
  <g
     inkscape:groupmode="layer"
     id="layer2"
     inkscape:label="Border"
     transform="translate(14.894833,0.76815315)"
     style="display:inline">
    <g
       id="g5615"
       transform="translate(-0.32238161,0.09885404)"
       inkscape:export-filename="C:\Users\DOR\Desktop\1-1.png"
       inkscape:export-xdpi="300.02036"
       inkscape:export-ydpi="300.02036">
      <g
         style="fill:#ff0000"
         transform="translate(2.801619,-17.452523)"
         id="layer4">
        <g
           id="text4057"
           style="font-size:2.31584263px;font-style:normal;font-variant:normal;font-weight:bold;font-stretch:normal;line-height:125%;letter-spacing:0px;word-spacing:0px;fill:#ff0000;fill-opacity:1;stroke:none;font-family:Arial;-inkscape-font-specification:Arial Bold"
           transform="matrix(0.81873303,0,0,1.2213994,0.78052294,0.84852814)">
          <g
             transform="translate(-3.3937454,0.98477103)"
             id="g5400">
            <path
               transform="matrix(1.2213994,0,0,0.818733,-28.384448,9.1029035)"
               inkscape:connector-curvature="0"
               style="fill:#003399;fill-opacity:1"
               id="path21"
               d="M 8.3583992,3.9009164 V 14.02465 H 12.407893 V 3.9009164 z" />
            <g
               id="g5378">
              <g
                 transform="matrix(1.2256751,0,0,0.81682917,-11.607415,8.802654)"
                 id="g3270">
                <g
                   transform="matrix(0.88205878,0,0,0.88800534,3.0012,1.6704867)"
                   id="g3211">
                  <g
                     transform="matrix(0.24767585,0,0,0.24767585,-7.1842962,6.6320437)"
                     id="g23"
                     style="fill:#ffcc00">
                    <use
                       transform="matrix(0.97450311,0,0,1.0177916,-0.02424898,-6.0143937)"
                       id="use25"
                       x="0"
                       y="0"
                       width="27"
                       height="18"
                       xlink:href="#s" />
                    <use
                       transform="matrix(0.30113802,0.96797731,-0.92680753,0.31451489,-3.024249,5.1817587)"
                       id="use28"
                       x="0"
                       y="0"
                       width="27"
                       height="18"
                       xlink:href="#s" />
                    <use
                       transform="matrix(0.30113802,0.96797731,-0.92680753,0.31451489,-5.2204014,2.9856063)"
                       id="use30"
                       x="0"
                       y="0"
                       width="27"
                       height="18"
                       xlink:href="#s" />
                    <use
                       transform="matrix(0.97450311,0,0,1.0177916,5.975751,-0.01439369)"
                       id="use32"
                       x="0"
                       y="0"
                       width="27"
                       height="18"
                       xlink:href="#s" />
                    <use
                       transform="matrix(-0.78838958,0.59824288,-0.57279856,-0.82341068,-5.2204014,-3.0143937)"
                       id="use34"
                       x="0"
                       y="0"
                       width="27"
                       height="18"
                       xlink:href="#s" />
                    <use
                       transform="matrix(-0.78838958,-0.59824288,0.57279856,-0.82341068,-3.024249,-5.2105461)"
                       id="use36"
                       x="0"
                       y="0"
                       width="27"
                       height="18"
                       xlink:href="#s" />
                    <use
                       transform="matrix(0.97450311,0,0,1.0177916,-0.02424898,5.9856063)"
                       id="use38"
                       x="0"
                       y="0"
                       width="27"
                       height="18"
                       xlink:href="#s" />
                    <use
                       transform="matrix(-0.30113802,0.96797731,0.92680753,0.31451489,3.024249,5.1817587)"
                       id="use3250"
                       x="0"
                       y="0"
                       width="27"
                       height="18"
                       xlink:href="#s" />
                    <use
                       transform="matrix(-0.30113802,0.96797731,0.92680753,0.31451489,5.2204014,2.9856063)"
                       id="use3252"
                       x="0"
                       y="0"
                       width="27"
                       height="18"
                       xlink:href="#s" />
                    <use
                       transform="matrix(-0.97450311,0,0,1.0177916,-6.024249,-0.01439369)"
                       id="use3254"
                       x="0"
                       y="0"
                       width="27"
                       height="18"
                       xlink:href="#s" />
                    <use
                       transform="matrix(0.78838958,0.59824288,0.57279856,-0.82341068,5.2204014,-3.0143937)"
                       id="use3256"
                       x="0"
                       y="0"
                       width="27"
                       height="18"
                       xlink:href="#s" />
                    <use
                       transform="matrix(0.78838958,-0.59824288,-0.57279856,-0.82341068,3.024249,-5.2105461)"
                       id="use3258"
                       x="0"
                       y="0"
                       width="27"
                       height="18"
                       xlink:href="#s" />
                  </g>
                </g>
              </g>
              <g
                 transform="translate(1.8713063,0)"
                 id="g5358">
                <path
                   style="font-size:2.31584263px;font-style:normal;font-variant:normal;font-weight:normal;font-stretch:normal;line-height:125%;letter-spacing:0px;word-spacing:0px;fill:#ffffff;fill-opacity:1;stroke:none;font-family:Sans;-inkscape-font-specification:Sans"
                   d="m -17.093632,17.361013 0,1.326474 0,0.331253 0.494242,0 0.989573,0 0,-0.331253 -0.989573,0 0,-1.326474 -0.494242,0 z"
                   id="path5111-5"
                   inkscape:connector-curvature="0" />
                <path
                   style="fill:#ffffff"
                   d="m -19.537755,17.361013 0.494605,0 0,1.657727 -0.494605,0 z"
                   id="rect5167"
                   inkscape:connector-curvature="0" />
                <path
                   style="font-size:2.31584263px;font-style:normal;font-variant:normal;font-weight:bold;font-stretch:normal;line-height:125%;letter-spacing:0px;word-spacing:0px;fill:#ffffff;fill-opacity:1;stroke:none;font-family:Arial;-inkscape-font-specification:Arial Bold"
                   d="m -18.810286,17.361013 0,1.657727 0.498233,0 0,-0.614136 0.01418,0 0.421917,0.614136 0.544021,0 -0.464435,-0.677895 c 0.280114,-0.0887 0.469886,-0.260168 0.469886,-0.458037 0,-0.289322 -0.405274,-0.521795 -0.907066,-0.521795 l -0.0785,0 -0.0022,0 -0.496052,0 z m 0.498233,0.331985 0.09157,0 c 0.208449,0 0.377218,0.08447 0.377218,0.18981 0,0.105346 -0.168769,0.190544 -0.377218,0.190544 l -0.09157,0 0,-0.380354 z"
                   id="rect5180-4"
                   inkscape:connector-curvature="0" />
              </g>
            </g>
          </g>
        </g>
      </g>
      <path
         inkscape:connector-curvature="0"
         id="rect2985"
         d="m -13.822451,-0.86700719 c -0.416263,0 -0.75,0.333737 -0.75,0.75 l 0,9.59375019 c 0,0.416263 0.333737,0.75 0.75,0.75 l 51.125,0 c 0.416263,0 0.75,-0.333737 0.75,-0.75 l 0,-9.59375019 c 0,-0.416263 -0.333737,-0.75 -0.75,-0.75 l -51.125,0 z m 0,0.5 51.125,0 c 0.144591,0 0.25,0.105408 0.25,0.25 l 0,9.59375019 c 0,0.144592 -0.105409,0.25 -0.25,0.25 l -51.125,0 c -0.144592,0 -0.25,-0.105408 -0.25,-0.25 l 0,-9.59375019 c 0,-0.144592 0.105408,-0.25 0.25,-0.25 z"
         style="font-size:medium;font-style:normal;font-variant:normal;font-weight:normal;font-stretch:normal;text-indent:0;text-align:start;text-decoration:none;line-height:normal;letter-spacing:normal;word-spacing:normal;text-transform:none;direction:ltr;block-progression:tb;writing-mode:lr-tb;text-anchor:start;baseline-shift:baseline;color:#000000;fill:#000000;fill-opacity:1;fill-rule:nonzero;stroke:none;stroke-width:0.50618672;marker:none;visibility:visible;display:inline;overflow:visible;enable-background:accumulate;font-family:Sans;-inkscape-font-specification:Sans" />
    </g>
  </g>
  <g
     inkscape:groupmode="layer"
     id="layer3"
     inkscape:label="Words"
     style="display:none"
     transform="translate(0.32238161,0)">
    <flowRoot
       xml:space="preserve"
       id="flowRoot5458"
       style="font-size:40px;font-style:normal;font-weight:normal;line-height:125%;letter-spacing:0px;word-spacing:0px;fill:#000000;fill-opacity:1;stroke:none;display:inline;font-family:Sans"
       transform="matrix(0.04679811,0,0,0.04102917,24.000402,-22.123276)"
       inkscape:export-filename="C:\Users\DOR\Desktop\1-1.png"
       inkscape:export-xdpi="300.02036"
       inkscape:export-ydpi="300.02036"><flowRegion
         id="flowRegion5460"><rect
           id="rect5462"
           width="1010"
           height="100"
           x="-80"
           y="558.28125" /></flowRegion><flowPara
         id="flowPara5464"
         style="font-style:normal;font-variant:normal;font-weight:bold;font-stretch:normal;font-family:Arial Narrow;-inkscape-font-specification:Arial Narrow Bold">BAILE ÁTHA CLIATH </flowPara></flowRoot>    <text
       xml:space="preserve"
       style="font-size:30.0384903px;font-style:normal;font-weight:normal;line-height:125%;letter-spacing:0px;word-spacing:0px;fill:#000000;fill-opacity:1;stroke:none;font-family:Sans"
       x="-24.156656"
       y="42.206451"
       id="text5725"
       sodipodi:linespacing="125%"><tspan
         sodipodi:role="line"
         id="tspan5727"
         x="-24.156656"
         y="42.206451"
         style="font-style:normal;font-variant:normal;font-weight:normal;font-stretch:normal;font-family:Tahoma;-inkscape-font-specification:Tahoma" /></text>
    <g
       id="g5758"
       transform="translate(53.101982,-37.126275)"
       inkscape:export-filename="C:\Users\DOR\Desktop\1-1.png"
       inkscape:export-xdpi="300.02036"
       inkscape:export-ydpi="300.02036">
      <path
         d="m -46.651109,45.242986 1.012121,-0.141922 c 0.04841,0.514072 0.245086,0.771107 0.590026,0.771107 0.232983,0 0.423606,-0.128516 0.571871,-0.385554 0.148261,-0.257033 0.243572,-0.778201 0.285936,-1.563502 -0.130111,0.192386 -0.276861,0.33746 -0.44025,0.435227 -0.163394,0.09777 -0.34494,0.146654 -0.544639,0.146652 -0.414533,2e-6 -0.781407,-0.206573 -1.100625,-0.619725 -0.31922,-0.413146 -0.478829,-0.961908 -0.478829,-1.646288 0,-0.731679 0.16793,-1.307249 0.503791,-1.726712 0.33586,-0.419451 0.750391,-0.629179 1.243593,-0.629187 0.550689,8e-6 1.004554,0.270447 1.361598,0.811319 0.357038,0.540884 0.535558,1.437355 0.535562,2.689413 -4e-6,1.274142 -0.186089,2.190323 -0.558255,2.748546 -0.372173,0.558225 -0.854784,0.837338 -1.447833,0.837338 -0.411506,0 -0.751149,-0.141134 -1.018929,-0.4234 -0.267782,-0.282266 -0.439494,-0.716702 -0.515138,-1.303312 z m 2.369181,-2.904661 c -3e-6,-0.435221 -0.07867,-0.769524 -0.23601,-1.002912 -0.157343,-0.233376 -0.335864,-0.350068 -0.535562,-0.350073 -0.193652,5e-6 -0.354774,0.0962 -0.483368,0.288574 -0.128596,0.192388 -0.192894,0.512499 -0.192893,0.960335 -10e-7,0.447846 0.07035,0.775841 0.211048,0.983989 0.140697,0.208155 0.313922,0.312231 0.519677,0.312227 0.196673,4e-6 0.365359,-0.09934 0.50606,-0.298034 0.140696,-0.198687 0.211045,-0.496722 0.211048,-0.894106 z"
         style="font-size:72px;font-style:normal;font-variant:normal;font-weight:bold;font-stretch:normal;line-height:125%;letter-spacing:0px;word-spacing:0px;fill:#000000;fill-opacity:1;stroke:none;font-family:Arial Narrow;-inkscape-font-specification:Arial Narrow Bold"
         id="path5707"
         inkscape:connector-curvature="0" />
      <path
         d="m -42.212404,45.242986 1.012121,-0.141922 c 0.04841,0.514072 0.245086,0.771107 0.590026,0.771107 0.232982,0 0.423606,-0.128516 0.571871,-0.385554 0.14826,-0.257033 0.243572,-0.778201 0.285936,-1.563502 -0.130111,0.192386 -0.276861,0.33746 -0.44025,0.435227 -0.163394,0.09777 -0.34494,0.146654 -0.54464,0.146652 -0.414532,2e-6 -0.781407,-0.206573 -1.100625,-0.619725 -0.319219,-0.413146 -0.478829,-0.961908 -0.478829,-1.646288 0,-0.731679 0.16793,-1.307249 0.503792,-1.726712 0.33586,-0.419451 0.75039,-0.629179 1.243593,-0.629187 0.550688,8e-6 1.004554,0.270447 1.361598,0.811319 0.357038,0.540884 0.535558,1.437355 0.535562,2.689413 -4e-6,1.274142 -0.186089,2.190323 -0.558255,2.748546 -0.372173,0.558225 -0.854784,0.837338 -1.447833,0.837338 -0.411507,0 -0.75115,-0.141134 -1.018929,-0.4234 -0.267782,-0.282266 -0.439494,-0.716702 -0.515138,-1.303312 z m 2.36918,-2.904661 c -2e-6,-0.435221 -0.07867,-0.769524 -0.23601,-1.002912 -0.157342,-0.233376 -0.335863,-0.350068 -0.535562,-0.350073 -0.193651,5e-6 -0.354773,0.0962 -0.483367,0.288574 -0.128597,0.192388 -0.192894,0.512499 -0.192893,0.960335 -1e-6,0.447846 0.07035,0.775841 0.211048,0.983989 0.140696,0.208155 0.313922,0.312231 0.519676,0.312227 0.196673,4e-6 0.36536,-0.09934 0.506061,-0.298034 0.140696,-0.198687 0.211045,-0.496722 0.211047,-0.894106 z"
         style="font-size:72px;font-style:normal;font-variant:normal;font-weight:bold;font-stretch:normal;line-height:125%;letter-spacing:0px;word-spacing:0px;fill:#000000;fill-opacity:1;stroke:none;font-family:Arial Narrow;-inkscape-font-specification:Arial Narrow Bold"
         id="path5709"
         inkscape:connector-curvature="0" />
      <path
         d="m -35.565371,39.883083 1.60172,0 c 0.404947,7e-6 0.710466,0.06043 0.916559,0.181275 0.206087,0.120856 0.395907,0.324689 0.56946,0.611498 0.173546,0.286822 0.309734,0.659038 0.408565,1.116649 0.09882,0.457622 0.148237,1.026418 0.148241,1.706396 -4e-6,0.612305 -0.05183,1.14485 -0.155472,1.597629 -0.103652,0.452785 -0.235019,0.811305 -0.394103,1.075561 -0.15909,0.264258 -0.35132,0.463257 -0.576691,0.596996 -0.225376,0.133741 -0.515228,0.20061 -0.869556,0.20061 l -1.648723,0 z m 0.87498,1.198827 0,4.693794 0.658043,0 c 0.282016,1e-6 0.486298,-0.03545 0.612847,-0.106347 0.126544,-0.0709 0.230192,-0.17805 0.310944,-0.32146 0.08075,-0.143406 0.147634,-0.369798 0.200667,-0.679174 0.05303,-0.309371 0.07954,-0.717037 0.07954,-1.222996 -3e-6,-0.52529 -0.02712,-0.939399 -0.08135,-1.242333 -0.05424,-0.302925 -0.1386,-0.541401 -0.253092,-0.71543 -0.114497,-0.174017 -0.253698,-0.288421 -0.417604,-0.343212 -0.122933,-0.04189 -0.360358,-0.06284 -0.712277,-0.06284 z"
         style="font-size:72px;font-style:normal;font-variant:normal;font-weight:bold;font-stretch:normal;line-height:125%;letter-spacing:0px;word-spacing:0px;fill:#000000;fill-opacity:1;stroke:none;font-family:Arial Narrow;-inkscape-font-specification:Arial Narrow Bold"
         id="path5711"
         inkscape:connector-curvature="0" />
      <path
         d="m -26.461732,46.908198 -1.02464,0 0,-5.009828 c -0.383127,0.457307 -0.825652,0.793187 -1.327576,1.007642 l 0,-1.206333 c 0.285117,-0.122993 0.580628,-0.342971 0.886536,-0.659935 0.305905,-0.316952 0.518258,-0.682005 0.637058,-1.095162 l 0.828622,0 z"
         style="font-size:72px;font-style:normal;font-variant:normal;font-weight:bold;font-stretch:normal;line-height:125%;letter-spacing:0px;word-spacing:0px;fill:#000000;fill-opacity:1;stroke:none;font-family:Arial Narrow;-inkscape-font-specification:Arial Narrow Bold"
         id="path5713"
         inkscape:connector-curvature="0" />
      <path
         d="m -22.02303,45.674981 0,1.235542 -3.644543,0 c 0.03909,-0.467074 0.158621,-0.91127 0.358591,-1.332586 0.199968,-0.421313 0.588628,-0.974386 1.165983,-1.659224 0.457069,-0.54597 0.738228,-0.915212 0.843477,-1.107726 0.156365,-0.280873 0.234548,-0.563328 0.23455,-0.847365 -2e-6,-0.302963 -0.06465,-0.531766 -0.193954,-0.686411 -0.129307,-0.154635 -0.299203,-0.231955 -0.509696,-0.23196 -0.46008,5e-6 -0.708161,0.361357 -0.744244,1.084058 l -1.032922,-0.132549 c 0.06315,-0.70692 0.250336,-1.226068 0.561567,-1.557446 0.311229,-0.331365 0.725449,-0.497049 1.242664,-0.497057 0.568328,8e-6 0.996832,0.194096 1.285514,0.582267 0.288673,0.388184 0.433009,0.833168 0.433013,1.334954 -4e-6,0.284038 -0.03684,0.559391 -0.110508,0.826061 -0.07368,0.266679 -0.187192,0.534931 -0.340549,0.804759 -0.153362,0.269834 -0.408961,0.614619 -0.766797,1.034352 -0.333785,0.394493 -0.54503,0.654856 -0.633735,0.78109 -0.08871,0.126239 -0.160127,0.249319 -0.214252,0.369241 z"
         style="font-size:72px;font-style:normal;font-variant:normal;font-weight:bold;font-stretch:normal;line-height:125%;letter-spacing:0px;word-spacing:0px;fill:#000000;fill-opacity:1;stroke:none;font-family:Arial Narrow;-inkscape-font-specification:Arial Narrow Bold"
         id="path5715"
         inkscape:connector-curvature="0" />
      <path
         d="m -21.228872,45.009872 1.017189,-0.156218 c 0.02737,0.328217 0.114033,0.579113 0.259999,0.752687 0.145963,0.173576 0.317773,0.260364 0.515435,0.260362 0.215904,2e-6 0.39836,-0.102566 0.547366,-0.307701 0.149003,-0.205134 0.223506,-0.489165 0.223508,-0.852098 -2e-6,-0.337681 -0.07146,-0.602777 -0.214385,-0.795292 -0.142924,-0.192507 -0.316258,-0.288762 -0.519997,-0.288766 -0.133803,4e-6 -0.293452,0.03314 -0.478945,0.09941 l 0.114034,-1.084058 c 0.270641,0.0063 0.485025,-0.06943 0.643156,-0.227225 0.155084,-0.157792 0.232626,-0.380284 0.232629,-0.667477 -3e-6,-0.239844 -0.05626,-0.427621 -0.168771,-0.563331 -0.112516,-0.135698 -0.25696,-0.203552 -0.433331,-0.203557 -0.176376,5e-6 -0.329181,0.07812 -0.458418,0.234326 -0.129242,0.156224 -0.206025,0.387395 -0.23035,0.693513 l -0.971576,-0.20829 c 0.100351,-0.634335 0.29649,-1.095097 0.588419,-1.382293 0.291928,-0.287181 0.659879,-0.430774 1.103855,-0.430782 0.498709,8e-6 0.894789,0.184628 1.188241,0.553865 0.293444,0.369248 0.440169,0.777937 0.440172,1.226073 -3e-6,0.302973 -0.06614,0.575959 -0.19842,0.818961 -0.132283,0.243008 -0.330703,0.456033 -0.59526,0.639073 0.30713,0.08521 0.557245,0.27299 0.750347,0.56333 0.193095,0.290348 0.289644,0.653278 0.289647,1.088792 -3e-6,0.634342 -0.181698,1.159012 -0.545084,1.574014 -0.363393,0.415005 -0.795963,0.622506 -1.297713,0.622506 -0.480468,0 -0.88719,-0.175154 -1.22017,-0.52546 -0.332982,-0.350306 -0.52684,-0.828429 -0.581577,-1.434365 z"
         style="font-size:72px;font-style:normal;font-variant:normal;font-weight:bold;font-stretch:normal;line-height:125%;letter-spacing:0px;word-spacing:0px;fill:#000000;fill-opacity:1;stroke:none;font-family:Arial Narrow;-inkscape-font-specification:Arial Narrow Bold"
         id="path5717"
         inkscape:connector-curvature="0" />
      <path
         d="m -14.714803,46.910523 0,-1.396492 -2.075365,0 0,-1.164535 2.197694,-4.407239 0.818335,0 0,4.402507 0.628515,0 0,1.169267 -0.628515,0 0,1.396492 z m 0,-2.565759 0,-2.371673 -1.164229,2.371673 z"
         style="font-size:72px;font-style:normal;font-variant:normal;font-weight:bold;font-stretch:normal;line-height:125%;letter-spacing:0px;word-spacing:0px;fill:#000000;fill-opacity:1;stroke:none;font-family:Arial Narrow;-inkscape-font-specification:Arial Narrow Bold"
         id="path5719"
         inkscape:connector-curvature="0" />
      <path
         d="m -12.351466,45.005138 1.037433,-0.137282 c 0.02706,0.302969 0.115769,0.54124 0.266123,0.714815 0.15035,0.173576 0.315739,0.260364 0.496165,0.260363 0.213497,10e-7 0.396928,-0.111246 0.55029,-0.333739 0.1533558,-0.222489 0.2300358,-0.564118 0.2300388,-1.024884 -3e-6,-0.435513 -0.07593,-0.757418 -0.227783,-0.96571 -0.1518598,-0.208288 -0.3450618,-0.312433 -0.5796098,-0.312437 -0.297701,4e-6 -0.565327,0.168844 -0.802883,0.506525 l -0.843477,-0.156218 0.532248,-3.611947 2.7469398,0 0,1.245008 -1.9575898,0 -0.166891,1.178736 c 0.234547,-0.148323 0.472105,-0.222487 0.712672,-0.222492 0.4269968,5e-6 0.7893478,0.176736 1.0870478,0.530194 0.375877,0.4513 0.563817,1.046191 0.563821,1.784672 -4e-6,0.609094 -0.160128,1.169268 -0.480375,1.680527 -0.320255,0.511257 -0.778077,0.766887 -1.3734708,0.766887 -0.48113,0 -0.883323,-0.164897 -1.206579,-0.49469 -0.323258,-0.329793 -0.517964,-0.799236 -0.58412,-1.408328 z"
         style="font-size:72px;font-style:normal;font-variant:normal;font-weight:bold;font-stretch:normal;line-height:125%;letter-spacing:0px;word-spacing:0px;fill:#000000;fill-opacity:1;stroke:none;font-family:Arial Narrow;-inkscape-font-specification:Arial Narrow Bold"
         id="path5721"
         inkscape:connector-curvature="0" />
      <path
         d="m -4.3726076,41.610949 -1.012121,0.142015 c -0.04842,-0.517564 -0.246603,-0.77635 -0.594565,-0.776355 -0.226935,5e-6 -0.415289,0.129398 -0.565064,0.388178 -0.149776,0.258789 -0.244331,0.781094 -0.283666,1.566913 0.130107,-0.195663 0.275345,-0.342413 0.435712,-0.44025 0.160364,-0.09783 0.337371,-0.146746 0.531024,-0.146751 0.426631,5e-6 0.798801,0.207506 1.11651,0.622505 0.317703,0.415006 0.476555,0.966503 0.476559,1.654489 -4e-6,0.732175 -0.167934,1.306551 -0.503791,1.723133 -0.335865,0.416581 -0.751908,0.624871 -1.248132,0.624871 -0.544641,0 -0.996236,-0.270619 -1.354789,-0.811861 -0.358556,-0.541238 -0.537832,-1.438306 -0.537832,-2.691208 0,-1.271831 0.186085,-2.187045 0.558255,-2.745649 0.37217,-0.558591 0.85024,-0.837888 1.434217,-0.837896 0.402425,8e-6 0.742067,0.142813 1.01893,0.428415 0.276854,0.285617 0.453105,0.718768 0.528753,1.299451 z m -2.364643,2.901866 c -2e-6,0.438674 0.07791,0.773991 0.233741,1.005948 0.155826,0.231961 0.333591,0.347942 0.533293,0.34794 0.193648,2e-6 0.354771,-0.09625 0.483368,-0.288766 0.128592,-0.192509 0.19289,-0.5081 0.192893,-0.946776 -3e-6,-0.454449 -0.06959,-0.78582 -0.208779,-0.994113 -0.139188,-0.208287 -0.311657,-0.312433 -0.517407,-0.312436 -0.199703,3e-6 -0.369146,0.09941 -0.50833,0.298234 -0.139188,0.198826 -0.208781,0.495482 -0.208779,0.889969 z"
         style="font-size:72px;font-style:normal;font-variant:normal;font-weight:bold;font-stretch:normal;line-height:125%;letter-spacing:0px;word-spacing:0px;fill:#000000;fill-opacity:1;stroke:none;font-family:Arial Narrow;-inkscape-font-specification:Arial Narrow Bold"
         id="path5723"
         inkscape:connector-curvature="0" />
      <rect
         y="40.748775"
         x="-90.278091"
         height="1.0123734"
         width="1.5185602"
         id="rect5738"
         style="fill:#000000;fill-opacity:1;stroke:none" />
      <rect
         y="40.748775"
         x="-82.212387"
         height="1.0123734"
         width="1.5185602"
         id="rect5738-7"
         style="fill:#000000;fill-opacity:1;stroke:none;display:inline" />
    </g>
  </g>
  <g
     inkscape:groupmode="layer"
     id="layer6"
     inkscape:label="Words2"
     style="display:inline">
    <g
       transform="matrix(0.03286676,0,0,0.03662107,48.021703,-23.759905)"
       style="font-size:40px;font-style:normal;font-weight:normal;line-height:125%;letter-spacing:0px;word-spacing:0px;fill:#000000;fill-opacity:1;stroke:none;font-family:Sans"
       id="flowRoot5775">
      <path
         d="m -1180.651,739.53863 c 16.6825,15.21318 25.0238,42.27715 25.0241,81.19201 -3e-4,39.57627 -9.7415,68.24751 -29.224,86.01379 -8.902,8.11768 -20.0933,12.17652 -33.5744,12.17651 -11.4062,10e-6 -20.5116,-3.10261 -27.3163,-9.30786 -11.7186,-10.68621 -17.9432,-23.57479 -18.6739,-38.66577 l 30.0355,0 c -10e-5,9.31299 2.8612,16.57617 8.5839,21.78955 2.27,2.07014 5.4269,3.10519 9.4708,3.10517 4.0213,2e-5 7.8671,-1.67336 11.5372,-5.02015 9.995,-9.11454 16.3675,-27.83451 19.1173,-56.15996 -4.4622,14.67902 -15.3803,22.01849 -32.7545,22.01843 -11.4062,6e-5 -21.5603,-4.05877 -30.4621,-12.17652 -11.7521,-10.71666 -17.628,-28.21593 -17.628,-52.49786 0,-22.3438 6.576,-39.51246 19.728,-51.50604 9.6268,-8.78378 20.8323,-13.17577 33.6162,-13.17596 12.7503,1.9e-4 23.5905,4.07174 32.5202,12.21466 z m -19.9371,14.96124 c -3.6981,-3.37202 -8.2438,-5.05812 -13.6372,-5.05829 -3.3188,1.7e-4 -7.1756,2.0067 -11.5708,6.0196 -7.1227,6.49023 -10.6839,18.67181 -10.6839,36.54479 0,19.17024 3.2099,31.68243 9.6297,37.53662 3.67,3.34685 7.8783,5.02023 12.625,5.02014 5.4214,9e-5 10.3157,-1.99118 14.683,-5.97381 7.8477,-7.15627 11.7714,-18.07393 11.7715,-32.75299 -10e-5,-19.75999 -4.2724,-33.53866 -12.8173,-41.33606 z"
         style="font-size:249.99998474px;font-variant:normal;font-weight:bold;font-stretch:normal;font-family:MS Gothic;-inkscape-font-specification:MS Gothic Bold"
         id="path5809"
         inkscape:connector-curvature="0" />
      <path
         d="m -1055.1627,739.53863 c 16.6825,15.21318 25.0239,42.27715 25.024,81.19201 -10e-5,39.57627 -9.7414,68.24751 -29.2238,86.01379 -8.902,8.11768 -20.0935,12.17652 -33.5745,12.17651 -11.4063,10e-6 -20.5117,-3.10261 -27.3164,-9.30786 -11.7185,-10.68621 -17.9431,-23.57479 -18.6738,-38.66577 l 30.0354,0 c 0,9.31299 2.8614,16.57617 8.584,21.78955 2.2701,2.07014 5.427,3.10519 9.4708,3.10517 4.0213,2e-5 7.8671,-1.67336 11.5372,-5.02015 9.995,-9.11454 16.3675,-27.83451 19.1173,-56.15996 -4.4622,14.67902 -15.3804,22.01849 -32.7545,22.01843 -11.4063,6e-5 -21.5603,-4.05877 -30.4621,-12.17652 -11.7521,-10.71666 -17.6281,-28.21593 -17.6281,-52.49786 0,-22.3438 6.576,-39.51246 19.7281,-51.50604 9.6269,-8.78378 20.8323,-13.17577 33.6162,-13.17596 12.7504,1.9e-4 23.5904,4.07174 32.5202,12.21466 z m -19.9371,14.96124 c -3.6981,-3.37202 -8.2438,-5.05812 -13.6372,-5.05829 -3.3188,1.7e-4 -7.1757,2.0067 -11.5708,6.0196 -7.1227,6.49023 -10.684,18.67181 -10.6839,36.54479 -10e-5,19.17024 3.2099,31.68243 9.6297,37.53662 3.67,3.34685 7.8783,5.02023 12.625,5.02014 5.4213,9e-5 10.3156,-1.99118 14.6829,-5.97381 7.8477,-7.15627 11.7715,-18.07393 11.7716,-32.75299 -10e-5,-19.75999 -4.2725,-33.53866 -12.8173,-41.33606 z"
         style="font-size:249.99998474px;font-variant:normal;font-weight:bold;font-stretch:normal;font-family:MS Gothic;-inkscape-font-specification:MS Gothic Bold"
         id="path5811"
         inkscape:connector-curvature="0" />
      <path
         d="m -859.66041,895.84203 c 11.08852,2e-5 21.01863,-4.22666 29.79034,-12.68006 9.41544,-9.06876 14.1232,-28.92296 14.1233,-59.56268 -10e-5,-31.24987 -5.03772,-51.72968 -15.11288,-61.43951 -8.13839,-7.83776 -17.73863,-11.75672 -28.80076,-11.75689 l -8.13832,0 0,145.43914 z m 0,-168.51806 c 21.34321,1.9e-4 38.22676,5.98672 50.65071,17.95959 15.78039,15.21318 23.67065,41.31839 23.67076,78.31573 -1.1e-4,36.38719 -7.228,61.5489 -21.68369,75.48523 -13.72227,13.22429 -31.26819,19.83643 -52.63778,19.83642 l -36.56699,0 0,-191.59697 36.56699,0 z"
         style="font-size:249.99998474px;font-variant:normal;font-weight:bold;font-stretch:normal;font-family:MS Gothic;-inkscape-font-specification:MS Gothic Bold"
         id="path5813"
         inkscape:connector-curvature="0" />
      <path
         d="m -631.89296,918.92094 0,-77.12554 0,-71.28906 -28.72467,0 0,-16.37268 c 22.64909,1.7e-4 35.88861,-8.93639 39.71863,-26.80969 l 16.39557,0 0,191.59697 z"
         style="font-size:249.99998474px;font-variant:normal;font-weight:bold;font-stretch:normal;font-family:MS Gothic;-inkscape-font-specification:MS Gothic Bold"
         id="path5815"
         inkscape:connector-curvature="0" />
      <path
         d="m -470.16754,895.84203 0,23.07891 -110.88846,0 0,-18.34869 c 16.0879,-27.94388 37.0312,-54.7332 62.82996,-80.36804 10.32377,-12.96985 15.4857,-26.83753 15.48578,-41.60308 -8e-5,-10.18763 -2.81916,-17.90094 -8.45724,-23.13995 -3.62931,-3.37203 -8.43269,-5.05812 -14.41016,-5.05829 -4.63102,1.7e-4 -9.44809,2.32459 -14.45122,6.97326 -5.61631,5.21358 -8.42444,17.25021 -8.4244,36.10993 l -28.45083,0 c 0.70612,-25.26332 6.81777,-43.24578 18.33498,-53.94745 8.76374,-8.14292 20.44787,-12.21447 35.05241,-12.21466 13.88732,1.9e-4 25.55775,4.39218 35.01136,13.17596 10.18689,9.46571 15.2804,22.48399 15.28052,39.05487 -1.2e-4,19.09395 -9.51657,38.79049 -28.54936,59.08966 -19.82671,20.97072 -36.07337,40.03656 -48.74002,57.19757 z"
         style="font-size:249.99998474px;font-variant:normal;font-weight:bold;font-stretch:normal;font-family:MS Gothic;-inkscape-font-specification:MS Gothic Bold"
         id="path5817"
         inkscape:connector-curvature="0" />
      <path
         d="m -417.24291,858.50377 c -0.68428,15.06047 2.12385,25.51528 8.4244,31.36444 4.28605,3.98257 10.13222,5.97384 17.53852,5.97382 6.00485,2e-5 11.84007,-2.62957 17.50569,-7.8888 5.63806,-5.2439 8.45715,-14.24657 8.45724,-27.00805 -9e-5,-9.54685 -3.50615,-17.58059 -10.51819,-24.10126 -4.94305,-4.64875 -13.45776,-6.65274 -25.54417,-6.01196 l 0,-20.96558 c 11.97692,-0.6967 20.49165,-3.39242 25.54417,-8.08715 4.95384,-4.60295 7.4308,-11.69065 7.43088,-21.26312 -8e-5,-12.10007 -2.8219,-20.77214 -8.46545,-26.01624 -3.62931,-3.37202 -8.08783,-5.05812 -13.37559,-5.05829 -5.32074,1.7e-4 -9.79569,1.68627 -13.42486,5.05829 -6.36077,5.9104 -9.90788,15.71416 -10.64134,29.41132 l -28.28661,0 c 0.70612,-18.88514 6.81503,-33.67598 18.32676,-44.37256 8.76375,-8.14292 20.10575,-12.21447 34.02605,-12.21466 14.57703,1.9e-4 26.24748,4.07174 35.01136,12.21466 10.1869,9.46571 15.2804,21.8482 15.28052,37.14752 -1.2e-4,14.0433 -4.06452,24.84143 -12.19322,32.39441 -7.11076,6.60716 -13.35104,10.14465 -18.7209,10.61248 8.0904,1.21063 14.67556,4.17592 19.75548,8.89588 10.18689,9.46562 15.28039,20.88935 15.28052,34.27124 -1.3e-4,17.23738 -5.7806,31.22713 -17.34146,41.96929 -10.11048,9.39434 -22.81275,14.0915 -38.10688,14.09149 -16.6901,10e-6 -29.74819,-4.37926 -39.17429,-13.13781 -10.8439,-10.07586 -16.26584,-25.83563 -16.26583,-47.27936 l 29.4772,0 z"
         style="font-size:249.99998474px;font-variant:normal;font-weight:bold;font-stretch:normal;font-family:MS Gothic;-inkscape-font-specification:MS Gothic Bold"
         id="path5819"
         inkscape:connector-curvature="0" />
      <path
         d="m -248.66976,918.92094 0,-24.46746 0,-19.57703 -63.71446,0 0,-21.16394 64.69189,-126.38854 26.22377,0 0,124.47356 19.9728,0 0,23.07892 -19.9728,0 0,44.04449 z m 0,-67.12341 0,-79.37621 -37.46038,79.37621 z"
         style="font-size:249.99998474px;font-variant:normal;font-weight:bold;font-stretch:normal;font-family:MS Gothic;-inkscape-font-specification:MS Gothic Bold"
         id="path5821"
         inkscape:connector-curvature="0" />
      <path
         d="m -148.57112,861.37242 c -4e-5,13.77874 3.15021,23.59521 9.45077,29.44946 3.6018,3.34679 8.76373,5.02017 15.48579,5.02015 5.31513,2e-5 10.46063,-2.31168 15.43653,-6.93512 7.70175,-7.15634 11.552667,-19.35064 11.55276,-36.58295 -9.3e-5,-15.93009 -3.164031,-26.83502 -9.49182,-32.71484 -3.62931,-3.37209 -7.74571,-5.05818 -12.34922,-5.05829 -11.16691,1.1e-4 -20.52736,6.7038 -28.08134,20.11109 l -25.29784,0 6.3224,-107.33795 94.261347,0 0,23.07892 -69.234467,0 -3.93303,57.35015 c 6.0815,-9.57222 16.45462,-14.35839 31.11939,-14.35852 11.13938,1.3e-4 20.748887,3.75125 28.828529,11.25336 11.560857,10.74229 17.341338,26.6343 17.34146,47.67608 -1.22e-4,22.344 -6.812441,39.84581 -20.436977,52.50549 -10.110469,9.39434 -22.467882,14.0915 -37.072302,14.09149 -15.31615,10e-6 -27.34239,-4.05883 -36.07877,-12.17651 -10.82749,-10.0606 -16.59428,-25.18459 -17.30041,-45.37201 l 29.4772,0 z"
         style="font-size:249.99998474px;font-variant:normal;font-weight:bold;font-stretch:normal;font-family:MS Gothic;-inkscape-font-specification:MS Gothic Bold"
         id="path5823"
         inkscape:connector-curvature="0" />
      <path
         d="m 35.040632,775.2976 c -9.4e-5,-10.53858 -2.17536,-17.78904 -6.525804,-21.7514 -2.29806,-2.09537 -5.09244,-3.14314 -8.383147,-3.14331 -4.718733,1.7e-4 -8.927034,1.68626 -12.6249198,5.05829 -11.3951115,10.39139 -18.4535702,30.37529 -21.1753962,59.95177 6.6763475,-14.67883 17.5945083,-22.0183 32.754514,-22.01843 11.350347,1.3e-4 21.490432,4.07168 30.420283,12.21466 11.779793,10.74229 17.669743,26.9522 17.669869,48.62976 -1.26e-4,23.62065 -6.238676,41.12246 -18.71567,52.50549 -8.901963,8.11768 -20.444816,12.17652 -34.628591,12.17651 -12.8062509,10e-6 -24.360259,-4.69715 -34.662055,-14.09149 -15.254786,-13.9109 -22.88216,-40.34926 -22.882145,-79.31518 -1.5e-5,-38.29942 10.427316,-66.95794 31.282024,-85.97564 8.9296992,-8.14292 20.1351062,-12.21447 33.616255,-12.21466 11.350345,1.9e-4 20.44184,3.11553 27.274512,9.34601 10.31846,9.40976 15.857022,22.28562 16.6157,38.62762 l -30.035429,0 z m -20.154693,40.21454 c -5.4215046,10e-5 -10.3297964,2.00409 -14.72488992,6.01196 -7.81985938,7.13103 -11.72976108,16.75932 -11.72971408,28.88488 -4.7e-5,19.17527 4.6098436,32.96665 13.8296841,41.37421 3.670003,3.34679 7.8783049,5.02016 12.6249199,5.02014 4.71858,2e-5 9.261538,-1.99379 13.628889,-5.98145 5.750423,-5.23881 8.625678,-17.43311 8.625774,-36.58294 -9.6e-5,-16.56587 -3.223951,-27.7887 -9.671575,-33.66852 -3.698039,-3.37208 -7.892396,-5.05818 -12.583088,-5.05828 z"
         style="font-size:249.99998474px;font-variant:normal;font-weight:bold;font-stretch:normal;font-family:MS Gothic;-inkscape-font-specification:MS Gothic Bold"
         id="path5825"
         inkscape:connector-curvature="0" />
    </g>
    <rect
       y="5.8775334"
       x="23.724833"
       height="1.0123734"
       width="1.5185602"
       id="rect5738-7-5"
       style="fill:#000000;fill-opacity:1;stroke:none;display:inline" />
    <rect
       y="5.8775334"
       x="15.63803"
       height="1.0123734"
       width="1.5185602"
       id="rect5738-7-2"
       style="fill:#000000;fill-opacity:1;stroke:none;display:inline" />
    <g
       transform="matrix(0.04679811,0,0,0.04102917,24.302881,-22.143062)"
       style="font-size:40px;font-style:normal;font-weight:normal;line-height:125%;letter-spacing:0px;word-spacing:0px;fill:#000000;fill-opacity:1;stroke:none;display:inline;font-family:Sans"
       id="flowRoot5458-3">
      <path
         d="m -77.617187,563.68128 9.394531,0 c 2.56509,3e-5 4.368473,0.23441 5.410156,0.70313 1.041648,0.46878 1.920554,1.2956 2.636719,2.48047 0.716125,1.18492 1.074198,2.52606 1.074219,4.02344 -2.1e-5,1.38022 -0.306011,2.62697 -0.917969,3.74023 -0.611999,1.1133 -1.406269,1.93686 -2.382813,2.4707 1.39321,0.49481 2.483704,1.34116 3.271485,2.53907 0.787738,1.19792 1.181618,2.65626 1.18164,4.375 -2.2e-5,2.08334 -0.501323,3.8444 -1.503906,5.2832 -1.002624,1.4388 -2.187518,2.32747 -3.554687,2.66601 -0.950537,0.23438 -3.157566,0.35157 -6.621094,0.35157 l -7.988281,0 z m 4.726562,4.76563 0,6.62109 3.125,0 c 1.874988,2e-5 3.033841,-0.0325 3.476563,-0.0976 0.807277,-0.13019 1.438786,-0.47199 1.894531,-1.02539 0.455713,-0.55337 0.683577,-1.30532 0.683594,-2.25586 -1.7e-5,-0.84634 -0.185563,-1.53318 -0.556641,-2.06055 -0.371109,-0.52732 -0.820328,-0.8561 -1.347656,-0.98633 -0.527358,-0.13018 -2.041028,-0.19529 -4.541016,-0.19531 z m 0,11.38672 0,7.65625 4.394531,0 c 1.92707,0 3.164048,-0.10091 3.710938,-0.30274 0.546859,-0.20181 1.005843,-0.59895 1.376953,-1.1914 0.371077,-0.59244 0.556623,-1.3444 0.556641,-2.25586 -1.8e-5,-0.93749 -0.198585,-1.70898 -0.595704,-2.31446 -0.397151,-0.60545 -0.924494,-1.02212 -1.582031,-1.25 -0.657566,-0.22785 -2.001966,-0.34178 -4.033203,-0.34179 z"
         style="font-variant:normal;font-weight:bold;font-stretch:normal;font-family:Arial Narrow;-inkscape-font-specification:Arial Narrow Bold"
         id="path3056" />
      <path
         d="m -32.773437,592.3141 -5.15625,0 -2.050782,-6.50391 -9.375,0 -1.933593,6.50391 -5.039063,0 9.140625,-28.63282 5.019531,0 z m -8.730469,-11.32813 -3.222656,-10.625 -3.183594,10.625 z"
         style="font-variant:normal;font-weight:bold;font-stretch:normal;font-family:Arial Narrow;-inkscape-font-specification:Arial Narrow Bold"
         id="path3058" />
      <path
         d="m -30.410156,592.3141 0,-28.63282 4.726562,0 0,28.63282 z"
         style="font-variant:normal;font-weight:bold;font-stretch:normal;font-family:Arial Narrow;-inkscape-font-specification:Arial Narrow Bold"
         id="path3060" />
      <path
         d="m -20.996094,592.3141 0,-28.39844 4.726563,0 0,23.57422 11.7968748,0 0,4.82422 z"
         style="font-variant:normal;font-weight:bold;font-stretch:normal;font-family:Arial Narrow;-inkscape-font-specification:Arial Narrow Bold"
         id="path3062" />
      <path
         d="m -1.0351562,592.3141 0,-28.63282 17.4218752,0 0,4.84375 -12.6953127,0 0,6.34766 11.7968747,0 0,4.82422 -11.7968747,0 0,7.79297 13.1249997,0 0,4.82422 z"
         style="font-variant:normal;font-weight:bold;font-stretch:normal;font-family:Arial Narrow;-inkscape-font-specification:Arial Narrow Bold"
         id="path3064" />
      <path
         d="m 51.132812,592.3141 -5.15625,0 -2.050781,-6.50391 -9.375,0 -1.933594,6.50391 -5.039062,0 9.140625,-28.63282 5.019531,0 z m -8.730468,-11.32813 -3.222657,-10.625 -3.183593,10.625 z m -5.507813,-19.21875 2.207031,-5.83984 5.058594,0 -4.414062,5.83984 z"
         style="font-variant:normal;font-weight:bold;font-stretch:normal;font-family:Arial Narrow;-inkscape-font-specification:Arial Narrow Bold"
         id="path3066" />
      <path
         d="m 58.925781,592.3141 0,-23.78907 -6.972656,0 0,-4.84375 18.652344,0 0,4.84375 -6.953125,0 0,23.78907 z"
         style="font-variant:normal;font-weight:bold;font-stretch:normal;font-family:Arial Narrow;-inkscape-font-specification:Arial Narrow Bold"
         id="path3068" />
      <path
         d="m 73.730469,592.3141 0,-28.63282 4.726562,0 0,11.26954 9.296875,0 0,-11.26954 4.746094,0 0,28.63282 -4.746094,0 0,-12.51953 -9.296875,0 0,12.51953 z"
         style="font-variant:normal;font-weight:bold;font-stretch:normal;font-family:Arial Narrow;-inkscape-font-specification:Arial Narrow Bold"
         id="path3070" />
      <path
         d="m 118.55469,592.3141 -5.15625,0 -2.05078,-6.50391 -9.375,0 -1.9336,6.50391 -5.03906,0 9.14063,-28.63282 5.01953,0 z m -8.73047,-11.32813 -3.22266,-10.625 -3.18359,10.625 z"
         style="font-variant:normal;font-weight:bold;font-stretch:normal;font-family:Arial Narrow;-inkscape-font-specification:Arial Narrow Bold"
         id="path3072" />
      <path
         d="m 145.23437,581.78675 4.58985,1.77735 c -0.71617,3.20313 -1.90757,5.54362 -3.57422,7.02148 -1.66668,1.47787 -3.71746,2.2168 -6.15234,2.2168 -3.05991,0 -5.54038,-1.17839 -7.44141,-3.53516 -2.1875,-2.72135 -3.28125,-6.39322 -3.28125,-11.01562 0,-4.8828 1.10026,-8.70441 3.30078,-11.46485 1.91406,-2.3958 4.48567,-3.59372 7.71484,-3.59375 2.6302,3e-5 4.83072,0.89847 6.60157,2.69532 1.263,1.27606 2.18748,3.17059 2.77343,5.68359 l -4.6875,1.36719 c -0.29949,-1.54946 -0.89519,-2.73761 -1.7871,-3.56446 -0.89195,-0.8268 -1.94338,-1.24021 -3.1543,-1.24023 -1.73178,2e-5 -3.14454,0.75523 -4.23828,2.26562 -1.09376,1.51044 -1.64063,4.00393 -1.64063,7.48047 0,3.60678 0.53385,6.17189 1.60156,7.69532 1.0677,1.52344 2.45442,2.28516 4.16016,2.28515 1.24999,1e-5 2.33072,-0.48502 3.24219,-1.45508 0.91144,-0.97004 1.56899,-2.50975 1.97265,-4.61914 z"
         style="font-variant:normal;font-weight:bold;font-stretch:normal;font-family:Arial Narrow;-inkscape-font-specification:Arial Narrow Bold"
         id="path3074" />
      <path
         d="m 154.00391,592.3141 0,-28.39844 4.72656,0 0,23.57422 11.79687,0 0,4.82422 z"
         style="font-variant:normal;font-weight:bold;font-stretch:normal;font-family:Arial Narrow;-inkscape-font-specification:Arial Narrow Bold"
         id="path3076" />
      <path
         d="m 173.80859,592.3141 0,-28.63282 4.72657,0 0,28.63282 z"
         style="font-variant:normal;font-weight:bold;font-stretch:normal;font-family:Arial Narrow;-inkscape-font-specification:Arial Narrow Bold"
         id="path3078" />
      <path
         d="m 204.25781,592.3141 -5.15625,0 -2.05078,-6.50391 -9.375,0 -1.93359,6.50391 -5.03907,0 9.14063,-28.63282 5.01953,0 z m -8.73047,-11.32813 -3.22265,-10.625 -3.1836,10.625 z"
         style="font-variant:normal;font-weight:bold;font-stretch:normal;font-family:Arial Narrow;-inkscape-font-specification:Arial Narrow Bold"
         id="path3080" />
      <path
         d="m 212.05078,592.3141 0,-23.78907 -6.97266,0 0,-4.84375 18.65235,0 0,4.84375 -6.95313,0 0,23.78907 z"
         style="font-variant:normal;font-weight:bold;font-stretch:normal;font-family:Arial Narrow;-inkscape-font-specification:Arial Narrow Bold"
         id="path3082" />
      <path
         d="m 226.85547,592.3141 0,-28.63282 4.72656,0 0,11.26954 9.29688,0 0,-11.26954 4.74609,0 0,28.63282 -4.74609,0 0,-12.51953 -9.29688,0 0,12.51953 z"
         style="font-variant:normal;font-weight:bold;font-stretch:normal;font-family:Arial Narrow;-inkscape-font-specification:Arial Narrow Bold"
         id="path3084" />
    </g>
  </g>
</svg>
