<?xml version="1.0" encoding="UTF-8" standalone="no"?>
<!-- Created with Inkscape (http://www.inkscape.org/) -->

<svg
   xmlns:dc="http://purl.org/dc/elements/1.1/"
   xmlns:cc="http://creativecommons.org/ns#"
   xmlns:rdf="http://www.w3.org/1999/02/22-rdf-syntax-ns#"
   xmlns:svg="http://www.w3.org/2000/svg"
   xmlns="http://www.w3.org/2000/svg"
   xmlns:sodipodi="http://sodipodi.sourceforge.net/DTD/sodipodi-0.dtd"
   xmlns:inkscape="http://www.inkscape.org/namespaces/inkscape"
   id="svg2"
   version="1.1"
   inkscape:version="0.48.4 r9939"
   width="992"
   height="216"
   sodipodi:docname="License_plate_of_Demir_Kapija.svg">
  <metadata
     id="metadata8">
    <rdf:RDF>
      <cc:Work
         rdf:about="">
        <dc:format>image/svg+xml</dc:format>
        <dc:type
           rdf:resource="http://purl.org/dc/dcmitype/StillImage" />
        <dc:title />
      </cc:Work>
    </rdf:RDF>
  </metadata>
  <defs
     id="defs6">
    <inkscape:perspective
       sodipodi:type="inkscape:persp3d"
       inkscape:vp_x="0 : 108 : 1"
       inkscape:vp_y="0 : 1000 : 0"
       inkscape:vp_z="992 : 108 : 1"
       inkscape:persp3d-origin="496 : 72 : 1"
       id="perspective3782" />
  </defs>
  <sodipodi:namedview
     pagecolor="#ffffff"
     bordercolor="#666666"
     borderopacity="1"
     objecttolerance="10"
     gridtolerance="10"
     guidetolerance="10"
     inkscape:pageopacity="0"
     inkscape:pageshadow="2"
     inkscape:window-width="1366"
     inkscape:window-height="705"
     id="namedview4"
     showgrid="false"
     inkscape:zoom="1.2157258"
     inkscape:cx="496"
     inkscape:cy="108"
     inkscape:window-x="-8"
     inkscape:window-y="-8"
     inkscape:window-maximized="1"
     inkscape:current-layer="svg2"
     inkscape:snap-grids="false"
     inkscape:snap-to-guides="false"
     showguides="false" />
  <rect
     style="fill:#ffffff;fill-opacity:1;stroke:none"
     id="rect3798"
     width="884.4292"
     height="198.44255"
     x="96.702965"
     y="7.4842262"
     rx="11.449757"
     ry="13.731753" />
  <rect
     style="fill:#ed1c24;fill-opacity:1;stroke:none"
     id="rect3759"
     width="67.817787"
     height="85.4328"
     x="305.62042"
     y="71.824585" />
  <text
     xml:space="preserve"
     style="font-size:48.69022751px;font-style:normal;font-variant:normal;font-weight:normal;font-stretch:normal;line-height:125%;letter-spacing:0px;word-spacing:0px;fill:#000000;fill-opacity:1;stroke:none;font-family:Glagoljica OBL;-inkscape-font-specification:Glagoljica OBL"
     x="122.30952"
     y="159.22737"
     id="text3761"
     sodipodi:linespacing="125%"
     transform="scale(0.90145428,1.1093186)"><tspan
       sodipodi:role="line"
       id="tspan3763"
       x="122.30952"
       y="159.22737"
       style="font-size:175.2848053px;font-style:normal;font-variant:normal;font-weight:bold;font-stretch:normal;fill:#000000;font-family:Arial Narrow;-inkscape-font-specification:Arial Narrow Bold" /></text>
  <text
     xml:space="preserve"
     style="font-size:48.69022751px;font-style:normal;font-variant:normal;font-weight:normal;font-stretch:normal;line-height:125%;letter-spacing:0px;word-spacing:0px;fill:#000000;fill-opacity:1;stroke:none;font-family:Glagoljica OBL;-inkscape-font-specification:Glagoljica OBL"
     x="232.73515"
     y="159.24104"
     id="text3761-1"
     sodipodi:linespacing="125%"
     transform="scale(0.90145428,1.1093186)"><tspan
       sodipodi:role="line"
       id="tspan3763-7"
       x="232.73515"
       y="159.24104"
       style="font-size:175.2848053px;font-style:normal;font-variant:normal;font-weight:bold;font-stretch:normal;fill:#000000;font-family:Arial Narrow;-inkscape-font-specification:Arial Narrow Bold" /></text>
  <text
     xml:space="preserve"
     style="font-size:40px;font-style:normal;font-variant:normal;font-weight:normal;font-stretch:normal;line-height:125%;letter-spacing:0px;word-spacing:0px;fill:#ffcb0d;fill-opacity:1;stroke:none;font-family:Arial;-inkscape-font-specification:Arial"
     x="313.69205"
     y="104.71582"
     id="text3804"
     sodipodi:linespacing="125%"><tspan
       sodipodi:role="line"
       x="313.69205"
       y="104.71582"
       id="tspan3808">ДК</tspan><tspan
       sodipodi:role="line"
       x="313.69205"
       y="154.71582"
       id="tspan3812">АА</tspan></text>
  <g
     id="g3829"
     transform="translate(0,-1.2093)">
    <path
       style="fill:#255de6;fill-opacity:1;stroke:none"
       d="m 12.330506,12.262136 88.075044,0 0,195.526594 -88.075044,0 z"
       id="rect3757" />
    <path
       style="fill:none;stroke:#000000;stroke-width:11;stroke-linecap:round;stroke-linejoin:round;stroke-miterlimit:4;stroke-opacity:1"
       d="m 19.975071,9.3376942 953.536459,0 c 6.34317,0 11.44976,6.1243618 11.44976,13.7317538 l 0,173.031242 c 0,7.60739 -5.10659,13.73176 -11.44976,13.73176 l -953.536459,0 c -6.343165,0 -11.4497567,-6.12437 -11.4497567,-13.73176 l 0,-173.031242 c 0,-7.607392 5.1065917,-13.7317538 11.4497567,-13.7317538 z"
       id="rect2987" />
    <g
       transform="scale(1.0217495,0.97871347)"
       style="font-size:54.16178513px;font-style:normal;font-variant:normal;font-weight:normal;font-stretch:normal;line-height:125%;letter-spacing:0px;word-spacing:0px;fill:#000000;fill-opacity:1;stroke:none;font-family:Glagoljica OBL;-inkscape-font-specification:Glagoljica OBL"
       id="text3761-4" />
    <g
       transform="scale(0.90145428,1.1093186)"
       style="font-size:48.69022751px;font-style:normal;font-variant:normal;font-weight:normal;font-stretch:normal;line-height:125%;letter-spacing:0px;word-spacing:0px;fill:#000000;fill-opacity:1;stroke:none;font-family:Glagoljica OBL;-inkscape-font-specification:Glagoljica OBL"
       id="text3761-9" />
    <g
       transform="scale(0.83185062,1.2021389)"
       style="font-size:40.94915009px;font-style:normal;font-variant:normal;font-weight:normal;font-stretch:normal;line-height:125%;letter-spacing:0px;word-spacing:0px;fill:#ffffff;fill-opacity:1;stroke:none;font-family:Glagoljica OBL;-inkscape-font-specification:Glagoljica OBL"
       id="text3814">
      <path
         d="m 36.32562,151.67949 0,-29.31223 8.857653,0 5.31859,19.9947 5.258607,-19.9947 8.877648,0 0,29.31223 -5.498543,0 0,-23.07389 -5.818459,23.07389 -5.69849,0 -5.798463,-23.07389 0,23.07389 z"
         style="font-weight:bold;fill:#ffffff;font-family:Arial;-inkscape-font-specification:Arial Bold"
         id="path3018" />
      <path
         d="m 70.636529,151.67949 0,-29.31223 5.918431,0 0,13.01655 11.956832,-13.01655 7.957892,0 -11.037076,11.41697 11.636917,17.89526 -7.657971,0 -8.057865,-13.75636 -4.798729,4.89871 0,8.85765 z"
         style="font-weight:bold;fill:#ffffff;font-family:Arial;-inkscape-font-specification:Arial Bold"
         id="path3020" />
    </g>
  </g>
  <path
     style="fill:#000000;fill-opacity:1;stroke:none"
     d="m 422.49757,177.67037 c -2.57324,-0.36688 -6.95113,-1.83532 -9.53217,-3.19729 -6.05234,-3.19374 -11.59766,-9.15356 -15.21083,-16.34781 -5.22451,-10.40262 -7.91479,-27.31451 -7.91072,-49.72912 0.004,-23.975105 3.17237,-41.9413 9.1518,-51.900906 6.29297,-10.481847 14.88165,-16.346211 25.52558,-17.428915 10.037,-1.020966 19.39047,2.57747 26.35987,10.141087 9.38205,10.181961 13.74114,25.811427 14.40242,51.639724 0.70031,27.35246 -2.05927,46.70507 -8.326,58.38933 -3.52145,6.56572 -9.42694,12.58767 -15.20226,15.50204 -5.65217,2.85224 -12.50191,3.89506 -19.25769,2.93186 z m 9.4547,-22.16053 c 5.74053,-2.75343 8.37448,-9.59668 9.65437,-25.08288 0.53063,-6.4206 0.73425,-28.95917 0.33682,-37.2829 -0.77555,-16.242735 -2.15501,-23.039207 -5.67836,-27.976733 -2.47739,-3.471755 -5.69338,-5.076203 -9.55373,-4.766331 -2.52342,0.202556 -4.64407,1.303726 -6.57094,3.412022 -5.12216,5.604458 -6.69693,14.379395 -7.08859,39.499102 -0.3244,20.80564 0.78481,35.89655 3.16677,43.08415 0.91889,2.77277 3.30501,6.53426 4.98001,7.85049 3.41526,2.68376 6.93082,3.09669 10.75365,1.26308 l 0,0 z"
     id="path3770"
     inkscape:connector-curvature="0" />
  <path
     style="fill:#000000;fill-opacity:1;stroke:none"
     d="m 513.00563,177.56582 c -6.60884,-1.25417 -12.04837,-4.18959 -16.86664,-9.102 -9.83215,-10.02428 -14.11,-24.78867 -15.08691,-52.07027 -0.80646,-22.521531 1.47572,-42.209505 6.27653,-54.146483 6.39962,-15.912368 19.48421,-24.709958 34.48195,-23.184384 5.62086,0.571754 10.09079,2.189205 14.52898,5.257325 2.78613,1.92605 7.48314,6.751026 9.447,9.704373 5.40416,8.127063 8.4376,18.930759 10.03229,35.730325 0.65503,6.900559 0.75388,29.409114 0.15765,35.896344 -0.98375,10.70357 -2.34789,18.3851 -4.41326,24.85126 -2.47251,7.74081 -5.62888,13.14908 -10.59231,18.14934 -4.33298,4.36513 -8.84446,6.99369 -14.5818,8.4959 -3.1873,0.83454 -10.0584,1.04928 -13.38348,0.41827 l 0,0 z m 9.80145,-21.85476 c 3.54807,-1.59116 6.79996,-6.54441 8.10332,-12.34293 1.90855,-8.49099 2.8228,-27.29168 2.21757,-45.602223 -0.70281,-21.262385 -2.22632,-28.732019 -6.92642,-33.959667 -1.9959,-2.219922 -4.09248,-3.249293 -6.94152,-3.408115 -3.23519,-0.180349 -5.33649,0.633342 -7.67322,2.971324 -3.86355,3.865614 -5.4754,8.851239 -6.73725,20.83904 -0.6783,6.443906 -0.77959,39.924531 -0.14216,46.988781 1.11884,12.39949 2.73633,17.89251 6.44972,21.90342 3.24251,3.5023 7.52258,4.46132 11.64996,2.61037 l 0,0 z"
     id="path3772"
     inkscape:connector-curvature="0" />
  <path
     style="fill:#000000;fill-opacity:1;stroke:none"
     d="m 604.82425,177.69295 c -4.53888,-0.64786 -10.26716,-3.0821 -13.94049,-5.92404 -2.36475,-1.82954 -6.10344,-5.74569 -7.84629,-8.21872 -6.10962,-8.66933 -9.51248,-21.72724 -10.71953,-41.13443 -0.39117,-6.28941 -0.38969,-22.34112 0.003,-28.347331 1.18705,-18.173832 4.50182,-31.315772 9.94781,-39.43976 7.58323,-11.312192 18.35925,-16.802001 30.54732,-15.562228 9.96399,1.013539 18.01795,6.079865 24.17571,15.20768 5.83502,8.649413 9.02333,21.383825 10.22177,40.826706 0.47279,7.670333 0.20597,27.028173 -0.46356,33.631453 -2.04197,20.13909 -6.64039,32.28599 -15.35685,40.56578 -7.2772,6.91263 -16.51147,9.83039 -26.56851,8.39489 l 0,0 z m 9.30451,-22.18501 c 3.02877,-1.45282 5.47855,-4.6629 7.02229,-9.20169 2.29049,-6.73432 3.48254,-23.3579 3.12722,-43.61037 -0.43107,-24.570253 -2.0771,-33.615859 -7.07959,-38.905254 -0.87388,-0.923995 -2.28242,-2.04493 -3.13011,-2.490967 -1.33166,-0.700697 -1.91833,-0.811362 -4.31435,-0.813813 -3.29858,-0.0034 -4.90431,0.6364 -7.09466,2.826753 -4.06402,4.064019 -5.82075,10.015792 -6.98617,23.668998 -0.54161,6.345051 -0.53882,36.841553 0.004,43.137243 0.8687,10.07644 1.9832,15.55255 3.91243,19.2239 3.43252,6.53208 8.9216,8.8597 14.539,6.1652 l 0,0 z"
     id="path3774"
     inkscape:connector-curvature="0" />
  <path
     style="fill:#000000;fill-opacity:1;stroke:none"
     d="m 695.15217,177.56039 c -8.55907,-1.61869 -15.0099,-5.86464 -20.83447,-13.71332 -4.25567,-5.73456 -7.26197,-13.90455 -9.09244,-24.70985 -1.51493,-8.94269 -2.27246,-20.09035 -2.25399,-31.20844 0.0158,-9.528423 0.6016,-19.035122 1.76903,-27.113512 2.24803,-15.555942 6.71017,-25.797539 14.4696,-33.210855 5.43572,-5.193251 11.04189,-7.773285 18.5905,-8.555586 9.11233,-0.944357 17.82847,2.087147 24.59891,8.555586 10.39174,9.928218 14.90853,24.577716 16.05971,52.087263 0.55349,13.226574 -0.17085,27.792484 -1.91669,38.543304 -2.27405,14.00349 -6.60873,23.72118 -13.6939,30.69962 -6.01428,5.9237 -12.60227,8.71985 -21.11946,8.96378 -2.84763,0.0816 -4.92206,-0.025 -6.5768,-0.33799 z m 9.19585,-21.62394 c 1.14568,-0.3677 2.06166,-1.01519 3.57314,-2.52578 4.0298,-4.02745 5.56958,-9.08581 6.80871,-22.36747 0.55881,-5.98953 0.55774,-38.954668 -0.002,-45.140033 -1.16027,-12.833966 -2.85787,-18.455368 -6.7823,-22.458819 -2.34502,-2.392236 -4.48067,-3.229564 -7.76956,-3.046223 -2.8416,0.158408 -4.94512,1.187651 -6.92278,3.387278 -4.64723,5.168932 -6.15849,12.347105 -6.95939,33.056134 -0.5112,13.218243 -0.0267,30.426703 1.12344,39.901943 0.97263,8.0129 2.67676,12.82764 5.71797,16.15521 3.32234,3.63516 6.59128,4.52082 11.21231,3.03776 z"
     id="path3776"
     inkscape:connector-curvature="0"
     sodipodi:nodetypes="cssssssssssccccsscsssssscc" />
  <path
     style="fill:#000000;fill-opacity:1;stroke:none"
     d="m 765.88775,178.72526 c 0.0883,-0.29657 8.01141,-30.83542 17.6069,-67.86412 9.5955,-37.028697 17.65378,-68.052844 17.90729,-68.94255 l 0.46092,-1.617646 9.76105,0.0034 9.76104,0.0034 18.51395,69.48248 18.51396,69.48249 -10.03107,-0.0812 -10.03106,-0.0812 -4.02617,-15.71428 -4.02617,-15.71428 -18.66131,-0.0794 -18.66131,-0.0794 -1.39741,5.77968 c -0.76858,3.17882 -2.48785,10.31879 -3.82061,15.86659 l -2.4232,10.0869 -9.80368,0.004 c -9.19366,0.004 -9.79368,-0.0294 -9.64312,-0.53509 z M 824.2439,124.0334 c -0.0738,-0.21183 -2.95784,-11.85889 -6.40904,-25.882339 -3.45119,-14.023454 -6.35556,-25.497189 -6.45416,-25.497189 -0.15697,0 -12.6571,50.935978 -12.64678,51.533588 0.002,0.12711 5.77302,0.2311 12.82406,0.2311 10.12219,0 12.79185,-0.0811 12.68592,-0.38516 l 0,0 z"
     id="path3778"
     inkscape:connector-curvature="0" />
  <path
     style="fill:#000000;fill-opacity:1;stroke:none"
     d="m 859.51837,178.46905 c 0.0836,-0.43748 8.17082,-31.70428 17.97153,-69.48177 l 17.81948,-68.686336 9.78359,0 9.7836,0 0.30504,1.155462 c 1.14586,4.340468 36.45291,136.840344 36.57782,137.268854 0.14743,0.50572 -0.46619,0.53921 -9.87757,0.53921 -5.51912,0 -10.03477,-0.0433 -10.03477,-0.0963 0,-0.053 -1.80252,-7.12915 -4.0056,-15.7248 -2.20308,-8.59565 -4.0056,-15.69413 -4.0056,-15.77439 0,-0.0803 -8.41263,-0.11019 -18.69475,-0.0665 l -18.69475,0.0794 -1.48727,6.16247 c -0.818,3.38935 -2.54039,10.49544 -3.82753,15.79131 l -2.34026,9.62884 -9.71251,0 -9.7125,0 0.15205,-0.79542 z m 58.15506,-54.38132 c 0,-0.31539 -11.60387,-47.548801 -12.35212,-50.279129 -0.30805,-1.124089 -0.39639,-1.221823 -0.62595,-0.692544 -0.147,0.338935 -2.97574,11.778006 -6.2861,25.420158 -3.31035,13.642155 -6.09369,25.046555 -6.1852,25.343125 -0.15661,0.50756 0.58556,0.53922 12.6415,0.53922 8.91925,0 12.80787,-0.10045 12.80787,-0.33083 z"
     id="path3780"
     inkscape:connector-curvature="0" />
  <text
     xml:space="preserve"
     style="font-size:49.39099503px;font-style:normal;font-variant:normal;font-weight:normal;font-stretch:normal;line-height:125%;letter-spacing:0px;word-spacing:0px;fill:#000000;fill-opacity:1;stroke:none;font-family:Glagoljica OBL;-inkscape-font-specification:Glagoljica OBL"
     x="223.70586"
     y="160.0219"
     id="text3008"
     sodipodi:linespacing="125%"
     transform="scale(0.90040698,1.1106089)"><tspan
       sodipodi:role="line"
       id="tspan3010"
       x="223.70586"
       y="160.0219"
       style="font-size:177.80758667px;font-style:normal;font-variant:normal;font-weight:bold;font-stretch:normal;font-family:Arial Narrow;-inkscape-font-specification:Arial Narrow Bold" /></text>
  <text
     xml:space="preserve"
     style="font-size:45.70690536px;font-style:normal;font-variant:normal;font-weight:normal;font-stretch:normal;line-height:125%;letter-spacing:0px;word-spacing:0px;fill:#f2f2f2;fill-opacity:1;stroke:none;font-family:Glagoljica OBL;-inkscape-font-specification:Glagoljica OBL"
     x="129.02325"
     y="146.98814"
     id="text3010"
     sodipodi:linespacing="125%"
     transform="scale(0.83404784,1.198972)"><tspan
       sodipodi:role="line"
       id="tspan3012"
       x="129.02325"
       y="146.98814"
       style="font-size:164.54486084px;font-style:normal;font-variant:normal;font-weight:bold;font-stretch:normal;fill:#f2f2f2;font-family:Arial;-inkscape-font-specification:Arial Bold" /></text>
  <g
     id="g3023"
     transform="matrix(1,0,0,0.96503269,0,4.700523)">
    <path
       inkscape:connector-curvature="0"
       id="path3014"
       d="m 117.5951,105.66045 0,-70.570529 22.34804,0.134166 c 21.07529,0.126524 22.54182,0.171054 25.75051,0.781878 7.4337,1.415119 11.49426,3.626454 16.70304,9.096284 2.56533,2.693897 4.4841,4.881146 4.28199,4.881146 -0.0641,0 0.3537,0.683536 0.92838,1.518968 3.87838,5.638182 7.66511,15.638561 9.61468,25.391479 3.14415,15.728847 3.3993,39.138168 0.59843,54.903498 -0.27202,1.53111 -1.03106,4.81481 -1.68675,7.29711 -4.08921,15.48081 -10.07432,25.46527 -18.65269,31.11672 -2.5815,1.7007 -6.46746,3.56169 -8.84858,4.23759 -5.16767,1.46689 -5.80276,1.50294 -28.99833,1.64615 l -22.03872,0.13606 0,-70.57052 z m 43.92279,46.26888 c 4.7076,-0.97735 9.27304,-4.08149 11.56824,-7.86545 3.16878,-5.22422 5.2667,-14.02867 6.05526,-25.41245 0.40229,-5.80748 0.39889,-19.93964 -0.006,-25.673183 -0.9595,-13.581548 -3.72268,-22.298701 -8.81008,-27.793699 -2.03908,-2.202448 -4.89782,-4.109359 -7.42138,-4.950396 -2.78728,-0.928924 -7.39348,-1.300352 -17.00628,-1.371323 l -8.66083,-0.06394 -0.0783,46.977191 -0.0783,46.97719 11.05902,-0.17115 c 8.25386,-0.12774 11.64747,-0.29332 13.37889,-0.65279 l 0,0 z"
       style="fill:#000000;fill-opacity:1;stroke:none" />
  </g>
  <path
     style="fill:#000000;fill-opacity:1;stroke:none"
     d="m 208.09341,106.9276 0,-67.841454 10.39863,0 10.39862,0 0,32.052214 c 0,25.455935 0.0743,32.04997 0.36107,32.04133 0.20147,-0.006 0.85341,-1.49899 1.47499,-3.377705 0.65491,-1.979409 6.48146,-15.183048 14.13933,-32.041325 l 13.0254,-28.674514 12.36254,0 12.36255,0 -16.22109,32.287949 -16.22109,32.287945 17.63229,35.48164 17.63229,35.48164 -13.01022,0.0749 c -7.15562,0.0412 -13.06139,0.0239 -13.12394,-0.0383 -0.0625,-0.0622 -6.17313,-13.22583 -13.57908,-29.25241 -9.29567,-20.11593 -13.88719,-30.38197 -14.82754,-33.15249 -0.74919,-2.20731 -1.50736,-4.06145 -1.68483,-4.12032 -0.23642,-0.0784 -0.32267,8.81232 -0.32267,33.26272 l 0,33.36975 -10.39862,0 -10.39863,0 0,-67.84145 z"
     id="path3038"
     inkscape:connector-curvature="0" />
</svg>
