<?xml version="1.0" encoding="UTF-8"?>
<svg width="720" height="432" version="1.1" xmlns="http://www.w3.org/2000/svg" xmlns:xlink="http://www.w3.org/1999/xlink">
 <rect width="720" height="432" rx="0" ry="0" fill="#004990"/>
 <g fill="#ffd51d">
  <path d="m422.55 247.28c5.281-11.387 7.588-23.902 6.688-36.291-0.102 0.023-0.229 0.023-0.346 0.092l-0.174 0.012c-1.521 0.394-3.045 0.898-4.322 1.291-3.004 0.936-5.906 2.02-8.412 2.932l0.082 0.357c0.139 0.75 0.266 1.547 0.379 2.354 1.236 9.193 1.18 18.146-0.229 26.496-0.232 1.57-0.611 3.266-1.086 5.213 2.123-0.75 3.947-1.336 5.756-1.947z"/>
  <path d="m359.49 289.4c-5.122-0.646-10.347-2.146-15.527-4.559-0.334 0.186-0.657 0.291-0.946 0.473-0.495 0.186-0.911 0.406-1.35 0.635-1.581 0.717-2.906 1.35-4.072 1.904 8.26 2.088 16.843 2.711 25.31 1.857-1.141-0.057-2.307-0.15-3.415-0.31"/>
  <path d="m367.07 286.63c3.115 0 6.229-0.311 9.285-0.957-0.611-0.232-1.279-0.484-1.994-0.842-2.826-1.328-5.668-3.277-8.93-6.104-0.762-0.715-1.58-1.5-2.525-2.434-2.652 1.145-5.18 2.283-7.579 3.344l-1.43 0.66c-1.8 0.818-3.53 1.566-5.168 2.354 3.726 1.613 7.533 2.766 11.292 3.377 2.241 0.407 4.649 0.602 7.049 0.602"/>
  <path d="m382.22 283.52c0.842 0 1.625-0.127 2.375-0.379 2.943-1.594 3.992-5.229 4.371-7.211 0.543-2.803 0.635-5.93 0.35-9.574-0.047-0.383-0.072-0.764-0.117-1.143-0.047-0.104-0.047-0.23-0.047-0.357-3.264 1.42-6.967 2.977-10.588 4.58-1.051 0.449-2.123 0.922-3.172 1.348l-1.293 0.578c-1.514 0.635-3.033 1.314-4.557 2.008l-1.613 0.656c0.334 0.404 0.717 0.785 1.025 1.145 2.572 2.871 4.857 4.867 7.197 6.342 1.512 0.912 2.852 1.467 4.189 1.756 0.624 0.182 1.29 0.251 1.88 0.251"/>
  <path d="m403.54 267.16c2.102-3.104 3.867-6.621 5.273-10.543-1.768 0.738-3.576 1.465-5.436 2.26-2.803 1.188-5.916 2.459-9.135 3.832 0.045 1.385 0.07 2.49 0.045 3.494-0.08 2.941-0.389 6.898-1.568 10.705-0.299 0.797-0.588 1.5-0.854 2.088 4.673-3.264 8.71-7.303 11.675-11.836"/>
  <path d="m420.03 252.17c-1.406 0.566-2.758 1.084-4.164 1.672-0.705 0.242-1.455 0.555-2.193 0.854-1.834 5.41-4.303 10.256-7.322 14.434-0.559 0.783-1.191 1.604-1.906 2.457 6.228-5.538 11.455-12.011 15.585-19.417"/>
  <path d="m393.94 257.89c2.504-1.016 5.145-2.113 7.797-3.092 3.207-1.281 6.021-2.342 8.639-3.346 0.66-2.641 1.143-5.18 1.455-7.59 0.992-7.707 0.646-16.104-0.936-24.953-0.137-0.539-0.252-1.025-0.357-1.545v-0.035c-3.299 1.258-6.598 2.539-10.035 3.924l-2.178 0.842c-3.795 1.465-7.697 3.033-11.318 4.486 2.111 6.518 3.785 12.678 5.02 18.746 0.932 4.66 1.567 8.744 1.913 12.563"/>
  <path d="m364.87 270.37c4.014-1.799 8.051-3.598 11.846-5.227 3.439-1.498 7.316-3.125 11.836-5.016-0.77-4.916-1.924-9.473-2.918-13.277-1.811-6.555-3.609-12.252-5.502-17.502-5.018 2.055-10.336 4.246-16.289 6.727l-1.936 0.854c-5.02 2.17-9.565 4.178-13.856 6.068 2.907 5.582 5.975 11.051 9.136 16.207 2.688 4.348 5.191 8.006 7.683 11.166"/>
  <path d="m351.44 276.53 0.588-0.244c3.022-1.451 5.399-2.527 7.601-3.541-3.228-3.703-5.916-7.268-7.843-9.98-3.656-5.084-7.048-10.6-10.497-16.795-4.349 1.996-8.074 3.729-11.455 5.283-4.014 1.812-7.706 3.531-11.269 5.25l0.01 0.059c0.139 0.148 0.254 0.322 0.38 0.52 0.266 0.414 0.565 0.795 0.843 1.188 5.341 7.268 11.258 13.266 17.579 17.811 1.996 1.488 4.176 2.883 6.484 4.164 2.758-1.387 5.456-2.666 7.579-3.715"/>
  <path d="m333.82 285.48c1.707-0.957 3.484-1.938 5.515-2.963-1.453-0.844-3.011-1.777-4.511-2.781-7.049-4.707-13.612-10.752-19.473-17.984-0.53-0.646-1.026-1.305-1.534-1.961l-0.519-0.75-0.208 0.162c-2.1 1.025-5.191 2.574-8.122 4.256-1.292 0.715-2.619 1.488-3.795 2.365l-0.264 0.139c8.536 9.355 19.414 16.404 31.457 20.383z"/>
  <path d="m296.57 177.63c1.974-5.605 4.685-10.635 7.973-14.88-5.757 5.479-10.533 11.812-14.259 18.837 1.915-1.28 3.945-2.55 6.286-3.957"/>
  <path d="m307.28 164.77c-2.111 2.919-3.876 6.241-5.341 9.806 1.442-0.797 2.988-1.615 4.776-2.561 3.392-1.766 6.632-3.414 9.979-5.019v-0.808c0.149-4.325 0.703-7.74 1.649-10.717 0.299-0.76 0.588-1.512 0.865-2.11-4.729 3.139-8.859 7.082-11.928 11.409"/>
  <path d="m328.81 148.89c-0.773 0-1.569 0.117-2.307 0.371-2.18 1.188-3.749 3.61-4.487 7.222-0.45 2.397-0.599 5.03-0.415 8.213 3.034-1.407 6.206-2.838 9.759-4.396 3.691-1.557 6.909-2.917 9.828-4.072-2.123-2.238-4.176-4.002-6.252-5.316-1.5-0.901-3.773-2.022-6.126-2.022"/>
  <path d="m334.48 146.68c0.739 0.207 1.499 0.508 2.215 0.854 3.587 1.672 6.645 4.176 8.917 6.172 0.231 0.172 0.427 0.357 0.6 0.553 3.773-1.477 7.268-2.744 10.543-3.888 1.905-0.622 3.657-1.257 5.331-1.787-3.622-1.419-7.233-2.366-10.81-2.815-5.365-0.785-11.109-0.474-16.796 0.911"/>
  <path d="m374.93 144.92c-7.396-2.021-15.079-2.861-22.831-2.527 5.239 0.531 10.612 1.984 15.897 4.372 2.455-0.727 4.741-1.292 6.934-1.845"/>
  <path d="m381.92 147.2-1.098 0.265c-2.26 0.485-4.717 1.13-7.498 1.995 1.051 0.6 2.125 1.223 3.266 1.984 7.049 4.626 13.564 10.74 19.391 18.122 0.322 0.393 0.66 0.808 0.971 1.212l0.301 0.403c3.203-1.004 6.16-1.88 8.809-2.571 1.801-0.484 3.312-0.82 4.709-1.086l0.242-0.023h0.105c-7.893-8.998-18.008-16.021-29.198-20.301"/>
  <path d="m358.23 154.55c-2.757 1.006-5.711 2.17-8.456 3.221 3.137 3.356 6.252 7.244 9.504 11.87 2.675 3.817 5.375 7.981 7.984 12.515 3.586-1.465 7.543-2.976 11.959-4.683 4.385-1.649 8.436-3.068 12.381-4.418l-0.104-0.163c-5.273-7.323-11.109-13.322-17.43-17.799-1.984-1.395-4.098-2.779-6.301-3.898-3.055 1.002-6.166 2.099-9.537 3.355"/>
  <path d="m335.03 163.83-3.679 1.604c-2.607 1.131-5.571 2.424-9.333 4.164 0.588 4.742 1.65 9.957 3.276 15.966 0.992 3.577 2.146 7.486 3.853 12.643 1.568-0.691 3.138-1.395 4.741-2.063l0.588-0.289c3.184-1.361 6.552-2.804 10.116-4.314 5.227-2.261 10.59-4.465 15.884-6.656-1.984-3.667-4.141-7.487-6.678-11.638-2.134-3.382-5.399-8.434-9.413-13.325-3.413 1.405-6.585 2.744-9.355 3.908"/>
  <path d="m316.89 172.02c-2.653 1.256-5.26 2.468-8.156 3.922-2.964 1.5-5.86 2.976-8.756 4.59-0.669 2.459-1.176 4.903-1.499 7.258-1.016 7.613-0.716 15.85 0.98 24.488 3.357-1.764 6.91-3.553 10.89-5.514 4.129-1.914 8.086-3.748 12.158-5.571-1.418-4.787-2.595-9.379-3.553-14.12-0.853-4.557-1.706-9.551-2.064-15.053"/>
  <path d="m287.19 188.2c-4.441 10.879-6.287 22.818-5.237 34.432 1.072-0.803 2.261-1.648 3.518-2.453 2.318-1.479 4.938-3.025 8.179-4.824l0.588-0.311c-0.034-0.348-0.116-0.715-0.186-1.062l-0.021-0.299c-1.42-9.323-1.374-18.237 0.091-26.532 0.243-1.338 0.486-2.573 0.785-3.807-2.619 1.51-4.81 2.86-6.806 4.221z"/>
  <path d="m297.98 262.54 0.404-0.391c1.373-1.131 2.757-2.043 4.014-2.873 2.608-1.648 5.237-3.184 7.741-4.58-3.356-4.936-6.275-10.148-8.686-15.537-2.653-6.068-4.718-12.309-6.136-18.629-1.951 0.934-4.672 2.352-7.314 3.852-1.107 0.611-2.538 1.455-3.795 2.318-0.46 0.346-0.935 0.691-1.303 1.062l-0.3 0.24c0.969 6.023 2.664 11.93 5.133 17.545 2.651 6.069 6.077 11.804 10.242 16.993"/>
  <path d="m415.01 210.03c2.17-0.692 5.02-1.58 7.994-2.364 1.672-0.403 3.174-0.773 4.707-1.062 0.369-0.08 0.668-0.104 1.062-0.185-0.936-6.725-2.732-13.289-5.432-19.541-2.389-5.49-5.377-10.613-8.955-15.342l-0.633 0.08c-0.707 0.08-1.418 0.254-2.031 0.404-1.418 0.357-2.896 0.819-4.312 1.303-2.1 0.658-4.432 1.465-6.945 2.377 3.471 5.203 6.508 10.844 8.998 16.703 2.375 5.701 4.232 11.628 5.547 17.627"/>
  <path d="m409.28 211.92c-1.42-5.745-3.383-11.467-5.707-17.038-2.426-5.838-5.402-11.57-8.842-17.072-4.232 1.613-8.408 3.206-13.344 5.168-3.736 1.512-7.395 2.953-11.154 4.465 3.057 5.641 5.973 11.708 8.973 18.525 2.215 5.099 4.168 10.117 5.838 14.939 3.842-1.561 7.58-2.977 11.133-4.361 4.568-1.672 8.846-3.219 13.103-4.626"/>
  <path d="m345.35 237.58c1.996-0.842 4.026-1.742 6.091-2.643 4.038-1.74 7.129-3.043 10.093-4.291 6.229-2.664 11.502-4.857 16.531-6.934-1.961-5.215-3.91-10-5.941-14.672-2.434-5.745-5.25-11.721-8.535-18.26l-0.303-0.532c-5.847 2.388-11.245 4.614-16.379 6.759l-1.949 0.821c-4.303 1.855-8.848 3.874-13.89 6.114 2.412 6.679 4.996 13.23 7.776 19.424 1.846 4.468 3.979 9.093 6.506 14.214"/>
  <path d="m312.9 212.16c-4.257 1.948-8.351 3.864-12.135 5.675 1.637 6.393 3.84 12.701 6.551 18.697 2.307 5.229 5.075 10.361 8.156 15.287 3.761-1.973 7.647-3.922 11.859-5.941 3.275-1.592 6.932-3.266 11.143-5.201-2.272-4.465-4.5-9.078-6.715-14.178-2.917-6.818-5.363-13.254-7.451-19.541-4.706 2.087-8.237 3.736-11.408 5.202"/>
 </g>
 <g id="c">
  <g id="d">
   <g id="e">
    <g id="a">
     <path id="b" d="m428.28 168.29c-0.266 0.208-0.299 0.541-0.137 0.808l0.785 1.188c0.137 0.277 0.461 0.356 0.748 0.255l38.01-19.819 33.729-25.562c0.256-0.174 0.299-0.543 0.141-0.797-0.266-0.402-0.539-0.819-0.809-1.234v-0.033c-0.148-0.232-0.484-0.323-0.727-0.186l-37.629 19.564z" fill="#ffd51d"/>
     <use transform="rotate(-9 355.39 216.4)" xlink:href="#b"/>
    </g>
    <use transform="rotate(-18 355.39 216.4)" xlink:href="#a"/>
   </g>
   <use transform="rotate(-36 355.39 216.4)" xlink:href="#e"/>
  </g>
  <use transform="rotate(-72 354.57 213.91)" xlink:href="#d"/>
 </g>
 <use transform="rotate(198 355.39 216.4)" xlink:href="#c"/>
 <use transform="rotate(216 355.51 216.41)" xlink:href="#a"/>
</svg>
