<svg version="1.1" id="Layer_1" xmlns:x="ns_extend;" xmlns:i="ns_ai;" xmlns:graph="ns_graphs;" xmlns="http://www.w3.org/2000/svg" xmlns:xlink="http://www.w3.org/1999/xlink" x="0px" y="0px" viewBox="0 0 54.5 56" style="enable-background:new 0 0 54.5 56;" xml:space="preserve">
 <style type="text/css">
  .st0{fill:#001E63;}
 </style>
 <metadata>
  <sfw xmlns="ns_sfw;">
   <slices>
   </slices>
   <sliceSourceBounds bottomLeftOrigin="true" height="56" width="54.5" x="74.1" y="-214.1">
   </sliceSourceBounds>
  </sfw>
 </metadata>
 <g>
  <path class="st0" d="M42.2,36c-4.5,5.5-9.6,10.4-15.6,14.4c-3.6,2.3-7.3,4.3-11.5,5.2c-3,0.6-6,0.7-8.9-0.3
		c-3.8-1.4-6.1-4.6-6.2-8.6c-0.1-4,1.2-7.5,3.2-10.9c2.5-4.1,5.7-7.5,9.4-10.4c4.4-3.5,9.1-6.3,14.5-8c1.7-0.5,3.5-0.9,5.4-1
		c1.2-0.1,2.5,0.1,3.7,0.5c2.7,0.8,4,3.4,3.3,6.1c0,0.1-0.1,0.3-0.1,0.5l0.1,0.1c0.5-0.6,1-1.2,1.4-1.9c2-2.8,3.8-5.7,4.7-9.1
		c0.3-1.2,0.6-2.5,0.4-3.7c-0.4-2.4-1.9-3.8-4.1-4.5C39.6,3.4,37.3,3.6,35,4c-4.4,0.8-8.4,2.5-12.3,4.7c-1.6,0.9-3.2,1.9-4.8,2.9
		L17.5,11c0.6-0.5,1.1-0.9,1.7-1.4c5.4-4.1,11.2-7.2,17.8-8.8c3.3-0.8,6.6-1.2,9.9-0.4c4.4,1,7.3,4.5,7.6,9
		c0.2,3.6-0.7,6.9-2.1,10.1C49.9,25.6,46.3,31,42.2,36L42.2,36z M33.7,19.8c-1.4-0.2-2.7,0.1-4.1,0.5c-5.5,1.7-9.9,5.1-13.5,9.4
		c-1.2,1.4-2.2,3-2.7,4.8c-0.8,3,1,5.3,4,5.3c1.6,0,3-0.4,4.4-1.1c5.1-2.4,9.3-6,13-10.2c1-1.1,1.6-2.5,2-4
		C37.6,21.9,36.4,20.1,33.7,19.8L33.7,19.8z M33.7,19.8">
  </path>
 </g>
</svg>