<svg version="1.1" id="Layer_1" xmlns:x="ns_extend;" xmlns:i="ns_ai;" xmlns:graph="ns_graphs;" xmlns="http://www.w3.org/2000/svg" xmlns:xlink="http://www.w3.org/1999/xlink" x="0px" y="0px" viewBox="0 0 95.8 59" style="enable-background:new 0 0 95.8 59;" xml:space="preserve">
 <style type="text/css">
  .st0{fill:#FF0000;}
 </style>
 <metadata>
  <sfw xmlns="ns_sfw;">
   <slices>
   </slices>
   <sliceSourceBounds bottomLeftOrigin="true" height="59" width="95.8" x="110.2" y="-264.7">
   </sliceSourceBounds>
  </sfw>
 </metadata>
 <g>
  <g>
   <path class="st0" d="M46.9,59c-6.8,0-14.4-1.1-21.8-3.6c-5-1.7-9.7-3.9-14-7.1c-3.3-2.5-6.2-5.3-8.3-9C1,36.3,0,33,0,29.4
			c0.1-4.2,1.4-7.9,3.8-11.4c2.4-3.4,5.4-6.1,8.8-8.4C17.6,6.3,23,4,28.8,2.5c4.1-1.1,8.3-1.8,12.6-2.2c3.9-0.3,7.7-0.4,11.6-0.1
			C60,0.6,67,2,73.7,4.6C78.5,6.5,83,9,87,12.4c3.1,2.7,5.6,5.7,7.2,9.5c2.7,6.5,2,12.7-1.7,18.5c-2.2,3.5-5.2,6.2-8.5,8.6
			c-4.6,3.2-9.6,5.4-15,7.1c-3.6,1.1-7.2,1.8-10.9,2.3C54.7,58.8,51.3,59,46.9,59 M47.9,53.4c3.2,0,6.3-0.2,9.5-0.5
			c4.2-0.5,8.3-1.3,12.4-2.5c4.7-1.4,9.2-3.3,13.3-6c2.6-1.8,5-3.9,6.9-6.5c3.6-5.2,3.7-11.1,0.2-16.3c-1.4-2.1-3.2-3.9-5.2-5.5
			c-3.3-2.6-7-4.5-10.9-6c-7.7-2.9-15.7-4.2-24-4.5c-5.3-0.1-10.6,0.2-15.8,1.1c-4.5,0.8-9,2-13.2,3.7c-3.7,1.5-7.2,3.4-10.4,5.9
			c-2.3,1.8-4.2,3.9-5.6,6.5c-1.4,2.7-2,5.5-1.6,8.5c0.4,2.5,1.4,4.7,2.8,6.7c1.9,2.7,4.4,4.7,7.1,6.5c4.1,2.7,8.5,4.5,13.2,5.9
			C33.5,52.5,40.6,53.4,47.9,53.4">
   </path>
   <path class="st0" d="M33,29.5c0.5,0.4,0.9,0.8,1.3,1.2c0.1,0.1,0.2,0.3,0.2,0.5c0,2.3,0,4.5,0,6.8c0,0.2-0.1,0.4-0.2,0.4
			c-0.9,0.6-1.8,1.3-2.8,1.9c-0.1,0.1-0.3,0.1-0.4,0.1c-3.4,0-6.8,0-10.2,0c-0.1,0-0.1,0-0.2,0v-5.3h8.3c0-0.2,0-0.4,0-0.6
			c0-1,0-2,0-2.9c0-0.2,0-0.3-0.3-0.3c-3,0-6.1,0-9.1,0c0,0-0.1,0-0.2,0v9.2h-5.6V18.6h0.4c5.7,0,11.4,0,17.1,0
			c0.3,0,0.4,0.1,0.6,0.3c0.8,1,1.7,1.9,2.5,2.9c0.1,0.1,0.2,0.3,0.2,0.5c0,1.9,0,3.8,0,5.7c0,0.2-0.1,0.4-0.2,0.5
			C33.9,28.8,33.5,29.1,33,29.5 M28.8,23.9h-9.5v3.9h9.5V23.9z">
   </path>
   <path class="st0" d="M67.9,24v16.4H62V18.6h0.4c5.4,0,10.7,0,16.1,0c0.3,0,0.4,0.1,0.6,0.3c1,1.1,1.9,2.3,2.9,3.4
			c0.1,0.1,0.2,0.3,0.2,0.5c0,5.8,0,11.6,0,17.4c0,0.1,0,0.2,0,0.3H69.2v-5.4h7c0-0.2,0-0.3,0-0.4c0-2.8,0-5.6,0-8.3
			c0-0.2-0.1-0.4-0.2-0.6c-0.4-0.5-0.9-1-1.3-1.5c-0.1-0.1-0.3-0.2-0.4-0.2c-2,0-4.1,0-6.1,0C68.1,24,68,24,67.9,24">
   </path>
   <path class="st0" d="M53.1,18.6h6.6V19c0,3.3,0,6.7,0,10c0,0.3-0.1,0.4-0.3,0.6c-0.6,0.6-1.2,1.2-1.9,1.7
			c-0.1,0.1-0.4,0.2-0.5,0.2c-1.4,0-2.8,0-4.2,0c-0.4,0-0.5,0.1-0.5,0.5c0,2.6,0,5.3,0,7.9v0.5h-6.5V26.3h0.4c1.8,0,3.6,0,5.5,0
			c0.3,0,0.5-0.1,0.8-0.3c0.5-0.4,0.7-0.8,0.7-1.5c0-1.8,0-3.7,0-5.5V18.6z">
   </path>
   <path class="st0" d="M44.4,31.6c-0.5,0-1,0-1.4,0c-1.2,0-2.4,0-3.5,0c-0.2,0-0.3-0.1-0.5-0.2c-0.7-0.6-1.3-1.2-2-1.8
			c-0.1-0.1-0.2-0.3-0.2-0.4c0-3.5,0-6.9,0-10.4c0,0,0-0.1,0-0.1h6.6V19c0,2,0,4,0,6c0,0.3,0.1,0.5,0.3,0.7c0.5,0.4,0.7,0.9,0.7,1.5
			c-0.1,1.3,0,2.6,0,3.9V31.6z">
   </path>
  </g>
 </g>
</svg>