<svg version="1.1" id="Layer_1" xmlns="http://www.w3.org/2000/svg" xmlns:xlink="http://www.w3.org/1999/xlink" x="0px" y="0px" viewBox="0 0 48 47.6" style="enable-background:new 0 0 48 47.6;" xml:space="preserve">
 <style type="text/css">
  .st0{fill:#037AB8;}
 </style>
 <g>
  <g>
   <path class="st0" d="M34.1,39.3c1.3-1.3,1.3-3.4,0-4.6L33,33.6c-1.3-1.3-3.4-1.3-4.6,0L21,41c-1.3,1.3-1.3,3.4,0,4.6l1.1,1.1
			c1.3,1.3,3.4,1.3,4.6,0L34.1,39.3z M27.4,32.6c1.3-1.3,1.3-3.4,0-4.6l-1.1-1.1c-1.3-1.3-3.3-1.3-4.6,0l-7.4,7.4
			c-1.3,1.3-1.3,3.3,0,4.6l1.1,1.1c1.3,1.3,3.3,1.3,4.6,0L27.4,32.6z M34,13.3c1.3-1.3,1.3-3.3,0-4.6L33,7.6c-1.3-1.3-3.3-1.3-4.6,0
			L21,15c-1.3,1.3-1.3,3.4,0,4.6l1.1,1.1c1.3,1.3,3.4,1.3,4.6,0L34,13.3z M27.4,6.7c1.3-1.3,1.3-3.4,0-4.6L26.3,1
			C25-0.3,23-0.3,21.7,1l-7.4,7.4c-1.3,1.3-1.3,3.4,0,4.6l1.1,1.1c1.3,1.3,3.3,1.3,4.6,0L27.4,6.7z M39.7,14c-1.3-1.3-3.3-1.3-4.6,0
			L34,15.1c-1.3,1.3-1.3,3.3,0,4.6l7.4,7.4c1.3,1.3,3.4,1.3,4.6,0l1.1-1.1c1.3-1.3,1.3-3.3,0-4.6L39.7,14z M33,20.6
			c-1.3-1.3-3.3-1.3-4.6,0l-1.1,1.1c-1.3,1.3-1.3,3.4,0,4.6l7.4,7.4c1.3,1.3,3.4,1.3,4.6,0l1.1-1.1c1.3-1.3,1.3-3.4,0-4.6L33,20.6z
			 M13.3,14.1c-1.3-1.3-3.3-1.3-4.6,0l-1.1,1.1c-1.3,1.3-1.3,3.4,0,4.6l7.4,7.4c1.3,1.3,3.4,1.3,4.6,0l1.1-1.1
			c1.3-1.3,1.3-3.4,0-4.6L13.3,14.1z M14,28.2c1.3,1.3,1.3,3.3,0,4.6L13,33.9c-1.3,1.3-3.3,1.3-4.6,0L1,26.5c-1.3-1.3-1.3-3.4,0-4.6
			L2,20.8c1.3-1.3,3.3-1.3,4.6,0L14,28.2L14,28.2z M14,28.2">
   </path>
  </g>
 </g>
</svg>