<?xml version="1.0" encoding="UTF-8" standalone="no"?>
<!-- Created with Inkscape (http://www.inkscape.org/) -->

<svg
   width="557.85547mm"
   height="302.92374mm"
   viewBox="0 0 557.85547 302.92373"
   version="1.1"
   id="svg5"
   xml:space="preserve"
   sodipodi:docname="New_Balance_Logo_1972_symbol.svg"
   inkscape:version="1.4.2 (f4327f4, 2025-05-13)"
   xmlns:inkscape="http://www.inkscape.org/namespaces/inkscape"
   xmlns:sodipodi="http://sodipodi.sourceforge.net/DTD/sodipodi-0.dtd"
   xmlns="http://www.w3.org/2000/svg"
   xmlns:svg="http://www.w3.org/2000/svg"><sodipodi:namedview
     id="namedview1"
     pagecolor="#ffffff"
     bordercolor="#000000"
     borderopacity="0.25"
     inkscape:showpageshadow="2"
     inkscape:pageopacity="0.0"
     inkscape:pagecheckerboard="0"
     inkscape:deskcolor="#d1d1d1"
     inkscape:document-units="mm"
     inkscape:zoom="0.13139649"
     inkscape:cx="943.70865"
     inkscape:cy="582.20735"
     inkscape:window-width="1920"
     inkscape:window-height="1111"
     inkscape:window-x="-9"
     inkscape:window-y="-9"
     inkscape:window-maximized="1"
     inkscape:current-layer="layer1" /><defs
     id="defs2" /><g
     id="layer1"
     transform="translate(-396.01999,75.064512)"><path
       id="path14"
       style="fill:#231f20;fill-opacity:1;fill-rule:nonzero;stroke:none;stroke-width:0.128004"
       d="m 560.30212,130.00752 -111.21791,3.96046 105.60237,5.86644 z"
       inkscape:export-filename="New_Balance_Logo_1972_symbol.png"
       inkscape:export-xdpi="466.24261"
       inkscape:export-ydpi="466.24261" /><path
       id="path16"
       style="fill:#231f20;fill-opacity:1;fill-rule:nonzero;stroke:none;stroke-width:0.128004"
       d="m 546.99992,153.37729 -111.48289,3.96685 106.00172,5.88821 z" /><path
       id="path18"
       style="fill:#231f20;fill-opacity:1;fill-rule:nonzero;stroke:none;stroke-width:0.128004"
       d="m 533.69769,176.94674 -111.34719,3.90669 105.86733,5.88181 z" /><path
       id="path20"
       style="fill:#231f20;fill-opacity:1;fill-rule:nonzero;stroke:none;stroke-width:0.128004"
       d="m 520.6681,200.38819 -111.48285,3.97581 105.74189,5.87413 z" /><path
       id="path22"
       style="fill:#231f20;fill-opacity:1;fill-rule:nonzero;stroke:none;stroke-width:0.128004"
       d="m 656.95186,12.039929 -141.96075,5.051058 142.35883,7.909392 z" /><path
       id="path24"
       style="fill:#231f20;fill-opacity:1;fill-rule:nonzero;stroke:none;stroke-width:0.128004"
       d="M 656.04557,-11.159588 528.52375,-6.6871157 656.44881,0.64881887 Z" /><path
       id="path26"
       style="fill:#231f20;fill-opacity:1;fill-rule:nonzero;stroke:none;stroke-width:0.128004"
       d="m 655.14187,-33.530921 -113.62054,3.735171 114.15944,6.342618 z" /><path
       id="path28"
       style="fill:#231f20;fill-opacity:1;fill-rule:nonzero;stroke:none;stroke-width:0.128004"
       d="m 654.37129,-56.501314 -99.58616,3.329394 99.98554,5.904844 z" /><path
       id="path30"
       style="fill:#231f20;fill-opacity:1;fill-rule:nonzero;stroke:none;stroke-width:0.128004"
       d="m 653.73126,-75.064512 h -86.6193 l 86.74985,4.599196 z" /><path
       id="path32"
       style="fill:#231f20;fill-opacity:1;fill-rule:nonzero;stroke:none;stroke-width:0.128004"
       d="m 507.23278,223.8322 -111.21279,4.02701 h 108.94199 z" /><path
       id="path34"
       style="fill:#231f20;fill-opacity:1;fill-rule:nonzero;stroke:none;stroke-width:0.128004"
       d="m 861.42482,15.608694 c -2.13895,8.020758 -18.17919,28.338899 -38.49732,28.338899 h -49.19083 l 31.5467,-55.607681 h 25.12985 c 32.08044,1.068839 33.15055,19.2480245 31.0116,27.268782 z M 775.61836,157.84336 h -66.30117 l 37.42848,-66.301166 h 49.19083 c 50.79598,0 26.19992,66.301166 -20.31814,66.301166 z M 884.13665,-74.318248 H 723.86359 l -4.54415,8.045079 80.20246,4.252304 c 0.93571,0 0.93571,1.337647 -0.40066,1.337647 l -84.47908,2.825059 -8.15387,14.257131 79.6661,4.705442 c 1.07011,0.134398 0.80258,1.605177 -0.13316,1.605177 l -84.61349,2.780255 -7.88633,13.652951 79.53297,4.418712 c 1.73829,0.134399 1.73829,1.603893 0,1.603893 l -84.47905,2.963304 -8.02078,14.278891 79.26803,4.5467177 c 1.73702,0.1331286 1.60262,1.7370218 0,1.7370218 l -84.47909,3.0055425 -8.15644,14.104808 79.40115,4.411031 c 1.20324,0.134399 1.33636,1.603893 -0.26742,1.603893 l -243.41575,8.155164 230.98395,12.832441 c 1.47077,0 1.33764,1.870147 -0.26633,1.870147 L 489.80625,63.3633 720.7902,76.195744 c 1.06884,0 1.33637,1.738299 -0.26742,1.738299 L 476.30445,86.756109 707.28841,99.58855 c 0.93574,0.133129 1.87145,1.87142 -0.13317,2.00455 l -243.81644,8.68894 230.98399,12.83244 c 0.66818,0.13313 1.33764,1.87142 -0.26742,1.87142 l -122.70761,4.37008 0.40193,11.07622 109.3401,6.07509 c 0.80131,0.1344 1.20324,1.7383 -0.26742,1.7383 l -108.67192,3.86573 0.5274,12.38187 94.91141,5.2725 c 0.93444,0.13441 1.33637,2.00455 -0.26741,2.00455 l -94.1063,3.30251 0.40581,13.59279 80.86807,4.49296 c 0.9344,0.13312 1.20193,1.87142 -0.40196,1.87142 l -80.06803,2.8545 0.53248,14.95348 66.83753,3.7134 c 0.93571,0.13313 0.93571,1.73702 -0.40065,1.73702 l -66.16805,2.39625 0.26742,6.42582 H 790.8345 c 57.21029,0 108.54133,-41.70512 118.16469,-74.8557 9.62467,-33.15059 9.62467,-63.092099 -36.35837,-78.063495 25.66491,-5.881802 70.30515,-34.832563 79.13362,-74.85570134 C 959.79518,-37.024162 946.42771,-74.183842 884.13691,-74.318248" /></g></svg>
