<svg version="1.1" id="Layer_1" xmlns="http://www.w3.org/2000/svg" xmlns:xlink="http://www.w3.org/1999/xlink" x="0px" y="0px" viewBox="0 0 428.6 79.6" style="enable-background:new 0 0 428.6 79.6;" xml:space="preserve">
 <g>
  <g>
   <g>
    <path d="M428.6,10.5c0,3.5-2.8,6.3-6.4,6.3c-3.6,0-6.4-2.8-6.4-6.3c0-3.4,2.8-6.2,6.4-6.2C425.9,4.3,428.6,7.1,428.6,10.5z
				 M417.5,10.5c0,2.8,2,5,4.8,5c2.7,0,4.7-2.2,4.7-4.9c0-2.8-2-5-4.8-5C419.5,5.6,417.5,7.8,417.5,10.5z M421.3,13.8h-1.4V7.6
				c0.6-0.1,1.4-0.2,2.4-0.2c1.2,0,1.7,0.2,2.2,0.5c0.3,0.3,0.6,0.8,0.6,1.4c0,0.7-0.5,1.2-1.3,1.4v0.1c0.6,0.2,0.9,0.7,1.1,1.5
				c0.2,0.9,0.3,1.3,0.5,1.6h-1.6c-0.2-0.2-0.3-0.8-0.5-1.5c-0.1-0.7-0.5-1-1.3-1h-0.7V13.8z M421.3,10.3h0.7c0.8,0,1.4-0.3,1.4-0.9
				c0-0.6-0.4-0.9-1.3-0.9c-0.4,0-0.6,0-0.8,0.1V10.3z">
    </path>
   </g>
  </g>
  <g>
   <path d="M162.9,46.7c0,3.5-0.9,6.9-5.5,6.9s-5.8-4.3-5.8-8.1c0-4.6,3.5-8.1,8.4-8.1h2.3c0.6,0,0.6,0.6,0.6,0.6V46.7z M183.1,56.2
			h-2c-0.6,0-0.3-0.9-0.3-0.9V30c0-11.2-7.2-15.9-18.2-15.9c-3.7,0-7.5,0.6-11.2,2c0,0-0.9,0.6-0.3-0.6c0.3-0.6,0.3-1.2,0.3-1.2
			s0.3-0.6-0.3-0.9c-0.6,0-4.3-1.2-4.9-1.4c-0.6-0.3-0.6,0.3-0.6,0.3s-5.5,13.8-5.8,14.4c-0.3,0.6,0,0.6,0,0.6s4.9,1.7,5.5,1.7
			c0.3,0.3,0.6,0,0.6,0c2.6-3.2,5.2-5.2,10.7-5.2c4.3,0,6.3,1.7,6.3,5.5v1.4c0,0.6-0.3,0.6-0.3,0.6l-13,0.3
			c-8.7,0-15.9,6.3-15.9,17.3c0,8.9,6.6,14.4,15.6,14.4c5.2,0,9.2-2.3,13.3-5.2c0,0,0.6-1.2,0.9,0c0,0.9,0.3,2,0.6,3.2
			c0.3,0.6,0.6,0.6,0.6,0.6h18.5c0,0,0.9,0.3,0.9-0.6v-4.6C183.9,56.8,183.9,56.2,183.1,56.2">
   </path>
   <path d="M131.5,53.3c0-0.6-0.6,0-0.6,0c-1.2,0.6-1.4,0.6-2.9,0.6c-1.4,0-4-0.6-4-3.7V23.4c0,0,0-0.3,0.6-0.3h6.3
			c0,0,0.3,0,0.6-0.6c0-0.6,1.2-6.3,1.2-6.3s0.3-0.6-0.3-0.6h-7.8c0,0-0.6,0.3-0.6-0.3v-3.5c0-2,0.3-4.6,0.6-6.9
			c0,0,0.3-0.3-0.3-0.6c-0.6,0-4.3-0.9-4.9-0.9c-0.6,0-0.6,0.3-0.6,0.3c-3.2,6.9-9.5,11.8-17,13.8c0,0-0.3,0.3-0.3,0.6v4.3
			c0,0.6,0.3,0.6,0.3,0.6h4c0.6,0,0.6,0.3,0.6,0.3V51c0,8.1,3.2,12.4,12.1,12.4c8.1,0,8.6-0.3,14.7-4.6c0,0,0.6-0.3,0.3-0.6
			C133.2,57.7,131.7,53.9,131.5,53.3">
   </path>
   <path d="M82.4,38.1v8.6c0,3.5-0.9,6.9-5.2,6.9c-4.9,0-6.1-4.3-6.1-8.1c0-4.6,3.7-8.1,8.4-8.1h2.6C82.7,37.5,82.4,38.1,82.4,38.1
			 M102.9,56.2h-2.3c-0.3,0-0.3-0.9-0.3-0.9V30c0-11.2-7.2-15.9-18.2-15.9c-3.7,0-7.5,0.6-11.2,2c0,0-0.6,0.6-0.3-0.6
			c0.3-0.6,0.6-1.2,0.6-1.2s0.3-0.6-0.3-0.9c-0.9,0-4.3-1.2-5.2-1.4c-0.3-0.3-0.3,0.3-0.3,0.3s-5.8,13.8-6.1,14.4
			c-0.3,0.6,0.3,0.6,0.3,0.6s4.6,1.7,5.2,2c0.6,0,0.6-0.3,0.6-0.3c2.6-3.2,5.2-5.2,10.7-5.2c4.3,0,6.3,1.7,6.3,5.5v1.4v0.6L69.2,32
			c-8.7,0-15.6,6.1-15.6,17c0,8.9,6.6,14.4,15.3,14.4c5.2,0,9.5-2.3,13.3-5.2c0,0,0.6-1.2,0.9,0c0,0.9,0.6,2,0.9,3.2
			c0,0.6,0.3,0.6,0.3,0.6h18.4c0,0,0.9,0.3,0.9-0.6v-4.6C103.5,56.8,103.5,56.2,102.9,56.2">
   </path>
   <path d="M356.3,14.1c4.9,0,12.7-2.3,12.7-8.1c0-4.9-4.6-6.1-8.7-6.1c-4.3,0-10.7,3.5-10.7,8.1C349.7,12.1,352.3,14.1,356.3,14.1">
   </path>
   <path d="M200.1,26.5c0-4.6,1.4-6.3,4.9-6.3c7.2,0,10.4,14.1,10.4,19.3c0,4.6-1.4,6.3-5.2,6.3C202.9,45.8,200.1,31.7,200.1,26.5
			 M207.6,64.3c0.3-0.3,0.6-0.3,0.6-0.3c3.2,2,5.8,3.5,5.8,7.8c0,2.3-1.4,3.5-3.7,3.5c-2.9,0-4-2.6-4-4.9
			C206.1,68.3,206.7,65.2,207.6,64.3 M231.2,32.9c0-11-9.2-13.8-9.2-15.9c0-1.2,0.6-2,1.7-2c2-0.3,2.3,0,3.2,0.6
			c0,0,0.3,0.6,0.6-0.3c0-0.3,1.7-7.2,2-7.5c0-0.9-0.6-0.6-0.6-0.6c-0.9-0.3-2-0.3-3.2-0.3c-5.2,0-6.9,1.4-8.1,4.9
			c0,0-0.9,2.3-0.9,3.2c-0.3,0.6-0.6,0.3-0.6,0.3c-2.6-0.3-5.5-1.2-10.4-1.2c-10.7,0-21.9,6.1-21.9,19.6c0,9.5,8.1,15,16.1,16.4
			c0,0,1.4,0.3,0,0.6c-2.3,0.9-7.5,3.8-13.3,4.6c0,0-0.6,0.3-0.3,0.9c0.3,0.3,1.7,4.3,2,4.9c0.3,0.6,0.9,0.6,0.9,0.6
			c2.6-0.6,10.4,0,11.8,0.3c1.2,0,0,0.3,0,0.3c-4,0.6-8.9,3.7-8.9,8.1c0,6,5.6,8.5,12.2,9.2h9.1c6.8-0.9,16.2-4.2,16.2-12.7
			c0-10.1-16.1-12.1-23.9-13c-1.2,0,0-0.3,0-0.3C217.7,50.7,231.2,47.6,231.2,32.9">
   </path>
   <path d="M27.4,56.2c-4.6,0-6.1-3.5-6.1-7.5V25.4c0-0.6,0.6-0.9,0.6-0.9l2.3-0.3c2.9,0,11.5,0.9,11.5,17.9
			C35.7,52.8,33.1,56.2,27.4,56.2 M33.4,14.1c-4.3,0-7.5,1.7-11.8,4.3c0,0-0.3,0.3-0.3-0.3v-3.5c0-0.6-0.6-0.3-0.6-0.3L0.6,19.6
			c0,0-0.6,0-0.6,0.6v0v0v0v0v0v0v0.1v0.1v0.1v0.1v0.1v0.1v0.1v0.1V21v0.1v0.1v0.1v0.1v0.1v0.1v0.1v0.1v0.1v0.1v0.1V22v0.1v0.1v0.1
			v0.1v0.1v0.1v0.1v0.1v0.1V23V23v0.1v0.1v0.1v0.1v0.1v0.1v0.1v0.1v0.1v0.1V24v0.1v0.1v0.1v0.1v0.1v0.1v0.1v0.1v0.1v0v0v0v0v0v0
			c0,0.6,0.6,0.6,0.6,0.6l2.3-0.6c0,0,0.6-0.3,0.6,0.3v45.3c0,0,0,0.6-0.6,0.6H0.6c0,0-0.6,0-0.6,0.6v0v0v0v0.1v0.1v0.1v0.1v0.1V72
			V72v0.1v0.1v0.1v0.1v0.1v0.1v0.1v0.1v0.1v0.1v0.1v0.1V73v0.1v0.1v0.1v0.1v0.1v0.1v0.1v0.1v0.1v0.1V74v0.1v0.1v0.1v0.1v0.1v0.1v0.1
			v0.1v0.1v0.1v0.1V75v0.1v0.1v0.1v0.1v0.1v0.1v0.1v0.1v0.1v0.1v0.1v0.1v0.1v0.1v0v0v0v0c0,0.6,0.9,0.6,0.9,0.6h26.2
			c0,0,0.6-0.3,0.6-0.6v-4.6c0-0.6-0.6-0.6-0.6-0.6h-5.2c-0.6,0-0.6-0.6-0.6-0.6V62c0-0.3,0.3-0.3,0.3-0.3c2.6,1.4,6.3,1.7,9.2,1.7
			c14.4,0,22.8-13.3,22.8-26.5C53.6,23.4,44.7,14.1,33.4,14.1">
   </path>
   <path d="M343.1,56.2h-2.6c-0.6,0-0.3-0.3-0.3-0.3V27.7c0-5.2-1.7-13.5-14.1-13.5c-6.6,0-11.5,3.7-16.4,7.5c0,0-0.3,0.6-0.3-0.3
			v-6.6c0-0.6-0.6-0.3-0.6-0.3l-20.5,5.5c0,0-0.3-0.3-0.3,0.3v4.9c0,0.6,0.3,0.3,0.3,0.3s1.7-0.6,2.6-0.9c0.6,0,0.3,0.6,0.3,0.6
			v30.8c0,0,0.3,0.3-0.3,0.3h-2.6c0,0-0.3,0-0.3,0.6v4.6c0,0.9,0.3,0.6,0.3,0.6h24.2c0,0,0.3,0,0.3-0.3v-4.9c0-0.6-0.3-0.6-0.3-0.6
			h-3.2c-0.3,0-0.3-0.3-0.3-0.3V29.7c0-0.3,0.3-0.6,0.3-0.6c2.3-2,4.6-3.5,7.8-3.5c2.6,0,5.2,1.2,5.2,4v26.2c0,0,0,0.3-0.3,0.3h-2.9
			c0,0-0.6,0-0.6,0.6v4.9c0,0.3,0.3,0.3,0.3,0.3h24.2c0,0,0.3,0.3,0.3-0.6v-4.6C343.3,56.2,343.1,56.2,343.1,56.2">
   </path>
   <path d="M400.4,46.7c0,3.5-0.9,6.9-5.5,6.9c-4.6,0-5.8-4.3-5.8-8.1c0-4.6,3.5-8.1,8.4-8.1h2.3c0.6,0,0.6,0.6,0.6,0.6V46.7z
			 M420.9,56.2h-2.3c-0.3,0-0.3-0.9-0.3-0.9V30c0-11.2-7.2-15.9-18.2-15.9c-3.7,0-7.5,0.6-11.2,2c0,0-0.9,0.6-0.3-0.6
			c0.3-0.6,0.6-1.2,0.6-1.2s0-0.6-0.6-0.9c-0.6,0-4.3-1.2-4.9-1.4c-0.6-0.3-0.6,0.3-0.6,0.3s-5.5,13.8-5.8,14.4
			c-0.3,0.6,0.3,0.6,0.3,0.6s4.6,1.7,5.2,1.7c0.3,0.3,0.6,0,0.6,0c2.6-3.2,5.2-5.2,10.7-5.2c4.3,0,6.3,1.7,6.3,5.5v1.4
			c0,0.6-0.3,0.6-0.3,0.6l-13,0.3c-8.7,0-15.9,6.3-15.9,17.3c0,8.9,6.6,14.4,15.6,14.4c5.2,0,9.2-2.3,13.3-5.2c0,0,0.6-1.2,0.9,0
			c0,0.9,0.3,2,0.6,3.2c0.3,0.6,0.6,0.6,0.6,0.6h18.5c0,0,0.9,0.3,0.9-0.6v-4.6C421.5,56.8,421.5,56.2,420.9,56.2">
   </path>
   <path d="M263.8,56.2c-9.8,0-12.7-17.3-12.7-24.2c0-3.5,0-10.7,6.3-10.7c10.1,0,13,17.3,13,24.2C270.4,50.7,269,56.2,263.8,56.2
			 M260.6,14.1c-15.6,0-27.4,9.5-27.4,24.5c0,15.6,11.8,24.8,27.4,24.8c15.6,0,27.7-9.2,27.7-24.8C288.3,23.6,276.2,14.1,260.6,14.1
			">
   </path>
   <path d="M371.3,56.8c0-0.6-0.6-0.6-0.6-0.6h-2.3c-0.6,0-0.3-0.3-0.3-0.3V14.7c0-0.6-0.6-0.3-0.6-0.3l-20.5,5.5c0,0-0.3,0-0.3,0.6
			v4.6c0,0.6,0.6,0.3,0.6,0.3s1.4-0.3,2.6-0.6c0.6,0,0.3,0.6,0.3,0.9v30.3c0,0,0.3,0.3-0.3,0.3h-2.9c0,0-0.6,0-0.6,0.6v4.9
			c0,0.6,0.6,0.3,0.6,0.3H371c0.6,0,0.3-0.6,0.3-0.6V56.8z">
   </path>
  </g>
 </g>
</svg>