<svg id="Layer_1" data-name="Layer 1" xmlns="http://www.w3.org/2000/svg" xmlns:xlink="http://www.w3.org/1999/xlink" viewBox="0 0 1300 550">
 <defs>
  <style>
   .cls-1{fill:none;}.cls-2{clip-path:url(#clip-path);}.cls-3{fill:#eb0a1e;}.cls-4{fill:#fff;}
  </style>
  <clipPath id="clip-path">
   <rect class="cls-1" width="1300" height="550">
   </rect>
  </clipPath>
 </defs>
 <g class="cls-2">
  <rect class="cls-3" x="462.5" y="87.5" width="375" height="375.001">
  </rect>
  <path class="cls-4" d="M712.538,193.514c-17.4-5.595-39.063-8.9-62.53-8.9s-45.134,3.306-62.539,8.9c-46.289,14.881-78.094,45.785-78.094,81.5,0,50.241,62.959,90.979,140.633,90.979,77.655,0,140.617-40.738,140.617-90.979,0-35.713-31.806-66.607-78.087-81.5m-62.53,133.359c-11.592,0-21.057-22.788-21.612-51.424,6.97.627,14.2.963,21.612.963s14.631-.336,21.609-.963c-.56,28.636-10.022,51.424-21.609,51.424M629.856,253.03c3.16-20.1,10.987-34.338,20.152-34.338s16.981,14.238,20.138,34.338c-6.439.582-13.184.9-20.138.9s-13.7-.322-20.152-.9m52.606-1.516c-4.7-31.549-17.456-54.165-32.454-54.165s-27.762,22.616-32.464,54.165c-28.566-4.46-48.533-14.609-48.533-26.432,0-15.932,36.265-28.848,81-28.848S731,209.15,731,225.082c0,11.823-19.967,21.972-48.535,26.432M529.9,271.681c0-15.4,5.927-29.836,16.27-42.253a19.366,19.366,0,0,0-.181,2.6c0,19.374,29.1,35.843,69.677,41.9-.032,1.463-.056,2.929-.056,4.411,0,36.024,9.992,66.537,23.807,77.057C578.039,351.645,529.9,315.605,529.9,271.681M660.6,355.4c13.808-10.52,23.8-41.031,23.8-77.057,0-1.482-.016-2.948-.049-4.411,40.566-6.055,69.672-22.524,69.672-41.9a19.209,19.209,0,0,0-.187-2.6c10.341,12.417,16.271,26.851,16.271,42.253,0,43.924-48.141,79.964-109.5,83.717">
  </path>
 </g>
</svg>